<svg width="960" height="960" viewBox="0 0 960 960" fill="none" xmlns="http://www.w3.org/2000/svg">
<g clip-path="url(#clip0_174_28972)">
<path fill-rule="evenodd" clip-rule="evenodd" d="M569.854 298.691L569.416 298.36C556.102 284.808 539.133 275.422 520.578 271.347L518.504 271.647C519.629 273.003 520.675 274.424 521.636 275.902C528.231 286.078 530.497 298.467 531.32 310.567C531.622 315.012 531.749 319.472 531.875 323.931C532.092 331.611 532.31 339.287 533.426 346.879L533.533 347.232C537.819 345.885 542.544 344.623 547.654 343.448L548.154 343.576C552.247 327.289 559.632 312.014 569.854 298.691ZM534.317 282.892C533.479 282.607 532.568 283.055 532.283 283.894C531.997 284.732 532.446 285.643 533.284 285.928C541.957 288.879 549.57 294.314 555.179 301.558C555.721 302.258 556.728 302.386 557.428 301.844C558.129 301.302 558.257 300.295 557.715 299.594C551.721 291.854 543.585 286.046 534.317 282.892Z" fill="url(#paint0_linear_174_28972)"/>
<path d="M537.22 393.623H537.12C537.13 392.896 537.141 392.18 537.152 391.453L537.323 390.94C563.202 398.423 601.886 403.18 645.114 403.18C655.707 403.18 666.033 402.891 675.953 402.346L675.963 402.546C675.269 414.764 674.563 427.121 670.373 438.868C666.183 450.615 658.123 461.904 645.499 468.668C627.658 478.235 603.511 477.155 583.971 470.058C564.431 462.961 542.255 437.471 537.22 393.623Z" fill="url(#paint1_linear_174_28972)"/>
<path d="M433.554 213.145C436.215 211.243 439.451 210.321 442.714 210.536C446.156 210.636 449.514 211.53 452.901 212.183C466.071 214.695 479.674 213.613 492.281 209.051L493.399 209C493.645 214.772 493.898 220.541 494.158 226.306C494.65 237.327 495.045 248.796 491.849 259.206C491.166 261.446 490.301 263.626 489.263 265.726C489.252 265.748 489.241 265.758 489.241 265.78C486.953 270.336 483.793 274.4 479.941 277.741C474.322 282.706 467.367 285.91 459.941 286.955C454.995 287.571 449.976 287.185 445.182 285.818C440.389 284.452 435.919 282.134 432.041 279.003C430.011 277.364 428.178 275.495 426.578 273.433C425.857 272.498 425.183 271.528 424.558 270.526C416.37 257.496 416.969 240.446 417.984 224.84C418.862 211.275 419.742 197.718 420.624 184.167C420.849 180.682 421.124 177.067 421.672 173.552C422.772 166.316 424.986 159.389 430.159 154.418C441.586 143.43 460.759 147.759 475.065 140.928C477.737 139.646 480.228 137.978 482.865 136.653C484.061 136.041 485.305 135.529 486.585 135.124C490.701 133.852 495.896 134.493 498.247 138.106C498.787 139.072 499.052 140.168 499.012 141.275C498.973 142.381 498.631 143.455 498.023 144.381C496.509 145.349 494.873 146.115 493.159 146.658C495.159 147.258 496.959 146.123 498.023 144.381C500.374 142.949 502.623 141.26 505.088 140.052C509.182 138.042 514.976 137.818 517.509 141.613C519.84 145.113 517.851 150.164 514.399 152.569C510.947 154.974 506.542 155.445 502.352 155.829C498.589 156.182 494.837 156.524 491.075 156.877C481.027 157.81 470.979 158.744 460.931 159.677C452.636 160.447 443.475 161.644 438.066 167.977C434.475 172.168 433.266 177.877 432.615 183.359C431.48 193.003 431.677 202.758 433.203 212.349L433.554 213.145ZM459.315 236.928C462.928 235.09 465.579 231.128 465.151 227.094C463.976 215.999 444.745 212.257 438.407 220.659C436.141 223.674 436.386 228.099 438.385 231.295C440.548 234.426 443.773 236.666 447.461 237.602C451.357 238.874 455.589 238.634 459.315 236.928V236.928Z" fill="#171717"/>
<path d="M401.305 275.26L400.931 275.36C400.888 275.24 400.838 275.122 400.781 275.008L401.658 274.908C409.05 272.77 416.634 271.361 424.3 270.7L424.567 270.529C425.191 271.531 425.866 272.501 426.587 273.436C428.186 275.498 430.02 277.367 432.05 279.006L431.686 279.454C431.2 282.162 431.268 284.94 431.885 287.622C432.502 290.303 433.657 292.831 435.278 295.054C438.563 299.497 443.096 302.862 448.3 304.72C456.724 307.895 466.8 307.414 474.072 302.101C481.344 296.788 484.826 286.27 480.881 278.178L479.951 277.74C483.803 274.399 486.963 270.335 489.251 265.779L489.732 266.025C496.99 265.041 503.906 270.739 506.482 277.591C509.058 284.443 508.193 292.107 506.589 299.258C504.751 307.458 501.939 315.558 497.151 322.464C492.363 329.37 485.435 335.014 477.311 337.13C467.595 339.653 457.226 336.948 448.161 332.662C436.626 327.106 426.451 319.086 418.355 309.168C410.258 299.249 404.438 287.674 401.305 275.26Z" fill="url(#paint2_linear_174_28972)"/>
<path d="M480.876 278.178C484.821 286.27 481.325 296.789 474.067 302.101C466.809 307.413 456.719 307.9 448.3 304.72C443.096 302.859 438.563 299.492 435.281 295.046C433.659 292.823 432.505 290.295 431.887 287.614C431.27 284.932 431.202 282.154 431.689 279.446L432.053 278.998C435.931 282.129 440.4 284.447 445.193 285.813C449.987 287.18 455.007 287.566 459.953 286.95C467.378 285.905 474.333 282.701 479.953 277.736L480.876 278.178Z" fill="url(#paint3_linear_174_28972)"/>
<path d="M374.762 560.869C368.541 569.623 361.027 577.384 354.046 585.529C354.008 585.559 353.974 585.595 353.946 585.636C353.722 573.589 353.497 561.446 355.753 549.613C358.019 537.713 362.989 525.989 371.753 517.63L371.913 517.502C375.355 521.81 379.588 525.602 381.747 530.65C386.018 540.6 381.026 552.05 374.762 560.869Z" fill="#171717"/>
<path d="M289.206 361.758C311.064 322.106 347.403 292.439 390.626 278.958L391.086 279.001C391.045 279.474 391.042 279.949 391.075 280.422C391.268 283.244 392.497 285.884 393.651 288.482C405.795 315.793 410.605 346.012 410.145 375.899C409.685 405.947 404.052 435.653 398.445 465.177C395.987 478.1 393.529 491.027 391.07 503.958C390.892 505.346 390.445 506.685 389.755 507.902C387.307 511.536 381.214 510.467 378.555 507.002C376.227 503.779 374.846 499.969 374.568 496.002C374.526 495.489 374.493 494.976 374.483 494.462L374.216 494.441C377.091 447.741 379.977 402.085 382.863 355.373C361.923 361.173 344.446 378.879 335.178 399.073C323.901 423.626 322.426 451.397 321.571 478.409C321.314 486.426 320.671 495.416 314.665 500.728C313.128 502.063 311.37 503.119 309.47 503.85C306.222 505.022 302.857 505.843 299.433 506.298C294.291 507.142 288.633 507.89 284.008 505.859C283.265 505.535 282.556 505.138 281.892 504.673C277.776 501.808 275.948 496.688 274.592 491.856C262.499 448.228 267.735 401.615 289.206 361.758V361.758Z" fill="url(#paint4_linear_174_28972)"/>
<path d="M203.21 692.871C204.181 692.204 205.187 691.591 206.225 691.033C217.737 684.844 231.59 686.094 244.663 685.72C279.105 684.611 312.018 671.234 337.468 648L337.874 647.755C345.934 661.405 363.037 667.455 378.974 669.197C395.564 671.025 412.699 669.597 428.626 674.574C432.504 675.843 436.308 677.328 440.021 679.021C392.25 745.647 309.899 785.968 227.976 782.821C218.206 782.447 207.806 781.143 199.126 777.059C194.549 774.975 190.493 771.901 187.25 768.059C176.732 755.317 178.581 736.386 184.139 720.834C188 710.038 193.846 699.253 203.21 692.871Z" fill="#171717"/>
<path d="M482.854 167.907C478.688 167.274 474.444 167.353 470.305 168.142C469.056 168.237 467.892 168.81 467.055 169.742C466.307 170.821 466.467 172.265 466.66 173.569C468.26 184.302 469.867 195.041 471.48 205.786L461.753 206.299" stroke="#171717" stroke-width="3.207" stroke-linecap="round" stroke-linejoin="round"/>
<path d="M484.232 180.959C482.19 177.88 476.942 177.806 474.815 180.82" stroke="#171717" stroke-width="3.207" stroke-linecap="round" stroke-linejoin="round"/>
<path d="M454.089 182.947C453.442 182.006 452.548 181.261 451.505 180.796C450.463 180.33 449.312 180.16 448.179 180.306C447.047 180.452 445.977 180.907 445.086 181.622C444.195 182.337 443.519 183.283 443.132 184.358" stroke="#171717" stroke-width="3.207" stroke-linecap="round" stroke-linejoin="round"/>
<path d="M459.188 226.549C458.119 227.583 456.799 228.32 455.358 228.688C453.917 229.055 452.405 229.041 450.972 228.646C449.538 228.251 448.232 227.489 447.183 226.435C446.133 225.381 445.377 224.072 444.988 222.637" stroke="#171717" stroke-width="3.207" stroke-linecap="round" stroke-linejoin="round"/>
<path d="M498.032 144.38C500.383 142.948 502.632 141.259 505.097 140.051C509.191 138.041 514.985 137.817 517.518 141.612C519.849 145.112 517.86 150.163 514.408 152.568C510.956 154.973 506.551 155.444 502.361 155.828C498.598 156.181 494.846 156.523 491.084 156.876C481.036 157.809 470.988 158.742 460.94 159.676C452.645 160.446 443.484 161.643 438.075 167.976C434.484 172.167 433.275 177.876 432.624 183.358C431.489 193.002 431.686 202.757 433.212 212.348" stroke="#171717" stroke-width="3.207" stroke-linecap="round" stroke-linejoin="round"/>
<path d="M498.033 144.38C496.964 146.122 495.168 147.255 493.169 146.657C494.883 146.114 496.518 145.348 498.033 144.38V144.38Z" stroke="#171717" stroke-width="3.207" stroke-linecap="round" stroke-linejoin="round"/>
<path d="M491.116 157.175C491.876 174.449 492.637 191.724 493.399 209C493.645 214.772 493.898 220.541 494.158 226.306C494.65 237.327 495.045 248.796 491.849 259.206C491.166 261.446 490.301 263.626 489.263 265.726C489.252 265.748 489.241 265.758 489.241 265.78C486.953 270.336 483.793 274.4 479.941 277.741C474.322 282.706 467.367 285.91 459.941 286.955C454.995 287.571 449.976 287.185 445.182 285.818C440.389 284.452 435.919 282.134 432.041 279.003C430.011 277.364 428.178 275.495 426.578 273.433C425.857 272.498 425.183 271.528 424.558 270.526C416.37 257.496 416.969 240.446 417.984 224.84C418.862 211.275 419.742 197.718 420.624 184.167C420.849 180.682 421.124 177.067 421.672 173.552C422.772 166.316 424.986 159.389 430.159 154.418C441.586 143.43 460.759 147.759 475.065 140.928C477.737 139.646 480.228 137.978 482.865 136.653C484.061 136.041 485.305 135.529 486.585 135.124C490.701 133.852 495.896 134.493 498.247 138.106C498.787 139.072 499.052 140.168 499.012 141.275C498.973 142.381 498.631 143.455 498.023 144.381" stroke="#171717" stroke-width="3.207" stroke-linecap="round" stroke-linejoin="round"/>
<path d="M433.1 213.54C433.25 213.401 433.41 213.273 433.56 213.145C436.22 211.243 439.457 210.321 442.72 210.536C446.162 210.636 449.52 211.53 452.907 212.183C466.076 214.695 479.68 213.613 492.287 209.051" stroke="#171717" stroke-width="3.207" stroke-linecap="round" stroke-linejoin="round"/>
<path d="M438.407 220.659C436.141 223.674 436.386 228.099 438.385 231.295C440.548 234.425 443.773 236.666 447.461 237.602C451.357 238.874 455.589 238.633 459.315 236.928C462.928 235.09 465.579 231.128 465.151 227.094C463.976 216 444.745 212.257 438.407 220.659Z" stroke="#171717" stroke-width="3.207" stroke-linecap="round" stroke-linejoin="round"/>
<path d="M482.309 135.1C482.712 134.006 482.868 132.838 482.767 131.677C482.665 130.517 482.308 129.393 481.721 128.387C480.332 125.824 478.057 123.855 475.321 122.85C470.361 121.086 464.91 122.08 459.757 123.117C450.928 124.881 442.045 126.709 433.686 130.065C423.21 134.255 412.82 142.229 411.548 153.432C411.219 156.293 411.456 159.191 412.243 161.962C412.885 164.44 414.047 166.753 415.652 168.748C417.258 170.742 419.27 172.371 421.554 173.528" stroke="#171717" stroke-width="3.207" stroke-linecap="round" stroke-linejoin="round"/>
<path d="M481.817 128.335C485.505 123.135 489.225 117.835 491.363 111.835C493.501 105.835 493.843 98.88 490.85 93.246C486.25 84.556 473.501 81.531 465.484 87.228C462.491 89.355 460.257 92.37 457.542 94.85C454.827 97.33 451.288 99.371 447.654 98.815C443.354 98.153 440.471 94.208 436.933 91.686C428.969 85.978 416.398 88.5 411.233 96.827C407.866 102.257 407.513 109.291 403.548 114.304C399.133 119.904 391.533 121.53 384.895 124.104C375.734 127.643 367.386 133.768 362.33 142.169C357.274 150.57 355.809 161.369 359.63 170.411C363.451 179.453 372.885 186.156 382.687 185.643C395.739 184.969 406.321 174.013 411.645 162.073" stroke="#171717" stroke-width="3.207" stroke-linecap="round" stroke-linejoin="round"/>
<path d="M431.684 279.45C431.198 282.158 431.265 284.936 431.883 287.617C432.5 290.299 433.654 292.827 435.276 295.05C438.56 299.495 443.094 302.861 448.3 304.72C456.724 307.895 466.8 307.414 474.072 302.101C481.344 296.788 484.826 286.27 480.881 278.178" stroke="#171717" stroke-width="3.207" stroke-linecap="round" stroke-linejoin="round"/>
<path d="M401.09 276.105C401.066 275.85 401.013 275.598 400.93 275.356C400.887 275.236 400.837 275.118 400.78 275.004C400.16 273.964 399.172 273.195 398.012 272.851C396.851 272.506 395.603 272.611 394.516 273.144C393.505 273.76 392.662 274.617 392.063 275.639C391.464 276.661 391.128 277.816 391.085 279C391.044 279.472 391.041 279.947 391.074 280.421C391.267 283.243 392.496 285.883 393.65 288.481C405.794 315.792 410.604 346.011 410.144 375.898C409.684 405.946 404.051 435.652 398.444 465.176C395.986 478.099 393.528 491.026 391.069 503.957C390.891 505.344 390.445 506.684 389.754 507.901C387.306 511.535 381.213 510.466 378.554 507.001C376.226 503.777 374.845 499.967 374.567 496.001C374.525 495.488 374.492 494.975 374.482 494.461" stroke="#171717" stroke-width="3.207" stroke-linecap="round" stroke-linejoin="round"/>
<path d="M401.284 275.164C401.294 275.196 401.294 275.228 401.305 275.264C404.438 287.677 410.257 299.251 418.353 309.169C426.448 319.088 436.622 327.108 448.156 332.664C457.221 336.95 467.59 339.655 477.306 337.132C485.43 335.016 492.357 329.361 497.146 322.466C501.935 315.571 504.746 307.459 506.584 299.26C508.184 292.109 509.043 284.455 506.477 277.593C503.911 270.731 496.985 265.043 489.727 266.027" stroke="#171717" stroke-width="3.207" stroke-linecap="round" stroke-linejoin="round"/>
<path d="M492.313 259.355C502.628 258.339 511.907 263.716 518.502 271.647C519.628 273.003 520.674 274.424 521.634 275.902C528.234 286.078 530.495 298.467 531.318 310.567C532.141 322.667 531.66 334.875 533.424 346.879" stroke="#171717" stroke-width="3.207" stroke-linecap="round" stroke-linejoin="round"/>
<path d="M374.828 496C374.742 496 374.646 496.011 374.56 496.011C367.516 496.449 365.517 506.85 368.948 513.146C369.81 514.683 370.804 516.143 371.92 517.507C375.362 521.815 379.595 525.607 381.754 530.655C386.019 540.607 381.027 552.055 374.763 560.874C368.542 569.628 361.028 577.389 354.047 585.534C354.008 585.564 353.975 585.6 353.947 585.641C350.172 589.946 346.682 594.493 343.5 599.254C334.446 613.065 329.39 631.343 336.926 646.041C337.226 646.629 337.535 647.196 337.877 647.752C345.937 661.402 363.04 667.452 378.977 669.194C395.567 671.022 412.702 669.594 428.629 674.571C432.507 675.84 436.312 677.324 440.024 679.018C452.947 684.79 465.603 691.834 479.243 689.611C488.66 688.072 496.228 682.503 503.358 675.95C509.312 670.477 514.977 664.32 521.145 659.25C529.444 652.55 539.032 647.629 549.313 644.794C559.595 641.958 570.35 641.268 580.909 642.767C581.967 642.917 583.026 643.099 584.084 643.302C589.354 644.317 594.645 645.902 599.99 645.45C605.335 644.998 610.957 641.869 612.25 636.65C613.212 632.77 611.62 628.74 609.867 625.15C597.606 600.137 576.11 580.864 561.667 557.038C547.002 532.805 540.086 504.532 537.713 476.312C535.404 448.776 536.59 422.758 537.125 393.619C537.135 392.892 537.146 392.176 537.157 391.449" stroke="#171717" stroke-width="3.207" stroke-linecap="round" stroke-linejoin="round"/>
<path d="M337.467 648C312.02 671.234 279.108 684.612 244.667 685.723C231.594 686.097 217.741 684.847 206.229 691.036C205.192 691.594 204.186 692.207 203.214 692.874C193.85 699.256 188.003 710.041 184.144 720.838C178.586 736.39 176.737 755.321 187.255 768.063C190.499 771.905 194.555 774.979 199.131 777.063C207.811 781.147 218.211 782.451 227.981 782.825C309.904 785.968 392.255 745.647 440.026 679.025C440.047 678.993 440.079 678.95 440.101 678.918" stroke="#171717" stroke-width="3.207" stroke-linecap="round" stroke-linejoin="round"/>
<path d="M503.249 675.437C503.281 675.608 503.313 675.779 503.356 675.95C513.971 729.258 524.593 782.565 535.221 835.873C536.121 840.405 537.166 845.216 540.395 848.519C542.947 851 546.311 852.473 549.865 852.666C554.265 853.094 559.101 852.281 563.465 851.341C578.249 848.155 593.036 844.966 607.826 841.774C612.223 840.975 616.506 839.639 620.578 837.797C623.623 836.376 626.221 834.151 628.093 831.362C632.101 825.088 630.872 816.932 629.393 809.631C618.079 753.183 601.774 697.851 580.671 644.288" stroke="#171717" stroke-width="3.207" stroke-linecap="round" stroke-linejoin="round"/>
<path d="M170.212 690.37C164.987 691.314 160.045 693.434 155.76 696.57C146.503 703.486 142.024 714.913 137.973 725.72C132.949 739.156 127.922 752.592 122.891 766.029C119.32 775.575 115.697 785.429 116.007 795.617C116.317 805.805 121.522 816.536 131.007 820.277C135.332 821.94 140.08 822.158 144.539 820.897C153.155 818.663 161.339 812.068 167.425 805.097C176.65 794.514 185.277 781.719 198.852 778.117" stroke="#171717" stroke-width="3.207" stroke-linecap="round" stroke-linejoin="round"/>
<path d="M202.59 691.482C191.997 689.814 180.527 688.339 170.223 690.37" stroke="#171717" stroke-width="3.207" stroke-linecap="round" stroke-linejoin="round"/>
<path d="M549.854 853.03C550.121 865.728 550.385 878.423 550.646 891.116C550.656 891.704 550.667 892.302 550.688 892.911C550.859 897.882 551.447 903.056 554.697 906.733C558.139 910.633 563.664 911.789 568.784 912.733C602.231 918.869 636.993 924.962 669.841 916.186C676.597 914.38 683.364 911.857 688.602 907.218C693.84 902.579 697.314 895.459 696.062 888.576C695.748 886.875 695.178 885.232 694.374 883.701C690.974 877.17 683.685 872.681 676.974 868.95C659.123 859.041 641.268 849.128 623.409 839.212" stroke="#171717" stroke-width="3.207" stroke-linecap="round" stroke-linejoin="round"/>
<path d="M390.625 278.959C347.298 292.244 310.894 321.963 289.206 361.754C267.517 401.545 262.268 448.246 274.582 491.859C275.939 496.691 277.767 501.811 281.882 504.676C282.547 505.141 283.256 505.538 283.999 505.861C288.628 507.892 294.282 507.144 299.424 506.3C302.848 505.845 306.213 505.024 309.461 503.852C311.361 503.121 313.119 502.065 314.656 500.73C320.664 495.418 321.305 486.43 321.562 478.411C322.417 451.399 323.892 423.628 335.169 399.075C344.437 378.883 361.914 361.181 382.854 355.375C387.421 354.09 392.136 353.414 396.879 353.365" stroke="#171717" stroke-width="3.207" stroke-linecap="round" stroke-linejoin="round"/>
<path d="M382.866 355.174C382.866 355.238 382.855 355.313 382.855 355.374C379.969 402.086 377.083 447.74 374.208 494.442C374.197 494.688 374.175 494.934 374.165 495.18" stroke="#171717" stroke-width="3.207" stroke-linecap="round" stroke-linejoin="round"/>
<path d="M371.76 517.63C362.994 525.989 358.024 537.716 355.76 549.613C353.504 561.446 353.729 573.589 353.953 585.636V585.85L354.053 585.529L354.631 583.509" stroke="#171717" stroke-width="3.207" stroke-linecap="round" stroke-linejoin="round"/>
<path d="M520.577 271.348C539.133 275.422 556.102 284.808 569.416 298.36" stroke="#171717" stroke-width="3.207" stroke-linecap="round" stroke-linejoin="round"/>
<path d="M537.22 393.623C542.255 437.471 564.446 462.976 583.975 470.063C603.504 477.15 627.662 478.24 645.503 468.673C658.127 461.907 666.187 450.629 670.377 438.873C674.567 427.117 675.277 414.773 675.967 402.551" stroke="#171717" stroke-width="3" stroke-linecap="round" stroke-linejoin="round"/>
<path d="M295.705 550.7C296.862 557.805 298.407 564.842 300.334 571.779C301.253 575.05 303.369 579.016 306.726 578.492C309.858 578.011 311.098 574.046 311.055 570.882C310.863 555.596 306.833 541.005 303.818 526.927C308.842 544.532 313.877 579.743 320.59 578.973C326.458 576.718 317.939 542.273 312.038 523.848" stroke="#171717" stroke-width="3.207" stroke-linecap="round" stroke-linejoin="round"/>
<path d="M295.705 550.7C295.167 542.591 294.042 534.531 292.338 526.585C293.343 534.637 294.358 542.707 295.705 550.7Z" stroke="#171717" stroke-width="3.207" stroke-linecap="round" stroke-linejoin="round"/>
<path d="M283.38 506.866C283.947 532.713 283.947 552.071 288.105 576.988C288.458 579.073 289.762 581.488 291.878 581.52C294.348 581.563 295.342 578.399 295.534 575.941C296.216 567.544 296.273 559.108 295.705 550.703" stroke="#171717" stroke-width="3.207" stroke-linecap="round" stroke-linejoin="round"/>
<path d="M312.038 523.851C317.883 528.273 324.958 530.768 332.284 530.992C334.165 531.045 336.303 530.81 337.426 529.303C337.857 528.6 338.081 527.789 338.072 526.964C338.062 526.14 337.82 525.335 337.372 524.642C336.45 523.277 335.274 522.101 333.909 521.179C326.509 515.45 319.109 509.721 311.709 503.991" stroke="#171717" stroke-width="3.207" stroke-linecap="round" stroke-linejoin="round"/>
<path d="M401.658 274.908C409.05 272.77 416.634 271.361 424.3 270.7" stroke="#171717" stroke-width="3.207" stroke-linecap="round" stroke-linejoin="round"/>
<path d="M753.305 346.184C774.491 352.223 786.217 360.084 786.217 368.664C786.217 385.136 739.056 398.914 675.957 402.346C666.037 402.891 655.711 403.18 645.118 403.18C601.89 403.18 563.206 398.423 537.327 390.94C516.547 384.922 504.019 377.151 504.019 368.664C504.019 360.564 514.708 353.121 533.532 347.232C537.818 345.885 542.543 344.623 547.653 343.448" stroke="#171717" stroke-width="3.43" stroke-linecap="round" stroke-linejoin="round"/>
<path d="M686.8 253.988C690.899 254.935 694.93 256.153 698.868 257.634C716.099 264.111 731.374 276.265 740.375 292.32C749.461 308.568 751.705 327.446 752.614 346.22C752.806 350.132 752.935 354.055 753.063 357.936C753.191 362.158 753.213 366.754 750.636 370.1C748.059 373.446 743.603 374.622 739.466 375.509C700.818 383.758 661.164 386.254 621.787 382.917C602.048 381.254 582.461 378.124 563.187 373.553C557.522 372.206 550.05 370.923 546.95 365.301C543.658 359.336 546.416 350.774 547.88 344.681C547.966 344.307 548.062 343.943 548.158 343.581C552.251 327.294 559.636 312.019 569.858 298.696C571.419 296.665 573.044 294.677 574.743 292.753C592.929 272.205 617.487 258.357 644.481 253.427C645.047 253.327 645.624 253.235 646.191 253.138" stroke="#171717" stroke-width="3.43" stroke-linecap="round" stroke-linejoin="round"/>
<path d="M660.457 251.744C666.093 251.441 671.746 251.681 677.336 252.46" stroke="#171717" stroke-width="3.43" stroke-linecap="round" stroke-linejoin="round"/>
<path d="M170.223 690.37H170.212C149.464 716.313 136.306 747.9 130.149 780.556C128.716 788.113 127.669 795.97 129.529 803.431C131.389 810.892 136.776 817.931 144.269 819.631" stroke="#171717" stroke-width="3.207" stroke-linecap="round" stroke-linejoin="round"/>
<path d="M170.341 690.21C170.298 690.26 170.258 690.314 170.223 690.37" stroke="#171717" stroke-width="3.43" stroke-linecap="round" stroke-linejoin="round"/>
<path d="M551.351 892.89C571.161 897.176 591.233 900.147 611.436 901.784C625.653 902.927 640.041 903.408 654.118 901.11C668.195 898.812 682.06 893.585 692.942 884.36" stroke="#171717" stroke-width="3.43" stroke-linecap="round" stroke-linejoin="round"/>
<path d="M685.107 263.823C685.673 260.552 686.24 257.27 686.518 253.967C686.651 252.463 686.704 250.954 686.677 249.446C686.728 244.583 685.381 239.808 682.797 235.688C680.097 231.688 675.593 228.73 670.762 228.655C666.197 228.569 661.921 230.974 658.461 233.946C652.614 239.009 648.437 245.724 646.479 253.208C645.674 256.224 645.253 259.331 645.229 262.454" stroke="#171717" stroke-width="3.43" stroke-linecap="round" stroke-linejoin="round"/>
<path d="M676.694 263.224C677.094 259.932 678.073 256.724 678.18 253.424C678.191 253.103 678.191 252.783 678.18 252.451C678.08 249.426 677.058 246.316 674.631 244.584C673.272 243.719 671.696 243.255 670.085 243.246C668.474 243.236 666.893 243.681 665.524 244.53C662.944 246.186 660.995 248.658 659.987 251.553C659.914 251.709 659.849 251.87 659.794 252.034C658.821 255.099 658.207 258.266 657.967 261.473" stroke="#171717" stroke-width="3.43" stroke-linecap="round" stroke-linejoin="round"/>
<path d="M602.906 402.2C603.644 410.066 604.385 417.941 605.129 425.824" stroke="#171717" stroke-width="3.43" stroke-linecap="round" stroke-linejoin="round"/>
<path d="M426.053 356.399L430.077 376.52L447.18 361.932L426.053 356.399Z" stroke="#171717" stroke-width="3.207" stroke-linecap="round" stroke-linejoin="round"/>
<path d="M481.386 392.114H459.756L465.792 414.75L481.386 392.114Z" stroke="#171717" stroke-width="3.207" stroke-linecap="round" stroke-linejoin="round"/>
<path d="M501.507 434.871L519.113 455.998L495.471 466.059L501.507 434.871Z" stroke="#171717" stroke-width="3.207" stroke-linecap="round" stroke-linejoin="round"/>
<path d="M444.162 470.083L418.507 461.532V490.707L444.162 470.083Z" stroke="#171717" stroke-width="3.207" stroke-linecap="round" stroke-linejoin="round"/>
<path d="M462.271 521.895L492.955 520.386L475.349 542.519L462.271 521.895Z" stroke="#171717" stroke-width="3.207" stroke-linecap="round" stroke-linejoin="round"/>
<path d="M409.452 600.87L424.543 625.519L393.355 623.506L409.452 600.87Z" stroke="#171717" stroke-width="3.207" stroke-linecap="round" stroke-linejoin="round"/>
<path d="M523.64 605.397L524.646 574.21L548.288 590.81L523.64 605.397Z" stroke="#171717" stroke-width="3.207" stroke-linecap="round" stroke-linejoin="round"/>
<path d="M462.612 121.751L464.045 113.061" stroke="#171717" stroke-width="3.207" stroke-linecap="round" stroke-linejoin="round"/>
<path d="M439.252 128.111L436.183 118.696" stroke="#171717" stroke-width="3.207" stroke-linecap="round" stroke-linejoin="round"/>
<path d="M414.92 141.855L407.043 137.62" stroke="#171717" stroke-width="3.207" stroke-linecap="round" stroke-linejoin="round"/>
<path d="M313.183 232.273L312.183 216.089" stroke="#171717" stroke-width="3.207" stroke-linecap="round" stroke-linejoin="round"/>
<path d="M304.018 224.514L321.394 220.456" stroke="#171717" stroke-width="3.207" stroke-linecap="round" stroke-linejoin="round"/>
<path d="M582.91 245.875C585.201 240.598 587.955 235.536 591.14 230.747" stroke="#171717" stroke-width="3.207" stroke-linecap="round" stroke-linejoin="round"/>
<path d="M593.289 243.355C589.675 239.514 585.791 235.937 581.668 232.649" stroke="#171717" stroke-width="3.207" stroke-linecap="round" stroke-linejoin="round"/>
<path d="M782.555 105.931L778.1 89.814" stroke="#171717" stroke-width="3.207" stroke-linecap="round" stroke-linejoin="round"/>
<path d="M773.1 100.791C777.572 97.8826 782.334 95.4472 787.31 93.5239" stroke="#171717" stroke-width="3.207" stroke-linecap="round" stroke-linejoin="round"/>
<path d="M663.3 188.44C654.175 186.476 648.9 176.24 649.024 166.902C649.148 157.564 653.25 148.827 656.633 140.128C660.016 131.429 662.764 121.828 660.133 112.868C657 102.235 647.214 95.2389 638.651 88.1999C630.088 81.1609 621.551 71.6889 622.575 60.6519" stroke="#171717" stroke-width="3.207" stroke-linecap="round" stroke-linejoin="round"/>
<path d="M614.036 181.234C608.967 179.269 604.613 175.814 601.547 171.324C598.481 166.835 596.849 161.521 596.864 156.085C597.158 142.56 607.764 129.465 603.433 116.651C600.556 108.151 592.079 103.151 585.188 97.3988C577.002 90.4523 570.529 81.7111 566.272 71.855C562.014 61.9989 560.088 51.2936 560.643 40.5718" stroke="#171717" stroke-width="3.207" stroke-linecap="round" stroke-linejoin="round"/>
<path d="M569.66 193.1C559.06 186.415 553.893 172.194 557.739 160.264C558.969 156.45 561.007 152.878 561.668 148.927C562.944 141.306 558.946 133.901 555.088 127.206" stroke="#171717" stroke-width="3.207" stroke-linecap="round" stroke-linejoin="round"/>
<path d="M771.875 289.709L789.275 269.909" stroke="#171717" stroke-width="3.207" stroke-linecap="round" stroke-linejoin="round"/>
<path d="M778.68 308.758C800.884 309.067 823.036 306.497 844.58 301.112" stroke="#171717" stroke-width="3.207" stroke-linecap="round" stroke-linejoin="round"/>
<path d="M784.923 331.471L814.463 353.787" stroke="#171717" stroke-width="3.207" stroke-linecap="round" stroke-linejoin="round"/>
<path d="M721.346 78.6196C715.475 83.9336 712.176 91.7476 711.546 99.6406C710.916 107.534 712.809 115.49 716.078 122.703C719.166 129.515 723.619 135.897 729.822 140.075C736.025 144.253 744.149 145.968 751.181 143.419C758.213 140.87 763.589 133.579 762.802 126.141C762.015 118.703 754.193 112.451 746.948 114.31C741.676 115.662 737.948 120.56 736.262 125.735C734.122 132.413 734.694 139.665 737.855 145.925C743.207 156.394 754.616 161.972 763.773 169.347C774.505 177.99 782.717 190.024 785.657 203.486C787.157 210.332 787.235 217.717 784.374 224.115C781.513 230.513 775.286 235.674 768.281 235.888C761.276 236.102 754.215 230.342 754.233 223.334C754.251 216.326 762.826 210.493 768.908 213.975" stroke="url(#paint5_linear_174_28972)" stroke-width="3.207" stroke-linecap="round" stroke-linejoin="round"/>
<path d="M187.481 281.12L176.981 272.991" stroke="url(#paint6_linear_174_28972)" stroke-width="3.207" stroke-linecap="round" stroke-linejoin="round"/>
<path d="M176.943 284.9L189.499 265.269" stroke="url(#paint7_linear_174_28972)" stroke-width="3.207" stroke-linecap="round" stroke-linejoin="round"/>
<path d="M170.274 483.75L160.489 465.811" stroke="#171717" stroke-width="3.207" stroke-linecap="round" stroke-linejoin="round"/>
<path d="M156.933 481.653C161.687 478.028 165.773 473.602 169.006 468.574" stroke="#171717" stroke-width="3.207" stroke-linecap="round" stroke-linejoin="round"/>
<path d="M243.926 309.669C235.62 300.147 219.45 301.582 209.673 309.587C199.896 317.592 195.143 330.109 191.628 342.246C184.343 367.405 180.647 394.535 187.995 419.676C189.565 425.048 191.69 430.385 195.333 434.633C198.976 438.881 204.353 441.925 209.943 441.663C217.19 441.323 223.043 435.776 227.643 430.163C231.167 425.854 234.459 421.138 235.712 415.714C236.965 410.29 235.788 404.001 231.549 400.392C224.427 394.327 212.961 398.767 206.998 405.975C195.258 420.167 196.498 441.268 202.857 458.554C209.216 475.84 219.904 491.318 225.836 508.754C232.569 528.717 232.804 550.301 226.507 570.406C224.835 575.695 222.479 581.149 217.893 584.268C209.771 589.791 197.865 585.183 192.45 576.99C187.035 568.797 186.536 558.367 186.896 548.552" stroke="#171717" stroke-width="3.207" stroke-linecap="round" stroke-linejoin="round"/>
<path d="M679.982 503.31C687.035 506.721 693.232 511.674 698.115 517.801C702.997 523.929 706.442 531.075 708.193 538.712C709.944 546.349 709.958 554.281 708.233 561.924C706.507 569.567 703.088 576.724 698.226 582.869C694.151 588.017 688.066 592.702 681.613 591.488C675.16 590.274 671.264 583.822 668.2 578.008C666.008 573.848 663.769 568.972 665.587 564.635C667.559 559.929 673.959 558.218 678.62 560.295C683.281 562.372 686.185 567.273 687.199 572.274C689.548 583.858 683.199 595.539 675.135 604.185C667.071 612.831 657.151 619.674 649.722 628.866C644.011 636.037 639.962 644.386 637.866 653.31C635.77 662.235 635.679 671.513 637.6 680.477C639.464 688.877 644.065 697.724 652.315 700.157C662.058 703.031 672.099 695.413 676.848 686.433C679.297 681.803 680.881 676.384 679.523 671.325C678.165 666.266 673.079 661.99 667.936 662.981" stroke="#171717" stroke-width="3.207" stroke-linecap="round" stroke-linejoin="round"/>
<path d="M644.567 602.342L641.492 585.753" stroke="url(#paint8_linear_174_28972)" stroke-width="3.207" stroke-linecap="round" stroke-linejoin="round"/>
<path d="M635.312 597.852C639.531 596.822 643.423 594.746 646.63 591.816" stroke="url(#paint9_linear_174_28972)" stroke-width="3.207" stroke-linecap="round" stroke-linejoin="round"/>
<path d="M727.366 588.043L720.575 572.952" stroke="#171717" stroke-width="3.207" stroke-linecap="round" stroke-linejoin="round"/>
<path d="M716.065 586.563L731.165 577.523" stroke="#171717" stroke-width="3.207" stroke-linecap="round" stroke-linejoin="round"/>
<path fill-rule="evenodd" clip-rule="evenodd" d="M628.094 831.361C632.094 825.087 630.869 816.93 629.394 809.63C618.081 753.182 601.776 697.849 580.673 644.284L580.908 642.767C570.349 641.268 559.594 641.958 549.312 644.793C539.031 647.629 529.443 652.55 521.144 659.249C517.319 662.394 513.686 665.957 510.058 669.516C507.837 671.694 505.618 673.871 503.357 675.949C513.976 729.257 524.598 782.564 535.222 835.872C536.12 840.404 537.167 845.218 540.396 848.518C542.948 851 546.312 852.473 549.866 852.665C554.273 853.093 559.105 852.28 563.466 851.34C578.258 848.147 593.045 844.958 607.827 841.773C612.225 840.975 616.508 839.639 620.579 837.796C623.624 836.376 626.223 834.151 628.094 831.361ZM574.44 650.522C574.088 649.709 573.144 649.336 572.332 649.688C571.519 650.04 571.145 650.984 571.497 651.796C593.33 702.217 608.844 755.144 617.686 809.373C617.829 810.247 618.653 810.84 619.527 810.698C620.401 810.555 620.994 809.731 620.851 808.857C611.967 754.367 596.378 701.186 574.44 650.522Z" fill="#171717"/>
<path d="M660.899 860.434C650.579 861.909 641.178 867.173 634.525 875.2" stroke="#171717" stroke-width="3.207" stroke-linecap="round" stroke-linejoin="round"/>
<path d="M618.555 865.767C626.534 859.471 635.603 854.695 645.309 851.677" stroke="#171717" stroke-width="3.207" stroke-linecap="round" stroke-linejoin="round"/>
<path d="M608.117 857.38C614.51 851.531 622.079 847.116 630.317 844.433" stroke="#171717" stroke-width="3.207" stroke-linecap="round" stroke-linejoin="round"/>
<path d="M187.135 782.694L169.117 764.494" stroke="#171717" stroke-width="3.207" stroke-linecap="round" stroke-linejoin="round"/>
<path d="M174.365 795.475C169.815 790.234 164.782 785.432 159.335 781.131" stroke="#171717" stroke-width="3.207" stroke-linecap="round" stroke-linejoin="round"/>
<g opacity="0.1">
<path d="M426.057 269.9C406.537 270.006 386.319 277.413 368.937 285.738C341.166 298.872 317.308 319.033 299.726 344.224C282.143 369.414 271.446 398.761 268.694 429.358C266.37 453.6 269.144 478.06 276.838 501.166C280.598 512.393 298.512 507.527 294.647 496.257C288.337 477.904 285.428 458.554 286.063 439.157C286.695 419.433 291.563 401.046 297.931 382.49C303.831 365.301 315.205 349.037 327.404 335.732C339.628 322.338 353.838 310.902 369.534 301.823C378.237 296.787 387.371 292.537 396.828 289.123C406.916 285.51 417.215 283.23 427.453 280.214C433.067 278.56 432.083 269.869 426.053 269.901L426.057 269.9Z" fill="#171717"/>
</g>
<g opacity="0.1">
<path d="M384.376 356.076C380.976 360.567 380.783 367.423 380.068 372.867C379.261 379.016 378.63 385.191 378.03 391.367C376.86 403.387 375.96 415.43 375.33 427.495C374.076 451.595 373.744 475.814 374.878 499.922C375.378 510.483 391.714 510.591 391.387 499.922C390.656 476.091 390.5 452.296 391.619 428.473C392.17 416.74 392.978 405.021 394.042 393.317C394.575 387.467 395.194 381.627 395.831 375.788C396.448 370.142 398.098 362.981 395.94 357.588C393.811 352.271 387.787 351.573 384.374 356.077L384.376 356.076Z" fill="#171717"/>
</g>
<g opacity="0.1">
<path d="M644.369 254.54C638.2 254.385 631.625 256.26 625.684 257.71C619.54 259.166 613.596 261.365 607.984 264.259C596.247 270.145 585.617 278.017 576.565 287.528C557.386 308.062 546.833 335.041 545.043 362.934C544.284 374.758 562.99 374.828 563.511 362.934C564.686 338.995 573.621 316.09 588.965 297.677C596.358 288.648 605.071 280.787 614.811 274.359C619.458 271.395 624.239 268.326 629.03 265.653C634.298 262.713 640.053 261.053 645.408 258.384C647.319 257.432 646.301 254.589 644.367 254.54H644.369Z" fill="#171717"/>
</g>
<g opacity="0.1">
<path d="M544.735 346.416C538.935 344.123 532.675 346.992 527.113 348.872C521.094 350.962 515.322 353.703 509.9 357.047C504.121 360.535 505.529 368.974 511.721 370.986C521.054 374.019 532.302 372.033 541.727 370.4C546.37 369.6 548.977 363.9 547.816 359.675C546.468 354.768 541.748 352.775 537.091 353.586C528.743 355.032 519.94 354.386 511.721 356.278L517.598 370.217C522.33 366.946 527.254 363.961 532.343 361.278C537.157 358.701 543.009 357.758 546.576 353.389C547.071 352.864 547.424 352.222 547.602 351.522C547.78 350.823 547.777 350.089 547.592 349.391C547.408 348.694 547.049 348.054 546.549 347.534C546.049 347.013 545.425 346.629 544.735 346.416Z" fill="#171717"/>
</g>
<g opacity="0.1">
<path d="M489.259 155.147C480.935 152.36 470.699 153.868 462.159 154.956C454.259 155.962 446.582 157.051 440.122 162.136C433.881 167.049 430.722 174.436 429.046 182.065C427.162 190.621 425.025 201.256 428.518 209.48C431.299 216.03 440.625 213.2 442.483 207.655C444.577 201.402 443.073 193.764 444.198 187.171C445.046 182.196 445.398 174.321 449.627 170.851C453.927 167.325 461.701 166.163 466.958 165.203C474.188 163.881 482.327 163.729 489.258 161.385C489.925 161.18 490.508 160.766 490.922 160.204C491.337 159.643 491.56 158.964 491.56 158.266C491.56 157.569 491.337 156.889 490.922 156.328C490.508 155.767 489.925 155.353 489.258 155.147H489.259Z" fill="#171717"/>
</g>
<g opacity="0.1">
<path d="M477.978 84.4921C474.51 80.8451 467.995 83.3381 464.278 85.3811C460.303 87.5671 455.995 91.6751 454.185 95.8951C452.733 99.2801 453.408 103.095 457.144 104.672C457.951 105.012 458.82 105.176 459.696 105.154C460.571 105.133 461.431 104.926 462.221 104.547C463.01 104.168 463.71 103.626 464.274 102.956C464.838 102.287 465.254 101.505 465.494 100.663C466.369 97.5441 467.375 95.5061 470.2 93.6021C473.025 91.6981 476.42 91.7021 478.537 88.8281C478.932 88.1442 479.092 87.3491 478.991 86.5656C478.89 85.782 478.534 85.0534 477.978 84.4921V84.4921Z" fill="#171717"/>
</g>
<g opacity="0.1">
<path d="M424.73 88.1671C419.449 89.0861 414.83 92.5731 411.639 96.8571C408.11 101.594 406.419 106.394 404.192 111.817C399.933 122.186 421.563 125.668 418.746 111.817C418.146 108.885 420.18 104.489 421.692 101.97C423.648 98.7131 426.017 95.8161 428.277 92.7811C430.096 90.3381 427.101 87.7551 424.73 88.1671V88.1671Z" fill="#171717"/>
</g>
<g opacity="0.1">
<path d="M382.714 125.382C376.193 125.595 370.135 130.675 365.632 134.914C359.65 140.252 355.955 147.69 355.317 155.682C353.572 172.882 369.411 185.93 385.755 183.373C395.666 181.823 393.434 164.363 383.363 165.695C375.091 166.789 370.342 160.081 371.427 152.095C372.027 147.709 373.227 143.544 376.215 140.18C379.168 136.853 383.143 134.092 385.628 130.463C387.071 128.355 385.16 125.305 382.714 125.384V125.382Z" fill="#171717"/>
</g>
<g opacity="0.1">
<path d="M420.616 139.322C415.269 140.032 411.783 145.816 410.949 150.815C410.502 154.008 410.59 157.252 411.211 160.415C411.854 164.401 413.26 166.982 416.632 169.362C422.776 173.698 429.332 166.562 428.2 160.468C427.752 158.061 426.03 156.768 425.1 154.704C424.717 153.67 424.485 152.585 424.413 151.484C424.013 148.36 424.845 144.789 423.913 141.838C423.513 140.557 422.113 139.127 420.613 139.326L420.616 139.322Z" fill="#171717"/>
</g>
<g opacity="0.1">
<path d="M549.436 859.157C546.905 873.94 550.336 889.794 554.629 903.964C557.929 914.858 575.172 910.15 571.715 899.253C567.526 886.047 566.591 872.553 563.574 859.153C562.046 852.368 550.674 851.953 549.436 859.153V859.157Z" fill="#171717"/>
</g>
<g opacity="0.1">
<path d="M410.422 330.586C409.087 337.266 409.456 344.616 409.822 351.404C410.201 358.511 410.455 365.611 410.522 372.729C410.658 387.335 409.285 401.829 407.822 416.353C404.895 445.421 397.989 473.638 388.284 501.153C384.66 511.425 401.247 516.053 404.646 505.664C413.867 476.994 419.616 447.32 421.769 417.28C422.891 402.441 422.351 387.571 421.549 372.731C420.809 359.031 420.559 342.49 414.025 330.118C413.824 329.791 413.533 329.529 413.187 329.364C412.84 329.199 412.453 329.137 412.073 329.187C411.692 329.237 411.334 329.396 411.042 329.644C410.75 329.893 410.535 330.221 410.425 330.588L410.422 330.586Z" fill="#171717"/>
</g>
<g opacity="0.1">
<path d="M351.125 652.322C355.281 649.788 357.589 645.83 358.772 641.207C359.17 639.091 359.45 636.955 359.611 634.807C359.709 633.744 359.709 633.673 359.611 634.594L359.928 632.932C360.741 629.601 361.636 626.293 362.702 623.032C363.802 619.654 364.175 619.388 365.865 615.383C368.219 609.805 370.157 604.536 373.576 598.521C377.089 592.339 380.843 585.771 381.502 578.586C382.024 572.886 375.632 569.056 370.674 570.338C362.209 572.528 355.655 579.704 349.658 585.623C343.068 591.979 337.863 599.628 334.37 608.09C331.225 615.753 329.658 623.972 329.763 632.254C329.869 638.215 330.832 644.378 335.037 648.932C339.045 653.273 345.6 655.695 351.126 652.327L351.125 652.322Z" fill="#171717"/>
</g>
<g opacity="0.1">
<path d="M537.162 399.763C535.811 405.222 538.057 409.875 540.228 414.781C542.261 419.376 544.487 423.87 546.906 428.263C551.732 437.273 557.643 445.658 564.506 453.231C570.665 459.871 577.962 465.355 586.053 469.424C592.824 472.775 606.491 478.969 612.766 471.87C613.652 470.925 614.219 469.725 614.384 468.441C614.55 467.156 614.307 465.852 613.689 464.713C611.722 460.742 607.132 459.643 603.27 458.213C600.108 457.105 597.035 455.755 594.079 454.177C587.334 450.265 581.283 445.264 576.171 439.377C570.623 432.985 565.834 425.971 561.9 418.477C559.768 414.607 557.775 410.659 555.738 406.738C553.538 402.502 551.529 397.98 547.05 395.738C543.293 393.859 538.264 395.309 537.163 399.76L537.162 399.763Z" fill="#171717"/>
</g>
</g>
<defs>
<linearGradient id="paint0_linear_174_28972" x1="544.179" y1="271.347" x2="544.179" y2="347.232" gradientUnits="userSpaceOnUse">
<stop stop-color="#FFB800"/>
<stop offset="1" stop-color="#FF7F0A"/>
</linearGradient>
<linearGradient id="paint1_linear_174_28972" x1="606.542" y1="390.94" x2="606.542" y2="475.612" gradientUnits="userSpaceOnUse">
<stop stop-color="#FFB800"/>
<stop offset="1" stop-color="#FF7F0A"/>
</linearGradient>
<linearGradient id="paint2_linear_174_28972" x1="454.449" y1="265.779" x2="454.449" y2="338.102" gradientUnits="userSpaceOnUse">
<stop stop-color="#FFB800"/>
<stop offset="1" stop-color="#FF7F0A"/>
</linearGradient>
<linearGradient id="paint3_linear_174_28972" x1="456.944" y1="277.736" x2="456.944" y2="306.702" gradientUnits="userSpaceOnUse">
<stop stop-color="#FFB800"/>
<stop offset="1" stop-color="#FF7F0A"/>
</linearGradient>
<linearGradient id="paint4_linear_174_28972" x1="339.196" y1="278.958" x2="339.196" y2="510.165" gradientUnits="userSpaceOnUse">
<stop stop-color="#FFB800"/>
<stop offset="1" stop-color="#FF7F0A"/>
</linearGradient>
<linearGradient id="paint5_linear_174_28972" x1="749.054" y1="78.6196" x2="749.054" y2="235.893" gradientUnits="userSpaceOnUse">
<stop stop-color="#FFB800"/>
<stop offset="1" stop-color="#FF7F0A"/>
</linearGradient>
<linearGradient id="paint6_linear_174_28972" x1="182.231" y1="272.991" x2="182.231" y2="281.12" gradientUnits="userSpaceOnUse">
<stop stop-color="#FFB800"/>
<stop offset="1" stop-color="#FF7F0A"/>
</linearGradient>
<linearGradient id="paint7_linear_174_28972" x1="183.221" y1="265.269" x2="183.221" y2="284.9" gradientUnits="userSpaceOnUse">
<stop stop-color="#FFB800"/>
<stop offset="1" stop-color="#FF7F0A"/>
</linearGradient>
<linearGradient id="paint8_linear_174_28972" x1="643.03" y1="585.753" x2="643.03" y2="602.342" gradientUnits="userSpaceOnUse">
<stop stop-color="#FFB800"/>
<stop offset="1" stop-color="#FF7F0A"/>
</linearGradient>
<linearGradient id="paint9_linear_174_28972" x1="640.971" y1="591.816" x2="640.971" y2="597.852" gradientUnits="userSpaceOnUse">
<stop stop-color="#FFB800"/>
<stop offset="1" stop-color="#FF7F0A"/>
</linearGradient>
<clipPath id="clip0_174_28972">
<rect width="733" height="885" fill="white" transform="translate(114 38)"/>
</clipPath>
</defs>
</svg>
