<svg width="960" height="960" viewBox="0 0 960 960" fill="none" xmlns="http://www.w3.org/2000/svg">
<g clip-path="url(#clip0_173_28847)">
<path fill-rule="evenodd" clip-rule="evenodd" d="M309.453 559.462C289.142 554.652 268.83 549.842 249.033 545.8C231.631 542.24 213.489 538.694 196.283 543.114C175.479 548.459 159.136 564.781 147.428 582.8C138.141 597.296 130.915 613.013 125.956 629.5C120.463 647.768 116.982 666.582 115.575 685.607C112.676 721.736 115.76 758.051 118.843 794.17C119.84 805.816 121.475 818.747 130.448 826.229C137.756 832.314 147.983 833.075 157.471 833.558C185.53 835.002 213.587 835.672 241.643 836.343C269.508 837.008 297.372 837.674 325.239 839.098L325.27 838.389C314.96 788.125 311.417 736.709 314.734 685.506C315.814 668.763 317.623 652.111 320.161 635.552C322.433 620.781 325.414 605.733 333.246 593.008C337.882 585.474 343.227 577.6 350.71 573.9C355.02 571.764 359.926 571.152 364.627 572.165L364.647 572.042C346.51 568.237 327.981 563.849 309.453 559.462ZM323.69 589.917C324.031 589.137 323.675 588.228 322.894 587.887C322.114 587.546 321.205 587.902 320.864 588.683C312.343 608.188 308.883 629.435 306.298 650.34C301.063 692.694 299.044 735.384 300.26 778.044C300.284 778.895 300.994 779.565 301.845 779.541C302.696 779.517 303.367 778.807 303.342 777.956C302.131 735.452 304.142 692.918 309.358 650.718C311.939 629.848 315.361 608.984 323.69 589.917Z" fill="url(#paint0_linear_173_28847)"/>
<path d="M431.669 361.773C426.988 357.127 429.159 346.751 434.276 342.591C439.393 338.431 446.055 336.255 450.508 331.391C456.116 325.267 457.019 316.298 457.424 308.005C458.501 285.905 458.04 263.757 456.042 241.722" stroke="#171717" stroke-width="3.084" stroke-linecap="round" stroke-linejoin="round"/>
<path d="M446 267.942C445.605 266.494 444.774 265.203 443.621 264.243C442.467 263.283 441.046 262.701 439.551 262.576C438.055 262.451 436.557 262.789 435.26 263.544C433.963 264.299 432.93 265.434 432.3 266.796" stroke="#171717" stroke-width="3.084" stroke-linecap="round" stroke-linejoin="round"/>
<path d="M446.309 251.639C438.914 251.803 431.547 252.602 424.289 254.028C421.982 254.481 419.47 255.137 418.128 257.067C416.595 259.267 417.17 262.252 417.806 264.86L424.421 291.968C425.59 296.761 426.757 301.82 425.381 306.557C424.005 311.294 419.097 315.387 414.353 314.033" stroke="#171717" stroke-width="3.084" stroke-linecap="round" stroke-linejoin="round"/>
<path d="M412.624 326.618C407.711 331.198 398.124 327.853 397.124 321.21" stroke="#171717" stroke-width="3.084" stroke-linecap="round" stroke-linejoin="round"/>
<path d="M410.5 267.962C409.624 266.697 408.401 265.712 406.979 265.124C405.557 264.537 403.996 264.372 402.482 264.649C400.969 264.926 399.567 265.634 398.446 266.688C397.325 267.742 396.531 269.097 396.16 270.59" stroke="#171717" stroke-width="3.084" stroke-linecap="round" stroke-linejoin="round"/>
<path d="M385.32 363.571C385.262 334.391 385.205 302.128 385.147 272.949C385.134 266.529 385.328 259.514 389.479 254.618C393.322 250.085 399.579 248.563 405.415 247.471C415.082 245.661 424.823 244.333 434.639 243.486C445.339 242.564 456.295 242.173 466.292 238.263C476.289 234.353 485.366 226.012 486.673 215.357C486.926 213.296 486.789 210.963 485.309 209.509C483.761 207.988 481.209 207.973 479.209 208.817C477.275 209.807 475.495 211.073 473.924 212.573C460.983 223.223 443.151 225.253 426.408 225.996C409.665 226.739 392.15 226.813 377.332 234.645C370.684 238.158 364.648 243.411 361.812 250.374C358.773 257.839 359.725 266.241 358.912 274.26C357.977 283.377 354.735 292.105 349.491 299.621C346.591 303.763 342.94 308.927 345.413 313.337C347.441 316.952 352.77 317.451 356.42 315.487C360.07 313.523 362.428 309.855 364.628 306.342C360.413 309.009 359.242 315.315 361.894 319.542C364.546 323.769 370.361 325.513 375.06 323.842C379.759 322.171 384.111 317.455 384.56 312.488" stroke="#171717" stroke-width="3.084" stroke-linecap="round" stroke-linejoin="round"/>
<path d="M362.145 247.254C362.496 241.583 359.156 236.454 356.588 231.381C354.02 226.308 352.223 219.911 355.393 215.195C357.962 211.375 362.875 210.056 367.361 209.021L427.597 195.121C432.218 194.054 437.169 193.006 441.597 194.707C446.42 196.56 449.579 201.407 450.775 206.436C451.971 211.465 451.515 216.714 451.051 221.86" stroke="#171717" stroke-width="3.084" stroke-linecap="round" stroke-linejoin="round"/>
<path d="M444.901 196.055C447.924 188.47 450.971 180.797 452.118 172.713C453.265 164.629 452.342 155.969 447.908 149.113C444.935 144.516 440.571 140.989 435.453 139.046C430.335 137.102 424.731 136.845 419.456 138.31C414.181 139.776 409.513 142.887 406.13 147.192C402.748 151.497 400.829 156.769 400.654 162.241C396.608 158.305 391.523 155.605 385.997 154.458C380.47 153.311 374.731 153.764 369.453 155.764C364.175 157.765 359.577 161.229 356.199 165.751C352.821 170.273 350.803 175.664 350.382 181.293C344.589 178.692 338.249 177.542 331.912 177.945C325.575 178.347 319.432 180.289 314.015 183.603C308.597 186.916 304.07 191.5 300.825 196.959C297.58 202.417 295.716 208.584 295.393 214.926C295.031 222.026 297.278 230.067 303.576 233.366C308.976 236.197 315.721 234.636 321.03 231.632C326.339 228.628 330.811 224.321 336.06 221.213C341.309 218.105 347.927 216.279 353.489 218.785" stroke="#171717" stroke-width="3.084" stroke-linecap="round" stroke-linejoin="round"/>
<path d="M360.459 392.811C355.539 389.911 354.027 382.976 356.204 377.698C358.381 372.42 363.46 368.777 368.876 366.971C374.292 365.165 380.089 364.946 385.794 364.742L446.684 362.566C450.184 362.44 453.892 362.366 456.953 364.066C463.891 367.938 463.46 377.897 462.091 385.724" stroke="#171717" stroke-width="3.084" stroke-linecap="round" stroke-linejoin="round"/>
<path d="M463.334 384.712C527.312 375.94 589.126 367.159 653.151 375.576C717.176 383.993 781.336 411.855 819.851 463.687C841.338 492.599 854.039 529.651 847.276 565.033C840.513 600.415 811.259 632.305 775.381 635.523C767.237 636.254 758.758 635.504 751.448 631.84C744.138 628.176 738.169 621.265 737.057 613.164" stroke="#171717" stroke-width="3.084" stroke-linecap="round" stroke-linejoin="round"/>
<path d="M361.9 392.742C315.8 389.487 267.3 406.375 228.935 432.142C190.57 457.909 159.935 494.135 136.771 534.127C128.366 548.635 120.804 563.911 117.571 580.362C114.338 596.813 115.784 614.689 124.461 629.036" stroke="#171717" stroke-width="3.084" stroke-linecap="round" stroke-linejoin="round"/>
<path d="M315.532 685.552C347.175 687.517 381.902 689.482 413.545 691.447C421.759 691.958 430.079 692.461 438.155 690.881C446.231 689.301 454.172 685.381 458.899 678.641C464.299 670.941 464.763 660.931 464.885 651.529C465.117 633.672 464.818 613.753 463.985 595.915" stroke="#171717" stroke-width="3.084" stroke-linecap="round" stroke-linejoin="round"/>
<path d="M465.063 618.417C491.851 617.975 516.582 617.533 543.37 617.091C549.302 616.991 555.417 616.858 560.852 614.477C566.287 612.096 570.926 606.877 570.74 600.943" stroke="#171717" stroke-width="3.084" stroke-linecap="round" stroke-linejoin="round"/>
<path d="M663.729 595.9C664.593 603.38 691.353 616.351 734.857 612.228C746.166 611.156 756.776 604.07 763.014 594.576C770.149 583.717 771.315 572.742 769.008 559.956C767.508 551.636 748.853 530.191 724.207 536.329C716.007 538.372 715.307 547.241 722.833 551.087" stroke="#171717" stroke-width="3.084" stroke-linecap="round" stroke-linejoin="round"/>
<path d="M369.678 573.606C350.948 566.59 341.078 580.281 333.249 593.006C325.42 605.731 322.433 620.781 320.163 635.547C309.841 702.928 311.567 771.608 325.263 838.386" stroke="#171717" stroke-width="3.084" stroke-linecap="round" stroke-linejoin="round"/>
<path d="M370.12 573.176C330.444 565.076 288.713 553.894 249.037 545.795C231.628 542.241 213.494 538.695 196.284 543.118C175.484 548.461 159.133 564.786 147.432 582.795C127.681 613.195 118.476 649.469 115.574 685.603C112.672 721.737 115.758 758.053 118.843 794.172C119.837 805.815 121.472 818.746 130.449 826.227C137.749 832.315 147.979 833.075 157.475 833.563L325.607 842.2" stroke="#171717" stroke-width="3.084" stroke-linecap="round" stroke-linejoin="round"/>
<path d="M383.617 576.249C372.824 575.146 361.978 574.656 351.13 574.782" stroke="#171717" stroke-width="3.084" stroke-linecap="round" stroke-linejoin="round"/>
<path d="M708.145 547.891C736.704 553.432 753.993 560.668 753.993 568.585C753.993 586.016 670.184 600.147 566.8 600.147C463.416 600.147 379.607 586.016 379.607 568.585C379.607 562.124 391.123 556.116 410.883 551.113" stroke="#171717" stroke-width="3.084" stroke-linecap="round" stroke-linejoin="round"/>
<path d="M404.5 469.472C408.806 475.329 415.284 479.12 421.489 482.908C436.118 491.838 450.209 501.622 463.689 512.208C476.27 522.089 488.381 532.708 502.212 540.752C516.043 548.796 532.028 554.175 547.927 552.403C563.826 550.631 579.382 540.555 584.473 525.389C589.258 511.134 584.227 495.159 575.636 482.818C567.358 470.928 555.509 461.203 541.601 457.148C514.572 449.267 485.201 463.466 457.694 457.456C449.996 455.691 442.715 452.447 436.255 447.904C431.307 444.518 427.008 440.721 420.68 441.077C405.277 441.945 394.267 455.556 404.5 469.472Z" stroke="#171717" stroke-width="3.084" stroke-linecap="round" stroke-linejoin="round"/>
<path d="M420.793 441.056C422.05 437.233 422.49 433.188 422.085 429.184C421.656 425.152 419.719 421.431 416.664 418.765C415.125 417.469 413.267 416.609 411.283 416.274C409.299 415.94 407.261 416.144 405.383 416.865C401.702 418.456 399.26 422.795 400.315 426.665C395.746 423.072 388.777 421.296 384.287 424.987C381.048 427.649 380.187 432.521 381.559 436.487C382.931 440.453 386.183 443.537 389.848 445.573C393.597 447.461 397.561 448.885 401.654 449.816" stroke="#171717" stroke-width="3.084" stroke-linecap="round" stroke-linejoin="round"/>
<path d="M468.494 458.306C539.784 368.73 705.761 408.525 710.358 530.114C709.058 611.314 496.208 570.799 439.15 568.148C389.595 565.848 418.024 527.42 441.139 497.02" stroke="#171717" stroke-width="3.084" stroke-linecap="round" stroke-linejoin="round"/>
<path d="M763.018 594.579C756.779 604.066 746.161 611.159 734.854 612.227C691.354 616.349 664.589 603.378 663.726 595.895L663.695 595.595C717.823 590.065 753.995 580.033 753.995 568.582C753.995 562.138 742.524 556.135 722.83 551.139L722.841 551.088C715.306 547.244 716.005 538.373 724.218 536.328C748.856 530.191 767.501 551.628 769.012 559.958C771.323 572.737 770.151 583.714 763.018 594.579Z" fill="url(#paint1_linear_173_28847)"/>
<path d="M464.094 594.98C493.583 598.249 528.87 600.15 566.794 600.15C568.11 600.15 569.425 600.15 570.741 600.14V600.94C570.926 606.87 566.28 612.092 560.841 614.477C555.402 616.862 549.3 617 543.373 617.089C516.587 617.531 491.846 617.973 465.06 618.415L464.741 618.426C464.577 610.758 464.33 603.162 463.991 595.915L464.094 594.98Z" fill="url(#paint2_linear_173_28847)"/>
<path d="M356.425 315.482C352.776 317.456 347.441 316.952 345.416 313.334C342.939 308.924 346.598 303.765 349.497 299.622C354.737 292.106 357.977 283.38 358.912 274.265C359.724 266.237 358.778 257.839 361.812 250.377C362.162 249.509 362.566 248.665 363.024 247.849C366.17 242.123 371.515 237.714 377.332 234.64C392.154 226.818 409.669 226.74 426.413 225.996C434.791 225.78 443.131 224.796 451.329 223.056C459.593 221.134 467.384 217.956 473.921 212.572C475.495 211.072 477.278 209.809 479.215 208.82C481.209 207.978 483.758 207.988 485.315 209.509C486.795 210.958 486.929 213.292 486.682 215.358C485.376 226.017 476.3 234.358 466.299 238.258C462.947 239.544 459.482 240.515 455.949 241.158C448.969 242.494 441.754 242.875 434.641 243.491C424.845 244.334 415.104 245.66 405.419 247.469C399.58 248.569 393.331 250.09 389.487 254.623C385.334 259.516 385.139 266.523 385.149 272.95C385.18 285.706 385.201 299.058 385.231 312.482H384.574C384.121 317.446 379.763 322.164 375.066 323.84C370.369 325.516 364.566 323.768 361.909 319.54C361.219 318.385 360.768 317.103 360.582 315.77C360.397 314.437 360.481 313.08 360.83 311.78C362.23 310.065 363.501 308.247 364.63 306.343C362.716 307.604 361.356 309.549 360.83 311.78C359.607 313.28 358.113 314.536 356.425 315.482V315.482Z" fill="#171717"/>
<path d="M431.665 361.777C426.989 357.131 429.157 346.75 434.276 342.587C439.395 338.424 446.056 336.255 450.506 331.394C456.118 325.268 457.023 316.294 457.424 308.01C458.501 285.908 458.041 263.759 456.046 241.722" stroke="#171717" stroke-width="3.084" stroke-linecap="round" stroke-linejoin="round"/>
<path d="M445.994 267.943C445.599 266.496 444.77 265.206 443.617 264.246C442.465 263.287 441.045 262.705 439.551 262.579C438.056 262.453 436.56 262.79 435.263 263.544C433.967 264.297 432.933 265.431 432.303 266.792" stroke="#171717" stroke-width="3.084" stroke-linecap="round" stroke-linejoin="round"/>
<path d="M446.312 251.641C438.915 251.808 431.546 252.606 424.284 254.026C421.984 254.478 419.474 255.136 418.127 257.069C416.596 259.269 417.171 262.249 417.809 264.86C420.009 273.894 422.212 282.928 424.418 291.96C425.59 296.76 426.751 301.817 425.384 306.56C424.017 311.303 419.094 315.39 414.355 314.033" stroke="#171717" stroke-width="3.084" stroke-linecap="round" stroke-linejoin="round"/>
<path d="M412.628 326.614C407.715 331.198 398.128 327.858 397.128 321.207" stroke="#171717" stroke-width="3.084" stroke-linecap="round" stroke-linejoin="round"/>
<path d="M410.5 267.964C409.623 266.7 408.401 265.715 406.979 265.127C405.556 264.54 403.995 264.376 402.482 264.653C400.968 264.931 399.567 265.639 398.446 266.693C397.325 267.747 396.532 269.102 396.161 270.595" stroke="#171717" stroke-width="3.084" stroke-linecap="round" stroke-linejoin="round"/>
<path d="M360.824 311.782C360.475 313.082 360.391 314.438 360.576 315.771C360.762 317.104 361.213 318.386 361.903 319.542C364.555 323.767 370.362 325.514 375.06 323.842C379.758 322.17 384.115 317.448 384.568 312.484" stroke="#171717" stroke-width="3.084" stroke-linecap="round" stroke-linejoin="round"/>
<path d="M360.824 311.782C362.225 310.067 363.495 308.249 364.624 306.345C362.71 307.605 361.35 309.551 360.824 311.782Z" stroke="#171717" stroke-width="3.084" stroke-linecap="round" stroke-linejoin="round"/>
<path d="M385.318 363.566C385.287 347.151 385.256 329.759 385.225 312.481C385.195 299.057 385.174 285.705 385.143 272.949C385.133 266.525 385.328 259.515 389.481 254.622C393.325 250.089 399.574 248.568 405.413 247.468C415.085 245.659 424.826 244.333 434.635 243.49C441.748 242.874 448.963 242.49 455.943 241.157C459.476 240.513 462.941 239.542 466.293 238.257C476.293 234.351 485.37 226.015 486.676 215.357C486.923 213.291 486.789 210.957 485.309 209.508C483.757 207.987 481.209 207.977 479.209 208.819C477.273 209.807 475.489 211.071 473.915 212.571C467.378 217.957 459.587 221.133 451.323 223.055C443.127 224.796 434.788 225.782 426.412 226C409.668 226.74 392.153 226.822 377.331 234.644C371.514 237.718 366.169 242.127 363.023 247.853C362.566 248.669 362.161 249.513 361.811 250.381C358.778 257.843 359.724 266.241 358.911 274.269C357.976 283.383 354.736 292.109 349.496 299.626C346.596 303.769 342.938 308.926 345.415 313.338C347.44 316.956 352.775 317.46 356.424 315.486C358.11 314.54 359.603 313.284 360.824 311.786" stroke="#171717" stroke-width="3.084" stroke-linecap="round" stroke-linejoin="round"/>
<path d="M362.14 247.252C362.5 241.579 359.16 236.452 356.59 231.382C354.627 227.517 353.116 222.882 353.918 218.801C354.16 217.51 354.664 216.282 355.398 215.193C357.957 211.38 362.87 210.054 367.362 209.016C387.436 204.39 407.513 199.757 427.595 195.116C432.22 194.047 437.165 192.999 441.595 194.705C442.685 195.124 443.707 195.702 444.627 196.421C447.756 198.961 449.924 202.493 450.773 206.433C451.966 211.459 451.514 216.711 451.051 221.851" stroke="#171717" stroke-width="3.084" stroke-linecap="round" stroke-linejoin="round"/>
<path d="M444.9 196.054C447.922 188.469 450.965 180.801 452.116 172.711C453.267 164.621 452.332 155.968 447.902 149.111C444.93 144.514 440.567 140.987 435.449 139.044C430.332 137.101 424.727 136.843 419.453 138.308C414.178 139.773 409.51 142.885 406.128 147.189C402.746 151.493 400.827 156.766 400.651 162.237C396.606 158.3 391.521 155.6 385.993 154.452C380.466 153.305 374.727 153.758 369.448 155.759C364.17 157.76 359.571 161.225 356.194 165.748C352.816 170.271 350.798 175.664 350.378 181.293C344.586 178.693 338.246 177.544 331.909 177.947C325.573 178.35 319.43 180.292 314.013 183.605C308.596 186.918 304.069 191.502 300.823 196.959C297.578 202.417 295.712 208.584 295.387 214.925C295.027 222.025 297.268 230.065 303.569 233.365C308.975 236.192 315.718 234.639 321.022 231.628C326.326 228.617 330.808 224.32 336.05 221.216C341.292 218.112 347.921 216.282 353.482 218.79" stroke="#171717" stroke-width="3.084" stroke-linecap="round" stroke-linejoin="round"/>
<path d="M360.464 392.809C360.372 392.757 360.279 392.696 360.187 392.634C355.487 389.653 354.071 382.869 356.209 377.699C358.377 372.416 363.455 368.777 368.872 366.968C374.155 365.21 379.798 364.953 385.359 364.758C385.503 364.748 385.647 364.748 385.791 364.738L431.716 363.103C436.712 362.918 441.7 362.74 446.682 362.569C450.182 362.445 453.897 362.363 456.95 364.069C463.55 367.748 463.477 376.937 462.285 384.554C462.223 384.945 462.161 385.335 462.085 385.726" stroke="#171717" stroke-width="3.084" stroke-linecap="round" stroke-linejoin="round"/>
<path d="M463.333 384.709C527.307 375.941 589.123 367.163 653.149 375.571C717.175 383.979 781.335 411.855 819.859 463.69C841.341 492.604 854.046 529.649 847.283 565.028C840.52 600.407 811.266 632.302 775.383 635.519C767.242 636.259 758.763 635.498 751.454 631.839C744.145 628.18 738.174 621.262 737.064 613.163" stroke="#171717" stroke-width="3.084" stroke-linecap="round" stroke-linejoin="round"/>
<path d="M361.9 392.737C361.324 392.696 360.759 392.655 360.184 392.637C314.6 389.91 266.836 406.7 228.938 432.145C190.568 457.914 159.938 494.136 136.769 534.13C128.369 548.63 120.807 563.907 117.569 580.364C114.331 596.821 115.78 614.694 124.455 629.033" stroke="#171717" stroke-width="3.084" stroke-linecap="round" stroke-linejoin="round"/>
<path d="M315.536 685.556C347.174 687.519 381.905 689.482 413.543 691.445C421.756 691.959 430.082 692.463 438.15 690.88C446.218 689.297 454.175 685.38 458.903 678.638C464.303 670.95 464.762 660.928 464.885 651.533C465.029 640.933 464.978 629.609 464.741 618.426C464.577 610.758 464.33 603.162 463.991 595.915" stroke="#171717" stroke-width="3.084" stroke-linecap="round" stroke-linejoin="round"/>
<path d="M465.061 618.415C491.847 617.973 516.588 617.531 543.374 617.089C549.305 616.997 555.421 616.853 560.848 614.479C566.275 612.105 570.931 606.872 570.748 600.942" stroke="#171717" stroke-width="3.084" stroke-linecap="round" stroke-linejoin="round"/>
<path d="M663.727 595.9C664.59 603.383 691.356 616.354 734.855 612.232C746.162 611.164 756.78 604.071 763.019 594.584C770.152 583.719 771.319 572.742 769.011 559.965C767.5 551.64 748.855 530.198 724.217 536.335C716.004 538.38 715.305 547.251 722.84 551.095" stroke="#171717" stroke-width="3.084" stroke-linecap="round" stroke-linejoin="round"/>
<path d="M369.674 573.611C368.035 572.988 366.347 572.503 364.627 572.161C359.925 571.15 355.019 571.763 350.71 573.9C343.227 577.6 337.882 585.474 333.246 593.008C325.414 605.733 322.433 620.781 320.161 635.552C317.623 652.111 315.814 668.762 314.734 685.506C311.416 736.709 314.959 788.125 325.27 838.389" stroke="#171717" stroke-width="3.084" stroke-linecap="round" stroke-linejoin="round"/>
<path d="M370.116 573.179C368.296 572.809 366.477 572.428 364.647 572.038C326.627 564.062 286.889 553.526 249.033 545.796C231.633 542.24 213.489 538.696 196.283 543.114C175.483 548.459 159.136 564.781 147.428 582.8C138.141 597.296 130.914 613.013 125.956 629.5C120.462 647.769 116.981 666.585 115.575 685.611C112.675 721.74 115.76 758.055 118.843 794.174C119.843 805.82 121.475 818.751 130.448 826.233C137.756 832.318 147.983 833.079 157.471 833.562C213.397 836.44 269.313 836.245 325.239 839.102C325.362 839.113 325.486 839.113 325.609 839.123" stroke="#171717" stroke-width="3.084" stroke-linecap="round" stroke-linejoin="round"/>
<path d="M383.622 576.252C383.499 576.242 383.385 576.221 383.262 576.211C379.233 575.748 374.462 575.399 369.592 575.152C363.126 574.834 356.476 574.71 351.131 574.782" stroke="#171717" stroke-width="3.084" stroke-linecap="round" stroke-linejoin="round"/>
<path d="M708.14 547.893C713.434 548.921 718.347 550 722.828 551.141C742.522 556.141 753.993 562.141 753.993 568.584C753.993 580.035 717.823 590.067 663.693 595.597C636.475 598.382 604.724 600.027 570.743 600.14C569.427 600.15 568.112 600.15 566.796 600.15C528.868 600.15 493.581 598.25 464.096 594.98C423.248 590.447 393.543 583.303 383.408 574.947C380.908 572.891 379.608 570.763 379.608 568.584C379.608 562.119 391.13 556.116 410.886 551.111" stroke="#171717" stroke-width="3.084" stroke-linecap="round" stroke-linejoin="round"/>
<path d="M402.936 450.451C399.574 455.694 399.41 462.539 404.498 469.467C408.805 475.326 415.28 479.119 421.489 482.912C428.375 487.116 435.138 491.508 441.779 496.089C449.251 501.228 456.556 506.604 463.693 512.216C476.274 522.094 488.382 532.716 502.217 540.76C516.052 548.804 532.025 554.184 547.926 552.406C563.827 550.628 579.379 540.554 584.477 525.393C589.257 511.137 584.231 495.164 575.638 482.819C567.363 470.937 555.512 461.203 541.605 457.153C518.067 450.287 492.761 460.165 468.462 458.87C464.842 458.698 461.242 458.227 457.7 457.462C450.004 455.691 442.723 452.449 436.259 447.913C431.336 444.541 427.059 440.769 420.79 441.077H420.69C412.947 441.509 406.327 445.158 402.936 450.451Z" stroke="#171717" stroke-width="3.084" stroke-linecap="round" stroke-linejoin="round"/>
<path d="M420.791 441.057C422.047 437.234 422.489 433.189 422.086 429.185C421.654 425.153 419.72 421.432 416.669 418.762C415.127 417.469 413.268 416.611 411.284 416.277C409.3 415.943 407.263 416.145 405.383 416.862C401.703 418.455 399.257 422.793 400.315 426.668C395.741 423.068 388.773 421.292 384.291 424.982C381.053 427.644 380.191 432.516 381.557 436.482C382.923 440.448 386.182 443.533 389.857 445.568C393.604 447.454 397.566 448.879 401.657 449.813" stroke="#171717" stroke-width="3.084" stroke-linecap="round" stroke-linejoin="round"/>
<path d="M468.493 458.3C539.786 368.722 705.766 408.521 710.36 530.107C710.343 535.956 708.974 541.721 706.36 546.954C676.819 605.224 491.752 570.595 439.145 568.154C419.472 567.239 412.092 560.63 411.794 551.091C411.331 536.598 427.201 515.352 441.139 497.025" stroke="#171717" stroke-width="3.084" stroke-linecap="round" stroke-linejoin="round"/>
<path d="M322.887 613.84C308.8 596.359 297.419 576.862 289.123 556" stroke="#171717" stroke-width="3.084" stroke-linecap="round" stroke-linejoin="round"/>
<path d="M315.638 656.407C280.891 624.274 252.497 585.893 231.938 543.264" stroke="#171717" stroke-width="3.084" stroke-linecap="round" stroke-linejoin="round"/>
<path d="M311.945 716.85C255.916 672.975 211.389 616.139 182.2 551.237" stroke="#171717" stroke-width="3.084" stroke-linecap="round" stroke-linejoin="round"/>
<path d="M313.463 759.284C240.269 722.832 180.355 664.334 142.163 592.033" stroke="#171717" stroke-width="3.084" stroke-linecap="round" stroke-linejoin="round"/>
<path d="M317.4 807.1C238.725 770.16 172.032 711.825 124.949 638.767" stroke="#171717" stroke-width="3.084" stroke-linecap="round" stroke-linejoin="round"/>
<path d="M267.926 836.413C207.932 801.263 155.887 754.044 115.084 697.743" stroke="#171717" stroke-width="3.084" stroke-linecap="round" stroke-linejoin="round"/>
<path d="M190.644 834.574L116.95 756.86" stroke="#171717" stroke-width="3.084" stroke-linecap="round" stroke-linejoin="round"/>
<path d="M252.8 547.837C213.098 553.482 175.371 568.719 142.883 592.227" stroke="#171717" stroke-width="3.084" stroke-linecap="round" stroke-linejoin="round"/>
<path d="M290.656 555.675C227.683 580.01 169.59 615.451 119.139 660.312" stroke="#171717" stroke-width="3.084" stroke-linecap="round" stroke-linejoin="round"/>
<path d="M331.561 564.748C249.753 602.335 176.167 656.669 117.382 724.858" stroke="#171717" stroke-width="3.084" stroke-linecap="round" stroke-linejoin="round"/>
<path d="M327.856 602.159C284.038 618.707 245.133 646.517 211.22 678.826C177.307 711.135 148.072 747.98 119.607 785.179" stroke="#171717" stroke-width="3.084" stroke-linecap="round" stroke-linejoin="round"/>
<path d="M318.833 642.487C253.218 696.953 195.672 760.461 147.918 831.111" stroke="#171717" stroke-width="3.084" stroke-linecap="round" stroke-linejoin="round"/>
<path d="M313.068 695.668C271.98 737.607 235.751 784.046 205.068 834.104" stroke="#171717" stroke-width="3.084" stroke-linecap="round" stroke-linejoin="round"/>
<path d="M312.706 734.518C286.143 765.158 263.351 798.874 244.821 834.945" stroke="#171717" stroke-width="3.084" stroke-linecap="round" stroke-linejoin="round"/>
<path d="M315.39 775.86C299.512 793.784 287.408 814.723 279.8 837.427" stroke="#171717" stroke-width="3.084" stroke-linecap="round" stroke-linejoin="round"/>
<path d="M448.961 382.725L448.375 370.625" stroke="#171717" stroke-width="3.084" stroke-linecap="round" stroke-linejoin="round"/>
<path d="M429.693 383.931L429.451 371.355" stroke="#171717" stroke-width="3.084" stroke-linecap="round" stroke-linejoin="round"/>
<path d="M410.831 384.174L411.212 372.804" stroke="#171717" stroke-width="3.084" stroke-linecap="round" stroke-linejoin="round"/>
<path d="M392.493 385.622L392 372.8" stroke="#171717" stroke-width="3.084" stroke-linecap="round" stroke-linejoin="round"/>
<path d="M373.215 388.768L373.16 377.16" stroke="#171717" stroke-width="3.084" stroke-linecap="round" stroke-linejoin="round"/>
<path d="M425.109 195.3C426.984 189.859 427.784 184.106 427.464 178.36" stroke="#171717" stroke-width="3.084" stroke-linecap="round" stroke-linejoin="round"/>
<path d="M401.001 200.411L396.26 186.111" stroke="#171717" stroke-width="3.084" stroke-linecap="round" stroke-linejoin="round"/>
<path d="M367.282 208.336C365.644 207.014 364.301 205.364 363.339 203.491C362.376 201.619 361.816 199.566 361.694 197.465" stroke="#171717" stroke-width="3.084" stroke-linecap="round" stroke-linejoin="round"/>
<path d="M737.078 601.375L745.361 593.331" stroke="#171717" stroke-width="3.084" stroke-linecap="round" stroke-linejoin="round"/>
<path d="M755.716 557.766L750.3 550.13" stroke="#171717" stroke-width="3.084" stroke-linecap="round" stroke-linejoin="round"/>
<path d="M713.349 602.706L705.734 597.984" stroke="#171717" stroke-width="3.084" stroke-linecap="round" stroke-linejoin="round"/>
<path d="M536.642 607.094L542.416 612.207" stroke="#171717" stroke-width="3.084" stroke-linecap="round" stroke-linejoin="round"/>
<path d="M486.264 611.393L497.148 607.039" stroke="#171717" stroke-width="3.084" stroke-linecap="round" stroke-linejoin="round"/>
<path d="M514.785 610.287L518.64 606.644" stroke="#171717" stroke-width="3.084" stroke-linecap="round" stroke-linejoin="round"/>
<path d="M315.554 434.431C311.643 431.377 308.255 427.707 305.524 423.563" stroke="#171717" stroke-width="3.084" stroke-linecap="round" stroke-linejoin="round"/>
<path d="M304.875 434.479C307.471 431.12 310.571 428.183 314.065 425.772" stroke="#171717" stroke-width="3.084" stroke-linecap="round" stroke-linejoin="round"/>
<path d="M339.657 522.957L347.363 514.221" stroke="#171717" stroke-width="3.084" stroke-linecap="round" stroke-linejoin="round"/>
<path d="M346.369 523.583L337.231 514.341" stroke="#171717" stroke-width="3.084" stroke-linecap="round" stroke-linejoin="round"/>
<path d="M211.471 512.2C207.022 511.52 202.77 509.896 199 507.438" stroke="#171717" stroke-width="3.084" stroke-linecap="round" stroke-linejoin="round"/>
<path d="M200.868 516.221C201.943 512.122 203.932 508.32 206.687 505.102" stroke="#171717" stroke-width="3.084" stroke-linecap="round" stroke-linejoin="round"/>
<path d="M415.159 657.949L428.7 646.34" stroke="#171717" stroke-width="3.084" stroke-linecap="round" stroke-linejoin="round"/>
<path d="M423.491 660.8L416.058 644.872L417.047 645.499" stroke="#171717" stroke-width="3.084" stroke-linecap="round" stroke-linejoin="round"/>
<path d="M355.664 621.188L367.273 614.416" stroke="#171717" stroke-width="3.084" stroke-linecap="round" stroke-linejoin="round"/>
<path d="M362.875 625.107C359.581 622.054 357.489 617.925 356.975 613.464" stroke="#171717" stroke-width="3.084" stroke-linecap="round" stroke-linejoin="round"/>
<path d="M800.428 579.831L816.39 579.106" stroke="#171717" stroke-width="3.084" stroke-linecap="round" stroke-linejoin="round"/>
<path d="M807.685 587.812V572.576" stroke="#171717" stroke-width="3.084" stroke-linecap="round" stroke-linejoin="round"/>
<path d="M801.152 478.242L788.818 480.421" stroke="#171717" stroke-width="3.084" stroke-linecap="round" stroke-linejoin="round"/>
<path d="M793.916 488.409L792.467 475.349" stroke="#171717" stroke-width="3.084" stroke-linecap="round" stroke-linejoin="round"/>
<path d="M721.876 479.6L728.364 467.244" stroke="#171717" stroke-width="3.084" stroke-linecap="round" stroke-linejoin="round"/>
<path d="M730.058 476.79L718.612 468.583" stroke="#171717" stroke-width="3.084" stroke-linecap="round" stroke-linejoin="round"/>
<path d="M666.926 403.522C668.679 399.484 671.748 396.159 675.633 394.089" stroke="#171717" stroke-width="3.084" stroke-linecap="round" stroke-linejoin="round"/>
<path d="M674.767 402.252L666.185 395.562" stroke="#171717" stroke-width="3.084" stroke-linecap="round" stroke-linejoin="round"/>
<path d="M572.6 386.834C568.15 388.527 564.172 391.264 561 394.815" stroke="#171717" stroke-width="3.084" stroke-linecap="round" stroke-linejoin="round"/>
<path d="M568.949 396.286L561.688 386.132" stroke="#171717" stroke-width="3.084" stroke-linecap="round" stroke-linejoin="round"/>
<path d="M468.7 425.182L476 415.054" stroke="#171717" stroke-width="3.084" stroke-linecap="round" stroke-linejoin="round"/>
<path d="M476.879 424.5L467.464 417.222" stroke="#171717" stroke-width="3.084" stroke-linecap="round" stroke-linejoin="round"/>
<path fill-rule="evenodd" clip-rule="evenodd" d="M411.797 551.09C412.095 560.629 419.475 567.238 439.148 568.153C449.076 568.614 463.722 570.222 481.15 572.136C556.068 580.361 682.397 594.231 706.361 546.958C708.975 541.725 710.344 535.96 710.361 530.111C705.767 408.525 539.787 368.726 468.494 458.304L468.463 458.87C478.2 459.388 488.098 458.113 497.98 456.84C512.759 454.937 527.5 453.038 541.606 457.153C555.513 461.203 567.364 470.937 575.639 482.819C584.232 495.164 589.258 511.137 584.478 525.393C579.38 540.554 563.828 550.628 547.927 552.406C532.026 554.184 516.053 548.804 502.218 540.76C491.438 534.492 481.707 526.659 471.984 518.833C469.228 516.615 466.472 514.397 463.694 512.216C456.557 506.604 449.252 501.228 441.78 496.089L441.142 497.024C427.204 515.351 411.334 536.597 411.797 551.09ZM609.396 423.574C608.555 423.442 607.765 424.017 607.633 424.858C607.501 425.699 608.075 426.489 608.917 426.621C645.475 432.374 678.201 458.41 692.026 492.742C692.344 493.532 693.242 493.914 694.032 493.596C694.822 493.278 695.205 492.38 694.887 491.59C680.657 456.251 647.026 429.496 609.396 423.574Z" fill="#171717"/>
<path fill-rule="evenodd" clip-rule="evenodd" d="M471.974 518.825L471.974 518.825L471.972 518.823C469.22 516.609 466.468 514.394 463.694 512.216C458.969 508.506 454.168 504.895 449.293 501.382C459.948 506.747 469.509 513.926 479.133 521.153L479.133 521.153L479.533 521.453C489.545 528.971 499.81 536.616 511.408 542.097C523.019 547.584 536.286 550.862 549.301 549.032C562.303 547.205 574.975 539.668 580.443 527.959L580.443 527.958C584.49 519.282 584.227 509.308 581.641 500.373L581.637 500.361C579.115 491.901 574.629 484.096 568.519 477.523C562.409 470.951 554.832 465.779 546.351 462.387L546.34 462.383C535.025 457.954 522.567 456.924 510.518 457.689C507.767 457.863 505.165 458.047 502.619 458.228C494.099 458.832 486.196 459.392 475.353 459.392C474.502 459.392 473.811 460.082 473.811 460.934C473.811 461.786 474.502 462.476 475.353 462.476C486.314 462.476 494.348 461.906 502.89 461.301L502.89 461.301C505.423 461.121 508.001 460.938 510.713 460.766C522.478 460.02 534.448 461.041 545.211 465.252C553.275 468.479 560.468 473.392 566.261 479.623C572.053 485.853 576.295 493.241 578.68 501.237C581.126 509.689 581.288 518.85 577.648 526.654C572.731 537.184 561.123 544.256 548.872 545.978C536.633 547.699 523.986 544.629 512.726 539.308C501.454 533.982 491.428 526.528 481.384 518.987L480.883 518.611C471.039 511.219 460.991 503.673 449.678 498.131C448.914 497.756 447.99 498.072 447.615 498.837C447.401 499.274 447.413 499.764 447.605 500.173C445.675 498.796 443.733 497.435 441.78 496.089C435.14 491.504 428.377 487.112 421.49 482.912C421.206 482.738 420.922 482.565 420.637 482.392C414.694 478.768 408.609 475.058 404.499 469.467C399.411 462.539 399.575 455.694 402.937 450.451C406.328 445.158 412.948 441.509 420.688 441.077H420.788C426.211 440.81 430.142 443.596 434.29 446.535L434.29 446.535C434.938 446.994 435.592 447.457 436.257 447.913C442.721 452.449 450.002 455.691 457.698 457.462C461.24 458.227 464.84 458.698 468.46 458.87C478.201 459.391 488.103 458.115 497.988 456.841C512.763 454.938 527.5 453.039 541.603 457.153C555.51 461.203 567.361 470.937 575.636 482.819C584.229 495.164 589.255 511.137 584.475 525.393C579.375 540.554 563.826 550.638 547.924 552.406C532.022 554.174 516.043 548.8 502.218 540.76C491.435 534.487 481.701 526.653 471.974 518.825ZM556.883 477.397C556.157 476.951 555.207 477.179 554.762 477.904C554.316 478.63 554.544 479.58 555.27 480.025C560.572 483.279 564.903 487.896 567.812 493.395C570.72 498.893 572.099 505.072 571.805 511.286C571.765 512.137 572.421 512.859 573.272 512.899C574.123 512.94 574.845 512.283 574.885 511.432C575.206 504.667 573.705 497.939 570.538 491.953C567.371 485.966 562.655 480.939 556.883 477.397Z" fill="#171717"/>
<path d="M605.931 345.572C594.637 337.443 593.25 320.501 598.442 307.59C603.634 294.679 613.782 284.544 622.66 273.828C631.538 263.112 639.66 250.487 639.405 236.574C639.142 222.26 630.175 209.84 623.605 197.118C617.035 184.396 613.029 167.865 621.805 156.549" stroke="#171717" stroke-width="3.084" stroke-linecap="round" stroke-linejoin="round"/>
<path d="M550.826 317.752C541.026 313.207 536.967 300.752 538.816 290.112C540.665 279.472 547.075 270.245 553.501 261.558C559.927 252.871 566.687 244.023 569.444 233.576C573.037 219.962 569.329 205.492 564.133 192.406C558.937 179.32 552.201 166.7 549.415 152.9C546.629 139.1 548.539 123.317 558.578 113.445" stroke="#171717" stroke-width="3.084" stroke-linecap="round" stroke-linejoin="round"/>
<path d="M677.052 302.73C666.96 291.205 668.245 271.546 679.751 261.43C685.362 256.499 692.842 253.715 697.474 247.854C702.416 241.601 703.153 232.792 701.125 225.085C699.097 217.378 694.636 210.553 689.936 204.117" stroke="#171717" stroke-width="3.084" stroke-linecap="round" stroke-linejoin="round"/>
<path d="M857.834 420.092C877.295 434.498 888.576 458.08 891.974 482.054C895.372 506.028 891.587 530.487 885.519 553.927C882.403 565.961 878.655 578.08 879.01 590.505C879.365 602.93 884.73 616.051 895.66 621.971C906.59 627.891 923.023 623.157 926.189 611.137C928.289 603.16 922.851 593.49 914.641 592.682C906.431 591.874 899.115 602.437 903.858 609.182" stroke="#171717" stroke-width="3.084" stroke-linecap="round" stroke-linejoin="round"/>
<path d="M286.292 317.993L267.779 300.593" stroke="#171717" stroke-width="3.084" stroke-linecap="round" stroke-linejoin="round"/>
<path d="M269.056 319.064L284.329 298.413" stroke="#171717" stroke-width="3.084" stroke-linecap="round" stroke-linejoin="round"/>
<path d="M245.142 226.33L234.228 217.663" stroke="#171717" stroke-width="3.084" stroke-linecap="round" stroke-linejoin="round"/>
<path d="M234.135 230.84L243.935 212.34" stroke="#171717" stroke-width="3.084" stroke-linecap="round" stroke-linejoin="round"/>
<path d="M189.981 397.688C154.068 404.988 117.839 422.967 100.493 455.248C96.7023 462.303 93.8553 470.238 94.7573 478.196C95.6593 486.154 101.148 493.991 109.001 495.567C116.854 497.143 125.843 490.267 124.687 482.338C123.341 473.106 111.042 469.828 102.113 472.531C94.0578 475.007 87.2056 480.379 82.8803 487.612C76.0593 499.127 76.6663 513.512 78.8723 526.712C81.0783 539.912 84.6843 553.18 83.1423 566.474C81.6003 579.768 73.2003 593.487 60.0653 596.052C55.6213 596.92 50.3703 596.124 47.7393 592.439C45.1083 588.754 47.4793 582.165 52.0003 582.408" stroke="#171717" stroke-width="3.084" stroke-linecap="round" stroke-linejoin="round"/>
<g opacity="0.1">
<path d="M322.622 180.165C313.051 181.53 303.822 191.704 299.222 199.618C294.061 208.494 292.699 219.861 299.849 228.096C306.701 235.987 317.585 235.329 325.191 228.964C328.912 225.849 331.212 221.174 335.171 218.312C337.166 217.018 339.345 216.033 341.634 215.389C344.822 214.407 346.934 215.212 349.989 216.138C350.294 216.214 350.616 216.178 350.897 216.037C351.178 215.897 351.399 215.66 351.521 215.371C351.643 215.081 351.658 214.757 351.562 214.458C351.467 214.159 351.267 213.903 351 213.738C347.833 212.031 344.444 210.771 340.931 209.993C337.882 209.285 334.711 209.282 331.661 209.986C327.908 210.773 324.372 212.37 321.301 214.666C319.083 216.175 316.02 219.643 313.26 219.955C310.654 220.255 308.781 217.636 308.212 215.329C307.312 211.682 309.152 207.658 310.906 204.572C312.948 200.912 315.376 197.482 318.15 194.341C320.922 191.271 324.157 188.575 326.399 185.075C328.148 182.344 325.266 179.787 322.623 180.164L322.622 180.165Z" fill="#171717"/>
</g>
<g opacity="0.1">
<path d="M355.124 213.844C352.479 217.733 354.211 222.56 355.306 226.734L359 240.818C361.78 251.418 378.3 242.533 370.344 234.218L369.833 233.684C366.989 230.709 362.174 231.643 360.096 234.939L359.684 235.591L372.089 237.213L367.6 223.344C366.3 219.315 365.2 214.157 360.959 212.314C359.974 211.782 358.823 211.645 357.739 211.929C356.656 212.213 355.721 212.897 355.122 213.844H355.124Z" fill="#171717"/>
</g>
<g opacity="0.1">
<path d="M452.955 240.292C437.691 240.042 422.397 243.106 407.261 244.972C401.232 245.715 396.461 246.99 391.493 250.562C386.022 254.494 384.647 260.832 384.231 267.269C383.213 283.023 383.631 298.863 383.696 314.639L383.796 337.567C383.83 345.221 382.12 355.246 385.796 362.121C388.289 366.778 395.696 366.803 398.182 362.121C401.507 355.859 400.106 347.498 400.114 340.558L400.138 319.624C400.154 305.357 400.551 291.011 399.898 276.758C399.636 271.039 398.916 265.093 399.919 259.445C400.419 256.654 401.054 256.745 404.335 255.728C406.935 254.918 409.677 254.491 412.335 253.943C426.129 251.101 440.23 249.373 453.544 244.711C455.884 243.892 455.58 240.335 452.944 240.292H452.955Z" fill="#171717"/>
</g>
<g opacity="0.1">
<path d="M367.219 364.793C352.265 369.693 354.098 388.821 357.051 400.977L364.751 390.877C316.079 390.266 267.713 403.562 226.634 429.848C187.236 455.059 155.8 490.931 135.977 533.297C124.871 557.204 118.006 582.861 115.691 609.121C114.971 617.494 129.372 619.574 130.516 611.127C142.476 522.797 203.98 446.191 289.208 418.36C313.564 410.307 339.102 406.413 364.751 406.839C370.11 406.95 373.602 401.664 372.451 396.739C370.311 387.607 369.351 379.41 373.051 370.623C374.458 367.277 370.379 363.766 367.227 364.799L367.219 364.793Z" fill="#171717"/>
</g>
<g opacity="0.1">
<path d="M316.261 684.322C322.148 687.822 329.461 687.773 336.112 688.322C342.967 688.883 349.824 689.322 356.689 689.741C370.404 690.588 384.118 691.483 397.842 692.192C410.98 692.871 424.455 694.438 437.494 692.018C446.407 690.363 463.017 684.275 461.675 672.573C461.441 670.527 460.016 668.378 457.644 668.542C452.788 668.879 448.636 671.767 444.337 673.818C439.732 675.876 434.768 677.011 429.726 677.158C417.202 677.827 404.443 676.026 391.963 675.088C379.563 674.155 367.14 673.422 354.729 672.604C348.198 672.174 341.671 671.782 335.129 671.483C328.587 671.184 322.392 670.769 316.258 673.398C311.712 675.346 312.565 682.131 316.258 684.326L316.261 684.322Z" fill="#171717"/>
</g>
<g opacity="0.1">
<path d="M738.066 619.715C740.612 625.53 749.152 629.107 754.761 631.296C760.86 633.639 767.294 634.995 773.819 635.311C785.119 635.911 802.007 633.026 807.532 621.631C807.785 621.173 807.916 620.658 807.911 620.135C807.907 619.612 807.768 619.099 807.507 618.645C807.247 618.191 806.874 617.812 806.424 617.545C805.975 617.277 805.464 617.13 804.941 617.117C800.032 616.766 794.961 618.217 790.111 618.991C785.013 619.921 779.83 620.303 774.651 620.13C769.778 619.81 764.984 618.73 760.443 616.93C755.543 615.042 750.761 610.542 745.663 609.83C739.609 608.989 735.587 614.049 738.063 619.712L738.066 619.715Z" fill="#171717"/>
</g>
<g opacity="0.1">
<path d="M226.845 541.932C222.715 539.902 219.385 540.114 214.806 540.522C209.706 540.977 204.863 540.915 199.906 542.404C190.731 545.158 182.096 549.463 174.374 555.132C157.382 567.778 145.049 584.847 136.561 604.158C127.529 624.705 122.373 646.24 119.154 668.396C115.602 692.762 114.101 717.383 114.667 742C115.416 769.236 118.229 796.375 123.081 823.186C123.994 828.35 130.305 831.258 135.017 829.963C140.461 828.463 142.717 823.205 141.794 818.027C134.024 774.273 131.637 729.514 136.14 685.256C138.24 664.628 141.745 643.937 148.515 624.287C154.615 606.595 163.522 587.975 176.335 574.122C182.872 566.917 190.591 560.881 199.159 556.274C203.642 553.855 208.277 551.732 213.036 549.916C217.662 548.216 222.351 548.639 226.845 546.546C227.245 546.308 227.575 545.97 227.805 545.565C228.035 545.161 228.155 544.704 228.155 544.238C228.155 543.773 228.035 543.316 227.805 542.912C227.575 542.507 227.245 542.169 226.845 541.931V541.932Z" fill="#171717"/>
</g>
</g>
<defs>
<linearGradient id="paint0_linear_173_28847" x1="239.532" y1="541.055" x2="239.532" y2="839.098" gradientUnits="userSpaceOnUse">
<stop stop-color="#FF9A34"/>
<stop offset="1" stop-color="#EB6421"/>
</linearGradient>
<linearGradient id="paint1_linear_173_28847" x1="716.89" y1="535.239" x2="716.89" y2="613.018" gradientUnits="userSpaceOnUse">
<stop stop-color="#FF9A34"/>
<stop offset="1" stop-color="#EB6421"/>
</linearGradient>
<linearGradient id="paint2_linear_173_28847" x1="517.369" y1="594.98" x2="517.369" y2="618.426" gradientUnits="userSpaceOnUse">
<stop stop-color="#FF9A34"/>
<stop offset="1" stop-color="#EB6421"/>
</linearGradient>
<clipPath id="clip0_173_28847">
<rect width="960" height="960" fill="white"/>
</clipPath>
</defs>
</svg>
