<svg width="960" height="960" viewBox="0 0 960 960" fill="none" xmlns="http://www.w3.org/2000/svg">
<g clip-path="url(#clip0_283_1277)">
<path d="M718.024 260.067C720.758 253.213 723.301 246.707 725.653 240.549C728.065 234.274 735.087 221.089 730.124 212.063C732.577 216.363 745.819 239.675 748.216 247.192C750.868 255.484 746.228 269.092 746.228 269.092C746.228 269.092 492.137 817.38 473.311 848.927C455.119 879.427 421.528 867.128 416.411 865.935C327.568 845.36 117.772 799.16 92.2334 792.857C67.0184 786.638 66.8494 775.878 66.8494 775.596L61.4004 746.448C63.4874 752.625 69.2264 758.223 81.2704 762.172C117.77 774.116 401.8 839.141 401.8 839.141C401.8 839.141 444.939 853.088 464.188 820.568C469.194 812.121 485.228 779.404 507.256 732.896C566.7 607.444 669.809 381.542 718.024 260.067Z" fill="#171717"/>
<path d="M730.124 212.063C735.087 221.089 728.065 234.274 725.653 240.549C723.298 246.699 720.755 253.205 718.024 260.067L325.874 211.372C330.074 203.743 333.32 198.102 335.449 194.76C360.001 156.276 411.093 166.894 411.093 166.894L706.4 202.728C719.867 203.028 726.721 206.564 729.767 211.457C729.827 211.556 729.954 211.767 730.124 212.063ZM584.731 217.126C584.927 215.655 584.531 214.165 583.629 212.986C582.727 211.806 581.394 211.033 579.922 210.836L526.151 203.6C525.903 203.568 525.654 203.549 525.404 203.544C523.978 203.536 522.603 204.072 521.558 205.043C520.514 206.014 519.88 207.347 519.784 208.77C519.689 210.192 520.14 211.598 521.045 212.7C521.95 213.801 523.242 214.516 524.656 214.698L578.428 221.933C578.676 221.965 578.925 221.984 579.175 221.989C580.532 221.985 581.841 221.49 582.862 220.597C583.883 219.703 584.547 218.471 584.731 217.126V217.126ZM498.931 204.265C499.19 202.338 498.872 200.377 498.017 198.631C497.162 196.884 495.808 195.431 494.127 194.454C492.446 193.477 490.513 193.02 488.572 193.142C486.631 193.263 484.77 193.957 483.224 195.137C481.678 196.316 480.516 197.927 479.886 199.767C479.255 201.606 479.185 203.592 479.683 205.471C480.18 207.351 481.224 209.041 482.683 210.327C484.141 211.614 485.948 212.439 487.875 212.698C490.46 213.045 493.076 212.351 495.149 210.77C497.223 209.189 498.584 206.849 498.934 204.265H498.931Z" fill="url(#paint0_linear_283_1277)"/>
<path d="M579.922 210.836C581.338 211.016 582.631 211.73 583.538 212.832C584.445 213.934 584.897 215.341 584.802 216.765C584.707 218.189 584.071 219.523 583.025 220.495C581.979 221.466 580.602 222.001 579.175 221.991C578.925 221.986 578.676 221.967 578.428 221.935L524.656 214.7C523.242 214.518 521.95 213.803 521.045 212.701C520.14 211.6 519.689 210.194 519.784 208.771C519.879 207.348 520.514 206.016 521.558 205.045C522.603 204.074 523.978 203.538 525.404 203.546C525.654 203.551 525.903 203.569 526.151 203.602L579.922 210.836Z" fill="#171717"/>
<path d="M102.187 650.849L507.255 732.9C485.227 779.408 469.194 812.125 464.188 820.572C444.938 853.087 401.8 839.14 401.8 839.14C401.8 839.14 117.77 774.115 81.2745 762.171C69.2305 758.222 63.4915 752.624 61.4045 746.447C57.1735 733.924 68.0745 719.075 72.0655 711.065C80.5265 694.142 90.7505 673.708 102.187 650.849ZM303.212 756.614C309.501 738.507 300.758 719.014 283.666 713.081C266.574 707.148 247.636 717 241.346 735.1C235.056 753.2 243.801 772.7 260.878 778.633C277.955 784.566 296.922 774.707 303.212 756.614Z" fill="url(#paint1_linear_283_1277)"/>
<path d="M490.5 193.209C492.427 193.468 494.234 194.293 495.693 195.58C497.151 196.866 498.195 198.556 498.693 200.436C499.191 202.316 499.12 204.301 498.489 206.14C497.859 207.98 496.697 209.591 495.151 210.77C493.605 211.95 491.744 212.644 489.803 212.766C487.863 212.887 485.929 212.431 484.248 211.454C482.567 210.477 481.213 209.023 480.358 207.276C479.503 205.53 479.185 203.569 479.444 201.642C479.794 199.058 481.155 196.72 483.228 195.138C485.301 193.557 487.916 192.863 490.5 193.209V193.209Z" fill="#171717"/>
<path d="M283.666 713.081C300.758 719.018 309.501 738.507 303.212 756.614C296.923 774.721 277.969 784.565 260.877 778.628C243.785 772.691 235.057 753.2 241.346 735.1C247.635 717 266.589 707.144 283.666 713.081Z" fill="url(#paint2_linear_283_1277)"/>
<path d="M729.771 211.457C726.725 206.564 719.871 203.024 706.404 202.728L411.093 166.894C411.093 166.894 360 156.276 335.449 194.76C333.32 198.102 330.076 203.743 325.874 211.372C287.911 280.36 172.2 510.914 102.187 650.849C90.7505 673.708 80.5265 694.142 72.0655 711.065C68.0745 719.075 57.1735 733.924 61.4045 746.447C63.4915 752.624 69.2305 758.222 81.2745 762.171C117.77 774.115 401.8 839.14 401.8 839.14C401.8 839.14 444.939 853.087 464.188 820.567C469.194 812.12 485.228 779.403 507.256 732.895C566.7 607.443 669.809 381.542 718.024 260.067C720.758 253.213 723.301 246.707 725.654 240.549C728.066 234.274 735.088 221.089 730.125 212.063" stroke="#171717" stroke-width="4.231" stroke-linecap="round" stroke-linejoin="round"/>
<path d="M61.4004 746.447L66.8474 775.6C66.8474 775.882 67.0164 786.642 92.2314 792.861C117.77 799.161 327.566 845.361 416.409 865.938C421.528 867.138 455.119 879.438 473.309 848.931C492.135 817.384 746.226 269.096 746.226 269.096C746.226 269.096 750.866 255.488 748.214 247.196C745.814 239.679 732.575 216.368 730.122 212.067C729.952 211.767 729.822 211.56 729.769 211.461L729.727 211.376" stroke="#171717" stroke-width="4.231" stroke-linecap="round" stroke-linejoin="round"/>
<path d="M102.187 650.849L507.255 732.895" stroke="#171717" stroke-width="4.231" stroke-linecap="round" stroke-linejoin="round"/>
<path d="M325.874 211.372L718.024 260.067H718.038" stroke="#171717" stroke-width="4.231" stroke-linecap="round" stroke-linejoin="round"/>
<path d="M303.212 756.614C296.922 774.707 277.969 784.565 260.877 778.628C243.785 772.691 235.057 753.2 241.346 735.1C247.635 717 266.589 707.149 283.666 713.086C300.743 719.023 309.5 738.507 303.212 756.614Z" stroke="#171717" stroke-width="4.231" stroke-linecap="round" stroke-linejoin="round"/>
<path d="M498.934 204.265C498.674 206.192 497.849 207.999 496.563 209.457C495.276 210.916 493.586 211.96 491.707 212.457C489.827 212.955 487.842 212.885 486.002 212.254C484.163 211.624 482.551 210.462 481.372 208.916C480.193 207.37 479.498 205.509 479.377 203.568C479.255 201.627 479.712 199.694 480.689 198.013C481.666 196.331 483.12 194.978 484.866 194.123C486.613 193.268 488.573 192.95 490.501 193.209C491.78 193.38 493.014 193.803 494.131 194.451C495.247 195.1 496.225 195.962 497.009 196.989C497.792 198.016 498.365 199.187 498.695 200.435C499.026 201.684 499.107 202.985 498.934 204.265V204.265Z" stroke="#171717" stroke-width="4.231" stroke-linecap="round" stroke-linejoin="round"/>
<path d="M578.428 221.935L524.656 214.7C523.242 214.518 521.95 213.803 521.045 212.701C520.14 211.6 519.689 210.194 519.784 208.771C519.879 207.348 520.514 206.016 521.558 205.045C522.603 204.074 523.978 203.538 525.404 203.546C525.654 203.551 525.903 203.569 526.151 203.602L579.922 210.836C581.338 211.016 582.631 211.73 583.538 212.832C584.445 213.934 584.897 215.341 584.802 216.765C584.707 218.189 584.071 219.523 583.025 220.495C581.979 221.466 580.602 222.001 579.175 221.991C578.925 221.986 578.676 221.967 578.428 221.935Z" stroke="#171717" stroke-width="4.231" stroke-linecap="round" stroke-linejoin="round"/>
<path d="M71.3295 821.535C66.8752 821.571 62.4662 820.638 58.4074 818.803C54.3487 816.967 50.7369 814.272 47.8217 810.904C44.9065 807.536 42.7575 803.575 41.5231 799.295C40.2888 795.015 39.9986 790.518 40.6725 786.114" stroke="#171717" stroke-width="4.231" stroke-linecap="round" stroke-linejoin="round"/>
<path d="M442.616 898.9C456.648 900.251 470.727 896.856 482.601 889.257C494.474 881.659 503.456 870.297 508.107 856.99" stroke="#171717" stroke-width="4.231" stroke-linecap="round" stroke-linejoin="round"/>
<path d="M177.918 369.121C161.866 373.946 151.059 389.607 146.848 405.83C142.637 422.053 143.778 439.103 144.055 455.862C144.332 472.621 143.561 490.019 136.008 504.981C132.629 511.674 127.74 517.881 121.059 521.281C114.378 524.681 105.712 524.781 99.7671 520.214C93.8221 515.647 91.9351 506.039 96.7921 500.327C102.937 493.102 116.203 496.421 120.337 504.958C124.471 513.495 120.937 524.202 114.256 530.931C107.575 537.66 98.3791 541.198 89.3411 544.077C80.3031 546.956 70.9561 549.435 63.0261 554.639C55.0961 559.843 48.6711 568.482 49.0001 577.961C49.6171 595.545 72.1561 608.389 68.5141 625.603C66.0401 637.294 49.1981 642.762 40.3291 634.754" stroke="#171717" stroke-width="4.231" stroke-linecap="round" stroke-linejoin="round"/>
<path d="M769.576 471.144C752.677 492.913 739.613 517.405 730.948 543.567C727.629 553.6 724.948 564.067 725.614 574.616C726.28 585.165 730.741 595.894 739.331 602.049C747.921 608.204 760.922 608.524 768.531 601.188C776.14 593.852 775.237 579.042 765.874 574.143C756.133 569.043 743.647 576.698 739.546 586.899C735.445 597.1 737.28 608.599 739.132 619.434C742.299 637.974 745.341 656.898 742.599 675.505C739.857 694.112 730.379 712.678 713.928 721.796C707.948 725.111 700.91 727.089 694.228 725.623C687.546 724.157 681.52 718.604 681.008 711.786" stroke="#171717" stroke-width="4.231" stroke-linecap="round" stroke-linejoin="round"/>
<path d="M695.461 665.938L687.5 647.025" stroke="#171717" stroke-width="4.231" stroke-linecap="round" stroke-linejoin="round"/>
<path d="M677.569 663.02L702.558 653.33" stroke="#171717" stroke-width="4.231" stroke-linecap="round" stroke-linejoin="round"/>
<path d="M806.808 549.512L800.874 528.6" stroke="#171717" stroke-width="4.231" stroke-linecap="round" stroke-linejoin="round"/>
<path d="M790.856 546.04L820.956 534.734" stroke="#171717" stroke-width="4.231" stroke-linecap="round" stroke-linejoin="round"/>
<path d="M375.779 126.664C354.517 119.471 329.884 124.551 312.279 138.471C294.674 152.391 284.163 174.443 282.956 196.856C282.473 205.824 283.381 214.82 282.984 223.792C282.587 232.764 280.737 242 275.41 249.235C270.083 256.47 260.648 261.184 251.959 258.915C243.27 256.646 237.159 245.993 241.275 238.015C244.003 232.728 251.523 229.993 256.321 233.515C261.119 237.037 259.452 246.468 253.532 247.06" stroke="#171717" stroke-width="4.231" stroke-linecap="round" stroke-linejoin="round"/>
<path d="M275.983 142.337L273 123.41" stroke="#171717" stroke-width="4.93" stroke-linecap="round" stroke-linejoin="round"/>
<path d="M265.194 134.956L286.028 126.525" stroke="#171717" stroke-width="4.93" stroke-linecap="round" stroke-linejoin="round"/>
<path d="M211.859 211.815L200.852 201.924" stroke="#171717" stroke-width="4.231" stroke-linecap="round" stroke-linejoin="round"/>
<path d="M198.774 216.018C202.037 209.367 206.754 203.535 212.574 198.952" stroke="#171717" stroke-width="4.231" stroke-linecap="round" stroke-linejoin="round"/>
<path d="M398.82 78.6281L396.976 60.8281L397.824 63.7011" stroke="#171717" stroke-width="4.231" stroke-linecap="round" stroke-linejoin="round"/>
<path d="M729.473 138.344L728.516 123.41" stroke="#171717" stroke-width="4.231" stroke-linecap="round" stroke-linejoin="round"/>
<path d="M720.326 132.227L736.238 130.127" stroke="#171717" stroke-width="4.231" stroke-linecap="round" stroke-linejoin="round"/>
<path d="M758.678 184.392C764.955 171.56 771.764 159.008 779.104 146.734" stroke="#171717" stroke-width="4.231" stroke-linecap="round" stroke-linejoin="round"/>
<path d="M789.014 237.853L920.333 185.89" stroke="#171717" stroke-width="4.231" stroke-linecap="round" stroke-linejoin="round"/>
<path d="M778.134 304.47C792.151 310.34 805.478 317.737 817.875 326.528" stroke="#171717" stroke-width="4.231" stroke-linecap="round" stroke-linejoin="round"/>
<path d="M519.714 478.591C554.235 415.701 534.669 355.291 476.014 343.66C417.359 332.029 341.822 373.582 307.3 436.471C276.1 493.308 289.082 548.118 335.166 566.728L378.844 487.156L351.878 481.809L369.946 448.893L396.912 454.24L410.683 429.153C426.348 400.614 450.857 387.994 475.117 392.805C482.827 394.438 490.375 396.76 497.67 399.743L482.288 427.766L468.9 425.11C455.707 422.494 446.775 430.456 441.831 439.461L430.1 460.822L459.556 466.662L436.779 498.645L412.033 493.737L368.355 573.309C423.819 574.835 488.516 535.427 519.714 478.591Z" fill="#171717"/>
<path d="M646.592 327.152L640.646 312.287" stroke="#171717" stroke-width="4.212" stroke-linecap="round" stroke-linejoin="round"/>
<path d="M535.827 306.3L550.663 298.81" stroke="#171717" stroke-width="4.212" stroke-linecap="round" stroke-linejoin="round"/>
<path d="M584.16 388.841L578.96 376.206" stroke="#171717" stroke-width="4.212" stroke-linecap="round" stroke-linejoin="round"/>
<path d="M461.525 310.057L453.349 293.706" stroke="#171717" stroke-width="4.212" stroke-linecap="round" stroke-linejoin="round"/>
<path d="M358.087 312.771L372.126 305.912" stroke="#171717" stroke-width="4.212" stroke-linecap="round" stroke-linejoin="round"/>
<path d="M353.754 262.49L348.554 246.882" stroke="#171717" stroke-width="4.212" stroke-linecap="round" stroke-linejoin="round"/>
<path d="M296.855 368.622L289.355 352.3" stroke="#171717" stroke-width="4.212" stroke-linecap="round" stroke-linejoin="round"/>
<path d="M239.961 438.5L252.495 431.625" stroke="#171717" stroke-width="4.212" stroke-linecap="round" stroke-linejoin="round"/>
<path d="M220.944 538.133L212.555 518.9" stroke="#171717" stroke-width="4.212" stroke-linecap="round" stroke-linejoin="round"/>
<path d="M320.006 639.164L314.482 622.922" stroke="#171717" stroke-width="4.212" stroke-linecap="round" stroke-linejoin="round"/>
<path d="M410.917 632.517L422.779 625.038" stroke="#171717" stroke-width="4.212" stroke-linecap="round" stroke-linejoin="round"/>
<path d="M460.855 697.248L454.25 684.569" stroke="#171717" stroke-width="4.212" stroke-linecap="round" stroke-linejoin="round"/>
<path d="M499.361 588.626L512.011 582.712" stroke="#171717" stroke-width="4.212" stroke-linecap="round" stroke-linejoin="round"/>
<path d="M549.97 556.814L541.795 541.206" stroke="#171717" stroke-width="4.212" stroke-linecap="round" stroke-linejoin="round"/>
<path d="M561.763 476.355L574.423 469.713" stroke="#171717" stroke-width="4.212" stroke-linecap="round" stroke-linejoin="round"/>
<path d="M613.146 446.814L607.946 432.692" stroke="#171717" stroke-width="4.212" stroke-linecap="round" stroke-linejoin="round"/>
<path d="M491.9 269.046L502.338 261.659" stroke="#171717" stroke-width="4.212" stroke-linecap="round" stroke-linejoin="round"/>
<path d="M389.455 73.0333L405.845 67.1953" stroke="#171717" stroke-width="4.231" stroke-linecap="round" stroke-linejoin="round"/>
<path d="M688.149 365.951L714.288 312.689" stroke="url(#paint3_linear_283_1277)" stroke-width="4.212" stroke-linecap="round" stroke-linejoin="round"/>
<path d="M653.615 446.424C663.567 426.242 672.865 405.755 681.508 384.963" stroke="url(#paint4_linear_283_1277)" stroke-width="4.212" stroke-linecap="round" stroke-linejoin="round"/>
<path d="M183.462 597.235L200.883 589.735" stroke="#171717" stroke-width="4.212" stroke-linecap="round" stroke-linejoin="round"/>
<path d="M241.206 645.306C238.044 640.384 234.58 635.663 230.833 631.171" stroke="#171717" stroke-width="4.212" stroke-linecap="round" stroke-linejoin="round"/>
<path d="M119.915 434.62L116.928 415.694" stroke="#171717" stroke-width="4.93" stroke-linecap="round" stroke-linejoin="round"/>
<path d="M109.125 427.24L129.959 418.809" stroke="#171717" stroke-width="4.93" stroke-linecap="round" stroke-linejoin="round"/>
<path d="M744.628 443.928L751.422 449.681C751.627 449.855 751.774 450.087 751.843 450.347C751.912 450.606 751.899 450.881 751.808 451.133C751.716 451.386 751.549 451.604 751.329 451.759C751.11 451.914 750.848 451.997 750.579 451.999L741.679 452.045C741.419 452.047 741.166 452.125 740.951 452.27C740.735 452.415 740.568 452.621 740.469 452.861L737.097 461.101C736.995 461.35 736.82 461.561 736.594 461.707C736.368 461.852 736.103 461.925 735.835 461.916C735.566 461.907 735.307 461.815 735.092 461.654C734.877 461.493 734.717 461.27 734.632 461.015L731.832 452.562C731.751 452.315 731.599 452.097 731.394 451.937C731.189 451.777 730.941 451.681 730.682 451.662L721.806 451C721.538 450.98 721.283 450.878 721.074 450.709C720.866 450.539 720.714 450.31 720.64 450.052C720.566 449.793 720.573 449.519 720.659 449.264C720.746 449.01 720.909 448.788 721.125 448.629L728.301 443.359C728.511 443.205 728.67 442.993 728.759 442.749C728.848 442.505 728.863 442.239 728.801 441.987L726.686 433.339C726.623 433.078 726.641 432.804 726.738 432.553C726.834 432.303 727.006 432.088 727.229 431.938C727.451 431.787 727.715 431.709 727.983 431.713C728.252 431.717 728.513 431.803 728.731 431.96L735.96 437.16C736.171 437.312 736.422 437.397 736.682 437.406C736.942 437.415 737.198 437.347 737.419 437.21L744.99 432.527C745.219 432.385 745.485 432.317 745.754 432.331C746.022 432.346 746.28 432.442 746.492 432.608C746.704 432.773 746.86 433 746.939 433.257C747.018 433.514 747.016 433.789 746.934 434.045L744.226 442.526C744.148 442.773 744.144 443.038 744.215 443.288C744.287 443.537 744.43 443.76 744.628 443.928V443.928Z" fill="#171717"/>
<path d="M674.177 149.11L667.787 162.201C667.595 162.596 667.286 162.923 666.902 163.138C666.518 163.352 666.078 163.444 665.64 163.4C665.202 163.357 664.789 163.18 664.454 162.894C664.12 162.608 663.882 162.227 663.771 161.801L660.115 147.701C660.009 147.289 659.782 146.919 659.465 146.636C659.148 146.352 658.754 146.17 658.333 146.11L643.907 144.078C643.472 144.017 643.066 143.823 642.744 143.524C642.422 143.225 642.199 142.834 642.106 142.405C642.012 141.975 642.053 141.528 642.222 141.122C642.391 140.716 642.68 140.372 643.05 140.135L655.332 132.3C655.691 132.071 655.973 131.742 656.145 131.352C656.316 130.963 656.368 130.532 656.294 130.113L653.769 115.76C653.693 115.327 653.751 114.881 653.936 114.482C654.121 114.083 654.424 113.751 654.804 113.529C655.184 113.308 655.622 113.208 656.061 113.243C656.499 113.279 656.916 113.447 657.255 113.727L668.502 122.987C668.831 123.257 669.231 123.424 669.654 123.466C670.077 123.509 670.503 123.425 670.878 123.226L683.743 116.39C684.132 116.184 684.574 116.102 685.01 116.155C685.447 116.207 685.856 116.392 686.185 116.685C686.513 116.978 686.743 117.364 686.845 117.792C686.947 118.219 686.916 118.668 686.755 119.077L681.424 132.635C681.269 133.031 681.234 133.463 681.324 133.879C681.414 134.294 681.626 134.674 681.931 134.969L692.407 145.092C692.725 145.397 692.942 145.793 693.028 146.225C693.113 146.658 693.064 147.106 692.887 147.51C692.71 147.913 692.413 148.253 692.036 148.482C691.66 148.711 691.222 148.82 690.782 148.792L676.241 147.911C675.817 147.885 675.395 147.985 675.028 148.198C674.661 148.412 674.365 148.729 674.177 149.11V149.11Z" fill="#171717"/>
<path d="M152.069 326.847L154.969 335.822C155.057 336.093 155.059 336.384 154.976 336.657C154.893 336.929 154.728 337.17 154.504 337.346C154.28 337.522 154.008 337.625 153.724 337.641C153.439 337.657 153.157 337.586 152.914 337.437L144.878 332.5C144.644 332.356 144.372 332.285 144.097 332.296C143.822 332.306 143.556 332.398 143.333 332.559L135.691 338.087C135.46 338.254 135.184 338.346 134.9 338.351C134.615 338.356 134.336 338.273 134.1 338.115C133.863 337.956 133.681 337.729 133.578 337.464C133.474 337.199 133.455 336.909 133.521 336.632L135.733 327.464C135.797 327.196 135.78 326.916 135.685 326.658C135.591 326.4 135.422 326.175 135.2 326.012L127.58 320.453C127.35 320.285 127.177 320.051 127.084 319.782C126.991 319.513 126.983 319.222 127.061 318.948C127.138 318.674 127.298 318.431 127.519 318.25C127.739 318.07 128.009 317.962 128.293 317.94L137.693 317.21C137.968 317.189 138.23 317.086 138.446 316.916C138.662 316.746 138.824 316.516 138.909 316.254L141.841 307.29C141.93 307.02 142.099 306.783 142.326 306.611C142.553 306.44 142.827 306.342 143.112 306.331C143.396 306.32 143.677 306.397 143.917 306.55C144.156 306.704 144.343 306.927 144.452 307.19L148.052 315.908C148.157 316.162 148.335 316.38 148.564 316.533C148.792 316.686 149.061 316.769 149.336 316.769L158.768 316.788C159.053 316.789 159.33 316.876 159.564 317.039C159.797 317.203 159.975 317.433 160.073 317.7C160.171 317.968 160.185 318.259 160.112 318.534C160.04 318.809 159.885 319.056 159.668 319.24L152.49 325.358C152.281 325.537 152.129 325.774 152.054 326.039C151.979 326.304 151.984 326.585 152.069 326.847V326.847Z" fill="#171717"/>
</g>
<defs>
<linearGradient id="paint0_linear_283_1277" x1="528.866" y1="165.552" x2="528.866" y2="260.067" gradientUnits="userSpaceOnUse">
<stop stop-color="#FFB800"/>
<stop offset="1" stop-color="#FF7F0A"/>
</linearGradient>
<linearGradient id="paint1_linear_283_1277" x1="283.85" y1="650.849" x2="283.85" y2="842.113" gradientUnits="userSpaceOnUse">
<stop stop-color="#FFB800"/>
<stop offset="1" stop-color="#FF7F0A"/>
</linearGradient>
<linearGradient id="paint2_linear_283_1277" x1="272.278" y1="711.354" x2="272.278" y2="780.357" gradientUnits="userSpaceOnUse">
<stop stop-color="#FFB800"/>
<stop offset="1" stop-color="#FF7F0A"/>
</linearGradient>
<linearGradient id="paint3_linear_283_1277" x1="701.219" y1="312.689" x2="701.219" y2="365.951" gradientUnits="userSpaceOnUse">
<stop stop-color="#FFB800"/>
<stop offset="1" stop-color="#FF7F0A"/>
</linearGradient>
<linearGradient id="paint4_linear_283_1277" x1="667.562" y1="384.963" x2="667.562" y2="446.424" gradientUnits="userSpaceOnUse">
<stop stop-color="#FFB800"/>
<stop offset="1" stop-color="#FF7F0A"/>
</linearGradient>
<clipPath id="clip0_283_1277">
<rect width="885" height="844" fill="white" transform="translate(38 58)"/>
</clipPath>
</defs>
</svg>
