<svg width="960" height="960" viewBox="0 0 960 960" fill="none" xmlns="http://www.w3.org/2000/svg">
<g clip-path="url(#clip0_283_1342)">
<path fill-rule="evenodd" clip-rule="evenodd" d="M529.723 379.282C559.402 424.257 531.099 495.271 466.507 537.896C401.915 580.521 325.492 578.615 295.813 533.64C266.134 488.665 294.436 417.651 359.029 375.026C423.621 332.402 500.043 334.307 529.723 379.282ZM470.705 402.68C463.159 401.474 460.88 401.144 441.346 398.944L441.345 398.939C421.811 396.74 419.462 396.551 411.58 396.02C406.635 395.577 401.652 395.876 396.795 396.907C392.913 397.731 389.191 399.183 385.776 401.207C382.245 403.179 379.045 405.694 376.295 408.659C372.736 412.482 369.711 416.769 367.302 421.403C363.274 428.759 362.098 430.968 352.789 449.703C343.48 468.438 342.452 470.665 339.128 478.103C336.054 484.98 335.4 488.829 335.173 491.414C334.797 494.39 335.306 497.41 336.638 500.097C337.867 502.725 339.898 504.896 342.438 506.297C344.539 507.548 347.845 509.126 354.823 510.242C362.368 511.447 364.645 511.779 384.181 513.978C403.717 516.177 406.066 516.366 413.947 516.897C418.892 517.34 423.875 517.041 428.731 516.01C432.614 515.187 436.337 513.734 439.751 511.71C443.283 509.739 446.482 507.225 449.232 504.259C452.791 500.436 455.816 496.15 458.225 491.515C462.253 484.159 463.429 481.95 472.738 463.215C482.047 444.48 483.075 442.253 486.399 434.815C489.473 427.938 490.127 424.088 490.353 421.503C490.73 418.528 490.221 415.508 488.889 412.82C487.66 410.194 485.629 408.025 483.089 406.625C480.989 405.374 477.683 403.795 470.705 402.68ZM417.254 383.324C425.227 383.861 427.758 384.061 447.627 386.297L447.628 386.307C467.496 388.543 469.963 388.907 477.581 390.124C485.199 391.341 489.927 393.126 493.719 395.384C497.61 397.573 500.731 400.908 502.656 404.935C504.674 409.086 505.459 413.729 504.919 418.312C504.51 422.979 503.213 428.218 499.857 435.726C496.495 443.249 495.392 445.647 485.924 464.702C476.456 483.757 475.185 486.137 471.11 493.58C467.916 499.634 463.926 505.233 459.247 510.228C454.991 514.778 450.063 518.648 444.634 521.705C439.363 524.804 433.632 527.043 427.656 528.339C421.294 529.714 414.764 530.14 408.277 529.602C400.304 529.065 397.773 528.866 377.904 526.629C358.035 524.392 355.569 524.028 347.951 522.811C340.333 521.594 335.605 519.809 331.813 517.551C327.922 515.363 324.802 512.028 322.876 508C320.857 503.848 320.072 499.203 320.613 494.617C321.022 489.95 322.319 484.711 325.675 477.203C329.037 469.679 330.14 467.281 339.608 448.226C349.076 429.171 350.347 426.792 354.422 419.348C357.617 413.295 361.607 407.696 366.285 402.7C370.542 398.151 375.469 394.279 380.897 391.22C386.169 388.123 391.9 385.884 397.875 384.586C404.237 383.212 410.768 382.787 417.254 383.324ZM430.668 420.435C409.92 418.1 385.085 432.335 375.198 452.235C365.311 472.135 374.116 490.157 394.864 492.492C415.612 494.827 440.446 480.592 450.333 460.692C460.22 440.792 451.416 422.771 430.668 420.435ZM401.145 479.851C387.677 478.335 381.962 466.635 388.38 453.719C394.798 440.803 410.919 431.561 424.387 433.077C437.855 434.593 443.57 446.293 437.152 459.209C430.734 472.125 414.613 481.367 401.145 479.851ZM479.264 417.573C481.507 420.971 479.368 426.337 474.488 429.557C469.608 432.778 463.834 432.634 461.591 429.235C459.349 425.837 461.487 420.472 466.367 417.251C471.247 414.031 477.022 414.175 479.264 417.573Z" fill="#171717"/>
<path d="M748.65 247.541C751.301 255.833 746.662 269.441 746.662 269.441C746.662 269.441 492.571 817.73 473.744 849.29C455.553 879.779 421.976 867.482 416.844 866.297C328 845.723 118.2 799.51 92.6639 793.207C67.4499 786.987 67.2809 776.242 67.2809 775.96L61.8369 746.811C63.9239 752.973 69.6639 758.586 81.7069 762.52C118.207 774.465 402.247 839.504 402.247 839.504C402.247 839.504 445.371 853.436 464.62 820.917C469.627 812.47 485.661 779.753 507.688 733.245C567.128 607.778 670.243 381.878 718.472 260.417C721.193 253.577 723.732 247.077 726.087 240.917C728.456 234.741 735.281 221.894 730.811 212.882C733.829 218.153 746.323 240.265 748.65 247.541Z" fill="#171717"/>
<path d="M730.811 212.878C735.281 221.89 728.456 234.737 726.087 240.913C723.731 247.063 721.193 253.563 718.472 260.413L326.307 211.736C330.507 204.107 333.753 198.452 335.883 195.11C360.434 156.625 411.526 167.244 411.526 167.244L706.852 203.078C720.263 203.378 727.102 206.871 730.162 211.736L730.176 211.75C730.219 211.835 730.402 212.15 730.698 212.667C730.726 212.723 730.769 212.794 730.811 212.878ZM585.165 217.49C585.361 216.017 584.964 214.527 584.063 213.346C583.161 212.165 581.828 211.39 580.356 211.19L526.585 203.956C526.337 203.923 526.087 203.904 525.837 203.899C524.417 203.905 523.053 204.448 522.018 205.42C520.983 206.392 520.355 207.719 520.26 209.136C520.165 210.552 520.611 211.952 521.507 213.053C522.403 214.153 523.684 214.874 525.09 215.068L578.861 222.289C579.109 222.321 579.358 222.34 579.609 222.345C580.964 222.341 582.273 221.847 583.293 220.955C584.314 220.063 584.979 218.833 585.165 217.49V217.49ZM499.365 204.615C499.624 202.688 499.306 200.728 498.451 198.982C497.595 197.235 496.242 195.782 494.561 194.805C492.88 193.828 490.947 193.372 489.006 193.494C487.066 193.615 485.205 194.309 483.659 195.489C482.113 196.668 480.952 198.279 480.321 200.118C479.691 201.957 479.62 203.942 480.118 205.822C480.615 207.701 481.659 209.391 483.117 210.677C484.575 211.963 486.382 212.789 488.309 213.048C489.589 213.222 490.891 213.142 492.14 212.813C493.389 212.483 494.561 211.91 495.588 211.126C496.615 210.343 497.478 209.365 498.126 208.247C498.775 207.13 499.197 205.896 499.368 204.615H499.365Z" fill="url(#paint0_linear_283_1342)"/>
<path d="M580.356 211.186C581.772 211.366 583.065 212.08 583.972 213.182C584.879 214.284 585.331 215.691 585.236 217.115C585.141 218.539 584.505 219.873 583.459 220.844C582.414 221.815 581.036 222.351 579.609 222.341C579.359 222.335 579.109 222.317 578.861 222.285L525.09 215.064C523.684 214.869 522.404 214.149 521.508 213.048C520.611 211.947 520.166 210.547 520.261 209.131C520.355 207.715 520.983 206.387 522.018 205.415C523.053 204.444 524.417 203.9 525.837 203.895C526.087 203.9 526.337 203.919 526.585 203.952L580.356 211.186Z" fill="#171717"/>
<path d="M102.621 651.2L507.688 733.246C485.661 779.754 469.627 812.471 464.62 820.918C445.371 853.437 402.247 839.505 402.247 839.505C402.247 839.505 118.2 774.465 81.7067 762.52C69.6637 758.586 63.9237 752.973 61.8367 746.811C57.6067 734.288 68.5077 719.425 72.4987 711.411C80.9597 694.492 91.1837 674.058 102.621 651.2ZM303.645 756.964C309.935 738.857 301.192 719.364 284.1 713.431C267.008 707.498 248.069 717.352 241.78 735.459C235.491 753.566 244.233 773.041 261.325 778.992C278.417 784.943 297.356 775.057 303.645 756.964Z" fill="url(#paint1_linear_283_1342)"/>
<path d="M490.935 193.573C492.86 193.833 494.664 194.659 496.121 195.944C497.577 197.23 498.619 198.919 499.115 200.797C499.612 202.675 499.541 204.658 498.911 206.496C498.281 208.333 497.12 209.943 495.576 211.121C494.031 212.299 492.172 212.993 490.233 213.115C488.294 213.236 486.363 212.781 484.683 211.805C483.003 210.83 481.65 209.378 480.795 207.634C479.94 205.89 479.621 203.931 479.879 202.006C480.05 200.725 480.471 199.491 481.12 198.374C481.768 197.257 482.63 196.279 483.657 195.496C484.684 194.712 485.856 194.139 487.105 193.809C488.353 193.479 489.655 193.399 490.935 193.573V193.573Z" fill="#171717"/>
<path d="M284.1 713.431C301.192 719.368 309.935 738.857 303.645 756.964C297.355 775.071 278.403 784.929 261.325 778.992C244.247 773.055 235.49 753.552 241.78 735.459C248.07 717.366 267.022 707.494 284.1 713.431Z" fill="url(#paint2_linear_283_1342)"/>
<path d="M730.7 212.667C730.545 212.357 730.362 212.046 730.178 211.75" stroke="#171717" stroke-width="4.231" stroke-linecap="round" stroke-linejoin="round"/>
<path d="M730.162 211.736C727.102 206.871 720.262 203.374 706.852 203.078L411.526 167.244C411.526 167.244 360.434 156.625 335.883 195.11C333.753 198.452 330.51 204.11 326.307 211.736C288.331 280.736 172.637 511.264 102.621 651.199C91.1837 674.058 80.9597 694.492 72.4997 711.415C68.5087 719.425 57.6077 734.288 61.8377 746.815C63.9247 752.977 69.6647 758.59 81.7077 762.524C118.208 774.469 402.248 839.508 402.248 839.508C402.248 839.508 445.372 853.44 464.621 820.921C469.628 812.474 485.662 779.757 507.689 733.249C567.129 607.782 670.244 381.882 718.473 260.421C721.194 253.581 723.732 247.081 726.088 240.921C728.457 234.745 735.282 221.898 730.812 212.886" stroke="#171717" stroke-width="4.231" stroke-linecap="round" stroke-linejoin="round"/>
<path d="M61.8369 746.811L67.2809 775.96C67.2809 776.242 67.4499 786.987 92.6639 793.207C118.2 799.51 328 845.723 416.843 866.3C421.976 867.485 455.553 879.782 473.743 849.293C492.57 817.733 746.661 269.445 746.661 269.445C746.661 269.445 751.3 255.836 748.649 247.545C746.322 240.269 733.828 218.157 730.81 212.882C730.768 212.798 730.725 212.727 730.697 212.671C730.397 212.149 730.218 211.839 730.175 211.754L730.161 211.74" stroke="#171717" stroke-width="4.231" stroke-linecap="round" stroke-linejoin="round"/>
<path d="M102.621 651.199L507.688 733.245" stroke="#171717" stroke-width="4.231" stroke-linecap="round" stroke-linejoin="round"/>
<path d="M326.307 211.736L718.472 260.417" stroke="#171717" stroke-width="4.231" stroke-linecap="round" stroke-linejoin="round"/>
<path d="M303.645 756.964C297.356 775.057 278.403 784.929 261.325 778.992C244.247 773.055 235.49 753.552 241.78 735.459C248.07 717.366 267.022 707.494 284.1 713.431C301.178 719.368 309.935 738.857 303.645 756.964Z" stroke="#171717" stroke-width="4.231" stroke-linecap="round" stroke-linejoin="round"/>
<path d="M499.368 204.615C499.111 206.543 498.288 208.352 497.003 209.812C495.718 211.272 494.029 212.318 492.149 212.817C490.269 213.317 488.284 213.248 486.443 212.619C484.603 211.99 482.99 210.829 481.81 209.283C480.629 207.738 479.934 205.876 479.812 203.935C479.689 201.994 480.145 200.061 481.122 198.379C482.099 196.697 483.553 195.343 485.299 194.487C487.046 193.632 489.007 193.314 490.935 193.573C492.214 193.744 493.447 194.165 494.563 194.812C495.68 195.459 496.657 196.32 497.441 197.346C498.224 198.371 498.797 199.541 499.128 200.789C499.459 202.036 499.54 203.336 499.368 204.615Z" stroke="#171717" stroke-width="4.231" stroke-linecap="round" stroke-linejoin="round"/>
<path d="M578.861 222.285L525.09 215.064C523.684 214.869 522.404 214.149 521.508 213.048C520.611 211.947 520.166 210.547 520.261 209.131C520.355 207.715 520.983 206.387 522.018 205.415C523.053 204.444 524.417 203.9 525.837 203.895C526.087 203.9 526.337 203.919 526.585 203.952L580.356 211.186C581.772 211.366 583.065 212.08 583.972 213.182C584.879 214.284 585.331 215.691 585.236 217.115C585.141 218.539 584.505 219.873 583.459 220.844C582.414 221.815 581.036 222.351 579.609 222.341C579.359 222.335 579.109 222.317 578.861 222.285V222.285Z" stroke="#171717" stroke-width="4.231" stroke-linecap="round" stroke-linejoin="round"/>
<path d="M71.7649 821.888C67.3105 821.923 62.9015 820.991 58.8427 819.155C54.7839 817.32 51.1721 814.625 48.2568 811.257C45.3416 807.888 43.1925 803.927 41.958 799.647C40.7235 795.367 40.4331 790.87 41.1069 786.467" stroke="#171717" stroke-width="4.231" stroke-linecap="round" stroke-linejoin="round"/>
<path d="M443.051 899.251C457.082 900.602 471.161 897.206 483.035 889.608C494.908 882.01 503.889 870.648 508.541 857.342" stroke="#171717" stroke-width="4.231" stroke-linecap="round" stroke-linejoin="round"/>
<path d="M178.352 369.474C162.3 374.299 151.493 389.96 147.282 406.183C143.071 422.406 144.213 439.457 144.489 456.215C144.765 472.973 143.996 490.372 136.442 505.334C133.063 512.027 128.175 518.234 121.494 521.634C114.813 525.034 106.146 525.134 100.202 520.568C94.2576 516.002 92.3696 506.392 97.2266 500.681C103.371 493.455 116.638 496.774 120.771 505.311C124.904 513.848 121.376 524.555 114.691 531.284C108.006 538.013 98.8126 541.552 89.7746 544.43C80.7366 547.308 71.3906 549.788 63.4606 554.992C55.5306 560.196 49.1046 568.836 49.4376 578.315C50.0556 595.9 72.5936 608.743 68.9516 625.957C66.4776 637.648 49.6356 643.116 40.7666 635.108" stroke="#171717" stroke-width="4.231" stroke-linecap="round" stroke-linejoin="round"/>
<path d="M770.01 471.5C753.111 493.27 740.048 517.762 731.382 543.923C728.064 553.956 725.382 564.423 726.048 574.972C726.714 585.521 731.175 596.25 739.765 602.405C748.355 608.56 761.356 608.881 768.965 601.545C776.574 594.209 775.671 579.398 766.308 574.499C756.567 569.399 744.081 577.054 739.98 587.255C735.879 597.456 737.715 608.955 739.566 619.791C742.733 638.331 745.776 657.254 743.033 675.861C740.29 694.468 730.813 713.034 714.362 722.152C708.382 725.467 701.344 727.445 694.662 725.979C687.98 724.513 681.954 718.96 681.443 712.142" stroke="#171717" stroke-width="4.231" stroke-linecap="round" stroke-linejoin="round"/>
<path d="M695.9 666.291L687.936 647.378" stroke="#171717" stroke-width="4.231" stroke-linecap="round" stroke-linejoin="round"/>
<path d="M678 663.374L702.988 653.684" stroke="#171717" stroke-width="4.231" stroke-linecap="round" stroke-linejoin="round"/>
<path d="M807.242 549.865L801.308 528.95" stroke="#171717" stroke-width="4.231" stroke-linecap="round" stroke-linejoin="round"/>
<path d="M791.29 546.393L821.39 535.088" stroke="#171717" stroke-width="4.231" stroke-linecap="round" stroke-linejoin="round"/>
<path d="M376.213 127.017C354.952 119.824 330.319 124.904 312.713 138.824C295.107 152.744 284.6 174.8 283.387 197.209C282.904 206.177 283.812 215.173 283.416 224.145C283.02 233.117 281.171 242.357 275.845 249.588C270.519 256.819 261.082 261.537 252.393 259.268C243.704 256.999 237.593 246.346 241.709 238.368C244.437 233.081 251.957 230.346 256.756 233.868C261.555 237.39 259.886 246.821 253.967 247.414" stroke="#171717" stroke-width="4.231" stroke-linecap="round" stroke-linejoin="round"/>
<path d="M276.417 142.69L273.431 123.763" stroke="#171717" stroke-width="4.93" stroke-linecap="round" stroke-linejoin="round"/>
<path d="M265.628 135.309L286.462 126.878" stroke="#171717" stroke-width="4.93" stroke-linecap="round" stroke-linejoin="round"/>
<path d="M212.293 212.168L201.286 202.278" stroke="#171717" stroke-width="4.231" stroke-linecap="round" stroke-linejoin="round"/>
<path d="M199.208 216.371C202.471 209.72 207.188 203.888 213.008 199.305" stroke="#171717" stroke-width="4.231" stroke-linecap="round" stroke-linejoin="round"/>
<path d="M399.254 78.9816L397.41 61.1816L398.258 64.0546" stroke="#171717" stroke-width="4.231" stroke-linecap="round" stroke-linejoin="round"/>
<path d="M729.907 138.7L728.951 123.766" stroke="#171717" stroke-width="4.231" stroke-linecap="round" stroke-linejoin="round"/>
<path d="M720.76 132.581L736.672 130.476" stroke="#171717" stroke-width="4.231" stroke-linecap="round" stroke-linejoin="round"/>
<path d="M759.112 184.745C765.39 171.914 772.199 159.361 779.539 147.088" stroke="#171717" stroke-width="4.231" stroke-linecap="round" stroke-linejoin="round"/>
<path d="M789.448 238.206L920.767 186.243" stroke="#171717" stroke-width="4.231" stroke-linecap="round" stroke-linejoin="round"/>
<path d="M778.568 304.823C792.586 310.694 805.913 318.091 818.309 326.881" stroke="#171717" stroke-width="4.231" stroke-linecap="round" stroke-linejoin="round"/>
<path d="M647.026 327.505L641.08 312.64" stroke="#171717" stroke-width="4.212" stroke-linecap="round" stroke-linejoin="round"/>
<path d="M536.261 306.651L551.097 299.162" stroke="#171717" stroke-width="4.212" stroke-linecap="round" stroke-linejoin="round"/>
<path d="M584.594 389.194L579.394 376.559" stroke="#171717" stroke-width="4.212" stroke-linecap="round" stroke-linejoin="round"/>
<path d="M461.959 310.411L453.783 294.059" stroke="#171717" stroke-width="4.212" stroke-linecap="round" stroke-linejoin="round"/>
<path d="M358.521 313.124L372.56 306.265" stroke="#171717" stroke-width="4.212" stroke-linecap="round" stroke-linejoin="round"/>
<path d="M354.189 262.843L348.989 247.235" stroke="#171717" stroke-width="4.212" stroke-linecap="round" stroke-linejoin="round"/>
<path d="M297.289 368.975L289.789 352.653" stroke="#171717" stroke-width="4.212" stroke-linecap="round" stroke-linejoin="round"/>
<path d="M240.4 438.851L252.933 431.976" stroke="#171717" stroke-width="4.212" stroke-linecap="round" stroke-linejoin="round"/>
<path d="M221.378 538.486L212.99 519.254" stroke="#171717" stroke-width="4.212" stroke-linecap="round" stroke-linejoin="round"/>
<path d="M320.44 639.517L314.916 623.275" stroke="#171717" stroke-width="4.212" stroke-linecap="round" stroke-linejoin="round"/>
<path d="M411.351 632.871L423.213 625.392" stroke="#171717" stroke-width="4.212" stroke-linecap="round" stroke-linejoin="round"/>
<path d="M461.289 697.6L454.689 684.922" stroke="#171717" stroke-width="4.212" stroke-linecap="round" stroke-linejoin="round"/>
<path d="M499.8 588.979L512.451 583.066" stroke="#171717" stroke-width="4.212" stroke-linecap="round" stroke-linejoin="round"/>
<path d="M550.405 557.167L542.229 541.559" stroke="#171717" stroke-width="4.212" stroke-linecap="round" stroke-linejoin="round"/>
<path d="M562.2 476.708L574.859 470.066" stroke="#171717" stroke-width="4.212" stroke-linecap="round" stroke-linejoin="round"/>
<path d="M613.58 447.167L608.38 433.046" stroke="#171717" stroke-width="4.212" stroke-linecap="round" stroke-linejoin="round"/>
<path d="M492.338 269.4L502.775 262.013" stroke="#171717" stroke-width="4.212" stroke-linecap="round" stroke-linejoin="round"/>
<path d="M389.889 73.3859L406.279 67.5479" stroke="#171717" stroke-width="4.231" stroke-linecap="round" stroke-linejoin="round"/>
<path d="M688.583 366.305L714.722 313.042" stroke="url(#paint3_linear_283_1342)" stroke-width="4.212" stroke-linecap="round" stroke-linejoin="round"/>
<path d="M654.05 446.777C664.001 426.596 673.299 406.109 681.942 385.317" stroke="url(#paint4_linear_283_1342)" stroke-width="4.212" stroke-linecap="round" stroke-linejoin="round"/>
<path d="M183.9 597.588L201.321 590.088" stroke="#171717" stroke-width="4.212" stroke-linecap="round" stroke-linejoin="round"/>
<path d="M241.64 645.659C238.478 640.738 235.013 636.017 231.267 631.524" stroke="#171717" stroke-width="4.212" stroke-linecap="round" stroke-linejoin="round"/>
<path d="M120.349 434.973L117.363 416.047" stroke="#171717" stroke-width="4.93" stroke-linecap="round" stroke-linejoin="round"/>
<path d="M109.559 427.593L130.394 419.162" stroke="#171717" stroke-width="4.93" stroke-linecap="round" stroke-linejoin="round"/>
<path d="M745.062 444.281L751.856 450.035C752.061 450.208 752.208 450.441 752.277 450.7C752.346 450.96 752.333 451.235 752.242 451.487C752.15 451.74 751.983 451.958 751.763 452.112C751.543 452.267 751.281 452.351 751.013 452.352L742.113 452.398C741.853 452.399 741.599 452.478 741.384 452.623C741.169 452.769 741.002 452.974 740.904 453.215L737.531 461.454C737.429 461.702 737.253 461.914 737.028 462.06C736.802 462.205 736.537 462.279 736.269 462.269C736 462.26 735.741 462.169 735.526 462.008C735.311 461.847 735.15 461.624 735.066 461.369L732.272 452.916C732.19 452.669 732.037 452.452 731.833 452.291C731.628 452.131 731.38 452.035 731.121 452.016L722.243 451.355C721.975 451.335 721.719 451.233 721.511 451.064C721.302 450.894 721.151 450.665 721.076 450.406C721.002 450.148 721.009 449.873 721.096 449.619C721.183 449.365 721.345 449.143 721.562 448.984L728.738 443.714C728.947 443.56 729.106 443.348 729.195 443.104C729.284 442.86 729.299 442.595 729.238 442.343L727.12 433.7C727.056 433.439 727.073 433.165 727.17 432.914C727.267 432.663 727.438 432.448 727.661 432.298C727.884 432.148 728.147 432.069 728.416 432.073C728.685 432.077 728.946 432.164 729.164 432.321L736.393 437.521C736.604 437.673 736.855 437.758 737.115 437.767C737.374 437.776 737.631 437.708 737.852 437.571L745.423 432.888C745.651 432.747 745.918 432.679 746.186 432.694C746.454 432.708 746.711 432.805 746.923 432.97C747.135 433.136 747.291 433.362 747.37 433.618C747.449 433.875 747.448 434.15 747.367 434.406L744.659 442.887C744.582 443.133 744.579 443.397 744.651 443.644C744.722 443.892 744.865 444.114 745.062 444.281V444.281Z" fill="#171717"/>
<path d="M674.612 149.463L668.221 162.555C668.028 162.95 667.719 163.276 667.336 163.491C666.952 163.705 666.512 163.796 666.074 163.753C665.637 163.709 665.223 163.533 664.889 163.247C664.555 162.961 664.317 162.58 664.206 162.155L660.549 148.055C660.443 147.643 660.216 147.272 659.899 146.989C659.582 146.706 659.188 146.524 658.767 146.465L644.341 144.432C643.906 144.37 643.5 144.177 643.178 143.878C642.856 143.578 642.633 143.188 642.54 142.758C642.447 142.329 642.488 141.881 642.656 141.475C642.825 141.069 643.114 140.725 643.485 140.489L655.766 132.654C656.125 132.425 656.407 132.095 656.579 131.706C656.75 131.317 656.802 130.886 656.728 130.467L654.2 116.114C654.124 115.681 654.182 115.234 654.367 114.835C654.552 114.436 654.854 114.104 655.234 113.882C655.614 113.66 656.053 113.56 656.491 113.596C656.93 113.631 657.347 113.8 657.686 114.08L668.933 123.34C669.261 123.61 669.662 123.777 670.085 123.819C670.508 123.862 670.934 123.778 671.309 123.579L684.175 116.744C684.563 116.538 685.005 116.455 685.442 116.508C685.878 116.561 686.288 116.746 686.616 117.038C686.944 117.331 687.174 117.717 687.276 118.145C687.378 118.572 687.347 119.021 687.186 119.43L681.855 132.988C681.699 133.383 681.665 133.816 681.755 134.232C681.845 134.647 682.056 135.026 682.362 135.322L692.838 145.446C693.154 145.751 693.369 146.146 693.454 146.578C693.539 147.009 693.489 147.456 693.312 147.859C693.135 148.261 692.839 148.6 692.464 148.829C692.088 149.058 691.652 149.166 691.213 149.14L676.672 148.259C676.248 148.234 675.826 148.335 675.46 148.549C675.093 148.763 674.798 149.081 674.612 149.463V149.463Z" fill="#171717"/>
<path d="M152.5 327.2L155.4 336.175C155.487 336.445 155.489 336.737 155.406 337.009C155.323 337.281 155.159 337.521 154.935 337.697C154.711 337.873 154.439 337.976 154.155 337.993C153.871 338.009 153.588 337.938 153.346 337.79L145.309 332.853C145.074 332.709 144.802 332.638 144.527 332.648C144.252 332.659 143.987 332.75 143.764 332.912L136.123 338.44C135.892 338.607 135.616 338.699 135.331 338.704C135.046 338.709 134.767 338.627 134.53 338.468C134.294 338.31 134.112 338.083 134.008 337.817C133.905 337.552 133.885 337.261 133.952 336.985L136.164 327.817C136.228 327.549 136.212 327.268 136.117 327.01C136.022 326.751 135.853 326.527 135.631 326.365L128.012 320.806C127.782 320.638 127.609 320.404 127.516 320.135C127.423 319.866 127.415 319.574 127.492 319.301C127.57 319.027 127.73 318.783 127.95 318.603C128.171 318.423 128.441 318.314 128.725 318.293L138.125 317.563C138.399 317.541 138.661 317.439 138.878 317.269C139.094 317.099 139.255 316.868 139.341 316.607L142.273 307.643C142.361 307.372 142.53 307.135 142.758 306.964C142.985 306.792 143.259 306.695 143.543 306.684C143.828 306.673 144.109 306.749 144.348 306.903C144.588 307.056 144.775 307.28 144.884 307.543L148.484 316.26C148.589 316.514 148.767 316.732 148.996 316.885C149.225 317.038 149.493 317.12 149.769 317.121L159.2 317.14C159.484 317.14 159.762 317.228 159.995 317.391C160.229 317.554 160.406 317.785 160.504 318.052C160.602 318.319 160.616 318.61 160.544 318.885C160.472 319.161 160.317 319.407 160.1 319.592L152.921 325.71C152.712 325.889 152.56 326.126 152.486 326.391C152.411 326.656 152.416 326.937 152.5 327.2V327.2Z" fill="#171717"/>
</g>
<defs>
<linearGradient id="paint0_linear_283_1342" x1="529.301" y1="165.901" x2="529.301" y2="260.413" gradientUnits="userSpaceOnUse">
<stop stop-color="#FFB800"/>
<stop offset="1" stop-color="#FF7F0A"/>
</linearGradient>
<linearGradient id="paint1_linear_283_1342" x1="284.283" y1="651.2" x2="284.283" y2="842.472" gradientUnits="userSpaceOnUse">
<stop stop-color="#FFB800"/>
<stop offset="1" stop-color="#FF7F0A"/>
</linearGradient>
<linearGradient id="paint2_linear_283_1342" x1="272.714" y1="711.705" x2="272.714" y2="780.72" gradientUnits="userSpaceOnUse">
<stop stop-color="#FFB800"/>
<stop offset="1" stop-color="#FF7F0A"/>
</linearGradient>
<linearGradient id="paint3_linear_283_1342" x1="701.652" y1="313.042" x2="701.652" y2="366.305" gradientUnits="userSpaceOnUse">
<stop stop-color="#FFB800"/>
<stop offset="1" stop-color="#FF7F0A"/>
</linearGradient>
<linearGradient id="paint4_linear_283_1342" x1="667.996" y1="385.317" x2="667.996" y2="446.777" gradientUnits="userSpaceOnUse">
<stop stop-color="#FFB800"/>
<stop offset="1" stop-color="#FF7F0A"/>
</linearGradient>
<clipPath id="clip0_283_1342">
<rect width="885" height="843" fill="white" transform="translate(38 59)"/>
</clipPath>
</defs>
</svg>
