<?xml version="1.0" encoding="UTF-8" standalone="no"?>
<svg
   width="566.29999"
   height="86.363998"
   viewBox="0 0 566.29999 86.363998"
   fill="none"
   stroke="currentColor"
   stroke-width="2"
   stroke-linecap="round"
   stroke-linejoin="round"
   class="lucide lucide-soup"
   version="1.1"
   id="svg1079"
   sodipodi:docname="letmecook.svg"
   inkscape:version="1.2.2 (732a01da63, 2022-12-09)"
   xml:space="preserve"
   xmlns:inkscape="http://www.inkscape.org/namespaces/inkscape"
   xmlns:sodipodi="http://sodipodi.sourceforge.net/DTD/sodipodi-0.dtd"
   xmlns="http://www.w3.org/2000/svg"
   xmlns:svg="http://www.w3.org/2000/svg"><defs
     id="defs1083"><rect
       x="-22.627417"
       y="-14.142136"
       width="120.20815"
       height="146.37109"
       id="rect5321" /></defs><sodipodi:namedview
     id="namedview1081"
     pagecolor="#ffffff"
     bordercolor="#000000"
     borderopacity="0.25"
     inkscape:showpageshadow="2"
     inkscape:pageopacity="0.0"
     inkscape:pagecheckerboard="0"
     inkscape:deskcolor="#d1d1d1"
     showgrid="false"
     inkscape:zoom="1.4142136"
     inkscape:cx="344.36099"
     inkscape:cy="224.85995"
     inkscape:window-width="1920"
     inkscape:window-height="974"
     inkscape:window-x="-11"
     inkscape:window-y="-11"
     inkscape:window-maximized="1"
     inkscape:current-layer="svg1079" /><g
     aria-label="LetMeCook"
     id="text2363"
     style="font-weight:600;font-size:85.3333px;font-family:'Archivo Variable';-inkscape-font-specification:'Archivo Variable Semi-Bold';letter-spacing:0px;fill:#f77047;stroke:#f77047;stroke-width:1.62142"
     transform="translate(-45.254834,-164.89802)"><path
       d="m 123.49154,238.61447 v -58.62398 h 15.27466 v 46.07998 h 29.78132 v 12.544 z"
       style="font-weight:800;-inkscape-font-specification:'Archivo Variable Ultra-Bold';fill:#2a2c41;stroke:#2a2c41"
       id="path21865" /><path
       d="m 197.56077,239.63847 q -11.52,0 -17.83466,-5.71733 -6.31467,-5.71733 -6.31467,-17.83466 0,-7.936 2.816,-13.14133 2.816,-5.20533 8.10667,-7.76533 5.29066,-2.56 12.71466,-2.56 11.09333,0 16.89599,5.632 5.888,5.54666 5.888,17.66399 v 2.98667 h -32.25599 q 0,5.37599 2.304,8.27733 2.304,2.81599 7.59466,2.81599 2.816,0 4.77867,-0.85333 1.96267,-0.93866 2.98666,-2.56 1.024,-1.70666 1.024,-4.01066 h 13.568 q 0,5.46133 -2.64533,9.30133 -2.64534,3.84 -7.68,5.80266 -4.94933,1.96267 -11.94666,1.96267 z m -9.89866,-28.50132 h 17.91999 q 0,-2.98667 -1.024,-4.94934 -0.93867,-1.96266 -2.816,-2.90133 -1.792,-1.024 -4.352,-1.024 -4.608,0 -6.912,2.304 -2.30399,2.304 -2.81599,6.57067 z"
       style="font-weight:800;-inkscape-font-specification:'Archivo Variable Ultra-Bold';fill:#2a2c41;stroke:#2a2c41"
       id="path21867" /><path
       d="m 244.1527,239.63847 q -4.35199,0 -7.42399,-1.28 -2.98667,-1.36533 -4.52267,-4.01067 -1.45066,-2.64533 -1.45066,-6.39999 v -24.14933 h -5.888 v -10.15466 h 6.31466 l 2.90133,-13.14133 h 10.58133 v 13.14133 h 8.78933 v 10.15466 h -8.78933 v 20.73599 q 0,2.38934 0.93867,3.66934 0.93867,1.28 3.41333,1.28 h 4.43733 v 8.70399 q -1.792,0.59733 -4.52266,1.024 -2.73067,0.42667 -4.77867,0.42667 z"
       style="font-weight:800;-inkscape-font-specification:'Archivo Variable Ultra-Bold';fill:#2a2c41;stroke:#2a2c41"
       id="path21869" /><path
       d="m 262.32872,238.61447 v -58.62398 h 22.27199 l 7.08267,26.11199 q 0.42667,1.36533 1.024,3.75467 0.59733,2.304 1.19466,4.86399 0.59734,2.56 1.024,4.608 h 0.68267 q 0.34133,-1.62133 0.85333,-3.84 0.512,-2.30399 1.10934,-4.77866 0.59733,-2.56 1.10933,-4.69333 l 7.168,-26.02666 h 21.67465 v 58.62398 h -14.84799 v -25.00266 q 0,-3.66933 0,-7.424 0.0853,-3.75466 0.17067,-6.82666 0.0853,-3.072 0.0853,-4.43733 h -0.68267 q -0.256,1.28 -0.85333,3.75466 -0.512,2.38934 -1.19467,5.03467 -0.59733,2.56 -1.10933,4.43733 l -8.53333,30.46399 h -12.28799 l -8.61867,-30.46399 q -0.42666,-1.70667 -1.024,-4.096 -0.59733,-2.38933 -1.19466,-4.864 -0.512,-2.47466 -0.93867,-4.18133 h -0.68266 q 0.0853,2.21867 0.17066,5.46133 0.0853,3.15734 0.17067,6.656 0.0853,3.41333 0.0853,6.48533 v 25.00266 z"
       style="font-weight:800;-inkscape-font-specification:'Archivo Variable Ultra-Bold';fill:#2a2c41;stroke:#2a2c41"
       id="path21871" /><path
       d="m 361.22998,239.63847 q -11.51999,0 -17.83466,-5.71733 -6.31466,-5.71733 -6.31466,-17.83466 0,-7.936 2.816,-13.14133 2.81599,-5.20533 8.10666,-7.76533 5.29066,-2.56 12.71466,-2.56 11.09333,0 16.89599,5.632 5.888,5.54666 5.888,17.66399 v 2.98667 h -32.25599 q 0,5.37599 2.304,8.27733 2.304,2.81599 7.59467,2.81599 2.816,0 4.77866,-0.85333 1.96267,-0.93866 2.98667,-2.56 1.024,-1.70666 1.024,-4.01066 h 13.56799 q 0,5.46133 -2.64533,9.30133 -2.64533,3.84 -7.68,5.80266 -4.94933,1.96267 -11.94666,1.96267 z m -9.89866,-28.50132 h 17.91999 q 0,-2.98667 -1.024,-4.94934 -0.93867,-1.96266 -2.816,-2.90133 -1.792,-1.024 -4.352,-1.024 -4.60799,0 -6.91199,2.304 -2.304,2.304 -2.816,6.57067 z"
       style="font-weight:800;-inkscape-font-specification:'Archivo Variable Ultra-Bold';fill:#2a2c41;stroke:#2a2c41"
       id="path21873" /><path
       d="m 420.1099,239.63847 q -14.25066,0 -21.93065,-7.424 -7.59467,-7.50933 -7.59467,-22.95466 0,-15.18932 7.59467,-22.69865 7.67999,-7.59467 21.93065,-7.59467 7.936,0 14.08,2.73067 6.14399,2.64533 9.55733,8.02133 3.49866,5.29066 3.49866,13.22666 h -14.93333 q 0,-5.632 -3.32799,-8.78933 -3.24267,-3.24267 -8.87467,-3.24267 -4.77866,0 -7.85066,1.96267 -3.072,1.96267 -4.52267,5.632 -1.45066,3.66933 -1.45066,8.87466 v 3.84 q 0,5.20533 1.45066,8.96 1.45067,3.66933 4.43734,5.63199 3.072,1.87734 7.85066,1.87734 6.05866,0 9.38666,-3.072 3.41333,-3.072 3.41333,-8.78933 h 14.42133 q 0,7.93599 -3.41333,13.22666 -3.328,5.29066 -9.472,7.936 -6.05866,2.64533 -14.25066,2.64533 z"
       style="font-weight:800;-inkscape-font-specification:'Archivo Variable Ultra-Bold'"
       id="path21875" /><path
       d="m 477.96595,239.63847 q -7.50933,0 -12.88532,-2.56 -5.29067,-2.56 -8.192,-7.76533 -2.816,-5.29067 -2.816,-13.22666 0,-7.936 2.816,-13.14133 2.90133,-5.20533 8.192,-7.76533 5.37599,-2.56 12.88532,-2.56 7.59467,0 12.88533,2.56 5.376,2.56 8.192,7.76533 2.90133,5.20533 2.90133,13.14133 0,7.93599 -2.90133,13.22666 -2.816,5.20533 -8.192,7.76533 -5.29066,2.56 -12.88533,2.56 z m 0,-10.15466 q 5.29067,0 7.50933,-2.98667 2.304,-3.072 2.304,-8.78933 v -3.15733 q 0,-5.71733 -2.304,-8.704 -2.21866,-3.072 -7.50933,-3.072 -5.20533,0 -7.50933,3.072 -2.21866,2.98667 -2.21866,8.704 v 3.15733 q 0,5.71733 2.21866,8.78933 2.304,2.98667 7.50933,2.98667 z"
       style="font-weight:800;-inkscape-font-specification:'Archivo Variable Ultra-Bold'"
       id="path21877" /><path
       d="m 532.1526,239.63847 q -7.50933,0 -12.88533,-2.56 -5.29066,-2.56 -8.19199,-7.76533 -2.816,-5.29067 -2.816,-13.22666 0,-7.936 2.816,-13.14133 2.90133,-5.20533 8.19199,-7.76533 5.376,-2.56 12.88533,-2.56 7.59466,0 12.88533,2.56 5.376,2.56 8.19199,7.76533 2.90134,5.20533 2.90134,13.14133 0,7.93599 -2.90134,13.22666 -2.81599,5.20533 -8.19199,7.76533 -5.29067,2.56 -12.88533,2.56 z m 0,-10.15466 q 5.29066,0 7.50933,-2.98667 2.304,-3.072 2.304,-8.78933 v -3.15733 q 0,-5.71733 -2.304,-8.704 -2.21867,-3.072 -7.50933,-3.072 -5.20533,0 -7.50933,3.072 -2.21867,2.98667 -2.21867,8.704 v 3.15733 q 0,5.71733 2.21867,8.78933 2.304,2.98667 7.50933,2.98667 z"
       style="font-weight:800;-inkscape-font-specification:'Archivo Variable Ultra-Bold'"
       id="path21879" /><path
       d="m 564.57929,238.61447 v -61.86664 h 13.99466 v 34.98665 l 15.18932,-18.09066 h 16.384 l -15.95733,17.83466 16.55466,27.13599 h -15.95733 l -9.98399,-17.49333 -6.22933,6.05867 v 11.43466 z"
       style="font-weight:800;-inkscape-font-specification:'Archivo Variable Ultra-Bold'"
       id="path21881" /></g><text
     xml:space="preserve"
     id="text5319"
     style="font-style:normal;font-variant:normal;font-weight:600;font-stretch:normal;font-size:96px;font-family:'Archivo Variable';-inkscape-font-specification:'Archivo Variable Semi-Bold';text-align:start;white-space:pre;shape-inside:url(#rect5321);display:inline;fill:#f77047;stroke:#f77047;stroke-width:1.62142" /><g
     style="fill:#fdbf50;fill-opacity:0;stroke:#2a2c41;stroke-width:2.61905;stroke-linecap:round;stroke-linejoin:bevel;stroke-dasharray:none;stroke-opacity:1;paint-order:normal"
     id="g6426"
     transform="matrix(3.8181818,0,0,3.8181818,-14.090904,-2.636359)"><rect
       width="14"
       height="20"
       x="5"
       y="2"
       rx="2"
       ry="2"
       id="rect6414"
       style="fill:#fdbf50;fill-opacity:0;stroke:#2a2c41;stroke-width:2.61905;stroke-linecap:round;stroke-linejoin:bevel;stroke-dasharray:none;stroke-opacity:1;paint-order:normal" /><path
       d="m 12,18 h 0.01"
       id="path6416"
       style="fill:#fdbf50;fill-opacity:0;stroke:#2a2c41;stroke-width:2.61905;stroke-linecap:round;stroke-linejoin:bevel;stroke-dasharray:none;stroke-opacity:1;paint-order:normal" /></g><path
     d="m 30.793498,51.059351 a 13.966102,13.966102 0 0 0 13.96609,-13.96609 H 16.827385 a 13.966102,13.966102 0 0 0 13.966113,13.96609 z"
     id="path1067"
     style="fill:#f77047;fill-opacity:1;stroke:#f77047;stroke-width:3;stroke-dasharray:none;stroke-opacity:1" /><path
     d="M 23.034536,51.059351 H 38.552428"
     id="path1069"
     style="fill:#f77047;fill-opacity:1;stroke:#f77047;stroke-width:3;stroke-dasharray:none;stroke-opacity:1" /><path
     d="m 42.431908,37.093261 3.87947,-9.31074"
     id="path1071"
     style="fill:#f77047;fill-opacity:1;stroke:#f77047;stroke-width:3;stroke-dasharray:none;stroke-opacity:1" /><path
     d="m 37.388598,23.127151 c 0.41897,0.15518 1.24143,0.82245 1.16383,2.11044 -0.0931,1.28798 -1.44316,1.86214 -1.55178,3.13461 -0.0775,1.2104 0.5276,1.92422 1.13281,2.5139"
     id="path1073"
     style="fill:#f77047;fill-opacity:1;stroke:#f77047;stroke-width:3;stroke-dasharray:none;stroke-opacity:1" /><path
     d="m 29.629658,23.127151 c 0.41897,0.15518 1.24141,0.82245 1.1483,2.11044 -0.0775,1.28798 -1.44316,1.86214 -1.52073,3.13461 -0.0931,1.2104 0.51208,1.92422 1.11728,2.5139"
     id="path1075"
     style="fill:#f77047;fill-opacity:1;stroke:#f77047;stroke-width:3;stroke-dasharray:none;stroke-opacity:1" /><path
     d="m 21.870696,23.127151 c 0.41899,0.15518 1.24143,0.82245 1.16384,2.11044 -0.0931,1.28798 -1.44316,1.86214 -1.55178,3.13461 -0.0776,1.2104 0.5276,1.92422 1.14832,2.5139"
     id="path1077"
     style="fill:#f77047;fill-opacity:1;stroke:#f77047;stroke-width:3;stroke-dasharray:none;stroke-opacity:1" /></svg>
