<svg width="960" height="960" viewBox="0 0 960 960" fill="none" xmlns="http://www.w3.org/2000/svg">
<g clip-path="url(#clip0_166_371)">
<path fill-rule="evenodd" clip-rule="evenodd" d="M637.664 326.503C637.664 328.944 625.115 330.914 609.636 330.914C594.452 330.914 582.076 329.015 581.629 326.638C581.54 330.079 581.486 333.541 581.466 337.023C581.435 340.903 581.435 344.824 581.435 348.816C582.456 363.111 584.498 376.386 594.709 388.639C602.847 398.993 606.156 410.95 607.136 423.529C607.485 428.378 607.564 433.243 607.371 438.1V438.322C609.126 438.315 610.876 438.116 612.589 437.73L612.489 437.27C612.885 433.837 613.065 430.378 613.244 426.918C613.291 426.015 613.338 425.112 613.389 424.21C613.781 417.277 614.414 410.344 617.089 403.605C618.178 400.85 619.579 398.229 621.266 395.793C622.457 393.92 623.677 392.076 624.887 390.246C630.937 381.096 636.752 372.304 637.603 362.093C638.104 352.593 638.359 343.344 638.267 334.093C638.243 331.56 638.195 329.026 638.124 326.493L637.664 326.503ZM633.516 340.223C633.545 339.378 632.883 338.669 632.038 338.64C631.192 338.611 630.484 339.273 630.455 340.118L629.465 368.947C629.435 369.793 630.097 370.501 630.943 370.531C631.788 370.56 632.497 369.898 632.526 369.052L633.516 340.223Z" fill="#171717"/>
<path fill-rule="evenodd" clip-rule="evenodd" d="M696.306 272.498C691.19 289.683 682.296 306.173 668.471 317.589C659.516 324.982 649.856 330.986 638.618 334.082H638.271C638.363 343.335 638.107 352.582 637.607 362.082C636.756 372.299 630.938 381.095 624.885 390.245C623.677 392.072 622.459 393.913 621.27 395.782C619.583 398.218 618.182 400.839 617.093 403.594L618.452 404.114C632.246 407.31 645.918 405.063 658.968 399.56C672.018 394.057 683.556 385.429 693.931 375.789C734.151 338.418 758.055 284.04 758.392 229.14C758.419 224.799 758.214 220.173 755.692 216.64C752.741 212.505 747.508 211.014 742.408 210.095C741.672 209.962 740.947 209.84 740.233 209.727C733.191 208.61 726.152 207.501 719.117 206.399C717.15 206.016 715.144 205.875 713.143 205.98C711.884 206.072 710.661 206.438 709.559 207.052C705.516 209.394 704.73 214.796 704.372 219.452C703.006 237.321 701.422 255.313 696.306 272.498ZM741.356 282.77C741.584 281.956 741.109 281.11 740.295 280.882C739.48 280.654 738.635 281.129 738.407 281.944C725.993 326.255 696.689 363.928 656.794 386.863C656.061 387.285 655.808 388.221 656.23 388.954C656.651 389.688 657.588 389.94 658.321 389.519C698.911 366.183 728.726 327.854 741.356 282.77Z" fill="url(#paint0_linear_166_371)"/>
<path d="M687.167 880.363C691.006 884.233 692.089 890.363 690.467 895.563C688.665 900.773 684.909 905.078 679.991 907.571C672.067 911.789 662.622 911.635 653.647 911.38C635.411 910.846 617.177 910.322 598.947 909.808C592.116 909.614 584.958 909.328 579.056 905.876C576.783 904.526 574.77 902.78 573.113 900.72C594.076 901.629 615.039 902.538 636.002 903.446C645.733 903.865 655.781 904.246 664.889 900.791C673.997 897.336 682 889.012 681.919 879.271L682.95 877.382C684.514 878.131 685.94 879.138 687.167 880.363V880.363Z" fill="url(#paint1_linear_166_371)"/>
<path d="M682.95 877.382L681.919 879.271C682 889.012 674.005 897.334 664.887 900.795C655.769 904.256 645.731 903.869 636 903.45C615.037 902.552 594.074 901.643 573.111 900.724C570.073 896.873 567.975 892.366 566.985 887.562C565.422 880.384 565.8 872.962 566.249 865.639C574.306 868.939 583.761 867.028 592.389 865.006C600.956 863.015 609.962 860.789 616.303 854.693C617.135 853.891 617.913 853.035 618.631 852.13L619.346 852.192C635.3 862.71 653.08 870.152 671.769 874.135C675.557 874.931 679.539 875.687 682.95 877.382Z" fill="url(#paint2_linear_166_371)"/>
<path d="M614.588 478.646C628.924 479.32 640.003 483.782 640.003 489.184C640.003 494.684 628.577 499.2 613.903 499.762C612.893 499.802 611.861 499.823 610.809 499.823C594.686 499.823 581.616 495.065 581.616 489.184C581.616 484.109 591.398 479.861 604.478 478.809C606.51 478.636 608.634 478.554 610.809 478.554C612.086 478.554 613.352 478.585 614.588 478.646Z" fill="#171717"/>
<path d="M613.271 467.628C614.139 471.284 614.16 475.021 614.589 478.646C613.353 478.585 612.088 478.554 610.81 478.554C608.635 478.554 606.51 478.636 604.479 478.809C605.296 474.868 605.715 470.855 606.542 466.944C608.762 467.04 610.985 466.999 613.199 466.822L613.271 467.628Z" fill="#171717"/>
<path d="M607.144 423.527C607.494 428.376 607.573 433.24 607.379 438.098V438.313C605.7 438.335 604.021 438.239 602.355 438.027C600.246 437.908 598.213 437.193 596.494 435.964C594.894 434.606 594.084 432.094 595.248 430.338C597.311 427.214 603.325 428.838 604.938 425.447C605.197 424.9 605.293 424.291 605.214 423.691L607.144 423.527Z" fill="url(#paint3_linear_166_371)"/>
<path d="M613.985 501.355C615.139 506.307 616.222 511.362 615.752 516.406C615.252 521.746 612.699 527.178 608.002 529.762C606.4 530.593 604.677 531.168 602.896 531.467C601.538 531.722 600.16 531.886 598.802 532.049C567.924 535.643 537.058 539.23 506.202 542.811C502.577 543.23 498.942 543.659 495.317 544.077C492.458 544.414 489.426 544.721 486.801 543.536C481.601 541.208 480.401 534.346 480.95 528.679C481.499 523.012 483.064 517.039 480.777 511.821V511.811C507.335 510.994 533.72 504.643 556.93 491.849C566.73 486.449 576.555 479.095 579.659 468.333C580.168 466.561 580.49 464.74 580.619 462.901C589.482 464.463 597.855 466.607 606.545 466.944C605.718 470.855 605.299 474.868 604.482 478.809C591.402 479.861 581.62 484.109 581.62 489.184C581.62 495.065 594.69 499.823 610.813 499.823C611.865 499.823 612.896 499.803 613.907 499.762L613.985 501.355Z" fill="url(#paint4_linear_166_371)"/>
<path d="M506.2 542.811C537.067 539.227 567.934 535.639 598.8 532.049C600.158 531.886 601.536 531.722 602.894 531.467L603.007 532.08C603.844 536.368 604.657 540.656 605.447 544.945L604.936 545.037C571.884 547.753 538.941 551.473 506.105 556.198C505.964 551.736 505.954 547.273 506.2 542.811Z" fill="#171717"/>
<path d="M564.258 221.75C557.08 224.701 549.218 225.997 541.723 228.193C532.574 230.878 523.18 235.606 519.044 244.193C516.338 249.809 516.277 256.314 516.757 262.532C517.557 272.896 519.728 283.066 522.057 293.216L520.057 293.665C520.207 295.681 519.71 297.693 518.639 299.407C517.568 301.122 515.978 302.451 514.1 303.2C512.19 303.854 510.11 303.811 508.228 303.079C506.347 302.347 504.784 300.973 503.818 299.2C503.321 298.109 503.08 296.919 503.115 295.721C503.149 294.522 503.458 293.348 504.018 292.288C505.361 291.432 506.517 290.313 507.418 289C505.935 289.665 504.732 290.828 504.018 292.288C502.482 293.296 500.745 293.958 498.927 294.229C497.11 294.501 495.255 294.375 493.491 293.86C500.148 283.612 503.018 271.363 501.608 259.225C500.508 250.076 497.013 240.631 500.077 231.941C503.906 221.118 516.057 216.165 526.777 212.061C531.699 210.182 537.111 207.69 538.898 202.728C540.498 198.235 539.298 191.792 543.666 189.882C546.678 188.555 550.273 190.995 551.396 194.089C552.519 197.183 551.906 200.604 551.273 203.831C552.09 200.89 552.973 197.831 555.021 195.57C557.069 193.309 560.698 192.159 563.261 193.824C565.824 195.489 566.242 199.093 565.671 202.084C565.1 205.075 563.792 207.956 563.812 210.999C568.507 204.612 574.775 199.549 582.005 196.3C584.067 205.612 577.236 214.894 568.905 219.53C567.402 220.362 565.85 221.103 564.258 221.75V221.75Z" fill="#171717"/>
<path d="M464.192 413.286L464.652 414.532C464.642 426.019 464.621 437.955 464.57 453.813L464.58 454.13C462.906 454.181 461.231 454.191 459.546 454.16C454.227 454.06 448.546 453.343 444.526 449.872C438.737 444.872 438.481 435.444 442.3 428.806C446.119 422.168 453.022 417.906 460.077 414.92C461.435 414.348 462.814 413.807 464.192 413.286Z" fill="#171717"/>
<path d="M477.169 408.374C472.942 410.202 468.521 411.652 464.191 413.286C462.813 413.807 461.434 414.348 460.076 414.92C453.021 417.901 446.118 422.169 442.299 428.806C438.48 435.443 438.736 444.868 444.525 449.872C448.548 453.343 454.225 454.058 459.545 454.16C461.23 454.191 462.905 454.181 464.579 454.13C470.217 453.936 475.831 453.294 481.366 452.21L481.356 452.138C480.049 437.404 478.732 423.691 477.414 408.956L477.169 408.374ZM456.85 511.066C440.95 509.595 424.95 506.174 411.074 498.281C397.198 490.388 385.608 477.543 381.83 462.033C378.94 450.209 380.748 437.557 385.373 426.295C389.998 415.033 397.341 405.076 405.55 396.095C433.434 365.849 471.113 346.434 511.927 341.283L511.876 340.905C508.609 337.923 509.834 332.134 513.163 329.223C516.492 326.312 521.127 325.517 525.498 324.833L528.418 324.373C537.476 322.953 546.526 321.538 555.569 320.126C557.345 319.84 559.112 319.564 560.889 319.288C563.574 318.87 566.474 318.482 568.863 319.758C571.283 321.058 572.621 323.832 572.897 326.558C573.02 329.305 572.696 332.054 571.937 334.697L572.202 336.463C575.286 336.657 578.37 336.863 581.453 337.025H581.474C581.443 340.905 581.443 344.825 581.443 348.818C582.464 363.113 584.506 376.388 594.717 388.641C602.855 398.995 606.164 410.952 607.144 423.531L605.214 423.695C605.1 422.753 604.692 421.871 604.05 421.173C602.935 420.091 601.549 419.329 600.037 418.967C594.746 417.611 589.167 417.89 584.037 419.767C578.946 421.654 574.123 424.198 569.69 427.333L569.384 427.533C570.838 429.774 572.098 432.135 573.152 434.589C577.206 443.564 581.321 453.336 580.616 462.904C580.487 464.743 580.165 466.564 579.656 468.336C576.556 479.098 566.729 486.45 556.927 491.852C533.717 504.646 507.327 510.997 480.774 511.814C475.321 511.977 469.858 511.914 464.416 511.62C461.884 511.484 459.362 511.3 456.85 511.066Z" fill="url(#paint5_linear_166_371)"/>
<path d="M384.853 671.652C391.953 668.538 400.424 667.844 408.353 667.405L410.64 667.578C402.788 675.308 399.623 687.091 399.112 698.262C398.683 707.493 400.092 717.54 406.556 724.147C409.967 727.486 414.23 729.824 418.88 730.906V730.917L418.635 731.795C416.164 742.077 413.642 752.502 408.526 761.753C404.769 768.553 399.378 774.732 392.72 778.601C386.767 780.685 377.62 778.601 372.89 774.956C367.601 770.892 364.609 764.378 363.629 757.781C362.649 751.184 363.496 744.446 364.701 737.881C368.888 715.181 377.383 693.525 385.838 672.041L384.853 671.652Z" fill="url(#paint6_linear_166_371)"/>
<path d="M350.421 870.653C412.321 870.653 462.496 881.793 462.496 895.527C462.496 909.261 412.32 920.39 350.421 920.39C288.522 920.39 238.357 909.26 238.357 895.527C238.357 881.794 288.533 870.653 350.421 870.653Z" fill="#171717"/>
<path d="M372.885 774.956C377.613 778.601 386.762 780.685 392.715 778.601C390.319 780.006 387.743 781.078 385.057 781.787C374.825 784.463 362.557 780.511 357.692 771.127C354.261 764.541 354.843 756.658 355.762 749.296C358.078 730.823 362.032 712.593 367.576 694.821C369.506 688.633 371.742 682.302 376.204 677.595C378.655 675.049 381.597 673.027 384.853 671.652L385.833 672.04C377.378 693.524 368.883 715.182 364.696 737.88C363.491 744.446 362.644 751.175 363.624 757.78C364.604 764.385 367.6 770.892 372.885 774.956Z" fill="url(#paint7_linear_166_371)"/>
<path d="M259.105 501.467C259.054 503.285 273.829 506.123 275.627 506.409C279.537 507.042 287.859 508.972 291.351 506.43C294.843 503.888 293.851 496.791 294.078 493.064C294.486 486.641 294.888 480.221 295.283 473.806C292.117 479.8 288.951 485.79 285.783 491.777C283.702 481.795 280.471 472.088 276.154 462.85C274.368 470.937 272.585 479.02 270.804 487.101C268.66 481.073 264.915 475.743 259.97 471.682C259.676 481.617 259.388 491.546 259.105 501.467ZM342.916 416.492C345.122 498.608 341.216 580.724 343.416 662.84C304.267 663.024 271.276 651.394 238.591 629.849L236.991 629.859C236.563 538.41 236.191 448.105 236.191 404.678C236.191 403.146 236.201 401.635 236.232 400.144H236.477C269.279 416.889 306.602 422.622 342.916 416.492V416.492Z" fill="url(#paint8_linear_166_371)"/>
<path d="M270.808 487.1C272.594 479.012 274.378 470.928 276.158 462.849C280.474 472.087 283.705 481.794 285.787 491.776C288.953 485.793 292.119 479.803 295.287 473.805C294.887 480.228 294.485 486.648 294.082 493.063C293.857 496.79 294.847 503.886 291.355 506.429C287.863 508.972 279.541 507.041 275.631 506.408C273.831 506.122 259.058 503.284 259.109 501.466C259.395 491.541 259.684 481.612 259.977 471.681C264.92 475.742 268.664 481.072 270.808 487.1V487.1Z" fill="#171717"/>
<path d="M343.417 662.84C341.211 580.724 345.122 498.608 342.917 416.492C306.603 422.621 269.28 416.889 236.479 400.144H236.234C236.316 394.508 236.55 389.096 236.934 383.909C237.834 384.609 273.04 411.609 357.934 400.236L356.32 675.563C286.641 683.252 237.394 646.263 237.394 646.263H237.057C237.037 640.799 237.013 635.333 236.985 629.863L238.585 629.853C271.277 651.394 304.268 663.024 343.417 662.84Z" fill="url(#paint9_linear_166_371)"/>
<path d="M558.111 238.781C555.336 238.387 552.512 238.48 549.769 239.057C547.069 239.792 544.521 241.712 543.826 244.418C543.5 246.245 543.627 248.124 544.194 249.891C545.492 255.201 547.216 260.399 549.35 265.432C550.382 267.883 551.535 270.415 551.341 273.07C551.147 275.725 548.983 278.441 546.341 278.196" stroke="#171717" stroke-width="3.063" stroke-linecap="round" stroke-linejoin="round"/>
<path d="M539.19 295.105C536.924 297.341 532.38 296.116 531.532 293.042" stroke="#171717" stroke-width="3.063" stroke-linecap="round" stroke-linejoin="round"/>
<path d="M537.087 254.169C536.969 253.335 536.538 252.576 535.883 252.046C535.227 251.517 534.395 251.255 533.554 251.315C532.714 251.375 531.927 251.751 531.353 252.368C530.778 252.985 530.459 253.796 530.46 254.639" stroke="#171717" stroke-width="3.063" stroke-linecap="round" stroke-linejoin="round"/>
<path d="M560.766 250.79C560.732 250.441 560.625 250.103 560.452 249.798C560.279 249.492 560.044 249.227 559.762 249.018C559.48 248.809 559.158 248.661 558.815 248.585C558.473 248.508 558.118 248.504 557.774 248.573C557.43 248.641 557.105 248.782 556.818 248.984C556.532 249.186 556.291 249.447 556.111 249.748C555.931 250.049 555.816 250.385 555.774 250.733C555.732 251.081 555.763 251.435 555.866 251.77" stroke="#171717" stroke-width="3.063" stroke-linecap="round" stroke-linejoin="round"/>
<path d="M504.024 292.287C503.464 293.347 503.155 294.522 503.12 295.72C503.086 296.918 503.327 298.108 503.824 299.199C504.79 300.972 506.353 302.346 508.234 303.078C510.116 303.81 512.196 303.853 514.106 303.199C515.984 302.449 517.573 301.12 518.643 299.405C519.714 297.69 520.21 295.678 520.059 293.662" stroke="#171717" stroke-width="3.063" stroke-linecap="round" stroke-linejoin="round"/>
<path d="M504.024 292.287C505.367 291.431 506.524 290.312 507.424 288.999C505.942 289.664 504.739 290.827 504.024 292.287V292.287Z" stroke="#171717" stroke-width="3.063" stroke-linecap="round" stroke-linejoin="round"/>
<path d="M528.04 321.929C526.57 312.269 524.24 302.753 522.057 293.216C519.728 283.066 517.557 272.896 516.757 262.532C516.277 256.314 516.338 249.809 519.044 244.193C523.18 235.606 532.574 230.878 541.723 228.193C549.223 225.993 557.08 224.701 564.258 221.75C565.85 221.105 567.401 220.365 568.904 219.534C577.236 214.898 584.067 205.616 582.004 196.304C574.777 199.553 568.512 204.615 563.819 211C563.799 207.957 565.106 205.067 565.678 202.085C566.25 199.103 565.821 195.485 563.268 193.825C560.715 192.165 557.09 193.314 555.028 195.571C552.966 197.828 552.097 200.891 551.28 203.832C551.913 200.605 552.536 197.184 551.403 194.09C550.27 190.996 546.685 188.556 543.673 189.883C539.303 191.793 540.508 198.236 538.905 202.729C537.118 207.691 531.705 210.183 526.784 212.062C516.063 216.162 503.912 221.119 500.084 231.942C497.02 240.632 500.513 250.077 501.615 259.226C503.025 271.364 500.154 283.613 493.498 293.861C495.262 294.376 497.117 294.502 498.934 294.23C500.751 293.959 502.488 293.297 504.025 292.289" stroke="#171717" stroke-width="3.063" stroke-linecap="round" stroke-linejoin="round"/>
<path d="M564.1 220.994C564.161 221.249 564.212 221.494 564.263 221.75C568.575 240.697 570.662 260.082 570.482 279.513C570.42 285.456 569.787 292.154 565.182 295.891C562.099 298.403 557.682 299.118 555.124 302.171C551.592 306.408 553.324 312.749 555.224 317.916" stroke="#171717" stroke-width="3.063" stroke-linecap="round" stroke-linejoin="round"/>
<path d="M511.877 340.9C508.61 337.918 509.835 332.129 513.164 329.218C516.493 326.307 521.128 325.512 525.499 324.828L528.419 324.368C537.476 322.949 546.526 321.533 555.57 320.121C557.346 319.835 559.113 319.559 560.89 319.283C563.575 318.865 566.475 318.477 568.864 319.753C571.284 321.053 572.622 323.827 572.898 326.553C573.021 329.3 572.697 332.049 571.938 334.692" stroke="#171717" stroke-width="3.063" stroke-linecap="round" stroke-linejoin="round"/>
<path d="M638.614 334.09C649.856 330.99 659.514 324.982 668.471 317.59C682.296 306.174 691.19 289.684 696.306 272.499C701.422 255.314 703.006 237.322 704.372 219.453C704.73 214.797 705.516 209.395 709.559 207.053C710.661 206.438 711.885 206.073 713.143 205.981C715.144 205.876 717.15 206.017 719.117 206.4C726.152 207.502 733.191 208.611 740.233 209.728C740.948 209.841 741.673 209.963 742.408 210.096C747.508 211.015 752.741 212.506 755.692 216.641C758.214 220.174 758.419 224.8 758.392 229.141C758.055 284.041 734.151 338.419 693.931 375.79C683.556 385.43 672.018 394.058 658.968 399.561C645.918 405.064 632.246 407.311 618.452 404.115" stroke="#171717" stroke-width="3.063" stroke-linecap="round" stroke-linejoin="round"/>
<path d="M572.2 336.459C575.284 336.653 578.368 336.859 581.451 337.021" stroke="#171717" stroke-width="3.063" stroke-linecap="round" stroke-linejoin="round"/>
<path d="M713 204.718C708.158 200.749 704.406 195.611 702.1 189.79C701.535 188.611 701.296 187.303 701.406 186.001C701.481 185.353 701.771 184.749 702.23 184.286C702.689 183.823 703.291 183.528 703.938 183.449C709.264 186.308 713.962 190.207 717.754 194.915C717.854 195.028 717.954 195.15 718.054 195.273" stroke="#171717" stroke-width="3.063" stroke-linecap="round" stroke-linejoin="round"/>
<path d="M744.737 209.476C748.399 191.854 749.948 173.858 749.352 155.869C749.423 154.33 749.111 152.796 748.444 151.407C747.668 150.079 745.962 149.16 744.563 149.783C743.032 150.447 742.644 152.397 742.463 154.062C741.319 164.385 740.172 174.711 739.022 185.041C739.972 173.141 740.891 160.964 737.807 149.441C737.174 147.062 735.193 144.162 732.967 145.204C731.537 145.857 731.241 147.715 731.129 149.288C730.229 162.399 729.324 175.507 728.413 188.61C728.483 178.532 728.555 168.45 728.627 158.365C728.637 156.007 728.607 153.474 727.3 151.514C725.993 149.554 722.878 148.614 721.235 150.314C720.235 151.345 720.111 152.914 720.035 154.357C719.422 167.764 718.806 181.171 718.187 194.578" stroke="#171717" stroke-width="3.063" stroke-linecap="round" stroke-linejoin="round"/>
<path d="M512.642 341.187L511.927 341.279C471.113 346.43 433.434 365.845 405.55 396.091C397.341 405.076 390.009 415.042 385.373 426.291C380.737 437.54 378.94 450.205 381.83 462.029C385.608 477.539 397.208 490.374 411.074 498.277C424.94 506.18 440.951 509.591 456.85 511.062C459.362 511.296 461.884 511.48 464.416 511.613C469.858 511.913 475.321 511.97 480.774 511.807C507.332 510.99 533.717 504.639 556.927 491.845C566.727 486.445 576.552 479.091 579.656 468.329C580.165 466.557 580.487 464.736 580.616 462.897C581.321 453.329 577.206 443.557 573.152 434.582C572.098 432.128 570.837 429.767 569.384 427.526C567.413 424.657 564.953 422.319 561.644 421.461C556.723 420.195 551.709 422.707 547.244 425.137C526.352 436.481 504.419 447.774 481.363 452.206C475.827 453.29 470.214 453.932 464.576 454.126C462.902 454.177 461.227 454.187 459.542 454.156C454.223 454.056 448.542 453.339 444.522 449.868C438.733 444.868 438.477 435.44 442.296 428.802C446.115 422.164 453.018 417.902 460.073 414.916C461.431 414.344 462.81 413.803 464.188 413.282C468.518 411.648 472.939 410.198 477.166 408.37C478.596 407.758 479.998 407.091 481.373 406.37" stroke="#171717" stroke-width="3.063" stroke-linecap="round" stroke-linejoin="round"/>
<path d="M477.414 408.956C478.732 423.691 480.049 437.404 481.356 452.138" stroke="#171717" stroke-width="3.063" stroke-linecap="round" stroke-linejoin="round"/>
<path d="M480.774 511.821C483.061 517.039 481.509 523.012 480.947 528.679C480.385 534.346 481.601 541.208 486.798 543.536C489.423 544.721 492.455 544.414 495.314 544.077C498.939 543.659 502.574 543.23 506.199 542.811C537.066 539.227 567.933 535.639 598.799 532.049C600.157 531.886 601.535 531.722 602.893 531.467C604.674 531.168 606.398 530.593 608 529.762C612.7 527.178 615.25 521.746 615.75 516.406C616.22 511.362 615.137 506.306 613.983 501.355C613.922 501.079 613.851 500.804 613.789 500.528" stroke="#171717" stroke-width="3.063" stroke-linecap="round" stroke-linejoin="round"/>
<path d="M506.219 542.474C506.209 542.587 506.209 542.699 506.199 542.811C505.954 547.273 505.964 551.736 506.107 556.198C506.475 568.022 507.772 579.846 507.598 591.67C507.353 608.079 503.769 625.387 492.567 637.37C484.96 645.509 474.698 650.297 463.793 653.116V653.126C458.656 654.428 453.436 655.377 448.17 655.965C436.03 657.374 422.888 657.823 413.219 665.307C412.311 666.008 411.448 666.765 410.635 667.574C402.783 675.304 399.618 687.087 399.107 698.258C398.678 707.489 400.087 717.536 406.551 724.143C409.962 727.483 414.225 729.821 418.875 730.902V730.913C423.93 732.121 429.117 732.69 434.314 732.608C444.01 732.605 453.695 731.947 463.303 730.637C479.967 728.452 496.503 724.704 512.877 720.837C521.536 718.805 530.389 716.62 538.588 713.23C545.05 710.69 551.035 707.072 556.288 702.53C571.188 689.246 576.495 668.242 578.037 648.33C579.579 628.418 578.159 608.13 582.958 588.749" stroke="#171717" stroke-width="3.063" stroke-linecap="round" stroke-linejoin="round"/>
<path d="M538.486 712.128C538.517 712.496 538.547 712.864 538.586 713.228C541.996 752.076 545.414 790.919 548.84 829.758C550.014 843.058 552.567 858.558 564.391 864.782C564.995 865.101 565.615 865.387 566.249 865.639C574.306 868.939 583.761 867.028 592.389 865.006C600.956 863.015 609.962 860.789 616.303 854.693C617.136 853.892 617.913 853.035 618.631 852.13C625.483 843.471 626.412 831.086 626.731 819.782C629.307 727.677 622.174 635.556 605.451 544.945C604.665 540.657 603.852 536.369 603.011 532.08" stroke="#171717" stroke-width="3.063" stroke-linecap="round" stroke-linejoin="round"/>
<path d="M505.853 556.239C505.938 556.23 506.023 556.216 506.108 556.198C538.926 551.48 571.869 547.76 604.939 545.037" stroke="#171717" stroke-width="3.063" stroke-linecap="round" stroke-linejoin="round"/>
<path d="M566.28 865.067C566.27 865.261 566.26 865.445 566.249 865.639C565.8 872.96 565.422 880.384 566.985 887.562C567.975 892.366 570.073 896.873 573.111 900.724C574.768 902.784 576.781 904.53 579.054 905.88C584.954 909.332 592.114 909.618 598.945 909.812C617.171 910.332 635.404 910.856 653.645 911.384C662.62 911.639 672.065 911.793 679.989 907.575C684.906 905.082 688.663 900.777 690.465 895.567C692.089 890.36 691.006 884.233 687.165 880.367C685.938 879.142 684.512 878.135 682.948 877.386C679.537 875.691 675.555 874.935 671.767 874.139C653.078 870.156 635.298 862.713 619.344 852.196" stroke="#171717" stroke-width="3.063" stroke-linecap="round" stroke-linejoin="round"/>
<path d="M572.601 900.7C572.774 900.71 572.938 900.71 573.111 900.72C594.073 901.629 615.036 902.538 636 903.446C645.731 903.865 655.779 904.246 664.887 900.791C673.995 897.336 682.001 889.012 681.92 879.271" stroke="#171717" stroke-width="3.063" stroke-linecap="round" stroke-linejoin="round"/>
<path d="M408.349 667.405C400.425 667.844 391.949 668.538 384.849 671.652C381.593 673.029 378.651 675.052 376.201 677.6C371.739 682.307 369.501 688.638 367.573 694.826C362.03 712.598 358.078 730.828 355.763 749.3C354.844 756.662 354.263 764.545 357.693 771.131C362.563 780.515 374.826 784.467 385.058 781.791C387.743 781.082 390.32 780.01 392.716 778.605C399.374 774.736 404.765 768.558 408.522 761.757C413.638 752.506 416.16 742.081 418.631 731.799" stroke="#171717" stroke-width="3.063" stroke-linecap="round" stroke-linejoin="round"/>
<path d="M385.874 671.928C385.863 671.969 385.843 672 385.833 672.04C377.378 693.524 368.883 715.182 364.696 737.88C363.491 744.446 362.644 751.175 363.624 757.78C364.604 764.385 367.596 770.891 372.885 774.955C377.613 778.6 386.762 780.684 392.715 778.6C393.406 778.366 394.071 778.058 394.696 777.682" stroke="#171717" stroke-width="3.063" stroke-linecap="round" stroke-linejoin="round"/>
<path d="M383.229 151.805C383.229 152.129 383.188 152.451 383.107 152.765C381.636 158.289 367.678 162.618 350.677 162.618C332.695 162.618 318.114 157.778 318.114 151.805" stroke="#171717" stroke-width="3.063" stroke-linecap="round" stroke-linejoin="round"/>
<path d="M315.153 50.2368C315.49 54.7708 317.777 87.1898 318.022 124.237C318.083 133.253 318.012 142.555 317.767 151.796C316.991 181.509 314.346 210.56 307.903 227.734C294.9 262.42 260.892 285.088 244.83 339.267C240.607 353.822 237.961 368.788 236.937 383.909C236.549 389.096 236.316 394.508 236.237 400.144C236.206 401.635 236.196 403.144 236.196 404.678C236.196 448.105 236.564 538.41 236.996 629.859C237.017 635.321 237.041 640.788 237.068 646.259C237.668 772.404 238.368 895.528 238.368 895.528" stroke="#171717" stroke-width="3.063" stroke-linecap="round" stroke-linejoin="round"/>
<path d="M315.112 49.7568C315.122 49.8288 315.133 49.9508 315.143 50.1348" stroke="#171717" stroke-width="3.063" stroke-linecap="round" stroke-linejoin="round"/>
<path d="M463.374 731.192C462.915 820.415 462.517 892.3 462.496 895.527V895.639" stroke="#171717" stroke-width="3.063" stroke-linecap="round" stroke-linejoin="round"/>
<path d="M464.375 512.434C464.212 555.514 463.987 604.628 463.752 652.987" stroke="#171717" stroke-width="3.063" stroke-linecap="round" stroke-linejoin="round"/>
<path d="M464.651 414.532C464.641 426.019 464.62 437.955 464.569 453.813" stroke="#171717" stroke-width="3.063" stroke-linecap="round" stroke-linejoin="round"/>
<path d="M385.731 49.8179C385.731 49.8179 385.721 49.8899 385.71 50.0229C385.496 52.9119 383.035 86.7409 382.831 125.318C382.77 134.318 382.841 143.575 383.107 152.765C383.913 182.172 386.558 210.844 392.94 227.846C406.01 262.695 440.267 285.415 456.227 340.125C457.718 345.192 459.032 350.549 460.168 356.197C460.178 356.227 460.178 356.258 460.189 356.289" stroke="#171717" stroke-width="3.063" stroke-linecap="round" stroke-linejoin="round"/>
<path d="M462.5 895.527C462.5 909.26 412.324 920.39 350.425 920.39C288.526 920.39 238.361 909.26 238.361 895.527C238.361 881.794 288.537 870.653 350.425 870.653C412.313 870.653 462.5 881.793 462.5 895.527Z" stroke="#171717" stroke-width="3.063" stroke-linecap="round" stroke-linejoin="round"/>
<path d="M382.984 124.236C382.984 124.602 382.933 124.966 382.831 125.318C381.197 130.781 367.402 135.049 350.615 135.049C332.736 135.049 318.237 130.209 318.237 124.236" stroke="#171717" stroke-width="3.063" stroke-linecap="round" stroke-linejoin="round"/>
<path d="M315.112 49.6999C315.235 44.5539 330.919 40.3999 350.258 40.3999C369.658 40.3999 385.394 44.5859 385.394 49.7629C385.396 49.8447 385.393 49.9265 385.384 50.0079C384.904 55.0729 369.352 59.1369 350.258 59.1369C331.45 59.1369 316.103 55.1949 315.158 50.2429C315.158 50.2119 315.148 50.1719 315.148 50.1429C315.128 50.018 315.117 49.8915 315.117 49.7649L315.112 49.6999Z" stroke="#171717" stroke-width="3.063" stroke-linecap="round" stroke-linejoin="round"/>
<path d="M455.778 340.257C455.867 340.642 455.912 341.036 455.91 341.432C455.91 354.073 408.899 364.314 350.91 364.314C292.921 364.314 245.921 354.073 245.921 341.432C245.921 340.833 246.025 340.239 246.227 339.675C250.353 327.851 295.638 318.549 350.91 318.549C407.092 318.549 452.959 328.158 455.778 340.257Z" stroke="#171717" stroke-width="3.063" stroke-linecap="round" stroke-linejoin="round"/>
<path d="M583.067 304.254C583.067 300.67 595.105 297.76 609.967 297.76C624.829 297.76 636.873 300.67 636.873 304.254C636.877 304.45 636.839 304.645 636.761 304.826C635.566 308.144 624.028 310.738 609.967 310.738C595.105 310.738 583.067 307.838 583.067 304.254Z" stroke="#171717" stroke-width="3.063" stroke-linecap="round" stroke-linejoin="round"/>
<path d="M606.593 466.689C606.571 466.773 606.554 466.858 606.542 466.944C605.715 470.855 605.296 474.868 604.479 478.809C603.798 482.672 602.402 486.374 600.364 489.725" stroke="#171717" stroke-width="3.063" stroke-linecap="round" stroke-linejoin="round"/>
<path d="M583.067 304.254C582.26 311.708 581.852 318.988 581.647 326.32C581.647 326.432 581.647 326.534 581.637 326.636C581.545 330.077 581.491 333.538 581.474 337.021C581.443 340.901 581.443 344.821 581.443 348.814C582.464 363.109 584.506 376.384 594.717 388.637C602.855 398.991 606.164 410.948 607.144 423.527C607.494 428.376 607.573 433.24 607.379 438.098" stroke="#171717" stroke-width="3.063" stroke-linecap="round" stroke-linejoin="round"/>
<path d="M613.271 467.628C614.139 471.284 614.16 475.021 614.589 478.646C615.079 482.761 616.079 486.723 619.469 490.266" stroke="#171717" stroke-width="3.063" stroke-linecap="round" stroke-linejoin="round"/>
<path d="M636.766 304.8V304.831C637.466 312.172 637.91 319.361 638.124 326.498C638.196 329.031 638.243 331.564 638.267 334.098C638.359 343.349 638.104 352.598 637.603 362.098C636.582 374.351 628.413 384.562 621.266 395.798C619.58 398.234 618.178 400.855 617.089 403.61C614.414 410.349 613.781 417.282 613.389 424.215C613.144 428.575 612.989 432.946 612.489 437.275" stroke="#171717" stroke-width="3.063" stroke-linecap="round" stroke-linejoin="round"/>
<path d="M614.588 478.646C628.924 479.32 640.003 483.782 640.003 489.184C640.003 494.684 628.577 499.2 613.903 499.762C612.893 499.802 611.861 499.823 610.809 499.823C594.686 499.823 581.616 495.065 581.616 489.184C581.616 484.109 591.398 479.861 604.478 478.809C606.51 478.636 608.634 478.554 610.809 478.554C612.086 478.554 613.352 478.585 614.588 478.646Z" stroke="#171717" stroke-width="3.063" stroke-linecap="round" stroke-linejoin="round"/>
<path d="M236.917 383.9C236.925 383.901 236.932 383.904 236.937 383.91C237.837 384.61 273.043 411.61 357.937 400.237L356.323 675.564C286.644 683.253 237.397 646.264 237.397 646.264" stroke="#171717" stroke-width="3.063" stroke-linecap="round" stroke-linejoin="round"/>
<path d="M236.479 400.144C269.279 416.889 306.602 422.621 342.917 416.492C345.123 498.608 341.217 580.724 343.417 662.84C304.268 663.024 271.277 651.394 238.592 629.849" stroke="#171717" stroke-width="3.063" stroke-linecap="round" stroke-linejoin="round"/>
<path d="M247.9 527.209C271.443 536.672 296.838 540.629 322.143 538.778" stroke="#171717" stroke-width="3.063" stroke-linecap="round" stroke-linejoin="round"/>
<path d="M295.284 473.806C292.118 479.8 288.951 485.79 285.784 491.777C283.702 481.795 280.471 472.088 276.155 462.85C274.369 470.937 272.585 479.02 270.805 487.101C268.661 481.073 264.915 475.743 259.971 471.682C259.675 481.615 259.385 491.544 259.103 501.467C259.052 503.285 273.827 506.123 275.625 506.409C279.535 507.042 287.857 508.972 291.349 506.43C294.841 503.888 293.849 496.791 294.076 493.064C294.486 486.641 294.888 480.222 295.284 473.806Z" stroke="#171717" stroke-width="3.063" stroke-linecap="round" stroke-linejoin="round"/>
<path d="M257.646 554.564C272.206 558.666 287.202 561.021 302.319 561.579" stroke="#171717" stroke-width="3.063" stroke-linecap="round" stroke-linejoin="round"/>
<path d="M569.69 427.326C574.123 424.191 578.946 421.647 584.037 419.76C589.168 417.883 594.746 417.605 600.037 418.96C601.549 419.322 602.935 420.084 604.05 421.166C604.692 421.864 605.1 422.746 605.214 423.688C605.293 424.288 605.197 424.897 604.938 425.444C603.325 428.834 597.311 427.211 595.248 430.335C594.084 432.091 594.891 434.603 596.494 435.961C598.213 437.19 600.246 437.905 602.355 438.024C604.021 438.236 605.7 438.332 607.379 438.31C609.135 438.303 610.885 438.104 612.597 437.718C613.281 437.567 613.955 437.379 614.618 437.156C616.145 436.723 617.525 435.883 618.611 434.726C619.145 434.142 619.504 433.421 619.65 432.644C619.796 431.866 619.723 431.064 619.438 430.326C618.305 427.855 614.312 426.977 614.373 424.25C614.424 423.677 614.631 423.128 614.971 422.664C615.311 422.199 615.772 421.837 616.303 421.616C617.375 421.188 618.536 421.03 619.683 421.156C623.166 421.262 626.503 422.572 629.128 424.863C630.419 426.015 631.402 427.471 631.987 429.099C632.572 430.728 632.74 432.476 632.477 434.186C632.312 435.034 632.03 435.855 631.64 436.626C629.965 439.926 626.453 442.283 622.971 443.855C614.877 447.489 605.892 448.657 597.137 447.215" stroke="#171717" stroke-width="3.063" stroke-linecap="round" stroke-linejoin="round"/>
<path d="M632.815 436.648C635.245 440.712 634.122 446.236 631.069 449.848C629.514 451.634 627.619 453.092 625.494 454.137C623.36 455.19 621.103 455.972 618.775 456.465C612.02 457.947 604.997 457.647 598.394 455.597" stroke="#171717" stroke-width="3.063" stroke-linecap="round" stroke-linejoin="round"/>
<path d="M625.566 454.283C627.638 456.968 626.495 461.144 623.942 463.383C621.389 465.622 617.856 466.344 614.476 466.701C614.048 466.752 613.619 466.783 613.2 466.824C610.985 467.001 608.762 467.042 606.543 466.946C597.853 466.609 589.48 464.465 580.617 462.903C580.568 462.901 580.52 462.894 580.474 462.882" stroke="#171717" stroke-width="3.063" stroke-linecap="round" stroke-linejoin="round"/>
<path d="M637.664 326.5C637.664 328.941 625.115 330.911 609.636 330.911C594.452 330.911 582.076 329.011 581.636 326.633C581.62 326.591 581.613 326.545 581.616 326.5C581.616 326.438 581.626 326.376 581.646 326.317C582.259 323.958 594.563 322.089 609.635 322.089C625.115 322.092 637.664 324.063 637.664 326.5Z" stroke="#171717" stroke-width="3.063" stroke-linecap="round" stroke-linejoin="round"/>
<path d="M512.808 340.993C532.014 337.131 551.578 335.329 571.168 335.618" stroke="#171717" stroke-width="3.063" stroke-linecap="round" stroke-linejoin="round"/>
<path d="M704.275 230.473C706.602 229.251 709.185 228.597 711.813 228.567C714.441 228.537 717.039 229.13 719.393 230.299C725.563 233.43 729.375 240.252 735.793 242.842C742.393 245.506 749.832 243.005 756.493 240.508" stroke="#171717" stroke-width="3.063" stroke-linecap="round" stroke-linejoin="round"/>
<path d="M700.794 254C704.93 250.956 710.769 251.551 715.515 253.512C720.261 255.473 724.456 258.612 729.228 260.512C733.244 262.077 737.556 262.739 741.857 262.451C746.158 262.163 750.343 260.931 754.114 258.843" stroke="#171717" stroke-width="3.063" stroke-linecap="round" stroke-linejoin="round"/>
<path d="M536.4 431.558C531.894 437.084 533.942 445.547 538.014 451.4C542.086 457.253 547.873 461.852 551.348 468.078C553.424 471.876 554.571 476.111 554.695 480.437C554.82 484.763 553.918 489.057 552.064 492.967" stroke="#171717" stroke-width="3.063" stroke-linecap="round" stroke-linejoin="round"/>
<path d="M514.08 441.967C509.803 446.524 510.415 453.9 512.969 459.604C515.523 465.308 519.662 470.216 521.996 476.013C523.929 481.008 524.477 486.433 523.581 491.714C522.684 496.995 520.377 501.935 516.904 506.013L518.914 504.147" stroke="#171717" stroke-width="3.063" stroke-linecap="round" stroke-linejoin="round"/>
<path d="M560.601 335.139C561.226 330.182 561.5 325.188 561.422 320.193C561.289 320.201 561.329 320.462 561.458 320.43" stroke="#171717" stroke-width="3.063" stroke-linecap="round" stroke-linejoin="round"/>
<path d="M545.323 335.605L544.923 322.876" stroke="#171717" stroke-width="3.063" stroke-linecap="round" stroke-linejoin="round"/>
<path d="M531.164 336.085L530.684 325.274" stroke="#171717" stroke-width="3.063" stroke-linecap="round" stroke-linejoin="round"/>
<path d="M519.09 339.15C517.846 335.365 517.403 331.362 517.79 327.396" stroke="#171717" stroke-width="3.063" stroke-linecap="round" stroke-linejoin="round"/>
<path d="M547.679 572.311L539.371 562.236" stroke="#171717" stroke-width="3.063" stroke-linecap="round" stroke-linejoin="round"/>
<path d="M545.014 619.726L538.473 610.032" stroke="#171717" stroke-width="3.063" stroke-linecap="round" stroke-linejoin="round"/>
<path d="M583.062 570.1C584.445 566.27 586.522 562.727 589.188 559.649" stroke="#171717" stroke-width="3.063" stroke-linecap="round" stroke-linejoin="round"/>
<path d="M611.868 687.235C609.853 683.836 607.168 680.882 603.977 678.554" stroke="#171717" stroke-width="3.063" stroke-linecap="round" stroke-linejoin="round"/>
<path d="M575.956 751.445C579.064 747.287 581.672 742.777 583.726 738.01" stroke="#171717" stroke-width="3.063" stroke-linecap="round" stroke-linejoin="round"/>
<path d="M608.911 772.761C605.971 770.533 603.454 767.795 601.482 764.677" stroke="#171717" stroke-width="3.063" stroke-linecap="round" stroke-linejoin="round"/>
<path d="M569.435 812.011C573.458 807.514 577.176 802.753 580.564 797.759" stroke="#171717" stroke-width="3.063" stroke-linecap="round" stroke-linejoin="round"/>
<path d="M606.448 838.618L598.531 829.957" stroke="#171717" stroke-width="3.063" stroke-linecap="round" stroke-linejoin="round"/>
<path d="M537.656 675.693L547.499 669.753" stroke="#171717" stroke-width="3.063" stroke-linecap="round" stroke-linejoin="round"/>
<path d="M496.145 680L498.968 663.052" stroke="#171717" stroke-width="3.063" stroke-linecap="round" stroke-linejoin="round"/>
<path d="M473.564 710.6L464.548 699.072" stroke="#171717" stroke-width="3.063" stroke-linecap="round" stroke-linejoin="round"/>
<path d="M424.557 692.667L431.832 681.54" stroke="#171717" stroke-width="3.063" stroke-linecap="round" stroke-linejoin="round"/>
<path d="M415.849 737.461C412.144 737.545 408.481 736.679 405.206 734.946C401.931 733.213 399.154 730.671 397.14 727.561" stroke="#171717" stroke-width="3.063" stroke-linecap="round" stroke-linejoin="round"/>
<path d="M411.874 752.621C408.387 752.487 404.975 751.571 401.89 749.941C398.805 748.311 396.125 746.009 394.049 743.204" stroke="#171717" stroke-width="3.063" stroke-linecap="round" stroke-linejoin="round"/>
<path d="M630.688 882.627C636.566 878.518 641.365 873.048 644.673 866.684" stroke="#171717" stroke-width="3.063" stroke-linecap="round" stroke-linejoin="round"/>
<path d="M617.674 874.281C622.827 870.537 627.128 865.744 630.293 860.217" stroke="#171717" stroke-width="3.063" stroke-linecap="round" stroke-linejoin="round"/>
<path d="M303.4 468.457L309.528 464.495" stroke="#171717" stroke-width="3.063" stroke-linecap="round" stroke-linejoin="round"/>
<path d="M290.429 457.3C291.314 452.462 292.766 447.744 294.754 443.245" stroke="#171717" stroke-width="3.063" stroke-linecap="round" stroke-linejoin="round"/>
<path d="M271.329 455.853L269.529 451.528" stroke="#171717" stroke-width="3.063" stroke-linecap="round" stroke-linejoin="round"/>
<path d="M255.639 462.553C252.667 459.862 249.968 456.884 247.582 453.662" stroke="#171717" stroke-width="3.063" stroke-linecap="round" stroke-linejoin="round"/>
<path d="M794.616 358.642C775.416 356.251 755.905 365.484 743.034 379.929C730.163 394.374 723.353 413.42 720.7 432.584C719.457 441.552 719.089 450.872 721.88 459.484C724.671 468.096 731.102 475.937 739.802 478.443C748.502 480.949 759.184 476.772 762.275 468.262C765.963 458.105 756.867 446.325 746.115 445.246C735.363 444.167 725.049 451.815 720.558 461.646C716.067 471.477 716.512 482.92 719.046 493.424C721.58 503.928 726.063 513.845 729.516 524.084C732.969 534.323 735.407 545.242 733.652 555.904C730.552 574.724 713.052 590.133 693.992 590.825" stroke="#171717" stroke-width="3.063" stroke-linecap="round" stroke-linejoin="round"/>
<path d="M772.894 206.8C777.409 192.007 777.489 176.216 773.124 161.378" stroke="#171717" stroke-width="3.063" stroke-linecap="round" stroke-linejoin="round"/>
<path d="M792.458 197.1C795.173 189.326 794.779 180.804 791.358 173.314" stroke="#171717" stroke-width="3.063" stroke-linecap="round" stroke-linejoin="round"/>
<path d="M639 259.715L627.136 248.873" stroke="#171717" stroke-width="3.063" stroke-linecap="round" stroke-linejoin="round"/>
<path d="M627.887 259.619L638.671 246.619" stroke="#171717" stroke-width="3.063" stroke-linecap="round" stroke-linejoin="round"/>
<path d="M602.163 276.021L591.352 263.047" stroke="#171717" stroke-width="3.063" stroke-linecap="round" stroke-linejoin="round"/>
<path d="M589.068 277.019L600.994 259.743" stroke="#171717" stroke-width="3.063" stroke-linecap="round" stroke-linejoin="round"/>
<path d="M624.866 216.557L618.379 207.908" stroke="#171717" stroke-width="3.063" stroke-linecap="round" stroke-linejoin="round"/>
<path d="M614.9 217.345L628.022 206.716" stroke="#171717" stroke-width="3.063" stroke-linecap="round" stroke-linejoin="round"/>
<path d="M573.03 169.036L584.921 154.98" stroke="#171717" stroke-width="3.063" stroke-linecap="round" stroke-linejoin="round"/>
<path d="M560.083 162.494C559.211 149.295 561.008 136.055 565.365 123.565" stroke="#171717" stroke-width="3.063" stroke-linecap="round" stroke-linejoin="round"/>
<path d="M546.949 164.717L535.06 148.5" stroke="#171717" stroke-width="3.063" stroke-linecap="round" stroke-linejoin="round"/>
<path d="M268.59 147.965C271.535 171.896 268.181 196.181 258.859 218.418C255.302 226.869 250.289 235.545 241.859 239.155C232.118 243.327 219.5 238.487 215.002 228.893C212.986 224.593 212.66 219.076 215.687 215.417C219.544 210.755 227.537 211.34 231.8 215.634C236.063 219.928 237 226.684 235.708 232.596C233.626 242.129 226.693 249.81 219.484 256.386C212.275 262.962 204.384 269.095 199.284 277.418C194.184 285.741 192.547 297.113 198.31 304.988C199.352 306.623 200.954 307.823 202.816 308.364C204.695 308.764 206.954 307.772 207.398 305.903" stroke="#171717" stroke-width="3.063" stroke-linecap="round" stroke-linejoin="round"/>
<path d="M174.567 243.078L172.492 229.383L172.866 230.64" stroke="#171717" stroke-width="3.063" stroke-linecap="round" stroke-linejoin="round"/>
<path d="M166.2 238.268L178.6 233.224" stroke="#171717" stroke-width="3.063" stroke-linecap="round" stroke-linejoin="round"/>
<path d="M208.259 378.5L202.422 365.934C202.439 365.995 202.474 366.05 202.524 366.09C202.573 366.13 202.634 366.154 202.697 366.158C202.761 366.163 202.824 366.147 202.878 366.114C202.932 366.081 202.975 366.032 203 365.973C203.063 365.704 202.609 365.517 202.464 365.752" stroke="#171717" stroke-width="3.063" stroke-linecap="round" stroke-linejoin="round"/>
<path d="M198.465 376.766L211.478 367.692" stroke="#171717" stroke-width="3.063" stroke-linecap="round" stroke-linejoin="round"/>
<path d="M485.037 740.2C494.163 740.161 503.208 738.478 511.737 735.231" stroke="#171717" stroke-width="3.063" stroke-linecap="round" stroke-linejoin="round"/>
<path d="M671.749 413.109C682.269 410.645 691.805 405.075 699.12 397.123" stroke="#171717" stroke-width="3.063" stroke-linecap="round" stroke-linejoin="round"/>
<path d="M707.14 512.815L698.44 510.098" stroke="#171717" stroke-width="3.063" stroke-linecap="round" stroke-linejoin="round"/>
<path d="M703.431 508.83L701.269 517.479" stroke="#171717" stroke-width="3.063" stroke-linecap="round" stroke-linejoin="round"/>
<path d="M760.3 423.007L766.76 414.337" stroke="#171717" stroke-width="3.063" stroke-linecap="round" stroke-linejoin="round"/>
<path d="M766.787 421.694L758.876 414.467" stroke="#171717" stroke-width="3.063" stroke-linecap="round" stroke-linejoin="round"/>
<path d="M482.435 524.378C527.02 527.63 571.828 522.915 614.76 510.454" stroke="#171717" stroke-width="3.063" stroke-linecap="round" stroke-linejoin="round"/>
<path d="M596.234 531.178L594.817 517" stroke="#171717" stroke-width="3.063" stroke-linecap="round" stroke-linejoin="round"/>
<path d="M572.72 534.3L571.529 522.046" stroke="#171717" stroke-width="3.063" stroke-linecap="round" stroke-linejoin="round"/>
<path d="M545.612 536.458L545.157 525.165" stroke="#171717" stroke-width="3.063" stroke-linecap="round" stroke-linejoin="round"/>
<path d="M520.838 539.582L520.276 526.131" stroke="#171717" stroke-width="3.063" stroke-linecap="round" stroke-linejoin="round"/>
<path d="M497.648 542.94L498.397 526.364" stroke="#171717" stroke-width="3.063" stroke-linecap="round" stroke-linejoin="round"/>
<path d="M548.336 335.874L554.964 420.414" stroke="#171717" stroke-width="3.063" stroke-linecap="round" stroke-linejoin="round"/>
<path d="M558.031 492.187C557.572 502.599 560.176 509.948 559.717 520.36" stroke="#171717" stroke-width="3.063" stroke-linecap="round" stroke-linejoin="round"/>
<path d="M558.134 523L559.276 535.259" stroke="#171717" stroke-width="3.063" stroke-linecap="round" stroke-linejoin="round"/>
<path fill-rule="evenodd" clip-rule="evenodd" d="M418.631 731.8L418.876 730.922C423.931 732.13 429.118 732.699 434.315 732.617C444.011 732.614 453.696 731.956 463.304 730.646L463.375 731.197C462.916 820.42 462.518 892.305 462.497 895.532C462.497 881.798 412.321 870.658 350.422 870.658C288.523 870.658 238.358 881.798 238.358 895.532C238.358 895.532 237.663 772.408 237.058 646.263H237.395C237.395 646.263 286.642 683.257 356.321 675.563L357.935 400.236C273.041 411.611 237.835 384.614 236.935 383.909C237.958 368.789 240.604 353.822 244.828 339.267L246.228 339.675C246.026 340.239 245.922 340.833 245.922 341.432C245.922 354.073 292.922 364.314 350.911 364.314C408.9 364.314 455.911 354.073 455.911 341.432C455.912 341.037 455.868 340.642 455.779 340.257L456.228 340.125C457.719 345.192 459.033 350.549 460.169 356.197C439.521 365.783 420.963 379.338 405.551 396.091C397.342 405.076 390.01 415.042 385.374 426.291C380.738 437.54 378.941 450.205 381.831 462.029C385.609 477.539 397.209 490.374 411.075 498.277C424.941 506.18 440.952 509.591 456.851 511.062C459.363 511.296 461.885 511.48 464.417 511.613L464.376 512.43C464.213 555.51 463.988 604.624 463.753 652.983L463.794 653.116V653.126C458.657 654.428 453.437 655.377 448.171 655.965C446.643 656.142 445.099 656.305 443.549 656.467C432.778 657.599 421.672 658.765 413.22 665.307C412.312 666.008 411.449 666.765 410.636 667.574L408.349 667.401C400.425 667.84 391.949 668.534 384.849 671.648C381.593 673.026 378.65 675.051 376.201 677.6C371.739 682.307 369.501 688.638 367.573 694.826C362.03 712.598 358.078 730.828 355.763 749.3C354.844 756.662 354.263 764.545 357.693 771.131C362.563 780.515 374.826 784.467 385.058 781.791C387.743 781.082 390.32 780.01 392.716 778.605C399.374 774.736 404.765 768.558 408.522 761.757C413.638 752.5 416.16 742.077 418.631 731.8ZM454.708 518.827C455.554 518.833 456.235 519.522 456.23 520.368L455.493 642.541C455.488 643.387 454.798 644.068 453.953 644.063C453.107 644.058 452.425 643.368 452.43 642.523L453.167 520.35C453.173 519.504 453.862 518.822 454.708 518.827ZM455.906 737.673C455.905 736.827 455.219 736.142 454.373 736.142C453.527 736.143 452.842 736.829 452.843 737.675L452.943 878.226C452.943 879.072 453.629 879.757 454.475 879.756C455.321 879.756 456.006 879.07 456.006 878.224L455.906 737.673Z" fill="#171717"/>
<path fill-rule="evenodd" clip-rule="evenodd" d="M383.107 152.765C382.841 143.575 382.77 134.318 382.831 125.318C381.2 130.781 367.4 135.049 350.615 135.049C332.737 135.049 318.237 130.209 318.237 124.236H318.022C318.083 133.252 318.012 142.554 317.767 151.795L318.114 151.805C318.114 157.778 332.695 162.618 350.677 162.618C367.678 162.618 381.636 158.289 383.107 152.765ZM378.641 135.138C378.658 134.292 377.986 133.593 377.141 133.576C376.295 133.559 375.596 134.23 375.578 135.076L375.192 154.176C375.175 155.022 375.847 155.721 376.693 155.738C377.538 155.755 378.238 155.084 378.255 154.238L378.641 135.138Z" fill="#171717"/>
<g opacity="0.1">
<path d="M318.122 63.5408C317.938 66.2408 318.696 68.7698 318.987 71.4408C319.199 74.2048 319.208 76.9806 319.014 79.7458C318.771 85.9618 318.23 92.1528 318.07 98.3718C317.734 111.349 317.327 124.327 317.119 137.307C316.929 149.136 335.304 149.139 335.494 137.307C335.718 123.337 335.85 109.349 335.81 95.3768C335.792 89.0858 335.674 82.6978 335.319 76.4148C334.973 70.2858 334.481 63.1638 329.752 58.7278C325.272 54.5278 318.524 57.6798 318.122 63.5448V63.5408Z" fill="#171717"/>
</g>
<g opacity="0.1">
<path d="M560.633 220.592C550.16 224.065 539.45 227.514 529.427 232.184C520.945 236.135 518.032 243.784 518.578 252.737C519.271 264.111 521.257 275.131 522.909 286.377C523.768 292.222 524.625 298.067 525.432 303.92C526.232 309.704 526.388 316.004 528.952 321.311C530.495 324.505 536.101 323.836 536.752 320.292C537.661 315.322 536.579 310.444 535.921 305.483C535.23 300.276 534.558 295.067 533.906 289.855C532.717 280.248 532.114 270.53 530.453 260.994C529.612 256.161 527.904 251.194 527.786 246.266C527.67 241.416 530.274 239.876 534.416 237.983C543.816 233.683 553.26 229.664 562.516 225.047C564.973 223.822 563.262 219.722 560.637 220.592H560.633Z" fill="#171717"/>
</g>
<g opacity="0.1">
<path d="M373.659 691.823C377.441 691.903 381.178 690.823 384.783 689.787C389.019 688.572 393.343 687.738 397.57 686.493C405.822 684.063 414.219 682.101 422.614 680.238C438.17 676.788 453.814 673.612 468.628 667.571C482.417 661.946 495.736 654.171 505.444 642.652C515.912 630.23 521.126 615.281 522.96 599.293C523.856 590.582 523.952 581.807 523.246 573.079C522.922 568.392 522.414 563.726 521.91 559.056C521.365 553.994 521.225 548.849 517.14 545.238C516.385 544.513 515.477 543.968 514.483 543.64C513.489 543.313 512.434 543.212 511.396 543.346C510.358 543.48 509.363 543.845 508.484 544.413C507.606 544.982 506.866 545.741 506.318 546.633C502.249 552.822 505.376 562.033 506.026 568.942C506.814 576.607 507.081 584.317 506.826 592.018C506.253 605.771 502.882 619.77 494.167 630.738C476.226 653.317 445.02 659.277 418.577 665.589C409.881 667.503 401.301 669.91 392.877 672.797C385.19 675.585 375.499 680.026 370.987 687.168C370.722 687.639 370.583 688.172 370.585 688.713C370.587 689.255 370.73 689.786 370.999 690.255C371.269 690.725 371.656 691.116 372.122 691.391C372.588 691.666 373.118 691.815 373.659 691.823V691.823Z" fill="#171717"/>
</g>
<g opacity="0.1">
<path d="M538.786 715.859C536.319 722.605 537.846 730.259 538.362 737.247C538.898 744.515 539.681 751.756 540.419 759.006L544.753 801.534C546.92 822.802 547.627 860.349 573.975 866.58C581.261 868.304 584.842 858.956 578.923 854.843C570.352 848.886 566.352 839.443 565.286 829.35C563.959 816.784 562.895 804.202 561.469 791.644L557.089 753.072C556.33 746.385 555.5 739.721 554.556 733.058C553.656 726.678 553.379 719.984 549.838 714.415C546.911 709.815 540.563 710.996 538.786 715.859V715.859Z" fill="#171717"/>
</g>
<g opacity="0.1">
<path d="M237.889 390.58C235.202 400.449 235.802 411.617 235.625 421.807C235.441 432.396 235.825 443.028 236.039 453.614L237.306 515.241C238.164 556.985 239.262 598.732 239.748 640.482C239.875 651.404 257.048 651.406 256.716 640.482C255.443 598.746 254.782 556.987 253.881 515.241L252.551 453.614C252.322 443.024 252.251 432.383 251.625 421.807C251.025 411.63 251.202 400.327 248.104 390.58C246.554 385.701 239.304 385.388 237.889 390.58Z" fill="#171717"/>
</g>
<g opacity="0.1">
<path d="M253.362 342.488C257.648 337.837 259.724 331.372 262.774 325.895C265.824 320.418 268.969 314.962 272.454 309.743C279.612 299.024 287.694 289.004 295.575 278.82C313.245 255.985 327.565 231.82 332.193 202.846C333.553 194.629 334.229 186.314 334.212 177.986C334.152 170.212 335.006 157.347 328.849 151.739C325.211 148.425 319.111 148.747 316.549 153.323C313.888 158.084 315.098 162.469 315.563 167.594C315.981 172.202 316.158 176.828 316.095 181.455C315.982 190.487 314.885 199.479 312.823 208.273C308.757 225.581 301.028 241.121 290.879 255.637C281.421 269.162 270.602 281.676 261.19 295.237C256.319 301.965 252.2 309.206 248.906 316.831C246.006 323.947 242.629 332.414 244.579 340.173C245.519 343.916 250.692 345.384 253.357 342.491L253.362 342.488Z" fill="#171717"/>
</g>
</g>
<defs>
<linearGradient id="paint0_linear_166_371" x1="687.743" y1="205.946" x2="687.743" y2="405.582" gradientUnits="userSpaceOnUse">
<stop stop-color="#FFB800"/>
<stop offset="1" stop-color="#FF7F0A"/>
</linearGradient>
<linearGradient id="paint1_linear_166_371" x1="632.154" y1="877.382" x2="632.154" y2="911.488" gradientUnits="userSpaceOnUse">
<stop stop-color="#FFB800"/>
<stop offset="1" stop-color="#FF7F0A"/>
</linearGradient>
<linearGradient id="paint2_linear_166_371" x1="624.403" y1="852.13" x2="624.403" y2="903.717" gradientUnits="userSpaceOnUse">
<stop stop-color="#FFB800"/>
<stop offset="1" stop-color="#FF7F0A"/>
</linearGradient>
<linearGradient id="paint3_linear_166_371" x1="601.09" y1="423.527" x2="601.09" y2="438.316" gradientUnits="userSpaceOnUse">
<stop stop-color="#FFB800"/>
<stop offset="1" stop-color="#FF7F0A"/>
</linearGradient>
<linearGradient id="paint4_linear_166_371" x1="548.321" y1="462.901" x2="548.321" y2="544.381" gradientUnits="userSpaceOnUse">
<stop stop-color="#FFB800"/>
<stop offset="1" stop-color="#FF7F0A"/>
</linearGradient>
<linearGradient id="paint5_linear_166_371" x1="493.79" y1="318.887" x2="493.79" y2="511.902" gradientUnits="userSpaceOnUse">
<stop stop-color="#FFB800"/>
<stop offset="1" stop-color="#FF7F0A"/>
</linearGradient>
<linearGradient id="paint6_linear_166_371" x1="391.04" y1="667.405" x2="391.04" y2="779.429" gradientUnits="userSpaceOnUse">
<stop stop-color="#FFB800"/>
<stop offset="1" stop-color="#FF7F0A"/>
</linearGradient>
<linearGradient id="paint7_linear_166_371" x1="373.885" y1="671.652" x2="373.885" y2="782.607" gradientUnits="userSpaceOnUse">
<stop stop-color="#FFB800"/>
<stop offset="1" stop-color="#FF7F0A"/>
</linearGradient>
<linearGradient id="paint8_linear_166_371" x1="289.905" y1="400.144" x2="289.904" y2="662.842" gradientUnits="userSpaceOnUse">
<stop stop-color="#FFB800"/>
<stop offset="1" stop-color="#FF7F0A"/>
</linearGradient>
<linearGradient id="paint9_linear_166_371" x1="297.084" y1="383.909" x2="297.084" y2="676.615" gradientUnits="userSpaceOnUse">
<stop stop-color="#FFB800"/>
<stop offset="1" stop-color="#FF7F0A"/>
</linearGradient>
<clipPath id="clip0_166_371">
<rect width="633" height="884" fill="white" transform="translate(164 38)"/>
</clipPath>
</defs>
</svg>
