<svg width="960" height="960" viewBox="0 0 960 960" fill="none" xmlns="http://www.w3.org/2000/svg">
<g clip-path="url(#clip0_166_370)">
<path fill-rule="evenodd" clip-rule="evenodd" d="M246.743 593.451C262.907 593.323 278.852 593.196 295.407 591.852L295.589 594.118L295.563 594.152C298.413 620.595 297.435 647.336 296.458 674.086C295.525 699.615 294.591 725.152 296.984 750.443C297.747 758.513 299.189 767.297 304.147 772.308C308.339 776.546 314.038 777.032 319.354 777.346C319.891 777.38 320.423 777.407 320.954 777.433C330.636 777.999 340.406 778.409 349.922 776.064C356.602 774.426 363.53 770.923 367.922 764.5C369.007 762.925 369.899 761.225 370.58 759.437C373.517 751.837 372.89 742.844 372.201 734.399C372.179 734.078 372.152 733.76 372.125 733.441C372.103 733.189 372.081 732.937 372.062 732.682C371.539 726.338 370.998 719.872 370.449 713.327C368.596 691.064 366.626 667.782 364.66 644.542C362.217 615.664 359.78 586.852 357.578 560.139L357.569 559.755L233.34 563.006V545.785L240.87 533.951C238.848 533.951 236.835 533.907 234.813 533.829C211.832 532.931 188.703 527.04 169.191 515.057L168.955 515.432C168.969 520.318 169.321 524.571 169.661 528.685C170.185 535.014 170.682 541.014 169.879 548.487C168.554 560.818 169.844 571.738 178.001 581.072C188.121 592.654 205.357 594.274 220.721 593.839C229.539 593.588 238.172 593.52 246.743 593.451ZM352.725 593.219C352.614 592.506 351.946 592.018 351.233 592.128C350.519 592.239 350.031 592.908 350.142 593.621C356.756 636.14 361.029 678.99 362.943 721.978C362.975 722.699 363.586 723.258 364.307 723.226C365.028 723.194 365.586 722.583 365.554 721.862C363.636 678.778 359.353 635.833 352.725 593.219Z" fill="#171717"/>
<path fill-rule="evenodd" clip-rule="evenodd" d="M730.221 486.699C723.746 488.207 717.193 490.813 712.539 495.432C711.597 496.351 710.741 497.354 709.982 498.428C704.666 506.002 705.399 515.959 709.756 524.259C711.189 527.004 712.999 529.536 715.133 531.78C716.65 533.374 718.333 534.803 720.153 536.041C732.153 544.129 747.578 544.861 762.027 543.989C763.09 543.928 764.153 543.85 765.217 543.771C785.54 542.246 805.976 537.713 823.283 527.013C824.601 526.197 825.901 525.34 827.183 524.442C850.347 508.32 865.302 481.016 866.992 452.789C868.779 423.011 856.108 392.884 834.225 372.596C829.691 368.4 824.791 364.619 819.584 361.296C800.181 348.978 777.494 342.845 754.528 343.709C753.693 343.731 752.865 343.779 752.028 343.831C729.932 345.203 709.025 352.789 688.077 360.389C669.903 366.983 651.698 373.588 632.662 376.155C629.687 376.556 626.694 376.859 623.702 377.161C617.211 377.817 610.723 378.473 604.426 380.137C598.018 381.7 592.066 384.745 587.049 389.026C584.847 390.988 582.981 393.296 581.524 395.859C579.915 398.765 578.988 401.999 578.815 405.317C578.642 408.634 579.226 411.947 580.524 415.005C581.677 417.617 583.517 419.867 585.848 421.515L585.613 421.872C598.284 430.169 614.747 431.04 629.718 428.295C639.741 426.458 649.4 423.181 659.063 419.902C664.393 418.094 669.724 416.285 675.118 414.717C684.791 411.903 694.983 409.881 704.983 410.055L704.966 410.855L750.893 482.22L751.015 482.656C747.275 483.641 743.449 484.282 739.621 484.924C736.473 485.452 733.324 485.98 730.221 486.699ZM844.933 395.302C844.514 394.714 843.698 394.577 843.11 394.995C842.523 395.414 842.385 396.23 842.804 396.818C850.557 407.703 855.684 420.236 857.783 433.434C859.882 446.632 858.895 460.137 854.901 472.89C850.907 485.643 844.014 497.297 834.761 506.94C825.509 516.583 814.149 523.952 801.572 528.47C800.893 528.714 800.54 529.463 800.784 530.142C801.028 530.821 801.776 531.174 802.456 530.93C815.412 526.276 827.116 518.684 836.647 508.75C846.179 498.816 853.281 486.809 857.396 473.671C861.51 460.533 862.527 446.62 860.364 433.023C858.202 419.427 852.921 406.516 844.933 395.302Z" fill="#171717"/>
<path d="M866.494 567.241L868.542 691.47L855.017 690.677L855.461 569.934L855.104 568.113L866.241 565.943L866.494 567.241Z" fill="url(#paint0_linear_166_370)"/>
<path d="M679.937 670.25L679.824 670.267C678.743 670.45 677.662 670.633 676.582 670.799C671.126 671.679 665.601 672.333 660.137 671.67C656.99 671.311 653.928 670.419 651.082 669.03C647.954 667.551 645.27 665.275 643.3 662.43C639.265 656.399 639.413 648.582 639.858 641.34C641.575 613.679 645.548 580.101 650.098 552.763L650.08 552.083L765.664 549.059L765.255 544.24L765.22 543.769C785.543 542.244 805.979 537.713 823.286 527.011C824.611 526.192 825.911 525.335 827.186 524.44C827.586 530.331 824.921 536.231 820.973 540.702C816.685 545.547 811.02 548.946 805.312 551.996C785.118 562.788 763.301 570.219 740.718 573.996L740.788 574.396C737.442 614.318 734.101 654.237 730.766 694.154C730.383 698.738 729.903 703.583 727.15 707.27C725.956 708.856 724.43 710.161 722.679 711.096C718.121 713.596 712.179 714.024 706.792 714.172C702.086 714.311 697.014 714.346 693.118 711.688C692.403 711.196 691.743 710.629 691.149 709.998C688.587 707.298 687.175 703.514 686.049 699.88C683.101 690.213 681.055 680.294 679.937 670.25V670.25Z" fill="url(#paint1_linear_166_370)"/>
<path d="M822.919 575.956L824.967 637.648L811.442 637.256L811.886 577.289L811.747 576.566L822.623 574.44L822.919 575.956Z" fill="url(#paint2_linear_166_370)"/>
<path d="M765.56 586.632L766.736 719.767L753.202 718.913L753.655 588.383L753.559 587.904L765.359 585.603L765.56 586.632Z" fill="url(#paint3_linear_166_370)"/>
<path d="M548.78 482.569C548.818 483.309 548.688 484.048 548.4 484.73C548.112 485.412 547.672 486.02 547.115 486.508C544.222 489.375 539.838 489.95 535.795 490.377C525.595 491.44 515.359 492.512 505.101 492.338C494.843 492.164 484.508 490.726 474.983 486.917C473.658 486.394 472.16 485.575 472.02 484.155C471.854 482.542 473.545 481.418 475.027 480.765C478.72 479.148 482.612 478.031 486.6 477.444L486.983 477.287C487.419 478.429 488.063 479.481 488.883 480.387C491.283 482.987 494.957 483.887 498.443 484.439C508.859 486.1 519.491 485.846 529.816 483.69C532.056 483.219 534.461 482.548 535.856 480.735C536.645 479.589 537.15 478.272 537.329 476.892L538.322 477.084C540.143 478.095 542.331 478.156 544.353 478.684C546.375 479.212 548.5 480.5 548.78 482.569Z" fill="url(#paint4_linear_166_370)"/>
<path d="M513.414 451.971C528.02 452.023 539.794 454.899 539.794 458.429C539.793 458.719 539.718 459.004 539.577 459.257C537.904 462.437 526.652 464.886 513.031 464.886C498.721 464.886 487.027 462.176 486.312 458.76C486.287 458.652 486.275 458.541 486.277 458.429C486.277 454.864 498.259 451.971 513.031 451.971H513.414Z" fill="url(#paint5_linear_166_370)"/>
<path d="M315.329 417.068C304.496 416.005 293.681 414.768 282.91 413.487L282.753 413.513C285.306 427.378 287.353 441.121 288.574 452.813C290.038 452.508 291.502 452.159 292.949 451.767C293.263 451.688 293.577 451.601 293.89 451.514C302.361 449.135 312.296 445.714 319.233 451.122C320.859 452.462 322.229 454.086 323.276 455.915C323.939 456.987 324.531 458.094 325.124 459.192C328.766 465.964 332.406 472.741 336.044 479.523C338.126 483.401 340.262 487.489 341.264 491.723C341.831 493.936 342.005 496.231 341.778 498.503C341.116 504.717 336.978 510.137 331.887 513.754C326.796 517.371 320.767 519.41 314.806 521.275C290.84 528.761 265.933 534.051 240.87 533.955C238.848 533.955 236.835 533.911 234.813 533.833C211.832 532.933 188.703 527.044 169.191 515.061C165.671 512.912 162.281 510.558 159.038 508.011C131.412 486.329 115.821 450.211 118.976 415.242C122.122 380.287 143.909 347.563 174.934 331.142C175.414 333.204 176.158 335.196 177.147 337.068C180.537 343.456 186.908 347.892 193.775 350.168C201.062 352.442 208.852 352.558 216.204 350.501C223.556 348.444 230.155 344.303 235.205 338.577C240.035 332.802 243.073 325.741 243.946 318.263C251.669 320.805 258.51 325.494 263.667 331.78L263.894 331.606C311.041 357.445 366.301 368.757 419.522 361.07C424.934 360.286 430.904 359.441 435.488 362.43C436.371 363.003 437.172 363.695 437.867 364.486C439.897 366.981 441.419 369.85 442.346 372.931C444.577 379.303 446.094 385.903 446.869 392.609C446.969 393.481 447.052 394.361 447.131 395.241C447.293 397.011 447.343 398.79 447.279 400.566C447.265 403.773 446.284 406.902 444.464 409.542C443.942 410.236 443.346 410.87 442.686 411.433C439.192 414.466 434.137 415.564 429.448 416.313C391.757 422.367 353.43 420.8 315.329 417.068Z" fill="url(#paint6_linear_166_370)"/>
<path d="M406.928 690.939C407.277 695.13 407.504 699.645 406.205 703.531C405.758 704.902 405.087 706.189 404.218 707.34C400.88 711.74 395.024 713.222 389.63 714.425C383.189 715.854 375.852 717.125 370.448 713.325C366.292 663.398 361.548 608.347 357.577 560.137L357.568 559.753L385.882 559.013L385.9 559.57C395.782 599.93 403.499 649.535 406.928 690.939Z" fill="#171717"/>
<path d="M271.127 617.447L273.175 804.048L259.641 802.819L260.094 616.227L260.19 615.312L271.232 616.419L271.127 617.447Z" fill="url(#paint7_linear_166_370)"/>
<path d="M243.946 318.26C243.073 325.738 240.035 332.799 235.205 338.574C230.155 344.3 223.556 348.441 216.204 350.498C208.852 352.555 201.062 352.439 193.775 350.165C186.908 347.891 180.537 343.455 177.147 337.065C176.158 335.193 175.414 333.201 174.934 331.139C173.26 324.202 174.114 316.568 174.69 309.317C174.951 305.997 175.143 302.671 175.265 299.339C175.413 294.981 175.448 290.615 175.343 286.258L176.643 286.232C186.764 288.688 197.301 288.89 207.51 286.824C215.179 285.264 223.41 282.484 230.526 285.744C234.831 287.713 237.942 291.635 240.121 295.835C243.613 302.758 244.946 310.571 243.946 318.26V318.26ZM211.701 309.66C212.939 307.098 211.762 303.891 209.688 301.939C205.244 297.764 197.174 296.579 191.466 295.324C188.166 294.592 184.224 294.792 182.036 297.372C179.848 299.952 180.363 304.048 182.428 306.714C184.493 309.38 187.744 310.854 190.969 311.814C194.905 312.993 198.999 313.563 203.109 313.505C206.42 313.45 210.255 312.639 211.7 309.659L211.701 309.66Z" fill="#171717"/>
<path d="M205.766 610.745L207.813 705.318L194.279 704.691L194.733 610.127L194.872 608.758L205.853 609.865L205.766 610.745Z" fill="url(#paint8_linear_166_370)"/>
<path d="M171.3 246.974L171.1 247.017C173.64 259.952 175.06 273.081 175.344 286.26C175.449 290.617 175.414 294.983 175.266 299.341L174.978 299.332C174.978 303.402 170.115 306.67 166.351 305.075C163.292 303.785 162.019 299.75 163.213 296.761C163.658 296.116 164.085 295.461 164.513 294.818C163.938 295.358 163.493 296.023 163.213 296.761C162.036 298.6 160.494 300.178 158.682 301.397C156.154 302.94 152.555 303.149 150.464 301.066C148.45 299.066 148.52 295.715 149.564 293.083C150.608 290.451 152.457 288.203 153.73 285.667C157.573 277.989 155.751 268.848 154.401 260.359C153.051 251.87 152.623 242.18 158.366 235.793C163.542 230.041 171.966 228.943 179.56 227.505C187.154 226.067 195.648 223.086 198.46 215.879C199.741 212.594 199.592 208.934 200.508 205.526C201.424 202.118 204.081 198.659 207.601 198.807C210.358 203.46 211.717 208.81 211.514 214.215C211.394 215.077 211.321 215.945 211.296 216.815C211.416 215.953 211.489 215.085 211.514 214.215C212.095 210.103 213.738 206.213 216.281 202.929C217.815 200.96 219.872 199.138 222.355 198.929C226.425 198.58 229.676 202.877 229.772 206.964C229.868 211.051 227.785 214.825 225.754 218.372C228.491 214.302 231.48 210.023 236.011 208.158C240.542 206.293 246.957 208.245 247.89 213.058C248.49 216.117 246.739 219.149 244.665 221.476C235.865 231.359 221.484 233.581 208.316 234.923C195.148 236.265 180.86 237.814 171.3 246.974Z" fill="#171717"/>
<path d="M158.707 605.246L160.755 791.847L147.221 790.618L147.674 604.026L158.715 605.133L158.707 605.246Z" fill="url(#paint9_linear_166_370)"/>
<path d="M222.682 257.266C222.022 256.783 221.264 256.454 220.461 256.301C219.658 256.148 218.831 256.175 218.04 256.381C217.249 256.587 216.514 256.966 215.888 257.492C215.262 258.017 214.76 258.675 214.42 259.418" stroke="#171717" stroke-width="2.614" stroke-linecap="round" stroke-linejoin="round"/>
<path d="M221.88 245.457C217.28 246.555 212.68 247.65 208.08 248.743C206.997 248.884 205.99 249.375 205.213 250.143C204.263 251.328 204.594 253.053 204.977 254.518C207.2 263.051 209.643 271.516 212.307 279.912C211.08 279.851 209.853 280.036 208.697 280.455C207.542 280.874 206.482 281.519 205.579 282.353C205.954 282.153 206.328 281.96 206.712 281.76" stroke="#171717" stroke-width="2.614" stroke-linecap="round" stroke-linejoin="round"/>
<path d="M194.856 258.582C194.197 258.276 193.485 258.103 192.759 258.072C192.034 258.042 191.309 258.155 190.628 258.405C189.946 258.655 189.32 259.038 188.787 259.53C188.253 260.023 187.822 260.616 187.518 261.275" stroke="#171717" stroke-width="2.614" stroke-linecap="round" stroke-linejoin="round"/>
<path d="M230.881 285.04C234.416 267.577 233.536 249.508 228.319 232.472" stroke="#171717" stroke-width="2.614" stroke-linecap="round" stroke-linejoin="round"/>
<path d="M170.629 244.682C170.785 245.457 170.942 246.233 171.099 247.017C173.639 259.952 175.059 273.081 175.343 286.26C175.448 290.617 175.413 294.983 175.265 299.341C175.143 302.67 174.951 305.996 174.69 309.319C174.114 316.57 173.26 324.204 174.934 331.141C175.415 333.203 176.159 335.195 177.147 337.067C180.537 343.455 186.908 347.891 193.775 350.167C201.062 352.441 208.853 352.557 216.204 350.5C223.556 348.443 230.155 344.302 235.205 338.576C240.063 332.688 243.113 325.519 243.985 317.935C244.857 310.351 243.515 302.677 240.12 295.839C237.941 291.639 234.83 287.717 230.525 285.748C223.405 282.488 215.178 285.268 207.509 286.828C197.301 288.895 186.763 288.693 176.642 286.236" stroke="#171717" stroke-width="2.614" stroke-linecap="round" stroke-linejoin="round"/>
<path d="M211.518 214.215C212.099 210.103 213.742 206.213 216.285 202.929C217.819 200.96 219.876 199.138 222.359 198.929C226.429 198.58 229.68 202.877 229.776 206.964C229.872 211.051 227.789 214.825 225.758 218.372C228.495 214.302 231.484 210.023 236.015 208.158C240.546 206.293 246.961 208.245 247.894 213.058C248.494 216.117 246.743 219.149 244.669 221.476C235.869 231.359 221.488 233.581 208.32 234.923C195.152 236.265 180.86 237.816 171.3 246.976C171.535 246.418 171.779 245.86 172.014 245.294" stroke="#171717" stroke-width="2.614" stroke-linecap="round" stroke-linejoin="round"/>
<path d="M211.518 214.215C211.493 215.085 211.42 215.953 211.3 216.815C211.325 215.945 211.398 215.077 211.518 214.215V214.215Z" stroke="#171717" stroke-width="2.614" stroke-linecap="round" stroke-linejoin="round"/>
<path d="M163.212 296.761C162.035 298.6 160.493 300.178 158.681 301.397C156.153 302.94 152.554 303.149 150.463 301.066C148.449 299.066 148.519 295.715 149.563 293.083C150.607 290.451 152.456 288.203 153.729 285.667C157.572 277.989 155.75 268.848 154.4 260.359C153.05 251.87 152.622 242.18 158.365 235.793C163.541 230.041 171.965 228.943 179.559 227.505C187.153 226.067 195.647 223.086 198.459 215.879C199.74 212.594 199.591 208.934 200.507 205.526C201.423 202.118 204.08 198.659 207.6 198.807C210.357 203.46 211.716 208.81 211.513 214.215" stroke="#171717" stroke-width="2.614" stroke-linecap="round" stroke-linejoin="round"/>
<path d="M163.212 296.761C163.492 296.023 163.936 295.358 164.512 294.818C164.084 295.463 163.657 296.116 163.212 296.761Z" stroke="#171717" stroke-width="2.614" stroke-linecap="round" stroke-linejoin="round"/>
<path d="M174.977 299.245V299.332C174.977 303.402 170.114 306.67 166.35 305.075C163.291 303.785 162.018 299.75 163.212 296.761" stroke="#171717" stroke-width="2.614" stroke-linecap="round" stroke-linejoin="round"/>
<path d="M174.977 331.123C174.96 331.132 174.951 331.141 174.934 331.141C143.909 347.559 122.122 380.283 118.976 415.241C115.821 450.214 131.412 486.328 159.038 508.01C162.281 510.557 165.671 512.911 169.191 515.06C188.703 527.043 211.832 532.934 234.813 533.832C236.835 533.91 238.848 533.954 240.87 533.954C265.933 534.054 290.84 528.76 314.806 521.274C320.767 519.409 326.788 517.361 331.887 513.753C336.986 510.145 341.116 504.716 341.778 498.502C342.005 496.229 341.831 493.934 341.264 491.722C340.264 487.487 338.126 483.399 336.044 479.522C332.401 472.742 328.761 465.965 325.124 459.191C324.531 458.091 323.939 456.991 323.276 455.914C322.229 454.085 320.859 452.461 319.233 451.121C312.296 445.709 302.361 449.134 293.89 451.513C293.577 451.6 293.263 451.687 292.949 451.766C291.502 452.158 290.038 452.507 288.574 452.812C270.228 456.729 251.106 454.561 234.102 446.637C217.099 438.713 203.141 425.465 194.341 408.898" stroke="#171717" stroke-width="2.614" stroke-linecap="round" stroke-linejoin="round"/>
<path d="M323.477 455.788C329.816 451.095 336.898 447.498 344.427 445.147C346.789 444.407 349.883 444.032 351.268 446.08C351.679 446.832 351.847 447.694 351.749 448.546C351.65 449.398 351.29 450.199 350.719 450.838C349.554 452.099 348.134 453.097 346.554 453.766" stroke="#171717" stroke-width="2.614" stroke-linecap="round" stroke-linejoin="round"/>
<path d="M338.7 455.928C341.314 455.195 343.937 454.495 346.569 453.828C361.543 450.023 376.759 447.25 392.112 445.528C394.078 445.169 396.098 445.231 398.038 445.711C399.938 446.311 401.664 447.942 401.733 449.929C401.855 453.101 398.221 454.896 395.189 455.837C395.171 455.846 395.154 455.846 395.136 455.855C383.528 459.455 371.781 462.555 359.894 465.155" stroke="#171717" stroke-width="2.614" stroke-linecap="round" stroke-linejoin="round"/>
<path d="M395.164 455.936C398.972 455.666 401.351 455.501 404.07 455.396C406.789 455.291 410.144 456.677 410.153 459.387C410.162 462.063 407.024 463.44 404.436 464.137C403.936 464.276 403.416 464.407 402.911 464.546C389.903 468.024 376.899 471.509 363.899 475C364.544 474.922 365.199 474.843 365.842 474.774" stroke="#171717" stroke-width="2.614" stroke-linecap="round" stroke-linejoin="round"/>
<path d="M402.52 464.564C402.651 464.555 402.781 464.555 402.912 464.546C405.236 464.309 407.584 464.499 409.84 465.104C412.158 465.871 414.224 467.745 414.293 470.011C414.407 473.68 409.793 475.719 405.962 476.782C384.762 482.664 363.291 487.62 341.551 491.649" stroke="#171717" stroke-width="2.614" stroke-linecap="round" stroke-linejoin="round"/>
<path d="M243.867 318.234L243.946 318.26C251.67 320.802 258.51 325.49 263.667 331.777C265.36 333.89 266.78 336.209 267.894 338.677" stroke="#171717" stroke-width="2.614" stroke-linecap="round" stroke-linejoin="round"/>
<path d="M263.894 331.6C311.041 357.439 366.301 368.751 419.522 361.064C424.934 360.28 430.904 359.435 435.488 362.424C436.371 362.997 437.172 363.689 437.867 364.48C439.897 366.975 441.419 369.844 442.346 372.925C444.577 379.297 446.094 385.897 446.869 392.603C446.969 393.475 447.052 394.355 447.131 395.235C447.293 397.005 447.343 398.784 447.279 400.56C447.265 403.767 446.284 406.896 444.464 409.536C443.942 410.23 443.346 410.864 442.686 411.427C439.192 414.46 434.137 415.558 429.448 416.307C391.757 422.364 353.43 420.795 315.329 417.065C304.496 416.002 293.681 414.765 282.91 413.484" stroke="#171717" stroke-width="2.614" stroke-linecap="round" stroke-linejoin="round"/>
<path d="M271.711 364.928C275.694 378.889 279.598 396.301 282.753 413.513C285.306 427.378 287.353 441.121 288.574 452.813C288.583 452.926 288.6 453.039 288.609 453.153" stroke="#171717" stroke-width="2.614" stroke-linecap="round" stroke-linejoin="round"/>
<path d="M168.955 515.432C168.99 527.832 171.195 536.164 169.879 548.487C168.563 560.81 169.844 571.738 178.001 581.072C188.119 592.654 205.357 594.272 220.721 593.839C246.168 593.115 270.073 593.908 295.407 591.852C303.738 591.163 312.226 590.179 320.976 588.732" stroke="#171717" stroke-width="2.614" stroke-linecap="round" stroke-linejoin="round"/>
<path d="M385.9 559.572C395.782 599.93 403.495 649.535 406.928 690.939C407.277 695.13 407.504 699.645 406.205 703.531C405.758 704.902 405.086 706.189 404.218 707.34C400.88 711.74 395.024 713.222 389.63 714.425C383.189 715.854 375.852 717.125 370.448 713.325C370.44 713.325 370.44 713.316 370.431 713.316" stroke="#171717" stroke-width="2.614" stroke-linecap="round" stroke-linejoin="round"/>
<path d="M743.92 290.007C743.387 290.043 742.868 290.192 742.397 290.444C741.927 290.697 741.515 291.047 741.191 291.471C740.866 291.895 740.636 292.384 740.516 292.905C740.395 293.425 740.387 293.965 740.492 294.489C740.597 295.013 740.813 295.508 741.125 295.941C741.437 296.375 741.838 296.737 742.301 297.003C742.764 297.27 743.279 297.434 743.811 297.485C744.342 297.536 744.879 297.474 745.384 297.301" stroke="#171717" stroke-width="1.743" stroke-linecap="round" stroke-linejoin="round"/>
<path d="M750.753 311.559C752.684 312.197 754.785 312.077 756.631 311.224C758.477 310.372 759.931 308.849 760.697 306.966" stroke="#171717" stroke-width="1.743" stroke-linecap="round" stroke-linejoin="round"/>
<path d="M735.128 273.222C734.953 273.735 734.884 274.278 734.925 274.818C734.965 275.359 735.116 275.885 735.366 276.366C735.616 276.846 735.962 277.271 736.381 277.615C736.8 277.958 737.285 278.213 737.805 278.363C738.326 278.514 738.872 278.557 739.409 278.491C739.947 278.424 740.466 278.249 740.934 277.976C741.402 277.704 741.81 277.339 742.134 276.903C742.457 276.468 742.688 275.972 742.814 275.445" stroke="#171717" stroke-width="1.743" stroke-linecap="round" stroke-linejoin="round"/>
<path d="M730.265 261.1C730.229 261.139 730.195 261.179 730.165 261.222C723.681 269.153 724.265 280.996 728.317 290.417C732.396 299.89 739.368 307.75 745.163 316.282C745.973 317.467 746.757 318.652 747.516 319.838C752.178 327.158 755.586 334.505 754.516 343.307" stroke="#171717" stroke-width="2.614" stroke-linecap="round" stroke-linejoin="round"/>
<path d="M727.476 258.468C728.339 259.418 729.236 260.342 730.169 261.222C735.466 266.157 741.722 269.949 748.549 272.361C755.375 274.774 762.625 275.755 769.847 275.244C771.422 275.131 772.991 274.939 774.547 274.669" stroke="#171717" stroke-width="2.614" stroke-linecap="round" stroke-linejoin="round"/>
<path d="M750.875 277.658C750.954 278.781 751.38 279.851 752.093 280.722C752.806 281.592 753.771 282.221 754.856 282.52C755.941 282.819 757.092 282.775 758.15 282.392C759.208 282.01 760.122 281.309 760.766 280.386" stroke="#171717" stroke-width="1.743" stroke-linecap="round" stroke-linejoin="round"/>
<path d="M769.864 275.453C766.662 298.546 768.998 322.07 776.679 344.082" stroke="#171717" stroke-width="2.614" stroke-linecap="round" stroke-linejoin="round"/>
<path d="M746.823 320.273C734.213 324.404 720.905 315.393 714.474 303.794C708.043 292.195 707.816 278.155 709.384 264.978C710.395 256.464 712.251 247.662 717.593 240.952C722.857 234.346 731.058 230.511 739.415 229.291C747.772 228.071 756.322 229.265 764.515 231.313C777.447 234.546 790.415 240.35 798.45 250.991C809.291 265.344 808.908 284.961 807.914 302.922C807.853 304.012 807.801 305.122 807.775 306.269C807.226 323.942 809.919 347.35 819.697 361.128" stroke="#171717" stroke-width="2.614" stroke-linecap="round" stroke-linejoin="round"/>
<path d="M585.852 421.513C583.521 419.865 581.681 417.615 580.528 415.003C579.23 411.945 578.646 408.632 578.819 405.315C578.992 401.997 579.918 398.763 581.528 395.857C582.985 393.294 584.851 390.986 587.053 389.024C592.07 384.743 598.022 381.698 604.43 380.135C613.63 377.704 623.237 377.425 632.666 376.153C673.643 370.627 710.766 346.392 752.032 343.829C752.869 343.777 753.697 343.729 754.532 343.707C777.498 342.843 800.185 348.976 819.588 361.294C824.795 364.617 829.695 368.398 834.229 372.594C856.112 392.882 868.783 423.009 866.996 452.787C865.306 481.014 850.351 508.318 827.187 524.44C825.905 525.338 824.605 526.195 823.287 527.011C805.98 537.711 785.544 542.244 765.221 543.769C764.157 543.848 763.094 543.926 762.031 543.987C747.582 544.859 732.157 544.127 720.157 536.039C718.337 534.801 716.654 533.372 715.137 531.778C713.003 529.534 711.193 527.002 709.76 524.257C705.403 515.957 704.67 506 709.986 498.426C710.744 497.351 711.599 496.346 712.54 495.426C717.194 490.807 723.747 488.201 730.222 486.693C737.098 485.099 744.201 484.445 751.016 482.65C751.896 482.423 752.776 482.179 753.647 481.9C780.628 473.4 786.337 458.458 793.021 439.66C799.705 420.862 800.428 400.548 800.873 380.609" stroke="#171717" stroke-width="2.614" stroke-linecap="round" stroke-linejoin="round"/>
<path d="M584.179 420.885C584.65 421.225 585.129 421.548 585.617 421.87C598.288 430.17 614.751 431.038 629.722 428.293C645.27 425.443 659.945 419.125 675.122 414.715C684.795 411.901 694.983 409.879 704.987 410.053C710.691 410.112 716.353 411.026 721.787 412.763" stroke="#171717" stroke-width="2.614" stroke-linecap="round" stroke-linejoin="round"/>
<path d="M827.025 522.909C827.106 523.417 827.161 523.929 827.19 524.443C827.59 530.334 824.925 536.234 820.977 540.705C816.689 545.55 811.024 548.949 805.316 551.999C785.122 562.791 763.305 570.222 740.722 573.999C736.173 574.775 731.589 575.385 726.997 575.846" stroke="#171717" stroke-width="2.614" stroke-linecap="round" stroke-linejoin="round"/>
<path d="M650.1 552.766C645.55 580.104 641.577 613.682 639.86 641.343C639.415 648.585 639.267 656.402 643.302 662.433C645.272 665.278 647.955 667.554 651.084 669.033C653.93 670.422 656.992 671.315 660.139 671.673C665.603 672.336 671.128 671.682 676.584 670.802C677.664 670.636 678.745 670.453 679.826 670.27" stroke="#171717" stroke-width="2.614" stroke-linecap="round" stroke-linejoin="round"/>
<path d="M320.932 777.834C316.923 781.842 317.96 790.845 321.682 795.124C325.404 799.403 330.982 801.416 336.331 803.089C346.627 806.354 357.132 808.919 367.774 810.767C376.637 812.274 385.683 813.207 394.616 812.167C403.549 811.127 412.416 808.036 419.357 802.197C423.47 798.746 427.057 793.456 425.692 788.197C424.525 783.709 420.228 780.955 416.228 778.75C405.128 772.624 379.957 769.25 368.166 764.667" stroke="#171717" stroke-width="2.614" stroke-linecap="round" stroke-linejoin="round"/>
<path d="M372.768 732.621C381.7 733.885 390.154 737.336 398.607 740.508C407.06 743.68 415.766 746.626 424.795 746.8C433.824 746.974 443.305 743.977 449.057 737.022C452.874 732.395 454.547 725.057 450.557 720.586C448.587 718.386 445.685 717.336 442.905 716.36C430.887 712.15 418.872 707.944 406.861 703.741" stroke="#171717" stroke-width="2.614" stroke-linecap="round" stroke-linejoin="round"/>
<path d="M440.229 364.2C443.757 361.707 447.594 359.682 451.645 358.178C455.724 356.681 460.162 356.463 464.368 357.551C465.576 357.83 466.683 358.436 467.569 359.302C467.828 359.582 468.04 359.903 468.196 360.252C468.499 360.862 468.585 361.557 468.44 362.222C468.405 362.391 468.35 362.555 468.275 362.71C466.985 365.394 462.209 364.11 460.562 366.596C460.28 367.026 460.131 367.529 460.135 368.043C460.135 368.621 460.263 369.191 460.508 369.713C460.754 370.236 461.111 370.698 461.556 371.067C462.92 372.051 464.538 372.623 466.217 372.714C467.001 372.814 467.803 372.889 468.596 372.923C469.823 372.987 471.053 372.955 472.275 372.828C473.532 372.692 474.773 372.424 475.975 372.028C477.187 371.681 478.283 371.013 479.147 370.093C479.573 369.63 479.861 369.056 479.978 368.438C480.095 367.819 480.036 367.18 479.809 366.593C478.903 364.623 475.721 363.926 475.773 361.765C475.783 361.424 475.879 361.091 476.053 360.797C476.349 360.3 476.79 359.905 477.316 359.665C478.168 359.326 479.089 359.198 480.001 359.29C482.77 359.381 485.423 360.424 487.513 362.244C488.542 363.16 489.325 364.32 489.791 365.617C490.257 366.914 490.391 368.307 490.18 369.669C490.048 370.342 489.822 370.994 489.509 371.604C488.184 374.236 485.395 376.104 482.624 377.355C477.891 379.481 472.753 380.555 467.565 380.502C465.721 380.494 463.882 380.336 462.065 380.031" stroke="#171717" stroke-width="2.614" stroke-linecap="round" stroke-linejoin="round"/>
<path d="M490.452 371.612C492.386 374.845 491.489 379.238 489.057 382.112C487.826 383.537 486.32 384.699 484.63 385.529C482.928 386.361 481.131 386.981 479.279 387.376C474.827 388.352 470.217 388.358 465.763 387.394C464.857 387.202 463.95 386.967 463.062 386.688" stroke="#171717" stroke-width="2.614" stroke-linecap="round" stroke-linejoin="round"/>
<path d="M484.683 385.643C486.33 387.787 485.432 391.107 483.393 392.885C481.354 394.663 478.547 395.238 475.863 395.525C474.582 395.665 473.292 395.735 472.003 395.752C468.841 395.776 465.682 395.551 462.556 395.081C457.649 394.401 452.756 393.329 447.932 392.481" stroke="#171717" stroke-width="2.614" stroke-linecap="round" stroke-linejoin="round"/>
<path d="M455.915 372.972C457.612 371.601 459.042 369.929 460.133 368.039C460.449 367.495 460.734 366.933 460.987 366.357" stroke="#171717" stroke-width="2.614" stroke-linecap="round" stroke-linejoin="round"/>
<path d="M558.113 385.146C558.109 385.523 558.189 385.895 558.349 386.236C559.638 388.92 564.414 387.636 566.061 390.122C566.34 390.55 566.489 391.049 566.488 391.56C566.487 392.139 566.359 392.71 566.114 393.234C565.868 393.758 565.511 394.222 565.068 394.593C563.704 395.577 562.085 396.149 560.405 396.24L559.499 396.345C558.234 396.47 556.962 396.507 555.691 396.458C553.975 396.393 552.277 396.088 550.645 395.552C549.432 395.206 548.336 394.537 547.473 393.617C547.05 393.152 546.764 392.579 546.647 391.961C546.529 391.343 546.586 390.705 546.81 390.117C547.69 388.208 550.71 387.493 550.836 385.48C550.844 385.417 550.847 385.353 550.845 385.289C550.812 384.862 550.667 384.452 550.425 384.099C550.184 383.746 549.854 383.462 549.468 383.276C549.418 383.244 549.365 383.214 549.311 383.188C548.456 382.85 547.533 382.722 546.618 382.814C543.849 382.907 541.197 383.95 539.106 385.768C538.08 386.687 537.299 387.847 536.834 389.143C536.368 390.44 536.233 391.831 536.44 393.193C536.525 393.644 536.657 394.085 536.832 394.509C538.008 397.463 541.015 399.529 543.995 400.879C548.296 402.813 552.937 403.879 557.651 404.017C559.015 404.062 560.38 404.024 561.739 403.903C562.68 403.834 563.621 403.712 564.562 403.555" stroke="#171717" stroke-width="2.614" stroke-linecap="round" stroke-linejoin="round"/>
<path d="M586.392 387.726C582.864 385.233 579.026 383.209 574.975 381.704C570.897 380.208 566.459 379.988 562.252 381.076C561.046 381.358 559.94 381.964 559.052 382.828C558.586 383.333 558.277 383.963 558.164 384.641C558.133 384.769 558.118 384.901 558.12 385.033" stroke="#171717" stroke-width="2.614" stroke-linecap="round" stroke-linejoin="round"/>
<path d="M536.169 395.142C534.235 398.375 535.132 402.767 537.564 405.642C538.795 407.067 540.301 408.229 541.991 409.059C543.692 409.891 545.489 410.511 547.342 410.906C551.039 411.723 554.853 411.867 558.601 411.333C560.282 411.097 561.94 410.724 563.56 410.218" stroke="#171717" stroke-width="2.614" stroke-linecap="round" stroke-linejoin="round"/>
<path d="M541.938 409.173C541.517 409.719 541.244 410.364 541.145 411.046C541.032 412.042 541.162 413.052 541.524 413.987C541.887 414.922 542.472 415.755 543.227 416.415C545.267 418.193 548.073 418.768 550.757 419.055C553.346 419.317 555.952 419.36 558.548 419.186C561.591 418.971 564.619 418.593 567.62 418.053C571.32 417.426 575.028 416.659 578.688 416.014" stroke="#171717" stroke-width="2.614" stroke-linecap="round" stroke-linejoin="round"/>
<path d="M570.706 396.5C569.009 395.125 567.579 393.45 566.488 391.558C566.172 391.017 565.887 390.458 565.634 389.885" stroke="#171717" stroke-width="2.614" stroke-linecap="round" stroke-linejoin="round"/>
<path d="M712.687 495.458C712.635 495.449 712.587 495.44 712.539 495.432C696.216 492.068 679.022 493.75 663.274 499.232C661.709 499.673 660.247 500.421 658.974 501.432C658.346 501.951 657.872 502.63 657.6 503.397C657.328 504.164 657.27 504.991 657.431 505.789C657.876 507.341 664.665 506.356 668.212 505.868" stroke="#171717" stroke-width="2.614" stroke-linecap="round" stroke-linejoin="round"/>
<path d="M685.227 504.7C674.074 503.744 662.914 506.447 653.435 512.4C652.916 512.668 652.489 513.083 652.207 513.594C652.073 514.014 652.08 514.467 652.228 514.882C652.376 515.298 652.656 515.653 653.026 515.894C653.774 516.358 654.623 516.636 655.501 516.704C657.412 516.974 659.339 517.122 661.27 517.148C669.296 517.297 677.349 515.589 685.253 513.88" stroke="#171717" stroke-width="2.614" stroke-linecap="round" stroke-linejoin="round"/>
<path d="M661.26 517.628C657.246 519.363 653.676 521.985 650.82 525.297C656.267 528.783 663.308 527.851 669.714 526.997C682.896 525.238 696.181 524.373 709.479 524.409" stroke="#171717" stroke-width="2.614" stroke-linecap="round" stroke-linejoin="round"/>
<path d="M191.466 295.323C188.166 294.591 184.224 294.791 182.036 297.371C179.848 299.951 180.363 304.047 182.428 306.713C184.493 309.379 187.744 310.853 190.969 311.813C194.906 312.992 199 313.562 203.109 313.504C206.42 313.452 210.255 312.641 211.701 309.661C212.939 307.099 211.762 303.892 209.688 301.94C205.244 297.763 197.174 296.578 191.466 295.323Z" stroke="#171717" stroke-width="2.614" stroke-linecap="round" stroke-linejoin="round"/>
<path d="M187.657 301.746C188.381 302.986 189.345 304.069 190.492 304.931C191.64 305.793 192.949 306.417 194.341 306.766C195.734 307.115 197.182 307.182 198.601 306.964C200.02 306.745 201.38 306.245 202.603 305.493" stroke="#171717" stroke-width="2.614" stroke-linecap="round" stroke-linejoin="round"/>
<path d="M241.096 533.602L240.87 533.951L233.34 545.785L714.395 533.071" stroke="#171717" stroke-width="2.614" stroke-linecap="round" stroke-linejoin="round"/>
<path d="M315.363 417.007L315.329 417.068L292.871 451.457" stroke="#171717" stroke-width="2.614" stroke-linecap="round" stroke-linejoin="round"/>
<path d="M704.966 410.855L750.893 482.22" stroke="#171717" stroke-width="2.614" stroke-linecap="round" stroke-linejoin="round"/>
<path d="M765.255 544.243L765.664 549.062L650.08 552.086L385.883 559.006V559.015L357.569 559.755L233.34 563.006V545.785" stroke="#171717" stroke-width="2.614" stroke-linecap="round" stroke-linejoin="round"/>
<path d="M443.218 411.674L540.1 410.855" stroke="#171717" stroke-width="2.614" stroke-linecap="round" stroke-linejoin="round"/>
<path d="M295.572 594.118V594.152C301.141 645.831 292.095 698.652 296.993 750.443C297.76 758.513 299.193 767.297 304.156 772.308C308.348 776.544 314.047 777.032 319.363 777.346C319.895 777.38 320.427 777.407 320.963 777.433C330.645 777.999 340.415 778.409 349.931 776.064C356.607 774.426 363.531 770.923 367.931 764.5C369.016 762.925 369.908 761.225 370.589 759.437C373.526 751.837 372.899 742.844 372.21 734.399C372.167 733.824 372.11 733.258 372.071 732.682C371.548 726.338 371.007 719.872 370.458 713.327C366.302 663.4 361.558 608.349 357.587 560.139" stroke="#171717" stroke-width="2.614" stroke-linecap="round" stroke-linejoin="round"/>
<path d="M166.35 305.075L62.3301 373.129L143.526 603.608L147.674 604.026L158.715 605.133L194.873 608.758L205.854 609.865L260.19 615.312L271.232 616.419L278.456 617.142L295.572 594.152L295.598 594.118" stroke="#171717" stroke-width="2.614" stroke-linecap="round" stroke-linejoin="round"/>
<path d="M147.674 604.026L147.221 790.618L160.755 791.847L158.707 605.246" stroke="#171717" stroke-width="2.614" stroke-linecap="round" stroke-linejoin="round"/>
<path d="M260.094 616.227L259.641 802.819L273.175 804.048L271.127 617.447" stroke="#171717" stroke-width="2.614" stroke-linecap="round" stroke-linejoin="round"/>
<path d="M194.733 610.127L194.279 704.691L207.813 705.318L205.766 610.745" stroke="#171717" stroke-width="2.614" stroke-linecap="round" stroke-linejoin="round"/>
<path d="M807.905 306.278L889.105 318.173L866.546 565.882L866.241 565.943L855.104 568.113L822.624 574.44L811.748 576.566L765.359 585.6L753.559 587.9L752.949 588.022L740.792 574.401C737.446 614.323 734.105 654.242 730.77 694.159C730.387 698.743 729.907 703.588 727.154 707.275C725.96 708.861 724.434 710.166 722.683 711.101C718.125 713.601 712.183 714.029 706.796 714.177C702.09 714.316 697.018 714.351 693.122 711.693C692.408 711.201 691.748 710.634 691.153 710.003C688.591 707.303 687.179 703.519 686.053 699.885C683.103 690.215 681.055 680.293 679.935 670.246C678.451 656.432 678.229 642.512 679.273 628.659C680.937 604.728 685.53 581.111 690.114 557.573" stroke="#171717" stroke-width="2.614" stroke-linecap="round" stroke-linejoin="round"/>
<path d="M723.057 711.776C722.743 721.066 722.429 730.358 722.115 739.654C717.775 740.168 713.436 740.685 709.096 741.205C709.604 736.347 709.354 731.44 708.355 726.66C701.974 734.098 694.082 740.093 685.205 744.246C676.328 748.399 666.668 750.615 656.868 750.748C655.084 750.895 653.293 750.57 651.674 749.807C650.123 748.918 649.025 746.992 649.661 745.328C650.02 744.409 650.673 743.636 651.517 743.128C677.278 727.467 681.592 722.543 690.141 710.595" stroke="#171717" stroke-width="2.614" stroke-linecap="round" stroke-linejoin="round"/>
<path d="M650.908 669.387C639.122 683.245 624.111 693.994 607.195 700.687C605.147 701.498 602.672 702.831 602.837 705.027C602.948 705.705 603.258 706.334 603.729 706.834C604.199 707.334 604.808 707.682 605.478 707.834C606.82 708.118 608.207 708.115 609.548 707.825C629.057 704.856 647.737 697.87 664.407 687.31C664.425 691.023 664.443 694.738 664.46 698.456C668.74 698.666 673.028 698.317 677.218 697.419C677.061 688.871 676.902 680.327 676.739 671.789" stroke="#171717" stroke-width="2.614" stroke-linecap="round" stroke-linejoin="round"/>
<path d="M513.414 451.971C528.02 452.023 539.794 454.899 539.794 458.429C539.793 458.719 539.718 459.004 539.577 459.257C537.904 462.437 526.652 464.886 513.031 464.886C498.721 464.886 487.027 462.176 486.312 458.76C486.287 458.652 486.275 458.541 486.277 458.429C486.277 454.864 498.259 451.971 513.031 451.971H513.414Z" stroke="#171717" stroke-width="2.614" stroke-linecap="round" stroke-linejoin="round"/>
<path d="M485.649 458.359C485.693 458.533 485.736 458.708 485.771 458.882C486.555 462.394 486.032 466.082 485.928 469.697C485.775 472.272 486.133 474.851 486.982 477.287C487.418 478.429 488.062 479.48 488.882 480.387C491.282 482.987 494.956 483.887 498.442 484.439C508.859 486.1 519.49 485.846 529.815 483.69C532.055 483.219 534.46 482.548 535.855 480.735C536.644 479.589 537.149 478.272 537.328 476.892C537.38 476.592 537.428 476.292 537.484 475.992C538.418 470.449 539.347 464.909 540.273 459.373" stroke="#171717" stroke-width="2.614" stroke-linecap="round" stroke-linejoin="round"/>
<path d="M486.6 477.444C482.612 478.031 478.72 479.148 475.027 480.765C473.545 481.418 471.854 482.542 472.02 484.155C472.16 485.575 473.658 486.394 474.983 486.917C484.508 490.726 494.844 492.172 505.101 492.338C515.358 492.504 525.59 491.438 535.795 490.377C539.838 489.95 544.222 489.377 547.115 486.508C547.672 486.02 548.112 485.412 548.4 484.73C548.688 484.048 548.818 483.309 548.78 482.569C548.501 480.503 546.374 479.196 544.353 478.682C542.332 478.168 540.143 478.098 538.322 477.082" stroke="#171717" stroke-width="2.614" stroke-linecap="round" stroke-linejoin="round"/>
<path d="M513.624 457.3L513.415 451.967C513.363 450.599 513.315 449.231 513.25 447.862" stroke="#171717" stroke-width="2.614" stroke-linecap="round" stroke-linejoin="round"/>
<path d="M512.308 421.626C507.934 425.339 503.463 429.583 503.108 434.698C502.803 439.056 509.199 451.082 516.851 445.827C524.3 440.729 515.411 426.8 512.308 421.626Z" stroke="#171717" stroke-width="2.614" stroke-linecap="round" stroke-linejoin="round"/>
<path d="M855.461 569.934L855.017 690.677L868.542 691.47L866.494 567.241" stroke="#171717" stroke-width="2.614" stroke-linecap="round" stroke-linejoin="round"/>
<path d="M753.655 588.383L753.202 718.913L766.736 719.767L765.56 586.632" stroke="#171717" stroke-width="2.614" stroke-linecap="round" stroke-linejoin="round"/>
<path d="M811.886 577.289L811.442 637.256L824.967 637.648L822.919 575.956" stroke="#171717" stroke-width="2.614" stroke-linecap="round" stroke-linejoin="round"/>
<path d="M459.907 289.981C461.475 286.356 472.978 285.449 486.329 288.011C500.237 290.669 510.878 296.073 510.12 300.081C510.055 300.401 509.925 300.703 509.737 300.97C507.471 304.23 496.36 304.962 483.558 302.513C469.65 299.846 458.999 294.443 459.766 290.443C459.796 290.284 459.843 290.129 459.907 289.981V289.981Z" stroke="#171717" stroke-width="2.614" stroke-linecap="round" stroke-linejoin="round"/>
<path d="M459.252 289.842C455.463 295.039 452.608 300.858 450.816 307.036C449.544 311.6 449.18 316.37 449.744 321.075C449.952 322.752 450.305 324.408 450.799 326.025C452.428 331.341 455.557 336.047 458.699 340.631C460.381 343.08 462.089 345.538 463.605 348.091C464.952 350.293 466.093 352.616 467.013 355.028C467.571 356.726 467.965 358.474 468.189 360.248C468.276 360.867 468.364 361.52 468.433 362.218C468.796 365.773 468.848 369.353 468.59 372.918C468.41 375.462 468.067 377.992 467.562 380.492C467.113 382.828 466.512 385.133 465.762 387.392C464.895 390.033 463.823 392.603 462.555 395.078C462.232 395.705 461.893 396.333 461.535 396.952C460.668 398.491 459.72 399.983 458.694 401.422" stroke="#171717" stroke-width="2.614" stroke-linecap="round" stroke-linejoin="round"/>
<path d="M510.565 301.127C511.413 307.844 510.954 314.662 509.215 321.206C506.043 333.604 498.616 344.493 488.23 351.969C487.436 352.527 486.574 353.058 485.685 353.59C482.478 355.49 478.879 357.303 476.404 359.812C476.168 360.052 475.958 360.315 475.776 360.597C474.251 362.802 473.005 367.107 472.276 372.824C471.976 375.107 471.77 377.617 471.657 380.301C471.544 382.758 471.518 385.373 471.596 388.101C471.648 390.558 471.788 393.12 472.006 395.752C472.075 396.58 472.154 397.408 472.241 398.252C472.398 399.803 472.581 401.372 472.799 402.958" stroke="#171717" stroke-width="2.614" stroke-linecap="round" stroke-linejoin="round"/>
<path d="M450.5 320.979C450.493 320.933 450.49 320.887 450.492 320.84C450.492 317.781 463.572 315.306 479.712 315.306C495.852 315.306 508.933 317.781 508.933 320.84C508.934 320.937 508.922 321.034 508.898 321.128C508.114 324.047 495.346 326.374 479.712 326.374C463.828 326.374 450.9 323.977 450.5 320.979Z" stroke="#171717" stroke-width="2.614" stroke-linecap="round" stroke-linejoin="round"/>
<path d="M472.238 398.253C478.277 399.682 482.425 402.035 482.173 404.205C481.85 407.005 474.329 408.449 465.379 407.43C456.621 406.436 449.728 403.447 449.728 400.685C449.727 400.624 449.729 400.563 449.736 400.502C449.998 398.236 454.936 396.859 461.536 396.955C463.205 396.976 464.872 397.083 466.53 397.277C468.45 397.492 470.356 397.818 472.238 398.253V398.253Z" stroke="#171717" stroke-width="2.614" stroke-linecap="round" stroke-linejoin="round"/>
<path d="M518.13 323.515C518.13 319.559 528.588 314.522 542.069 312.082C556.004 309.563 567.882 310.774 568.606 314.782C568.648 315.036 568.651 315.294 568.615 315.549C567.987 319.449 557.756 324.249 544.701 326.608C530.766 329.127 518.888 327.924 518.165 323.908C518.14 323.778 518.129 323.647 518.13 323.515V323.515Z" stroke="#171717" stroke-width="2.614" stroke-linecap="round" stroke-linejoin="round"/>
<path d="M517.468 323.542C515.802 329.751 515.233 336.204 515.786 342.609C515.927 343.982 516.142 345.347 516.431 346.697C517.413 351.657 519.524 356.323 522.601 360.335C526.034 364.71 530.644 367.978 535.228 371.124C538.028 373.041 540.858 374.95 543.472 377.094C545.155 378.456 546.727 379.951 548.172 381.564C548.638 382.108 549.072 382.679 549.472 383.273C549.899 383.9 550.361 384.641 550.84 385.473C552.831 388.957 554.458 392.637 555.695 396.454C556.509 398.928 557.164 401.452 557.655 404.01C558.131 406.427 558.449 408.872 558.605 411.33C558.779 413.945 558.762 416.569 558.553 419.182C558.466 420.324 558.335 421.482 558.153 422.651C557.899 424.4 557.549 426.134 557.107 427.845" stroke="#171717" stroke-width="2.614" stroke-linecap="round" stroke-linejoin="round"/>
<path d="M569.408 315.6C573.959 324.236 576.123 333.93 575.675 343.681C575.228 353.432 572.186 362.888 566.863 371.07C565.486 373.118 563.691 375.17 562.044 377.27C560.697 378.913 559.558 380.716 558.654 382.638C558.392 383.277 558.228 383.951 558.166 384.638C558.141 384.768 558.127 384.899 558.122 385.03C558.114 385.067 558.111 385.105 558.113 385.143C557.998 388.925 558.466 392.703 559.499 396.343C560.074 398.678 560.815 401.214 561.739 403.898C562.41 405.868 563.177 407.916 564.031 410.025C565.085 412.631 566.279 415.315 567.621 418.051C567.935 418.705 568.257 419.359 568.588 420.012C569.294 421.398 570.035 422.801 570.811 424.204" stroke="#171717" stroke-width="2.614" stroke-linecap="round" stroke-linejoin="round"/>
<path d="M516.813 346.61C516.793 346.53 516.782 346.448 516.778 346.365C516.647 343.307 529.606 340.265 545.729 339.565C561.852 338.865 575.029 340.776 575.158 343.826V343.879C575.158 346.92 562.243 349.927 546.208 350.624C530.521 351.307 517.623 349.52 516.813 346.61Z" stroke="#171717" stroke-width="2.614" stroke-linecap="round" stroke-linejoin="round"/>
<path d="M568.588 420.014C574.741 419.169 579.456 419.875 580.005 421.992C580.719 424.72 574.218 428.772 565.495 431.047C556.772 433.322 549.12 432.938 548.414 430.21C547.839 428.01 551.952 424.947 558.148 422.655C559.712 422.07 561.306 421.569 562.924 421.155C564.788 420.666 566.679 420.285 568.588 420.014Z" stroke="#171717" stroke-width="2.614" stroke-linecap="round" stroke-linejoin="round"/>
<path d="M543.524 377.024C546.299 378.488 549.395 379.239 552.533 379.207C555.67 379.175 558.75 378.362 561.494 376.841" stroke="#171717" stroke-width="2.614" stroke-linecap="round" stroke-linejoin="round"/>
<path d="M463.68 348.047C466.649 350.6 470.18 352.416 473.984 353.348C477.788 354.279 481.758 354.299 485.572 353.407" stroke="#171717" stroke-width="2.614" stroke-linecap="round" stroke-linejoin="round"/>
<path d="M507.855 556.034L514.008 731.149C514.008 731.149 518.932 766.827 469.101 770.679" stroke="#171717" stroke-width="2.614" stroke-linecap="round" stroke-linejoin="round"/>
<path d="M524.117 556.513L530.975 731.6C530.975 731.6 528.718 767.548 578.689 767.679" stroke="#171717" stroke-width="2.614" stroke-linecap="round" stroke-linejoin="round"/>
<path d="M318.941 788.615C333.964 793.109 349.248 796.675 364.708 799.294C375.191 801.07 385.896 802.409 396.436 801.011C406.976 799.613 417.454 795.211 424.356 787.119" stroke="#171717" stroke-width="2.614" stroke-linecap="round" stroke-linejoin="round"/>
<path d="M371.491 724.7C384.751 729.646 398.203 734.637 412.291 735.956C426.379 737.275 441.431 734.508 452.278 725.416" stroke="#171717" stroke-width="2.614" stroke-linecap="round" stroke-linejoin="round"/>
<path d="M80.8938 282.578C86.7818 292.036 90.3938 303.063 90.1938 314.201C89.9938 325.339 85.7938 336.542 77.8838 344.384C73.8108 348.42 68.5368 351.614 62.8058 351.784C57.0748 351.954 51.0278 348.415 49.6388 342.852C48.2498 337.289 53.1538 330.706 58.8268 331.542C63.2978 332.2 66.3568 336.93 66.3268 341.449C66.2968 345.968 63.8268 350.142 60.7908 353.492C57.7548 356.842 54.1208 359.592 51.0088 362.871C38.4388 376.103 36.2968 398.052 46.0708 413.464C47.6388 415.935 49.7878 418.428 52.6968 418.764C55.6058 419.1 58.7048 415.772 57.1288 413.305" stroke="#171717" stroke-width="2.614" stroke-linecap="round" stroke-linejoin="round"/>
<path d="M171.005 196.781C168.322 195.722 166.03 193.861 164.443 191.451" stroke="#171717" stroke-width="2.614" stroke-linecap="round" stroke-linejoin="round"/>
<path d="M164.092 199.69L170.03 190.383" stroke="#171717" stroke-width="2.614" stroke-linecap="round" stroke-linejoin="round"/>
<path d="M237.04 178.324L230.937 166" stroke="#171717" stroke-width="2.614" stroke-linecap="round" stroke-linejoin="round"/>
<path d="M228.814 176.263L237.431 166.424" stroke="#171717" stroke-width="2.614" stroke-linecap="round" stroke-linejoin="round"/>
<path d="M286.856 232.624C283.664 228.514 280.744 224.198 278.116 219.706" stroke="#171717" stroke-width="2.614" stroke-linecap="round" stroke-linejoin="round"/>
<path d="M278.478 232.48L286.236 222.201" stroke="#171717" stroke-width="2.614" stroke-linecap="round" stroke-linejoin="round"/>
<path d="M525.777 287.857L537.584 276.286" stroke="#171717" stroke-width="2.614" stroke-linecap="round" stroke-linejoin="round"/>
<path d="M511.458 282.91C512.325 273.365 512.566 263.774 512.178 254.198" stroke="#171717" stroke-width="2.614" stroke-linecap="round" stroke-linejoin="round"/>
<path d="M497.74 279.305L489.945 269.054" stroke="#171717" stroke-width="2.614" stroke-linecap="round" stroke-linejoin="round"/>
<path d="M487.591 210.327L480.616 199.666" stroke="#171717" stroke-width="2.614" stroke-linecap="round" stroke-linejoin="round"/>
<path d="M479.024 209.117L489.28 199.688" stroke="#171717" stroke-width="2.614" stroke-linecap="round" stroke-linejoin="round"/>
<path d="M489.599 157.44C488.185 154.394 486.272 151.605 483.94 149.188" stroke="#171717" stroke-width="2.614" stroke-linecap="round" stroke-linejoin="round"/>
<path d="M483.013 155.676L489.553 149.91" stroke="#171717" stroke-width="2.614" stroke-linecap="round" stroke-linejoin="round"/>
<path d="M519.092 229.9C527.555 220.95 545.843 210.112 540.092 195.631C537.253 188.486 527.826 196.402 525.692 201.764" stroke="url(#paint10_linear_166_370)" stroke-width="2.614" stroke-linecap="round" stroke-linejoin="round"/>
<path d="M525.052 201.426C520.862 190.195 503.783 189.026 506.21 203.74C508.998 213.019 516.239 220.665 517.83 230.532" stroke="url(#paint11_linear_166_370)" stroke-width="2.614" stroke-linecap="round" stroke-linejoin="round"/>
<path d="M568.891 233.274L574.501 230.017" stroke="#171717" stroke-width="2.614" stroke-linecap="round" stroke-linejoin="round"/>
<path d="M572.786 235.612L570.027 227.612" stroke="#171717" stroke-width="2.614" stroke-linecap="round" stroke-linejoin="round"/>
<path d="M704.492 226.223C702.541 223.508 701.149 220.432 700.399 217.174" stroke="#171717" stroke-width="2.614" stroke-linecap="round" stroke-linejoin="round"/>
<path d="M697.852 224.8C701.567 222.981 704.986 220.611 707.993 217.771" stroke="#171717" stroke-width="2.614" stroke-linecap="round" stroke-linejoin="round"/>
<path d="M784.629 217.8L791.545 205.1" stroke="#171717" stroke-width="2.614" stroke-linecap="round" stroke-linejoin="round"/>
<path d="M793.275 216.231L783.189 204.794" stroke="#171717" stroke-width="2.614" stroke-linecap="round" stroke-linejoin="round"/>
<path d="M408.479 407.188L414.631 401.037" stroke="#171717" stroke-width="2.614" stroke-linecap="round" stroke-linejoin="round"/>
<path d="M394.549 386.213L388.388 380.482" stroke="#171717" stroke-width="2.614" stroke-linecap="round" stroke-linejoin="round"/>
<path d="M359.245 404.3L364.986 397.738" stroke="#171717" stroke-width="2.614" stroke-linecap="round" stroke-linejoin="round"/>
<path d="M334.116 378.228C331.906 376.843 330.23 374.749 329.363 372.288" stroke="#171717" stroke-width="2.614" stroke-linecap="round" stroke-linejoin="round"/>
<path d="M303.753 403.326L310.396 397.68" stroke="#171717" stroke-width="2.614" stroke-linecap="round" stroke-linejoin="round"/>
<path d="M293.165 367.439L288.265 362.501" stroke="#171717" stroke-width="2.614" stroke-linecap="round" stroke-linejoin="round"/>
<path d="M254.626 353.9L249.269 348.595" stroke="#171717" stroke-width="2.614" stroke-linecap="round" stroke-linejoin="round"/>
<path d="M254.668 394.453C255.756 391.675 257.604 389.259 260 387.482" stroke="#171717" stroke-width="2.614" stroke-linecap="round" stroke-linejoin="round"/>
<path d="M232.371 378.2L227.937 373.614" stroke="#171717" stroke-width="2.614" stroke-linecap="round" stroke-linejoin="round"/>
<path d="M271.35 429.1C268.896 427.488 266.745 425.457 264.994 423.1" stroke="#171717" stroke-width="2.614" stroke-linecap="round" stroke-linejoin="round"/>
<path d="M229.092 424.68L235.381 417" stroke="#171717" stroke-width="2.614" stroke-linecap="round" stroke-linejoin="round"/>
<path d="M209.142 401.431L201.726 396.147" stroke="#171717" stroke-width="2.614" stroke-linecap="round" stroke-linejoin="round"/>
<path d="M188.2 375.974L193.123 370.234" stroke="#171717" stroke-width="2.614" stroke-linecap="round" stroke-linejoin="round"/>
<path d="M166.475 366.234C164.593 365.743 162.897 364.71 161.597 363.264" stroke="#171717" stroke-width="2.614" stroke-linecap="round" stroke-linejoin="round"/>
<path d="M152.551 415.369L157.062 409.217" stroke="#171717" stroke-width="2.614" stroke-linecap="round" stroke-linejoin="round"/>
<path d="M429.171 415.326C432.999 396.944 430.801 377.817 422.902 360.782" stroke="#171717" stroke-width="2.614" stroke-linecap="round" stroke-linejoin="round"/>
<path d="M327.2 515.328C320.368 492.997 311.064 471.499 299.46 451.233" stroke="#171717" stroke-width="2.614" stroke-linecap="round" stroke-linejoin="round"/>
<path d="M294.015 517.882L298.115 510.907" stroke="#171717" stroke-width="2.614" stroke-linecap="round" stroke-linejoin="round"/>
<path d="M271.452 485.544L264.493 481.012" stroke="#171717" stroke-width="2.614" stroke-linecap="round" stroke-linejoin="round"/>
<path d="M239.832 512.918L246 505.14" stroke="#171717" stroke-width="2.614" stroke-linecap="round" stroke-linejoin="round"/>
<path d="M228.386 476.9L224.952 470.836" stroke="#171717" stroke-width="2.614" stroke-linecap="round" stroke-linejoin="round"/>
<path d="M201.354 497.8L194.382 501.081" stroke="#171717" stroke-width="2.614" stroke-linecap="round" stroke-linejoin="round"/>
<path d="M196.343 462.567L193.688 456.086" stroke="#171717" stroke-width="2.614" stroke-linecap="round" stroke-linejoin="round"/>
<path d="M171.413 462.454L162.413 462.774L163.623 462.529" stroke="#171717" stroke-width="2.614" stroke-linecap="round" stroke-linejoin="round"/>
<path d="M177.157 435.054L179.12 424.784" stroke="#171717" stroke-width="2.614" stroke-linecap="round" stroke-linejoin="round"/>
<path d="M146.4 436.694L139.429 433.824" stroke="#171717" stroke-width="2.614" stroke-linecap="round" stroke-linejoin="round"/>
<path d="M136.557 391.173L137.787 385.841" stroke="#171717" stroke-width="2.614" stroke-linecap="round" stroke-linejoin="round"/>
<path d="M430.881 405.6C436.197 404.38 441.311 402.403 446.066 399.73" stroke="#171717" stroke-width="2.614" stroke-linecap="round" stroke-linejoin="round"/>
<path d="M430.899 391.851C435.687 390.61 440.34 388.902 444.793 386.751" stroke="#171717" stroke-width="2.614" stroke-linecap="round" stroke-linejoin="round"/>
<path d="M430 378.4L441.362 374.79L441.042 374.657" stroke="#171717" stroke-width="2.614" stroke-linecap="round" stroke-linejoin="round"/>
<path d="M426.293 367.583L435.493 363.219" stroke="#171717" stroke-width="2.614" stroke-linecap="round" stroke-linejoin="round"/>
<path d="M324.794 507.534C330.295 505.569 335.558 502.993 340.485 499.855" stroke="#171717" stroke-width="2.614" stroke-linecap="round" stroke-linejoin="round"/>
<path d="M318.338 490.011L335.903 481.466" stroke="#171717" stroke-width="2.614" stroke-linecap="round" stroke-linejoin="round"/>
<path d="M312.5 475.867L328.823 467.914" stroke="#171717" stroke-width="2.614" stroke-linecap="round" stroke-linejoin="round"/>
<path d="M304.748 460L321.115 454.665" stroke="#171717" stroke-width="2.614" stroke-linecap="round" stroke-linejoin="round"/>
<path d="M902.26 316.8C889.391 325.144 879.307 337.14 873.3 351.252C868.75 362.008 866.774 374.486 871.131 385.322C875.488 396.158 887.519 404.332 898.856 401.522C902.231 400.686 905.527 398.802 907.169 395.737C908.811 392.672 908.285 388.337 905.414 386.377C901.63 383.79 896.051 386.702 894.343 390.956C892.635 395.21 893.689 400.033 895.043 404.412C897.428 412.111 900.679 419.516 904.732 426.483C909.032 433.883 914.255 440.81 917.393 448.77C920.531 456.73 921.293 466.246 916.743 473.492C912.193 480.738 901.158 483.974 894.674 478.392C891.603 475.749 890.199 470.547 893.086 467.705C896.769 464.08 903.634 468.236 904.124 473.38C904.614 478.524 901.112 483.149 897.469 486.813C893.826 490.477 889.663 494.066 888.216 499.027C886.769 503.988 889.797 510.608 894.964 510.505" stroke="url(#paint12_linear_166_370)" stroke-width="2.614" stroke-linecap="round" stroke-linejoin="round"/>
<path d="M569.014 290.7L578.242 285.779" stroke="url(#paint13_linear_166_370)" stroke-width="2.614" stroke-linecap="round" stroke-linejoin="round"/>
<path d="M574.618 293.779C574.798 291.795 574.558 289.795 573.913 287.911C573.268 286.026 572.232 284.299 570.874 282.842L573.341 282.177" stroke="url(#paint14_linear_166_370)" stroke-width="2.614" stroke-linecap="round" stroke-linejoin="round"/>
<path d="M450.929 251.924L446.642 245.759" stroke="url(#paint15_linear_166_370)" stroke-width="2.614" stroke-linecap="round" stroke-linejoin="round"/>
<path d="M444.71 252.51L452.8 245.231" stroke="url(#paint16_linear_166_370)" stroke-width="2.614" stroke-linecap="round" stroke-linejoin="round"/>
<path d="M730.186 566.596L720.651 561.674L717.883 572.44L730.186 566.596Z" stroke="#171717" stroke-width="2.614" stroke-linecap="round" stroke-linejoin="round"/>
<path d="M724.035 607.196L710.809 619.192L711.116 596.739L724.035 607.196Z" stroke="#171717" stroke-width="2.614" stroke-linecap="round" stroke-linejoin="round"/>
<path d="M672.669 564.135L666.517 567.826L673.592 573.67L672.669 564.135Z" stroke="#171717" stroke-width="2.614" stroke-linecap="round" stroke-linejoin="round"/>
<path d="M661.595 624.728L651.445 634.263L661.595 639.8V624.728Z" stroke="#171717" stroke-width="2.614" stroke-linecap="round" stroke-linejoin="round"/>
<path d="M706.194 673.326L698.197 679.478L711.73 687.782L706.194 673.326Z" stroke="#171717" stroke-width="2.614" stroke-linecap="round" stroke-linejoin="round"/>
<path d="M718.5 643.491L724.652 648.72C724.652 648.72 716.04 654.564 715.117 654.871C714.194 655.178 718.5 643.491 718.5 643.491Z" stroke="#171717" stroke-width="2.614" stroke-linecap="round" stroke-linejoin="round"/>
<path d="M778.88 557.769L779.841 548.008L791.286 553.437L778.88 557.769Z" stroke="#171717" stroke-width="2.614" stroke-linecap="round" stroke-linejoin="round"/>
<path d="M652.369 585.358L657.444 594.278L648.678 602.89L652.369 585.358Z" stroke="#171717" stroke-width="2.614" stroke-linecap="round" stroke-linejoin="round"/>
<path d="M749.725 343.952C743.243 351.213 739.318 360.397 738.55 370.1C738.171 375.27 738.871 380.972 742.556 384.618C747.014 389.028 754.472 388.878 760.137 386.189C765.802 383.5 770.203 378.804 774.837 374.584C784.246 366.028 795.045 359.14 806.77 354.216" stroke="url(#paint17_linear_166_370)" stroke-width="2.614" stroke-linecap="round" stroke-linejoin="round"/>
<path d="M782.075 522.917C781.901 520.848 782.423 518.781 783.556 517.042C784.69 515.303 786.372 513.992 788.335 513.317C790.811 512.533 793.492 512.848 796.061 512.468C798.345 512.109 800.511 511.213 802.381 509.853C804.252 508.494 805.772 506.709 806.818 504.647" stroke="url(#paint18_linear_166_370)" stroke-width="2.614" stroke-linecap="round" stroke-linejoin="round"/>
<path d="M738.333 507.863C738.622 506.233 739.513 504.771 740.829 503.767C742.146 502.763 743.791 502.29 745.44 502.443C747.135 502.662 748.806 503.563 750.468 503.163C752.405 502.697 753.491 500.69 754.337 498.886" stroke="url(#paint19_linear_166_370)" stroke-width="2.614" stroke-linecap="round" stroke-linejoin="round"/>
<path d="M831.54 463.969C829.806 463.817 828.74 461.769 829.047 460.056C829.503 458.361 830.521 456.871 831.935 455.829C833.341 454.799 834.585 453.564 835.627 452.167C836.549 450.69 836.789 448.604 835.64 447.296" stroke="url(#paint20_linear_166_370)" stroke-width="2.614" stroke-linecap="round" stroke-linejoin="round"/>
<path d="M813.606 432.14C812.598 429.659 811.605 426.748 812.937 424.422C813.776 422.954 815.37 422.083 816.406 420.746C817.048 419.897 817.452 418.894 817.578 417.838C817.705 416.781 817.548 415.711 817.125 414.735" stroke="url(#paint21_linear_166_370)" stroke-width="2.614" stroke-linecap="round" stroke-linejoin="round"/>
<path d="M766.83 457.087C767.191 454.287 767.871 451.029 770.43 449.842C771.524 449.335 772.807 449.312 773.865 448.733C775.986 447.571 776.402 444.756 776.574 442.343" stroke="url(#paint22_linear_166_370)" stroke-width="2.614" stroke-linecap="round" stroke-linejoin="round"/>
<path d="M758.035 416.621C757.504 415.168 757.492 413.576 758.001 412.115C758.51 410.654 759.507 409.414 760.826 408.605C762.096 407.874 763.602 407.578 764.777 406.705C765.952 405.832 766.635 403.964 765.607 402.92" stroke="url(#paint23_linear_166_370)" stroke-width="2.614" stroke-linecap="round" stroke-linejoin="round"/>
<path d="M726.338 424.759C726.081 423.437 726.198 422.07 726.675 420.81C727.152 419.55 727.97 418.449 729.038 417.628C730.038 416.883 731.267 416.372 731.967 415.34C732.867 414.007 732.624 412.229 732.267 410.657" stroke="url(#paint24_linear_166_370)" stroke-width="2.614" stroke-linecap="round" stroke-linejoin="round"/>
<path d="M703.899 394.688C704.65 392.641 705.78 390.273 707.94 389.979C708.874 389.965 709.807 390.047 710.723 390.226C712.004 390.285 713.267 389.907 714.305 389.154C715.342 388.401 716.093 387.318 716.434 386.082" stroke="url(#paint25_linear_166_370)" stroke-width="2.614" stroke-linecap="round" stroke-linejoin="round"/>
<path d="M647.681 393.954C647.509 393.169 647.5 392.358 647.654 391.57C647.808 390.781 648.123 390.033 648.578 389.371C649.033 388.709 649.619 388.148 650.3 387.722C650.981 387.296 651.742 387.014 652.536 386.894C653.921 386.754 655.329 387.13 656.706 386.925C658.083 386.72 659.521 385.553 659.236 384.19" stroke="url(#paint26_linear_166_370)" stroke-width="2.614" stroke-linecap="round" stroke-linejoin="round"/>
<path d="M609.644 414.643C609.475 412.7 611.337 411.059 613.262 410.743C615.215 410.595 617.175 410.926 618.971 411.709C620.767 412.492 622.734 412.802 624.685 412.609C626.603 412.25 628.414 410.533 628.155 408.599" stroke="url(#paint27_linear_166_370)" stroke-width="2.614" stroke-linecap="round" stroke-linejoin="round"/>
<path d="M595.109 395.51C595.31 394.501 595.782 393.567 596.475 392.807C597.168 392.047 598.055 391.49 599.04 391.197C600.096 390.897 601.223 390.919 602.28 390.624C602.821 390.521 603.32 390.263 603.717 389.883C604.115 389.503 604.395 389.016 604.522 388.481" stroke="#171717" stroke-width="2.614" stroke-linecap="round" stroke-linejoin="round"/>
<path d="M709.757 363.912C709.872 362.762 710.432 361.702 711.318 360.959C712.204 360.216 713.345 359.849 714.498 359.937C715.672 360.075 716.767 360.698 717.949 360.708C719.131 360.718 720.459 359.608 719.981 358.527" stroke="url(#paint28_linear_166_370)" stroke-width="2.614" stroke-linecap="round" stroke-linejoin="round"/>
<path d="M764.505 364.246C765.414 362.146 766.672 359.758 768.934 359.399C769.868 359.25 770.828 359.493 771.767 359.378C774.015 359.102 775.483 356.954 776.648 355.011" stroke="url(#paint29_linear_166_370)" stroke-width="2.614" stroke-linecap="round" stroke-linejoin="round"/>
<path d="M824.768 392.148C826.449 391.457 826.435 388.918 825.344 387.464C824.253 386.01 822.52 385.195 821.198 383.947C820.361 383.148 819.698 382.185 819.251 381.118C818.803 380.051 818.581 378.904 818.598 377.747" stroke="url(#paint30_linear_166_370)" stroke-width="2.614" stroke-linecap="round" stroke-linejoin="round"/>
<path d="M565.48 189.72L563.08 194.943C563.007 195.101 562.888 195.232 562.739 195.32C562.589 195.408 562.416 195.448 562.243 195.435C562.07 195.421 561.905 195.355 561.771 195.245C561.637 195.136 561.539 194.987 561.492 194.82L559.921 189.29C559.875 189.129 559.782 188.985 559.654 188.876C559.527 188.767 559.37 188.699 559.203 188.679L553.493 188.009C553.321 187.989 553.159 187.916 553.029 187.801C552.899 187.686 552.808 187.534 552.767 187.365C552.726 187.197 552.738 187.02 552.801 186.858C552.864 186.696 552.975 186.558 553.119 186.461L557.893 183.261C558.032 183.168 558.141 183.035 558.205 182.88C558.269 182.725 558.286 182.554 558.253 182.389L557.126 176.752C557.091 176.582 557.11 176.405 557.179 176.246C557.249 176.087 557.365 175.953 557.513 175.862C557.661 175.771 557.833 175.728 558.006 175.738C558.179 175.748 558.346 175.811 558.482 175.918L563.004 179.468C563.136 179.572 563.296 179.634 563.463 179.647C563.63 179.66 563.797 179.623 563.944 179.541L568.957 176.727C569.108 176.642 569.282 176.606 569.455 176.623C569.627 176.64 569.79 176.709 569.922 176.822C570.054 176.934 570.149 177.085 570.193 177.252C570.237 177.42 570.229 177.597 570.169 177.76L568.19 183.16C568.132 183.318 568.122 183.489 568.162 183.652C568.201 183.815 568.288 183.962 568.411 184.076L572.636 187.976C572.764 188.094 572.852 188.248 572.89 188.417C572.927 188.587 572.912 188.764 572.846 188.924C572.78 189.085 572.666 189.221 572.52 189.315C572.374 189.409 572.202 189.456 572.029 189.449L566.284 189.234C566.117 189.227 565.952 189.269 565.809 189.356C565.665 189.442 565.551 189.569 565.48 189.72V189.72Z" fill="#171717"/>
<path fill-rule="evenodd" clip-rule="evenodd" d="M717.592 240.952C712.25 247.662 710.394 256.464 709.383 264.978C707.815 278.155 708.04 292.195 714.471 303.794C720.902 315.393 734.21 324.404 746.82 320.273L747.52 319.838C746.762 318.652 745.977 317.467 745.167 316.282C743.483 313.803 741.7 311.38 739.917 308.958C735.564 303.045 731.215 297.137 728.321 290.417C724.269 280.996 723.685 269.153 730.169 261.222C735.467 266.157 741.723 269.949 748.549 272.361C755.376 274.774 762.625 275.755 769.847 275.244L769.865 275.453C766.663 298.546 768.999 322.07 776.68 344.082L776.54 345.023C791.859 347.421 806.516 352.961 819.591 361.294L819.696 361.128C809.918 347.35 807.225 323.942 807.774 306.269C807.8 305.122 807.852 304.012 807.913 302.922C808.907 284.961 809.29 265.344 798.449 250.991C790.414 240.35 777.446 234.546 764.514 231.313C756.321 229.265 747.771 228.071 739.414 229.291C731.057 230.511 722.856 234.346 717.592 240.952ZM758.926 233.395C758.219 233.246 757.526 233.698 757.377 234.404C757.229 235.111 757.68 235.804 758.387 235.953C767.291 237.829 775.627 241.781 782.716 247.487C789.804 253.194 795.446 260.493 799.18 268.791C799.477 269.449 800.25 269.743 800.909 269.447C801.567 269.15 801.86 268.377 801.564 267.718C797.66 259.045 791.764 251.415 784.355 245.451C776.946 239.487 768.233 235.356 758.926 233.395Z" fill="#171717"/>
<path fill-rule="evenodd" clip-rule="evenodd" d="M575.666 343.908L575.16 343.882C575.16 346.923 562.245 349.93 546.212 350.622C530.525 351.305 517.627 349.515 516.817 346.605L516.434 346.692C517.415 351.652 519.526 356.318 522.604 360.33C526.037 364.705 530.647 367.973 535.231 371.119C535.441 371.263 535.652 371.407 535.863 371.552C538.454 373.325 541.057 375.106 543.475 377.089L543.528 377.019C546.302 378.483 549.398 379.234 552.536 379.202C555.673 379.17 558.753 378.357 561.498 376.836L562.047 377.272C562.558 376.619 563.084 375.972 563.608 375.327C564.769 373.897 565.916 372.484 566.866 371.072C572.188 362.973 575.228 353.589 575.666 343.908ZM571.72 351.64C571.858 350.931 571.395 350.245 570.687 350.107C569.978 349.969 569.292 350.432 569.154 351.141C567.709 358.572 564.861 365.66 560.764 372.027C560.374 372.634 560.549 373.443 561.156 373.833C561.763 374.224 562.572 374.048 562.962 373.441C567.239 366.796 570.211 359.397 571.72 351.64Z" fill="#171717"/>
<path fill-rule="evenodd" clip-rule="evenodd" d="M459.064 341.156C460.628 343.432 462.201 345.72 463.609 348.091L463.683 348.048C466.653 350.601 470.183 352.418 473.987 353.349C477.791 354.28 481.762 354.301 485.575 353.408L485.688 353.591C486.577 353.059 487.439 352.528 488.233 351.97C498.619 344.494 506.047 333.605 509.218 321.207L508.904 321.129C508.118 324.048 495.352 326.375 479.718 326.375C463.831 326.375 450.906 323.975 450.506 320.975L449.748 321.075C449.956 322.752 450.309 324.409 450.803 326.025C452.428 331.341 455.557 336.047 458.703 340.631C458.823 340.806 458.944 340.981 459.064 341.156ZM502.219 329.161C502.427 328.47 502.035 327.741 501.343 327.534C500.652 327.326 499.923 327.718 499.715 328.409C497.317 336.386 491.898 343.11 484.612 347.149C483.981 347.499 483.753 348.295 484.103 348.926C484.453 349.557 485.248 349.785 485.88 349.435C493.761 345.066 499.624 337.791 502.219 329.161Z" fill="#171717"/>
<path fill-rule="evenodd" clip-rule="evenodd" d="M537.484 475.998C538.41 470.461 539.34 464.921 540.273 459.379L539.577 459.263C537.904 462.443 526.652 464.892 513.031 464.892C498.721 464.892 487.026 462.182 486.311 458.766L485.771 458.888C486.363 461.541 486.208 464.289 486.054 467.032C486.003 467.924 485.953 468.815 485.928 469.703C485.775 472.278 486.133 474.858 486.982 477.293C487.418 478.435 488.062 479.487 488.882 480.393C491.279 482.99 494.956 483.888 498.442 484.445C508.859 486.106 519.49 485.852 529.815 483.696C532.055 483.225 534.46 482.554 535.855 480.741C536.644 479.595 537.149 478.278 537.328 476.898C537.366 476.698 537.4 476.498 537.433 476.298C537.45 476.198 537.467 476.098 537.484 475.998ZM535.243 467.671C535.363 466.959 534.883 466.285 534.171 466.164C533.46 466.044 532.785 466.524 532.665 467.236L530.51 480.001C530.39 480.712 530.869 481.387 531.581 481.507C532.293 481.627 532.967 481.147 533.088 480.436L535.243 467.671Z" fill="#171717"/>
<g opacity="0.1">
<path d="M170.11 332.512C149.738 348.144 133.187 368.032 124.55 392.463C116.028 416.563 116.088 442.393 126.376 465.873C146.937 512.798 199.576 534.673 248.358 533.016C279.568 531.955 309.521 522.394 337.704 509.46C342.075 507.454 343.156 501.134 340.899 497.275C338.269 492.775 333.106 492.075 328.713 494.075C286.559 513.315 236.359 524.239 192.084 505.18C153.447 488.549 126.296 447.655 136.673 405.016C142.751 380.038 158.673 359.116 177.836 342.521C183.227 337.85 175.885 328.077 170.11 332.508V332.512Z" fill="#171717"/>
</g>
<g opacity="0.1">
<path d="M281.794 412.939C287.628 416.031 294.594 416.148 301.061 416.814C307.57 417.486 314.09 418.047 320.62 418.499C334 419.413 347.402 419.852 360.827 419.817C387.445 419.701 414.027 417.828 440.398 414.209C445.019 413.587 447.536 407.656 446.422 403.599C445.054 398.622 440.445 396.937 435.812 397.575C410.635 401.011 385.257 402.763 359.846 402.819C347.416 402.859 334.993 402.502 322.578 401.747C316.05 401.351 309.529 400.851 303.014 400.247C296.614 399.647 289.865 398.124 283.529 399.655C277.569 401.097 276.302 410.025 281.794 412.935V412.939Z" fill="#171717"/>
</g>
<g opacity="0.1">
<path d="M161.23 321.441C137.073 337.396 119.087 361.119 110.245 388.686C101.403 416.252 102.235 446.011 112.605 473.041C116.139 482.133 120.511 490.876 125.666 499.158C130.978 507.819 137.983 514.935 144.679 522.485C147.721 525.916 150.563 529.675 151.451 534.275C152.3 538.675 151.625 543.468 151.376 547.91C150.819 557.869 151.504 575.487 165.135 575.31C166.729 575.283 168.273 574.748 169.541 573.782C170.81 572.817 171.737 571.471 172.187 569.942C172.819 567.716 173.345 565.496 172.71 563.182C172.217 561.389 171.185 559.996 170.81 558.142C170.047 554.371 170.524 550.248 170.698 546.421C171.121 537.142 170.763 528.147 166.073 519.848C161.504 511.761 154.196 505.698 148.195 498.748C142.462 492.15 137.553 484.878 133.579 477.094C117.999 446.394 117.433 409.194 132.579 378.233C140.997 360.958 153.439 345.956 168.859 334.488C176.519 328.849 169.494 315.988 161.233 321.442L161.23 321.441Z" fill="#171717"/>
</g>
<g opacity="0.1">
<path d="M813.731 347.247C815.609 356.47 824.683 362.447 830.886 368.774C836.97 374.777 842.333 381.47 846.868 388.715C850.924 395.395 854.162 402.538 856.515 409.99C857.747 413.897 858.233 418.63 860.165 422.231C860.704 423.231 861.696 424.085 862.176 425.09C861.554 423.79 861.655 424.172 861.796 425.74C861.996 427.91 862.614 430.074 862.869 432.247C863.339 436.254 863.653 440.247 864.176 444.22C864.699 448.193 863.656 452.837 863.089 456.789C861.953 465.016 859.667 473.044 856.297 480.635C848.221 498.55 835.997 514.126 823.859 529.419C817.173 537.841 810.269 546.266 801.839 553.029C797.791 556.29 793.358 559.041 788.639 561.221C783.902 563.387 778.879 564.132 775.239 568.147C773.059 570.547 773.028 575.082 776.339 576.687C784.657 580.716 793.994 575.768 801.324 571.432C808.718 566.97 815.425 561.459 821.238 555.072C833.407 541.889 843.316 526.446 853.038 511.425C871.049 483.601 880.347 452.025 875.185 418.925V422.788C878.026 415.444 873.299 405.214 870.506 398.327C867.371 390.39 863.356 382.83 858.538 375.787C853.525 368.549 847.662 361.94 841.074 356.1C834.383 350.188 826.86 342.773 817.437 342.379C814.792 342.268 813.256 344.913 813.731 347.244V347.247Z" fill="#171717"/>
</g>
<g opacity="0.1">
<path d="M221.899 231.248C213.946 230.283 205.129 231.84 197.422 233.824C191.014 235.475 183.03 236.643 177.622 240.624C171.78 244.924 170.354 251.045 169.852 257.938C169.204 266.843 169.039 275.773 168.752 284.694C168.464 293.671 182.607 293.701 182.721 284.694C182.809 277.694 183.016 270.675 182.928 263.672C182.859 258.142 181.385 252.226 186.495 248.714C197.295 241.294 210.387 240.001 222.526 235.847C225.145 234.947 224.483 231.556 221.903 231.247L221.899 231.248Z" fill="#171717"/>
</g>
<g opacity="0.1">
<path d="M727.474 263.573C726.385 270.903 738.356 275.643 743.898 277.782C748.08 279.246 752.403 280.268 756.798 280.832C758.582 281.126 759.979 280.945 760.478 282.626C761 284.387 759.857 287.974 759.709 289.726C758.932 299.492 759.674 309.319 761.909 318.858C763.661 326.458 766.703 339.175 774.589 342.493C776.204 343.172 778.317 341.748 778.683 340.168C779.754 335.552 777.24 331.049 775.855 326.714C774.336 322.032 773.128 317.255 772.24 312.414C771.338 307.213 770.941 301.938 771.054 296.661C771.135 291.801 772.454 286.753 772.14 281.943C771.5 272.266 762.125 271.664 754.579 270.757C749.737 270.176 745.039 268.733 740.706 266.495C737.258 264.704 733.294 260.587 729.206 261.839C728.789 261.95 728.41 262.169 728.105 262.473C727.8 262.778 727.582 263.158 727.471 263.574L727.474 263.573Z" fill="#171717"/>
</g>
</g>
<defs>
<linearGradient id="paint0_linear_166_370" x1="861.779" y1="565.943" x2="861.779" y2="691.47" gradientUnits="userSpaceOnUse">
<stop stop-color="#FFB800"/>
<stop offset="1" stop-color="#FF7F0A"/>
</linearGradient>
<linearGradient id="paint1_linear_166_370" x1="733.432" y1="524.44" x2="733.432" y2="714.222" gradientUnits="userSpaceOnUse">
<stop stop-color="#FFB800"/>
<stop offset="1" stop-color="#FF7F0A"/>
</linearGradient>
<linearGradient id="paint2_linear_166_370" x1="818.205" y1="574.44" x2="818.205" y2="637.648" gradientUnits="userSpaceOnUse">
<stop stop-color="#FFB800"/>
<stop offset="1" stop-color="#FF7F0A"/>
</linearGradient>
<linearGradient id="paint3_linear_166_370" x1="759.969" y1="585.603" x2="759.969" y2="719.767" gradientUnits="userSpaceOnUse">
<stop stop-color="#FFB800"/>
<stop offset="1" stop-color="#FF7F0A"/>
</linearGradient>
<linearGradient id="paint4_linear_166_370" x1="510.398" y1="476.892" x2="510.398" y2="492.357" gradientUnits="userSpaceOnUse">
<stop stop-color="#FFB800"/>
<stop offset="1" stop-color="#FF7F0A"/>
</linearGradient>
<linearGradient id="paint5_linear_166_370" x1="513.035" y1="451.971" x2="513.035" y2="464.886" gradientUnits="userSpaceOnUse">
<stop stop-color="#FFB800"/>
<stop offset="1" stop-color="#FF7F0A"/>
</linearGradient>
<linearGradient id="paint6_linear_166_370" x1="282.939" y1="318.263" x2="282.939" y2="533.956" gradientUnits="userSpaceOnUse">
<stop stop-color="#FFB800"/>
<stop offset="1" stop-color="#FF7F0A"/>
</linearGradient>
<linearGradient id="paint7_linear_166_370" x1="266.408" y1="615.312" x2="266.408" y2="804.048" gradientUnits="userSpaceOnUse">
<stop stop-color="#FFB800"/>
<stop offset="1" stop-color="#FF7F0A"/>
</linearGradient>
<linearGradient id="paint8_linear_166_370" x1="201.046" y1="608.758" x2="201.046" y2="705.318" gradientUnits="userSpaceOnUse">
<stop stop-color="#FFB800"/>
<stop offset="1" stop-color="#FF7F0A"/>
</linearGradient>
<linearGradient id="paint9_linear_166_370" x1="153.988" y1="604.026" x2="153.988" y2="791.847" gradientUnits="userSpaceOnUse">
<stop stop-color="#FFB800"/>
<stop offset="1" stop-color="#FF7F0A"/>
</linearGradient>
<linearGradient id="paint10_linear_166_370" x1="530.141" y1="192.784" x2="530.141" y2="229.9" gradientUnits="userSpaceOnUse">
<stop stop-color="#FFB800"/>
<stop offset="1" stop-color="#FF7F0A"/>
</linearGradient>
<linearGradient id="paint11_linear_166_370" x1="515.513" y1="192.849" x2="515.513" y2="230.532" gradientUnits="userSpaceOnUse">
<stop stop-color="#FFB800"/>
<stop offset="1" stop-color="#FF7F0A"/>
</linearGradient>
<linearGradient id="paint12_linear_166_370" x1="894.326" y1="316.8" x2="894.326" y2="510.506" gradientUnits="userSpaceOnUse">
<stop stop-color="#FFB800"/>
<stop offset="1" stop-color="#FF7F0A"/>
</linearGradient>
<linearGradient id="paint13_linear_166_370" x1="573.628" y1="285.779" x2="573.628" y2="290.7" gradientUnits="userSpaceOnUse">
<stop stop-color="#FFB800"/>
<stop offset="1" stop-color="#FF7F0A"/>
</linearGradient>
<linearGradient id="paint14_linear_166_370" x1="572.775" y1="282.177" x2="572.775" y2="293.779" gradientUnits="userSpaceOnUse">
<stop stop-color="#FFB800"/>
<stop offset="1" stop-color="#FF7F0A"/>
</linearGradient>
<linearGradient id="paint15_linear_166_370" x1="448.785" y1="245.759" x2="448.785" y2="251.924" gradientUnits="userSpaceOnUse">
<stop stop-color="#FFB800"/>
<stop offset="1" stop-color="#FF7F0A"/>
</linearGradient>
<linearGradient id="paint16_linear_166_370" x1="448.755" y1="245.231" x2="448.755" y2="252.51" gradientUnits="userSpaceOnUse">
<stop stop-color="#FFB800"/>
<stop offset="1" stop-color="#FF7F0A"/>
</linearGradient>
<linearGradient id="paint17_linear_166_370" x1="772.615" y1="343.952" x2="772.615" y2="388.093" gradientUnits="userSpaceOnUse">
<stop stop-color="#FFB800"/>
<stop offset="1" stop-color="#FF7F0A"/>
</linearGradient>
<linearGradient id="paint18_linear_166_370" x1="794.43" y1="504.647" x2="794.43" y2="522.917" gradientUnits="userSpaceOnUse">
<stop stop-color="#FFB800"/>
<stop offset="1" stop-color="#FF7F0A"/>
</linearGradient>
<linearGradient id="paint19_linear_166_370" x1="746.335" y1="498.886" x2="746.335" y2="507.863" gradientUnits="userSpaceOnUse">
<stop stop-color="#FFB800"/>
<stop offset="1" stop-color="#FF7F0A"/>
</linearGradient>
<linearGradient id="paint20_linear_166_370" x1="832.703" y1="447.296" x2="832.703" y2="463.969" gradientUnits="userSpaceOnUse">
<stop stop-color="#FFB800"/>
<stop offset="1" stop-color="#FF7F0A"/>
</linearGradient>
<linearGradient id="paint21_linear_166_370" x1="814.957" y1="414.735" x2="814.957" y2="432.14" gradientUnits="userSpaceOnUse">
<stop stop-color="#FFB800"/>
<stop offset="1" stop-color="#FF7F0A"/>
</linearGradient>
<linearGradient id="paint22_linear_166_370" x1="771.702" y1="442.343" x2="771.702" y2="457.087" gradientUnits="userSpaceOnUse">
<stop stop-color="#FFB800"/>
<stop offset="1" stop-color="#FF7F0A"/>
</linearGradient>
<linearGradient id="paint23_linear_166_370" x1="761.869" y1="402.92" x2="761.869" y2="416.621" gradientUnits="userSpaceOnUse">
<stop stop-color="#FFB800"/>
<stop offset="1" stop-color="#FF7F0A"/>
</linearGradient>
<linearGradient id="paint24_linear_166_370" x1="729.397" y1="410.657" x2="729.397" y2="424.759" gradientUnits="userSpaceOnUse">
<stop stop-color="#FFB800"/>
<stop offset="1" stop-color="#FF7F0A"/>
</linearGradient>
<linearGradient id="paint25_linear_166_370" x1="710.167" y1="386.082" x2="710.167" y2="394.688" gradientUnits="userSpaceOnUse">
<stop stop-color="#FFB800"/>
<stop offset="1" stop-color="#FF7F0A"/>
</linearGradient>
<linearGradient id="paint26_linear_166_370" x1="653.409" y1="384.19" x2="653.409" y2="393.954" gradientUnits="userSpaceOnUse">
<stop stop-color="#FFB800"/>
<stop offset="1" stop-color="#FF7F0A"/>
</linearGradient>
<linearGradient id="paint27_linear_166_370" x1="618.906" y1="408.599" x2="618.906" y2="414.643" gradientUnits="userSpaceOnUse">
<stop stop-color="#FFB800"/>
<stop offset="1" stop-color="#FF7F0A"/>
</linearGradient>
<linearGradient id="paint28_linear_166_370" x1="714.919" y1="358.527" x2="714.919" y2="363.912" gradientUnits="userSpaceOnUse">
<stop stop-color="#FFB800"/>
<stop offset="1" stop-color="#FF7F0A"/>
</linearGradient>
<linearGradient id="paint29_linear_166_370" x1="770.576" y1="355.011" x2="770.576" y2="364.246" gradientUnits="userSpaceOnUse">
<stop stop-color="#FFB800"/>
<stop offset="1" stop-color="#FF7F0A"/>
</linearGradient>
<linearGradient id="paint30_linear_166_370" x1="822.351" y1="377.747" x2="822.351" y2="392.148" gradientUnits="userSpaceOnUse">
<stop stop-color="#FFB800"/>
<stop offset="1" stop-color="#FF7F0A"/>
</linearGradient>
<clipPath id="clip0_166_370">
<rect width="884" height="667" fill="white" transform="translate(38 147)"/>
</clipPath>
</defs>
</svg>
