<svg width="960" height="960" viewBox="0 0 960 960" fill="none" xmlns="http://www.w3.org/2000/svg">
<g clip-path="url(#clip0_46_7735)">
<g clip-path="url(#clip1_46_7735)">
<path fill-rule="evenodd" clip-rule="evenodd" d="M566.783 838.028C566.466 842.819 566.265 848.117 568.735 852.075C569.048 852.582 569.404 853.062 569.797 853.51C573.934 858.185 581.142 858.08 587.369 857.594C595.443 856.961 604.688 855.674 609.11 848.887C611.6 845.032 611.938 840.212 612.181 835.632C616.825 746.112 612.991 656.354 600.73 567.556C595.288 528.17 587.922 488.192 568.83 453.301L568.862 452.774L513.782 449.544L513.74 450.304C513.697 453.101 513.634 455.894 513.518 458.694L514.056 458.715C558.171 579.493 575.416 709.728 566.783 838.028ZM565.392 470.282C565.116 469.452 564.22 469.003 563.391 469.279C562.561 469.554 562.112 470.45 562.387 471.28C600.838 587.068 600.097 711.733 598.948 834.085C598.939 834.959 599.642 835.675 600.516 835.683C601.39 835.691 602.105 834.989 602.114 834.115C603.262 711.853 604.036 586.652 565.392 470.282Z" fill="url(#paint0_linear_46_7735)"/>
<path fill-rule="evenodd" clip-rule="evenodd" d="M717.459 404.186C716.431 398.786 713.818 393.814 709.954 389.905C705.954 386.135 700.92 383.643 695.497 382.746C690.074 381.849 684.506 382.589 679.505 384.871L679.463 384.85C674.629 393.799 674.851 404.796 680.835 413.06C683.975 417.257 688.231 420.488 693.118 422.383C698.005 424.279 703.326 424.764 708.475 423.783C711.156 423.226 713.725 422.223 716.075 420.817L715.727 420.226C717.884 415.17 718.487 409.586 717.459 404.186ZM694.088 386.185C693.216 386.121 692.457 386.775 692.392 387.647C692.327 388.519 692.982 389.278 693.854 389.343C697.114 389.585 700.223 390.819 702.762 392.879C705.301 394.939 707.148 397.727 708.056 400.868C708.299 401.708 709.176 402.192 710.016 401.95C710.856 401.707 711.34 400.829 711.097 399.989C710.01 396.227 707.798 392.888 704.757 390.421C701.716 387.953 697.993 386.475 694.088 386.185Z" fill="#171717"/>
<path fill-rule="evenodd" clip-rule="evenodd" d="M535.638 91.192C535.996 82.432 530.573 73.451 522.267 70.644C513.972 67.826 503.607 72.3 500.821 80.604C494.784 74.429 486.531 70.039 477.898 70.029C469.265 70.019 460.442 74.99 457.234 83.011C456.862 83.9441 456.553 84.9228 456.244 85.9015C455.425 88.4974 454.606 91.0931 452.591 92.836C450.641 94.5181 448.026 94.9872 445.445 95.4504C444.766 95.572 444.09 95.6933 443.429 95.836C438.181 96.953 433.393 99.6288 429.691 103.513C425.989 107.397 423.547 112.309 422.683 117.605C421.82 122.901 422.576 128.334 424.852 133.193C427.128 138.052 430.819 142.11 435.441 144.836L436.369 145.85C437.21 145.376 438.117 145.031 439.061 144.826C442.027 144.15 445.129 144.636 448.136 145.111C454.609 146.148 461.079 147.179 467.545 148.203C469.884 148.662 472.132 149.496 474.204 150.673L475.915 150.662C478.204 146.979 479.481 142.757 479.616 138.423C479.751 134.089 478.74 129.795 476.684 125.977C480.516 125.94 484.294 125.067 487.754 123.419C491.213 121.771 494.272 119.388 496.715 116.436C505.339 117.977 514.593 116.943 522.15 112.489C527.629 109.26 531.862 104.283 534.171 98.358C535.033 96.061 535.528 93.6428 535.638 91.192ZM523.461 72.146C522.737 71.6553 521.753 71.844 521.262 72.5676C520.771 73.2911 520.96 74.2755 521.684 74.7662C524.413 76.6176 526.574 79.1919 527.925 82.2011C529.275 85.2104 529.762 88.536 529.33 91.806C529.215 92.6727 529.825 93.4681 530.692 93.5825C531.559 93.6969 532.354 93.087 532.469 92.2203C532.977 88.368 532.404 84.4501 530.813 80.905C529.222 77.3598 526.677 74.3271 523.461 72.146Z" fill="#171717"/>
<path fill-rule="evenodd" clip-rule="evenodd" d="M558.688 156.066C563.353 151.327 566.012 144.381 564.661 137.881C563.31 131.37 557.453 125.787 550.8 125.7C552.209 122.909 552.901 119.811 552.813 116.686C552.725 113.561 551.86 110.507 550.296 107.8C548.732 105.093 546.518 102.818 543.855 101.181C541.192 99.5441 538.162 98.5961 535.041 98.4229L534.176 98.3599C532.306 103.22 529.115 107.46 524.962 110.602L525.332 111.056C533.087 117.333 538.732 125.836 541.507 135.419C544.283 145.002 544.055 155.206 540.856 164.656L541.088 164.73C547.617 163.517 554.023 160.805 558.688 156.066ZM543.349 102.639C542.622 102.152 541.639 102.347 541.153 103.073C540.666 103.799 540.86 104.783 541.587 105.269C543.964 106.862 545.837 109.1 546.985 111.721C548.133 114.343 548.509 117.237 548.067 120.065C547.932 120.928 548.523 121.738 549.386 121.873C550.25 122.008 551.06 121.417 551.195 120.553C551.73 117.13 551.275 113.625 549.885 110.451C548.495 107.277 546.227 104.567 543.349 102.639Z" fill="#171717"/>
<path d="M757.361 367.51C759.884 372.069 757.636 377.694 755.345 382.37C739.557 414.632 722.299 446.117 703.569 476.826L701.796 475.665C681.799 464.248 662.456 451.722 643.856 438.146L644.656 437.038C662.029 402.073 678.831 368.7 696.199 333.749L697.519 331.437C699.534 332.588 701.561 333.749 703.576 334.909C719.259 343.88 734.942 352.851 750.625 361.821C753.214 363.3 755.926 364.9 757.361 367.51ZM729.067 413.71C730.1 410.213 730.518 406.564 730.301 402.924C729.826 394.418 726.175 386.144 721.183 379.147C715.442 371.105 703.59 369.638 694.583 372.34C688.22 374.374 682.583 378.208 678.352 383.379C677.74 384.107 677.152 384.846 676.589 385.616C670.12 394.416 667.133 406.185 670.5 416.581C674.51 428.939 687.629 437.509 700.6 436.707C713.571 435.905 725.362 426.157 729.067 413.714V413.71Z" fill="url(#paint1_linear_46_7735)"/>
<path d="M726.493 185.183C726.826 192.143 726.497 199.118 725.511 206.016L724.287 205.837C707.62 203.336 691.04 200.325 674.547 196.803L673.101 196.539C673.854 192.297 674.022 187.972 673.601 183.685C673.369 181.447 673.211 178.703 675.089 177.469C676 176.958 677.059 176.775 678.089 176.951C678.512 176.994 678.923 177.057 679.324 177.131C691.978 179.284 704.632 181.444 717.286 183.611C720.35 184.139 723.421 184.656 726.493 185.183Z" fill="url(#paint2_linear_46_7735)"/>
<path d="M625.851 885.889L650.515 919.389C637.245 921.313 623.712 918.726 612.087 912.043C600.461 905.36 591.416 894.969 586.399 882.533L585.85 882.786C585.069 889.224 585.586 894.48 584.15 900.801C583.761 903.247 582.839 905.578 581.45 907.63C579.16 910.553 575.213 911.756 571.498 911.608C567.783 911.46 564.248 910.141 560.776 908.854C564.671 890.123 567.329 871.155 568.733 852.075C569.049 852.582 569.405 853.062 569.799 853.51C573.936 858.185 581.144 858.08 587.371 857.594C595.445 856.961 604.69 855.673 609.112 848.887C610.01 861.89 618.126 875.388 625.851 885.889Z" fill="#171717"/>
<path d="M526.614 227.821C530.234 235.039 533.062 242.944 532.577 251.007C532.092 259.07 527.669 267.281 520.208 270.363C511.997 273.772 502.362 270.257 495.459 264.653C489.016 259.429 484.155 252.515 481.421 244.684C478.686 236.853 478.186 228.416 479.977 220.317L479.808 219.842C482.858 218.744 485.954 217.777 489.096 216.942C489.317 220.234 489.539 223.527 489.929 226.788C491.206 237.5 494.921 248.898 503.976 254.756C506.649 256.656 509.91 257.542 513.176 257.256C517.883 256.591 521.598 252.37 522.59 247.726C523.582 243.082 522.231 238.164 519.857 234.048C517.483 229.932 514.157 226.448 510.865 223.03L510.59 222.618C510.256 221.323 510.055 219.997 509.99 218.661L510.602 218.629C516.048 221.447 521.515 224.265 527.024 226.977L526.614 227.821Z" fill="url(#paint3_linear_46_7735)"/>
<path d="M211.744 613.138C219.997 604.547 228.25 595.949 236.503 587.344L237.157 586.775C243.652 594.335 250.55 601.54 257.822 608.357C278.222 627.357 302.696 642.836 329.988 648.514C357.28 654.192 387.58 649.052 408.856 631.048C429.162 613.866 439.156 587.44 444.929 561.488C453.372 523.45 454.522 484.155 448.317 445.688C470.142 446.976 491.963 448.26 513.782 449.54L513.74 450.3C513.697 453.1 513.634 455.894 513.518 458.69C511.439 515.075 496.528 570.244 469.92 620C456.148 645.688 438.576 670.447 413.62 685.507C379.626 706.023 335.543 705.407 298.964 689.95C262.744 674.626 233.288 646.258 210.464 614.206L211.34 613.573C211.47 613.423 211.607 613.286 211.744 613.138Z" fill="url(#paint4_linear_46_7735)"/>
<path d="M475.018 165.057C483.186 172.192 486.543 183.98 484.442 194.557C483.608 198.935 481.758 203.056 479.042 206.588C475.496 211.126 470.335 214.715 464.583 215.074C458.831 215.433 452.71 211.823 451.37 206.23C445.84 215.074 431.93 217.047 424.162 210.092C416.394 203.137 416.827 189.092 425.007 182.631C420.352 186.167 412.828 182.462 411.382 176.806C409.936 171.15 413.26 165.123 417.988 161.693C422.548 158.379 428.173 156.986 433.703 155.825C434.334 156.809 435.134 157.673 436.067 158.379C438.467 160.194 441.449 161.017 444.362 161.756C452.581 163.823 465.963 168 475.018 165.057Z" fill="#171717"/>
<path d="M433.7 155.823C432.654 154.285 432.256 152.397 432.592 150.567C432.848 149.557 433.318 148.613 433.97 147.799C434.622 146.986 435.44 146.321 436.37 145.85C437.211 145.376 438.118 145.031 439.061 144.826C442.027 144.15 445.13 144.636 448.137 145.111C454.607 146.145 461.077 147.176 467.546 148.203C469.884 148.662 472.133 149.496 474.205 150.673C480.369 154.039 485.582 160.023 477.055 164.234C476.395 164.554 475.715 164.829 475.018 165.057C465.963 168.002 452.581 163.823 444.359 161.757C441.446 161.018 438.459 160.195 436.064 158.38C435.132 157.673 434.331 156.808 433.7 155.823V155.823Z" fill="url(#paint5_linear_46_7735)"/>
<path d="M436.179 471.19L423.567 471.507C410.132 471.844 396.697 472.177 383.262 472.507C379.326 472.602 375.389 472.707 371.453 472.807C371.886 467.287 372.265 461.757 372.624 456.227L373.141 456.258C393.792 458.105 414.566 458.116 435.219 456.29L435.44 456.279C435.599 461.249 435.846 466.219 436.179 471.19Z" fill="url(#paint6_linear_46_7735)"/>
<path d="M363.391 503.78L364.13 504.403C354.621 515.853 344.858 527.579 335.592 538.787C326.692 537.9 317.777 535.887 309.957 531.536C302.021 527.125 295.277 520.085 292.533 511.436C288.871 499.901 292.491 486.73 287.583 475.67C284.554 468.82 278.57 463.67 272.083 459.934C265.596 456.198 258.49 453.665 251.693 450.52C241.772 445.95 232.211 439.829 225.984 430.848C219.842 422.004 217.52 409.962 222.142 400.274C237.635 391.63 253.128 382.99 268.621 374.354C267.64 383.219 272.959 391.81 279.956 397.329C286.974 402.859 295.544 405.962 303.828 409.329C312.112 412.696 320.493 416.579 326.477 423.207C335.215 432.885 337.389 446.647 339.057 459.575C340.725 472.503 342.582 486.234 350.919 496.26C354.1 500.1 358.431 503.326 363.391 503.78Z" fill="url(#paint7_linear_46_7735)"/>
<path d="M237.156 586.775L236.502 587.344C228.25 595.944 219.997 604.542 211.743 613.138C206.825 604.378 195.058 601.782 185.169 603.566C175.248 605.339 166.269 610.426 156.652 613.412C160.096 603.152 166.176 593.978 174.284 586.809C182.392 579.64 192.242 574.729 202.846 572.569C198.319 566.839 193.792 561.106 189.264 555.369C193.731 551.506 198.202 547.644 202.677 543.781L204.007 544.498C214.699 558.849 225.431 573.266 237.156 586.775Z" fill="#171717"/>
<path d="M525.127 124.932C520.971 124.26 516.716 125.195 513.227 127.549" stroke="#171717" stroke-width="3.166" stroke-linecap="round" stroke-linejoin="round"/>
<path d="M496.315 131.95C494.195 131.372 491.969 131.303 489.818 131.748C487.666 132.194 485.651 133.142 483.936 134.515" stroke="#171717" stroke-width="3.166" stroke-linecap="round" stroke-linejoin="round"/>
<path d="M507.713 136.816C510.162 139.232 512.705 141.807 513.623 145.121C514.541 148.435 513.117 152.657 509.803 153.585" stroke="#171717" stroke-width="3.166" stroke-linecap="round" stroke-linejoin="round"/>
<path d="M502.742 170.661C501.379 171.145 499.903 171.218 498.499 170.871C497.094 170.524 495.823 169.772 494.842 168.709" stroke="#171717" stroke-width="3.166" stroke-linecap="round" stroke-linejoin="round"/>
<path d="M474.553 164.656C474.712 164.783 474.87 164.92 475.018 165.056C483.186 172.191 486.543 183.979 484.442 194.556C483.608 198.934 481.758 203.055 479.042 206.587C475.496 211.125 470.335 214.714 464.583 215.073C458.831 215.432 452.71 211.822 451.37 206.229C445.84 215.073 431.93 217.046 424.162 210.091C416.394 203.136 416.827 189.091 425.007 182.63C420.352 186.166 412.828 182.461 411.382 176.805C409.936 171.149 413.26 165.122 417.988 161.692C422.548 158.378 428.173 156.985 433.703 155.824L434.303 155.697" stroke="#171717" stroke-width="3.166" stroke-linecap="round" stroke-linejoin="round"/>
<path d="M475.018 165.057C465.963 168.002 452.581 163.823 444.359 161.757C441.446 161.018 438.459 160.195 436.064 158.38C435.132 157.674 434.332 156.81 433.7 155.826C432.654 154.288 432.256 152.4 432.592 150.57C432.848 149.56 433.318 148.616 433.97 147.802C434.622 146.989 435.44 146.324 436.37 145.853C437.211 145.38 438.118 145.034 439.061 144.829C442.027 144.153 445.13 144.639 448.137 145.114C454.607 146.148 461.077 147.179 467.546 148.206C469.884 148.665 472.133 149.499 474.205 150.676C480.369 154.042 485.582 160.026 477.055 164.237C476.395 164.556 475.714 164.83 475.018 165.057V165.057Z" stroke="#171717" stroke-width="3.166" stroke-linecap="round" stroke-linejoin="round"/>
<path d="M475.914 150.662C478.204 146.979 479.481 142.757 479.616 138.423C479.751 134.089 478.74 129.795 476.684 125.977C480.516 125.94 484.294 125.067 487.754 123.419C491.213 121.771 494.272 119.388 496.715 116.436C505.338 117.977 514.593 116.943 522.15 112.489C527.629 109.26 531.862 104.283 534.171 98.358C535.033 96.061 535.528 93.6428 535.638 91.192C535.996 82.432 530.573 73.451 522.267 70.644C513.961 67.837 503.607 72.301 500.821 80.606C494.784 74.432 486.541 70.042 477.898 70.031C469.255 70.02 460.442 74.992 457.234 83.013C455.872 86.421 455.366 90.442 452.59 92.838C450.131 94.959 446.606 95.149 443.429 95.838C438.181 96.955 433.393 99.6308 429.691 103.515C425.989 107.399 423.547 112.311 422.683 117.607C421.82 122.903 422.576 128.336 424.852 133.195C427.128 138.054 430.819 142.112 435.44 144.838" stroke="#171717" stroke-width="3.166" stroke-linecap="round" stroke-linejoin="round"/>
<path d="M525.327 111.054C533.082 117.331 538.727 125.834 541.503 135.417C544.278 145 544.051 155.204 540.851 164.654C539.593 168.455 537.866 172.086 535.711 175.461C530.72 183.25 523.627 189.461 518.044 196.843C513.274 203.154 509.538 210.943 509.992 218.658C510.057 219.994 510.258 221.321 510.592 222.616" stroke="#171717" stroke-width="3.166" stroke-linecap="round" stroke-linejoin="round"/>
<path d="M485.655 194.808C488.072 201.908 488.578 209.425 489.096 216.94C489.317 220.232 489.539 223.525 489.929 226.786C491.206 237.498 494.921 248.896 503.976 254.754C506.649 256.654 509.91 257.54 513.176 257.254C517.883 256.589 521.598 252.368 522.59 247.724C523.582 243.08 522.231 238.162 519.857 234.046C517.483 229.93 514.157 226.446 510.865 223.028" stroke="#171717" stroke-width="3.166" stroke-linecap="round" stroke-linejoin="round"/>
<path d="M541.083 164.73C547.616 163.517 554.033 160.794 558.683 156.066C563.333 151.338 566.007 144.383 564.656 137.881C563.305 131.379 557.452 125.787 550.799 125.7C552.209 122.909 552.902 119.81 552.814 116.683C552.726 113.557 551.86 110.502 550.296 107.794C548.731 105.087 546.516 102.811 543.851 101.175C541.186 99.5377 538.155 98.5906 535.032 98.419" stroke="#171717" stroke-width="3.166" stroke-linecap="round" stroke-linejoin="round"/>
<path d="M489.1 216.94C485.954 217.773 482.858 218.74 479.812 219.84C464.994 225.354 451.36 233.634 439.634 244.24C428.769 253.965 419.348 265.191 411.656 277.579C393.873 306.079 384.744 339.203 379.847 372.426C377.99 385.026 376.713 397.692 375.699 410.388C375.066 418.176 374.549 425.976 374.053 433.775C373.568 441.258 373.124 448.74 372.628 456.223C372.27 461.753 371.89 467.283 371.457 472.803C375.393 472.703 379.33 472.603 383.267 472.503C396.701 472.165 410.134 471.832 423.567 471.503L436.179 471.186C435.852 466.215 435.606 461.244 435.44 456.273C435.303 452.537 435.229 448.791 435.198 445.055C435.011 418.849 437.126 392.677 441.519 366.841C442.142 363.21 442.808 359.583 443.519 355.96C447.493 335.642 452.888 315.629 459.667 296.068" stroke="#171717" stroke-width="3.166" stroke-linecap="round" stroke-linejoin="round"/>
<path d="M510.604 218.628C516.05 221.446 521.517 224.264 527.026 226.976C529.084 228 531.151 229.006 533.226 229.995C546.313 236.19 559.696 241.625 573.754 244.981C596.012 250.281 620.4 249.92 640.663 239.303C642.13 238.533 643.576 237.709 644.98 236.803C649.432 234.004 653.526 230.673 657.171 226.882C665.318 218.429 671.143 207.833 673.095 196.54C673.849 192.298 674.017 187.973 673.595 183.686C673.363 181.448 673.205 178.704 675.083 177.47C675.995 176.959 677.054 176.776 678.083 176.952C678.505 176.995 678.916 177.058 679.317 177.132C691.971 179.285 704.626 181.445 717.28 183.612C720.351 184.14 723.421 184.657 726.493 185.184C726.827 192.144 726.498 199.12 725.512 206.018C721.772 232.078 709.432 256.141 690.452 274.385C687.245 277.434 683.858 280.289 680.309 282.933C677.428 285.076 674.445 287.07 671.361 288.917C642.317 306.341 605.378 310.352 573.4 299.028" stroke="#171717" stroke-width="3.166" stroke-linecap="round" stroke-linejoin="round"/>
<path d="M533.052 230.375C550.817 250.386 564.233 273.868 572.452 299.333C578.245 317.266 581.451 335.934 581.972 354.772C582.077 358.272 581.872 362.254 579.217 364.523C577.148 366.296 574.204 366.476 571.481 366.571C568.663 366.666 565.856 366.761 563.038 366.845C522.776 368.038 482.496 368.076 442.198 366.961" stroke="#171717" stroke-width="3.166" stroke-linecap="round" stroke-linejoin="round"/>
<path d="M479.977 220.317C478.186 228.416 478.686 236.853 481.421 244.684C484.155 252.515 489.016 259.429 495.459 264.653C502.359 270.253 511.997 273.772 520.208 270.363C527.669 267.281 532.102 259.063 532.577 251.007C533.052 242.951 530.234 235.039 526.614 227.821" stroke="#171717" stroke-width="3.166" stroke-linecap="round" stroke-linejoin="round"/>
<path d="M563.025 366.813C563.025 366.824 563.036 366.834 563.036 366.845C576.07 393.05 589.097 419.25 602.117 445.445C603.056 447.335 604.006 449.53 603.182 451.472C602.011 454.237 598.254 454.5 595.257 454.321L568.862 452.77L513.782 449.54C491.956 448.253 470.135 446.969 448.317 445.688C444.644 445.477 440.982 445.255 437.309 445.044" stroke="#171717" stroke-width="3.166" stroke-linecap="round" stroke-linejoin="round"/>
<path d="M448.222 445.122L448.322 445.692C454.527 484.159 453.377 523.454 444.934 561.492C439.161 587.444 429.167 613.87 408.861 631.052C387.585 649.052 357.285 654.196 329.993 648.518C302.701 642.84 278.227 627.358 257.827 608.361C250.555 601.544 243.657 594.339 237.162 586.779C225.437 573.27 214.704 558.853 204.013 544.5" stroke="#171717" stroke-width="3.166" stroke-linecap="round" stroke-linejoin="round"/>
<path d="M202.677 543.779C198.203 547.641 193.732 551.504 189.264 555.367C193.792 561.1 198.319 566.834 202.846 572.567C192.242 574.727 182.392 579.638 174.284 586.807C166.176 593.975 160.096 603.15 156.652 613.41C166.267 610.424 175.252 605.337 185.169 603.564C195.058 601.78 206.825 604.376 211.743 613.136C211.746 613.152 211.753 613.166 211.764 613.178" stroke="#171717" stroke-width="3.166" stroke-linecap="round" stroke-linejoin="round"/>
<path d="M211.332 613.571C211.47 613.423 211.607 613.286 211.744 613.138C219.997 604.547 228.25 595.949 236.503 587.344" stroke="#171717" stroke-width="3.166" stroke-linecap="round" stroke-linejoin="round"/>
<path d="M209.8 613.286C210.022 613.592 210.233 613.898 210.454 614.204C233.282 646.256 262.738 674.624 298.954 689.948C335.533 705.409 379.616 706.021 413.61 685.505C438.57 670.445 456.142 645.686 469.91 619.998C496.517 570.245 511.429 515.08 513.51 458.698C513.626 455.898 513.689 453.105 513.732 450.308" stroke="#171717" stroke-width="3.166" stroke-linecap="round" stroke-linejoin="round"/>
<path d="M568.83 453.3C587.922 488.191 595.288 528.169 600.73 567.555C612.991 656.353 616.825 746.111 612.181 835.631C611.938 840.211 611.6 845.031 609.11 848.886C604.688 855.673 595.443 856.96 587.369 857.593C581.142 858.079 573.934 858.184 569.797 853.509C569.403 853.061 569.046 852.581 568.731 852.074C566.261 848.116 566.462 842.818 566.779 838.027C575.412 709.727 558.167 579.492 514.052 458.714" stroke="#171717" stroke-width="3.166" stroke-linecap="round" stroke-linejoin="round"/>
<path d="M568.755 851.864C568.754 851.935 568.747 852.005 568.734 852.075C567.33 871.155 564.672 890.123 560.777 908.854C564.249 910.141 567.795 911.454 571.499 911.608C575.203 911.762 579.161 910.553 581.451 907.63C582.84 905.578 583.761 903.247 584.151 900.801C585.586 894.48 585.069 889.224 585.851 882.786" stroke="#171717" stroke-width="3.166" stroke-linecap="round" stroke-linejoin="round"/>
<path d="M586.399 882.533C591.417 894.968 600.462 905.358 612.087 912.041C623.712 918.723 637.243 921.31 650.513 919.387L625.849 885.887C618.124 875.387 610.008 861.887 609.111 848.887" stroke="#171717" stroke-width="3.166" stroke-linecap="round" stroke-linejoin="round"/>
<path d="M640.015 415.424C640.669 414.024 641.345 412.638 642.015 411.266C654.204 386.211 666.394 361.16 678.584 336.113C680.184 332.813 682.14 329.189 685.633 328.071C687.889 327.478 690.283 327.717 692.377 328.746C693.725 329.319 695.034 329.981 696.293 330.73C696.704 330.962 697.116 331.205 697.528 331.437C699.543 332.588 701.57 333.749 703.585 334.909C719.268 343.88 734.951 352.851 750.634 361.822C753.22 363.299 755.934 364.903 757.367 367.51C759.89 372.069 757.642 377.694 755.352 382.37C739.563 414.632 722.304 446.117 703.575 476.826C702.33 478.873 701.078 480.913 699.818 482.947C698.91 484.414 697.781 486.029 696.071 486.247C694.75 486.253 693.466 485.818 692.42 485.012C678.468 476.485 664.516 467.952 650.563 459.412C639.73 452.8 632.4 449.418 633.7 435.529C633.806 434.452 633.953 433.397 634.143 432.342C634.375 431.033 634.671 429.735 635.019 428.447C636.306 423.97 637.977 419.613 640.015 415.424V415.424Z" stroke="#171717" stroke-width="3.166" stroke-linecap="round" stroke-linejoin="round"/>
<path d="M636.047 432.447C638.675 434.389 641.278 436.289 643.857 438.147C662.456 451.723 681.8 464.249 701.797 475.666" stroke="#171717" stroke-width="3.166" stroke-linecap="round" stroke-linejoin="round"/>
<path d="M730.3 402.928C729.825 394.422 726.174 386.148 721.182 379.151C715.441 371.109 703.589 369.642 694.582 372.344C688.218 374.378 682.581 378.212 678.351 383.383C677.739 384.111 677.151 384.85 676.588 385.62C670.119 394.42 667.132 406.189 670.499 416.585C674.509 428.943 687.628 437.513 700.599 436.711C713.57 435.909 725.358 426.157 729.063 413.711C730.096 410.215 730.515 406.567 730.3 402.928V402.928Z" stroke="#171717" stroke-width="3.166" stroke-linecap="round" stroke-linejoin="round"/>
<path d="M679.813 384.217C679.697 384.428 679.571 384.639 679.465 384.85C674.631 393.799 674.853 404.796 680.837 413.06C683.977 417.257 688.233 420.488 693.12 422.384C698.007 424.279 703.328 424.764 708.477 423.783C711.158 423.226 713.727 422.223 716.077 420.817C719.276 418.859 722.045 416.273 724.217 413.214C726.388 410.156 727.917 406.689 728.71 403.023" stroke="#171717" stroke-width="3.166" stroke-linecap="round" stroke-linejoin="round"/>
<path d="M715.728 420.226C717.985 415.189 718.642 409.581 717.61 404.159C716.578 398.737 713.906 393.762 709.956 389.907C706.007 386.052 700.969 383.502 695.524 382.601C690.078 381.7 684.488 382.493 679.507 384.871" stroke="#171717" stroke-width="3.166" stroke-linecap="round" stroke-linejoin="round"/>
<path d="M644.658 437.038C662.029 402.073 678.831 368.7 696.199 333.749" stroke="#171717" stroke-width="3.166" stroke-linecap="round" stroke-linejoin="round"/>
<path d="M639.599 415.234C637.816 414.97 636.581 413.408 635.315 412.121C634.049 410.834 632.215 409.651 630.565 410.39C629.503 411.035 628.712 412.044 628.339 413.229C627.157 415.909 625.964 418.58 624.782 421.25C624.448 421.815 624.325 422.481 624.434 423.128C624.674 423.682 625.098 424.137 625.634 424.416C628.501 426.3 631.676 427.665 635.016 428.447C635.037 428.447 635.058 428.458 635.08 428.458" stroke="#171717" stroke-width="3.166" stroke-linecap="round" stroke-linejoin="round"/>
<path d="M704.034 334.118C706.303 330.5 708.293 326.715 709.986 322.794C710.577 321.443 711.126 319.902 710.567 318.541C710.238 317.916 709.764 317.379 709.186 316.973C708.608 316.567 707.942 316.305 707.242 316.208C705.86 315.908 704.425 315.944 703.053 315.608C702.483 315.47 701.892 315.27 701.311 315.108C700.439 314.795 699.481 314.825 698.631 315.192C697.781 315.797 697.166 316.677 696.889 317.683C696.551 318.527 696.182 319.435 695.789 320.374C694.649 323.16 693.372 326.21 692.369 328.743L692.338 328.806" stroke="#171717" stroke-width="3.166" stroke-linecap="round" stroke-linejoin="round"/>
<path d="M743.335 381.008C742.835 378.908 742.335 376.797 741.835 374.697C741.328 372.576 740.835 370.465 740.326 368.344" stroke="#171717" stroke-width="3.166" stroke-linecap="round" stroke-linejoin="round"/>
<path d="M734.6 376.66C737.017 376.006 739.423 375.351 741.84 374.697L748.372 372.924" stroke="#171717" stroke-width="3.166" stroke-linecap="round" stroke-linejoin="round"/>
<path d="M701.7 323.691C701.679 320.82 701.549 317.96 701.309 315.111C700.002 301.022 696.33 287.253 690.448 274.384C683.589 259.308 674.534 245.33 663.58 232.907C661.728 230.616 659.572 228.589 657.172 226.881C656.612 226.509 656.027 226.175 655.422 225.881C652.16 224.298 647.992 224.097 645.111 226.271C642.23 228.445 641.51 233.363 644.286 235.696" stroke="#171717" stroke-width="3.166" stroke-linecap="round" stroke-linejoin="round"/>
<path d="M672.352 290.541C677.786 301.589 685.317 311.475 694.525 319.649" stroke="#171717" stroke-width="3.166" stroke-linecap="round" stroke-linejoin="round"/>
<path d="M444.876 356.228C460.901 341.29 470.814 320.938 472.696 299.111C473.762 286.162 471.757 272.59 464.738 261.656C459.082 252.843 449.794 246.068 439.631 244.242C437.164 243.79 434.65 243.648 432.148 243.82C418.64 244.749 407.379 254.395 398.588 264.695C385.047 280.547 374.852 298.911 363.56 316.43C356.035 328.102 347.86 339.595 338.136 349.43C333.328 354.356 328.058 358.81 322.4 362.73C322.358 362.762 322.305 362.793 322.263 362.83" stroke="#171717" stroke-width="3.166" stroke-linecap="round" stroke-linejoin="round"/>
<path d="M318.315 355.785C319.655 358.107 321.015 360.428 322.399 362.729C337.293 387.692 354.159 411.425 372.835 433.7" stroke="#171717" stroke-width="3.166" stroke-linecap="round" stroke-linejoin="round"/>
<path d="M375.5 410.369L340.637 353.22C339.866 351.954 339.043 350.656 338.137 349.431C335.868 346.331 333.092 343.69 329.419 343.173C325.652 342.645 322.019 344.566 318.697 346.413C302.001 355.721 285.308 365.033 268.619 374.349C253.126 382.982 237.633 391.622 222.14 400.269C219.64 401.662 217.148 403.055 214.647 404.448C205.001 409.83 194.347 416.553 192.326 427.413C191.144 433.777 193.339 440.384 196.885 445.787C200.431 451.19 205.276 455.602 209.993 460.024C239.794 487.886 267.266 518.138 292.133 550.48C296.164 555.715 300.903 561.456 307.489 562.047C315.108 562.723 321.24 556.232 326.095 550.322C329.177 546.565 332.353 542.702 335.595 538.787C344.861 527.579 354.624 515.853 364.133 504.403H364.143C370.486 496.741 376.734 489.195 382.643 481.997" stroke="#171717" stroke-width="3.166" stroke-linecap="round" stroke-linejoin="round"/>
<path d="M406.9 492.16C406.592 495.179 406.543 498.219 406.752 501.247C407.195 506.556 408.852 511.917 412.367 515.938C415.306 506.328 416.594 496.29 416.177 486.25C417.737 490.127 420.528 493.383 424.121 495.517C427.714 497.652 431.909 498.545 436.06 498.06C432.119 495.236 428.925 491.494 426.755 487.157C424.585 482.821 423.504 478.022 423.606 473.174" stroke="#171717" stroke-width="3.166" stroke-linecap="round" stroke-linejoin="round"/>
<path d="M406.899 492.16C407.205 489.881 407.472 487.601 407.699 485.321C407.409 487.59 407.114 489.881 406.899 492.16Z" stroke="#171717" stroke-width="3.166" stroke-linecap="round" stroke-linejoin="round"/>
<path d="M383.3 473.67C383.247 476.435 383.3 479.211 383.469 481.976C384.009 491.006 385.704 499.93 388.514 508.529C389.105 510.344 390.15 512.455 392.049 512.571C394.649 512.729 395.638 509.278 395.754 506.693C396.081 499.21 396.411 491.73 396.746 484.255C396.577 492.846 396.408 501.49 397.769 509.964C398.097 511.991 399.279 514.564 401.294 514.164C402.772 513.864 403.373 512.116 403.694 510.649C405.024 504.528 406.097 498.365 406.913 492.159" stroke="#171717" stroke-width="3.166" stroke-linecap="round" stroke-linejoin="round"/>
<path d="M268.618 374.3V374.353C267.637 383.218 272.956 391.809 279.953 397.328C286.971 402.858 295.541 405.961 303.825 409.328C312.109 412.695 320.49 416.578 326.474 423.206C335.212 432.884 337.386 446.646 339.054 459.574C340.722 472.502 342.579 486.233 350.916 496.259C354.103 500.101 358.431 503.33 363.391 503.784" stroke="#171717" stroke-width="3.166" stroke-linecap="round" stroke-linejoin="round"/>
<path d="M222.34 399.847C222.266 399.984 222.203 400.121 222.14 400.269C217.518 409.957 219.84 421.999 225.982 430.843C232.209 439.824 241.77 445.943 251.691 450.515C258.491 453.66 265.591 456.193 272.081 459.929C278.571 463.665 284.555 468.815 287.581 475.665C292.489 486.725 288.869 499.896 292.531 511.431C295.275 520.085 302.019 527.125 309.955 531.531C317.776 535.879 326.693 537.895 335.59 538.782C335.738 538.792 335.875 538.813 336.023 538.824" stroke="#171717" stroke-width="3.166" stroke-linecap="round" stroke-linejoin="round"/>
<path d="M678.135 176.308C675.489 172.609 673.573 168.44 672.489 164.023C672.146 162.885 672.042 161.689 672.183 160.509C672.262 159.919 672.492 159.359 672.851 158.884C673.209 158.409 673.684 158.034 674.23 157.796C675.687 157.269 677.259 158.102 678.494 159.021C681.653 161.364 684.211 164.424 685.956 167.949C686.029 168.086 686.103 168.234 686.167 168.371C686.198 168.118 686.219 167.871 686.241 167.622" stroke="#171717" stroke-width="3.166" stroke-linecap="round" stroke-linejoin="round"/>
<path d="M685.934 168.3C685.945 168.184 685.945 168.068 685.956 167.952C686.365 159.83 687.736 151.785 690.04 143.985C690.435 142.324 691.212 140.777 692.309 139.468C692.87 138.825 693.623 138.379 694.457 138.195C695.29 138.011 696.161 138.098 696.942 138.444C698.542 139.344 698.942 141.431 699.106 143.256C699.473 147.577 699.439 151.922 699.006 156.237C698.594 160.583 697.853 164.891 696.789 169.124" stroke="#171717" stroke-width="3.166" stroke-linecap="round" stroke-linejoin="round"/>
<path d="M696.794 169.121C697.427 164.794 698.018 160.435 699.011 156.234C700.008 151.366 701.913 146.73 704.625 142.567C705.196 141.61 705.971 140.791 706.894 140.167C707.357 139.86 707.898 139.691 708.454 139.682C709.009 139.672 709.556 139.822 710.029 140.114C711.052 140.842 711.253 142.267 711.306 143.523C711.504 147.817 711.181 152.119 710.345 156.335C709.572 160.256 708.354 164.077 706.715 167.722" stroke="#171717" stroke-width="3.166" stroke-linecap="round" stroke-linejoin="round"/>
<path d="M710.355 157.089C710.387 156.847 710.429 156.604 710.471 156.361C711.029 152.67 712.809 149.274 715.526 146.715C715.955 146.25 716.487 145.891 717.078 145.667C717.67 145.444 718.306 145.362 718.935 145.427C720.951 145.913 721.299 148.594 721.194 150.673C720.634 161.481 719.369 172.24 717.405 182.883" stroke="#171717" stroke-width="3.166" stroke-linecap="round" stroke-linejoin="round"/>
<path d="M373.142 456.256C393.793 458.103 414.567 458.114 435.22 456.288" stroke="#171717" stroke-width="3.166" stroke-linecap="round" stroke-linejoin="round"/>
<path d="M674.547 196.8C691.032 200.325 707.612 203.337 724.287 205.834" stroke="#171717" stroke-width="3.166" stroke-linecap="round" stroke-linejoin="round"/>
<path d="M399.956 141C394.284 134.444 386.546 130.019 378.02 128.456" stroke="#171717" stroke-width="3.166" stroke-linecap="round" stroke-linejoin="round"/>
<path d="M380.974 144.867C386.06 136.263 391.147 127.658 396.234 119.053" stroke="#171717" stroke-width="3.166" stroke-linecap="round" stroke-linejoin="round"/>
<path d="M629.86 104.855L611.766 105.25" stroke="#171717" stroke-width="3.166" stroke-linecap="round" stroke-linejoin="round"/>
<path d="M620.165 116.967C619.632 108.834 619.099 100.7 618.565 92.567" stroke="#171717" stroke-width="3.166" stroke-linecap="round" stroke-linejoin="round"/>
<path d="M599.059 47.879L609.123 40.106C609.208 40.0404 609.312 40.0025 609.419 39.9973C609.526 39.9921 609.633 40.0199 609.724 40.077C609.815 40.134 609.886 40.2176 609.928 40.3165C609.97 40.4154 609.981 40.5248 609.959 40.63L607.366 53.079C607.345 53.1807 607.355 53.2864 607.394 53.3827C607.433 53.479 607.499 53.5616 607.585 53.62L618.085 60.791C618.174 60.8515 618.242 60.9378 618.28 61.0383C618.319 61.1387 618.325 61.2485 618.299 61.3528C618.273 61.457 618.215 61.5507 618.134 61.6212C618.053 61.6917 617.952 61.7356 617.845 61.747L605.204 63.127C605.101 63.1384 605.003 63.18 604.923 63.2467C604.844 63.3135 604.786 63.4023 604.756 63.502L601.184 75.702C601.154 75.805 601.093 75.8963 601.009 75.9636C600.925 76.0308 600.823 76.0709 600.716 76.0783C600.609 76.0857 600.502 76.0601 600.41 76.005C600.317 75.9499 600.244 75.8679 600.2 75.77L594.981 64.17C594.938 64.0747 594.867 63.9944 594.778 63.9393C594.689 63.8843 594.586 63.857 594.481 63.861L581.77 64.234C581.663 64.2372 581.557 64.2074 581.467 64.1487C581.377 64.0899 581.308 64.0049 581.268 63.9053C581.227 63.8057 581.219 63.6962 581.243 63.5915C581.267 63.4868 581.323 63.3921 581.402 63.32L590.817 54.772C590.894 54.7021 590.948 54.6111 590.974 54.5105C590.999 54.4098 590.994 54.3038 590.959 54.206L586.677 42.233C586.641 42.1319 586.637 42.0222 586.665 41.9186C586.694 41.8151 586.753 41.7227 586.835 41.6538C586.918 41.5849 587.019 41.5428 587.126 41.5332C587.233 41.5236 587.34 41.5469 587.433 41.6L598.471 47.913C598.561 47.9672 598.666 47.9929 598.77 47.9869C598.875 47.9808 598.976 47.9432 599.059 47.879V47.879Z" fill="url(#paint8_linear_46_7735)"/>
<path d="M828.134 229.539L837.194 238.462C837.271 238.537 837.323 238.633 837.343 238.739C837.363 238.844 837.351 238.953 837.307 239.051C837.264 239.149 837.191 239.232 837.099 239.287C837.008 239.343 836.901 239.369 836.794 239.362L824.109 238.473C824.005 238.466 823.902 238.49 823.812 238.541C823.722 238.593 823.649 238.67 823.603 238.763L817.916 250.136C817.868 250.232 817.792 250.311 817.698 250.362C817.604 250.414 817.496 250.435 817.389 250.423C817.283 250.412 817.182 250.368 817.101 250.297C817.02 250.227 816.963 250.133 816.937 250.029L813.863 237.69C813.838 237.589 813.783 237.498 813.706 237.428C813.63 237.359 813.534 237.313 813.431 237.298L800.851 235.4C800.745 235.384 800.646 235.336 800.568 235.262C800.49 235.188 800.436 235.092 800.414 234.987C800.392 234.882 800.403 234.773 800.446 234.674C800.488 234.575 800.56 234.492 800.651 234.435L811.435 227.698C811.523 227.643 811.593 227.563 811.636 227.468C811.679 227.374 811.692 227.268 811.675 227.166L809.59 214.622C809.573 214.516 809.588 214.408 809.634 214.311C809.68 214.214 809.755 214.134 809.848 214.081C809.941 214.027 810.048 214.004 810.155 214.014C810.261 214.023 810.363 214.065 810.445 214.134L820.186 222.308C820.265 222.375 820.363 222.417 820.466 222.428C820.569 222.44 820.674 222.421 820.766 222.373L832.052 216.513C832.147 216.463 832.255 216.444 832.362 216.458C832.468 216.472 832.568 216.518 832.648 216.59C832.727 216.662 832.783 216.757 832.806 216.862C832.83 216.967 832.821 217.076 832.781 217.176L828.016 228.966C827.976 229.062 827.966 229.168 827.987 229.271C828.008 229.373 828.059 229.466 828.134 229.539V229.539Z" stroke="url(#paint9_linear_46_7735)" stroke-width="3.166" stroke-miterlimit="10"/>
<path d="M403.432 87.088C400.451 83.6449 396.385 81.3211 391.905 80.5" stroke="#171717" stroke-width="3.166" stroke-linecap="round" stroke-linejoin="round"/>
<path d="M393.458 89.12C396.132 84.5993 398.805 80.0777 401.477 75.555" stroke="#171717" stroke-width="3.166" stroke-linecap="round" stroke-linejoin="round"/>
<path d="M783.93 264.809C780.95 261.364 776.884 259.039 772.403 258.217" stroke="#171717" stroke-width="3.166" stroke-linecap="round" stroke-linejoin="round"/>
<path d="M773.957 266.841C776.63 262.32 779.303 257.798 781.976 253.276" stroke="#171717" stroke-width="3.166" stroke-linecap="round" stroke-linejoin="round"/>
<path d="M844.004 300.059C842.493 294.128 839.004 288.889 834.112 285.21" stroke="#171717" stroke-width="3.166" stroke-linecap="round" stroke-linejoin="round"/>
<path d="M830.8 296.506L848.59 285.022" stroke="#171717" stroke-width="3.166" stroke-linecap="round" stroke-linejoin="round"/>
<path d="M345.076 154.625L354.136 163.548C354.213 163.623 354.265 163.72 354.286 163.826C354.306 163.932 354.293 164.042 354.249 164.14C354.204 164.238 354.131 164.32 354.038 164.376C353.946 164.431 353.838 164.456 353.731 164.448L341.046 163.56C340.942 163.553 340.839 163.576 340.749 163.628C340.659 163.679 340.586 163.756 340.54 163.849L334.853 175.223C334.805 175.319 334.729 175.398 334.634 175.449C334.54 175.501 334.432 175.522 334.326 175.51C334.219 175.498 334.119 175.454 334.038 175.383C333.957 175.313 333.9 175.219 333.874 175.115L330.8 162.775C330.774 162.674 330.72 162.583 330.643 162.513C330.566 162.443 330.47 162.398 330.368 162.382L317.793 160.489C317.687 160.473 317.588 160.425 317.51 160.351C317.432 160.277 317.378 160.181 317.357 160.076C317.335 159.97 317.346 159.861 317.388 159.762C317.43 159.663 317.502 159.58 317.593 159.523L328.378 152.787C328.466 152.732 328.535 152.652 328.578 152.557C328.62 152.463 328.634 152.357 328.617 152.255L326.532 139.71C326.514 139.604 326.529 139.495 326.575 139.398C326.622 139.301 326.696 139.221 326.79 139.167C326.883 139.114 326.99 139.091 327.097 139.101C327.204 139.11 327.306 139.153 327.388 139.222L337.128 147.397C337.207 147.463 337.305 147.505 337.408 147.516C337.511 147.528 337.616 147.508 337.708 147.461L348.994 141.602C349.089 141.553 349.197 141.534 349.303 141.548C349.41 141.562 349.509 141.608 349.588 141.68C349.668 141.752 349.723 141.846 349.748 141.951C349.772 142.055 349.763 142.164 349.724 142.264L344.959 154.054C344.919 154.15 344.909 154.256 344.93 154.357C344.951 154.459 345.002 154.552 345.076 154.625V154.625Z" stroke="url(#paint10_linear_46_7735)" stroke-width="3.166" stroke-miterlimit="10"/>
<path d="M610.41 345.223C607.429 341.778 603.363 339.453 598.883 338.631" stroke="#171717" stroke-width="3.166" stroke-linecap="round" stroke-linejoin="round"/>
<path d="M600.435 347.253C603.109 342.732 605.782 338.211 608.454 333.688" stroke="#171717" stroke-width="3.166" stroke-linecap="round" stroke-linejoin="round"/>
<path d="M298.563 214.706C307.944 207.367 322.88 211.647 329.874 221.288C336.868 230.929 337.345 243.951 334.923 255.612C331.017 274.412 319.885 291.889 303.68 302.195C287.475 312.501 266.25 315.076 248.539 307.652C239.687 303.943 231.609 297.587 227.596 288.869C223.583 280.151 224.355 268.946 230.904 261.93C241.968 250.078 264.104 256.605 271.241 271.163C278.378 285.721 273.558 303.692 264.268 316.98C253.397 332.399 237.296 343.344 218.96 347.78C196.872 353.031 173.039 348.421 151.503 355.608C141.503 358.945 132.481 364.695 125.232 372.349C117.984 380.002 112.733 389.324 109.944 399.49C107.155 409.656 106.913 420.352 109.241 430.633C111.569 440.914 116.394 450.463 123.291 458.436" stroke="#171717" stroke-width="3.166" stroke-linecap="round" stroke-linejoin="round"/>
<path d="M475.544 683.937C487.17 675.157 505.451 683.237 511.489 696.497C517.527 709.757 514.44 725.373 509.227 738.976C505.091 749.768 499.511 760.305 490.915 768.029C482.319 775.753 470.288 780.308 459.006 777.808C447.724 775.308 438.147 764.608 439.014 753.086C439.881 741.564 453.126 732.1 463.727 736.7C471.082 739.891 475.127 748.393 474.904 756.408C474.681 764.423 470.904 771.943 466.248 778.468C459.993 787.229 452.071 794.67 442.936 800.364C433.801 806.058 423.633 809.895 413.013 811.653C402.393 813.411 391.53 813.057 381.047 810.611C370.564 808.165 360.667 803.674 351.922 797.397C338.36 787.662 327.676 773.73 312.491 766.797C294.609 758.627 271.97 762.288 257.574 775.678" stroke="#171717" stroke-width="3.166" stroke-linecap="round" stroke-linejoin="round"/>
<path d="M851.599 406.46C851.899 397.116 843.073 389.327 833.807 388.083C824.541 386.839 815.306 390.683 807.414 395.691C775.035 416.213 758.678 459.033 769.127 495.916C773.041 509.737 782.209 523.965 796.398 526.206C807.491 527.958 819.326 520.777 822.898 510.127C826.47 499.477 821.345 486.616 811.435 481.327C798.073 474.201 780.435 481.794 772.32 494.58C764.205 507.366 763.699 523.572 765.721 538.58C767.743 553.588 772.021 568.321 772.573 583.455C773.222 601.15 768.382 619.436 756.987 632.99C745.592 646.544 727.2 654.639 709.77 651.517C692.34 648.395 677.237 632.926 676.688 615.228" stroke="#171717" stroke-width="3.166" stroke-linecap="round" stroke-linejoin="round"/>
<path d="M762.136 352.741C764.37 347.899 766.605 343.057 768.841 338.214" stroke="#171717" stroke-width="3.166" stroke-linecap="round" stroke-linejoin="round"/>
<path d="M773.481 359.722L811.474 336.256" stroke="#171717" stroke-width="3.166" stroke-linecap="round" stroke-linejoin="round"/>
<path d="M775.545 370.62C779.93 373.318 784.929 374.857 790.073 375.09" stroke="#171717" stroke-width="3.166" stroke-linecap="round" stroke-linejoin="round"/>
<path d="M182.782 405.823C171.516 416.199 169.804 435.343 179.051 447.553" stroke="#171717" stroke-width="3.166" stroke-linecap="round" stroke-linejoin="round"/>
<path d="M159.605 435.568C158.084 432.959 157.405 429.944 157.663 426.935C157.921 423.926 159.102 421.071 161.045 418.759" stroke="#171717" stroke-width="3.166" stroke-linecap="round" stroke-linejoin="round"/>
<path d="M347.57 720.346C363.756 724.975 381.012 724.182 396.704 718.087" stroke="#171717" stroke-width="3.166" stroke-linecap="round" stroke-linejoin="round"/>
<path d="M677.218 505.8C691.036 510.213 707.569 503.145 713.924 490.106" stroke="#171717" stroke-width="3.166" stroke-linecap="round" stroke-linejoin="round"/>
<path d="M357.511 737.381C360.872 738.861 364.515 739.594 368.187 739.53C371.859 739.467 375.474 738.608 378.783 737.013" stroke="#171717" stroke-width="3.166" stroke-linecap="round" stroke-linejoin="round"/>
<path d="M479.535 234.95L488.062 231.498" stroke="#171717" stroke-width="3.166" stroke-linecap="round" stroke-linejoin="round"/>
<path d="M484.284 249.969L493.158 243.912" stroke="#171717" stroke-width="3.166" stroke-linecap="round" stroke-linejoin="round"/>
<path d="M498.035 264.831C498.876 261.867 500.271 259.089 502.148 256.646" stroke="#171717" stroke-width="3.166" stroke-linecap="round" stroke-linejoin="round"/>
<path d="M516.973 269.7C515.973 266.224 514.976 262.749 513.98 259.274" stroke="#171717" stroke-width="3.166" stroke-linecap="round" stroke-linejoin="round"/>
<path d="M522.644 250.283C524.977 251.813 527.661 252.726 530.444 252.937" stroke="#171717" stroke-width="3.166" stroke-linecap="round" stroke-linejoin="round"/>
<path d="M520.393 233.917L527.47 233.172" stroke="#171717" stroke-width="3.166" stroke-linecap="round" stroke-linejoin="round"/>
<path d="M422.3 470.81C422.544 466.961 422.789 463.112 423.035 459.262" stroke="#171717" stroke-width="3.166" stroke-linecap="round" stroke-linejoin="round"/>
<path d="M408.574 471.189C408.674 467.339 408.774 463.489 408.874 459.64" stroke="#171717" stroke-width="3.166" stroke-linecap="round" stroke-linejoin="round"/>
<path d="M394.954 471.922C395.144 467.829 395.334 463.735 395.523 459.64" stroke="#171717" stroke-width="3.166" stroke-linecap="round" stroke-linejoin="round"/>
<path d="M381.084 472.309C381.061 467.55 381.561 462.804 382.574 458.154" stroke="#171717" stroke-width="3.166" stroke-linecap="round" stroke-linejoin="round"/>
<path d="M712.8 203.244C713.622 197.119 714.446 190.994 715.27 184.867" stroke="#171717" stroke-width="3.166" stroke-linecap="round" stroke-linejoin="round"/>
<path d="M698.919 201.013C699.671 194.769 700.679 188.563 701.943 182.396" stroke="#171717" stroke-width="3.166" stroke-linecap="round" stroke-linejoin="round"/>
<path d="M686.991 199.023C688.267 192.863 689.343 186.667 690.22 180.435" stroke="#171717" stroke-width="3.166" stroke-linecap="round" stroke-linejoin="round"/>
<path d="M678.852 196.8C679.285 190.464 680.109 184.161 681.32 177.927" stroke="#171717" stroke-width="3.166" stroke-linecap="round" stroke-linejoin="round"/>
<path fill-rule="evenodd" clip-rule="evenodd" d="M442.813 445.37C444.647 445.478 446.48 445.587 448.317 445.692C470.136 446.973 491.957 448.256 513.782 449.54L568.862 452.77L595.257 454.321C598.254 454.5 602.011 454.237 603.182 451.472C604.006 449.53 603.056 447.335 602.117 445.445C589.097 419.25 576.07 393.05 563.036 366.845C522.749 368.041 482.469 368.08 442.196 366.961L441.52 366.845C437.127 392.681 435.011 418.853 435.199 445.059L437.309 445.048C439.145 445.154 440.979 445.262 442.813 445.37ZM560.887 377.266C560.524 376.471 559.585 376.121 558.79 376.484C557.994 376.847 557.644 377.786 558.007 378.582L573.66 412.847L589.313 447.112C589.677 447.907 590.616 448.257 591.411 447.894C592.206 447.53 592.556 446.591 592.193 445.796L576.54 411.531L560.887 377.266Z" fill="#171717"/>
<g opacity="0.1">
<path d="M495.882 115.748C493.55 119.336 487.082 128.707 481.657 126.504C477.936 124.995 473.676 129.51 475.016 133.145C476.492 136.723 476.908 140.651 476.216 144.459C475.782 146.608 474.448 148.654 474.455 150.865C474.461 152.812 475.401 153.858 476.228 155.419C480.088 162.702 478.895 171.312 481.714 178.876C484.984 187.653 485.587 197.565 486.714 206.807C487.267 211.356 487.843 215.907 488.356 220.458C488.836 224.712 488.705 228.996 490.575 232.887C491.823 235.487 496.136 234.82 496.743 232.081C497.549 228.444 496.699 225.112 496.25 221.433C495.776 217.533 495.37 213.633 494.941 209.733C494.089 201.994 492.832 194.115 492.749 186.333C492.706 182.372 493.315 178.546 493.42 174.633C493.514 171.102 492.769 167.261 492.355 163.742C491.577 157.125 489.755 151.533 485.635 146.242L487.319 152.611C489.35 144.7 488.488 136.323 484.888 128.991V134.441L486.151 132.655L484.044 134.275C491.62 131.122 498.087 125.75 501.198 117.993C502.474 114.811 497.593 113.127 495.886 115.754L495.882 115.748Z" fill="#171717"/>
</g>
<g opacity="0.1">
<path d="M482.522 217.646C450.053 229.438 425.614 255.375 407.295 283.873C386.53 316.179 378.627 355.96 374.265 393.531C371.509 417.264 371.054 441.181 370.054 465.031C369.548 477.097 388.299 477.073 388.804 465.031C390.441 425.992 392.636 386.164 402.32 348.162C410.19 317.281 423.614 285.173 444.933 261.062C456.92 247.727 471.131 236.575 486.933 228.102C492.501 225.062 488.715 215.402 482.526 217.65L482.522 217.646Z" fill="#171717"/>
</g>
<g opacity="0.1">
<path d="M571.274 295.306C576.074 301.046 583.088 303.229 590.104 304.839C597.671 306.622 605.423 307.5 613.197 307.455C635.289 306.936 656.796 300.248 675.287 288.147C693.777 276.045 708.514 259.013 717.831 238.975C724.788 223.936 728.614 207.639 729.075 191.075C729.429 178.824 710.397 178.834 710.043 191.075C709.156 221.785 693.179 252.516 667.855 270.163C654.672 279.324 639.513 285.242 623.61 287.437C615.105 288.523 606.517 288.806 597.959 288.28C589.698 287.848 581.504 285.811 573.28 287.706C569.687 288.534 569.212 292.839 571.274 295.306V295.306Z" fill="#171717"/>
</g>
<g opacity="0.1">
<path d="M458.217 295.892C455.917 300.852 454.417 306.14 452.179 311.147C449.726 316.628 447.091 321.331 445.7 327.257C444.443 332.909 443.471 338.62 442.788 344.37C441.93 350.915 440.774 356.721 443.56 362.923C446.346 369.125 456.231 368.548 459.184 362.923C461.964 357.623 461.284 352.05 461.474 346.232C461.645 340.97 462.089 335.71 462.48 330.46C462.857 325.412 462.538 320.789 462.435 315.769C462.312 309.828 463.888 304.442 464.814 298.669C465.403 295.001 460.085 291.85 458.214 295.888L458.217 295.892Z" fill="#171717"/>
</g>
<g opacity="0.1">
<path d="M333.88 344.12C326.851 345.43 320.22 345.382 313.31 347.729C306.4 350.076 299.864 353.843 293.469 357.346C279.54 364.976 265.798 372.888 252.069 380.873C238.698 388.649 224.953 396.094 212.036 404.611C200.61 412.145 188.982 425.266 193.536 440.111C196.452 449.606 212.359 448.411 211.583 437.669C211.183 432.079 212.452 428.43 216.621 424.523C220.721 420.679 225.954 418.035 230.75 415.18C242.971 407.907 255.149 400.564 267.282 393.151C279.161 385.917 290.942 378.547 302.625 371.042C308.018 367.566 313.496 364.042 318.576 360.11C323.757 356.103 328.935 350.593 335.076 348.459C335.635 348.286 336.105 347.902 336.385 347.388C336.666 346.874 336.736 346.272 336.58 345.708C336.424 345.144 336.054 344.662 335.55 344.366C335.045 344.07 334.445 343.981 333.876 344.12H333.88Z" fill="#171717"/>
</g>
<g opacity="0.1">
<path d="M229.064 592.427C229.717 599.727 233.689 604.292 238.142 609.863C242.619 615.408 247.456 620.653 252.622 625.563C262.417 635.083 273.385 643.316 285.261 650.063C310.637 664.263 339.928 670.299 368.761 665.888C423.166 657.563 457.283 607.969 466.647 556.835C473.103 521.581 470.358 485.835 467.289 450.391C466.806 444.817 462.873 440.032 456.929 440.032C451.699 440.032 446.084 444.785 446.57 450.391C451.056 502.196 455.964 559.024 426.07 604.705C413.97 623.197 396.317 637.633 374.809 643.49C350.731 650.047 324.509 646.29 302.097 635.784C290.028 630.08 278.712 622.901 268.411 614.41C262.898 609.881 257.741 604.987 252.657 599.988C247.488 594.906 243.357 589.311 236.303 586.912C232.992 585.786 228.742 588.829 229.064 592.426V592.427Z" fill="#171717"/>
</g>
<g opacity="0.1">
<path d="M517.588 452.285C517.601 452.285 517.614 452.28 517.623 452.27C517.633 452.261 517.638 452.248 517.638 452.235C517.638 452.222 517.633 452.209 517.623 452.2C517.614 452.19 517.601 452.185 517.588 452.185C517.575 452.185 517.562 452.19 517.553 452.2C517.543 452.209 517.538 452.222 517.538 452.235C517.538 452.248 517.543 452.261 517.553 452.27C517.562 452.28 517.575 452.285 517.588 452.285V452.285Z" fill="#171717"/>
</g>
<g opacity="0.1">
<path d="M512.839 450.069C513.331 463.524 519.339 476.934 523.705 489.541C528.105 502.248 532.192 515.058 535.967 527.971C543.601 554.081 549.941 580.524 554.989 607.299C564.885 659.965 569.617 713.472 569.116 767.058C568.983 782.339 568.424 797.609 567.439 812.867C566.966 820.188 566.396 827.502 565.729 834.807C565.008 842.689 563.585 850.613 564.429 858.515C565.444 867.973 577.729 870.108 581.095 860.771C583.471 854.171 583.928 847.227 584.605 840.284C585.317 832.984 585.93 825.675 586.446 818.356C587.391 804.942 588.007 791.509 588.294 778.056C588.886 750.554 588.11 723.068 585.967 695.597C581.715 640.448 572.087 585.847 557.219 532.57C553.098 517.854 548.572 503.26 543.64 488.787C538.693 474.269 533.875 457.274 523.559 445.625C519.966 441.568 512.642 444.769 512.836 450.066L512.839 450.069Z" fill="#171717"/>
</g>
</g>
</g>
<defs>
<linearGradient id="paint0_linear_46_7735" x1="563.804" y1="449.544" x2="563.804" y2="857.819" gradientUnits="userSpaceOnUse">
<stop stop-color="#FF9A34"/>
<stop offset="1" stop-color="#EB6421"/>
</linearGradient>
<linearGradient id="paint1_linear_46_7735" x1="701.165" y1="331.437" x2="701.165" y2="476.826" gradientUnits="userSpaceOnUse">
<stop stop-color="#FF9A34"/>
<stop offset="1" stop-color="#EB6421"/>
</linearGradient>
<linearGradient id="paint2_linear_46_7735" x1="699.86" y1="176.886" x2="699.86" y2="206.016" gradientUnits="userSpaceOnUse">
<stop stop-color="#FF9A34"/>
<stop offset="1" stop-color="#EB6421"/>
</linearGradient>
<linearGradient id="paint3_linear_46_7735" x1="505.778" y1="216.942" x2="505.778" y2="271.705" gradientUnits="userSpaceOnUse">
<stop stop-color="#FF9A34"/>
<stop offset="1" stop-color="#EB6421"/>
</linearGradient>
<linearGradient id="paint4_linear_46_7735" x1="362.123" y1="445.688" x2="362.123" y2="701.257" gradientUnits="userSpaceOnUse">
<stop stop-color="#FF9A34"/>
<stop offset="1" stop-color="#EB6421"/>
</linearGradient>
<linearGradient id="paint5_linear_46_7735" x1="457.001" y1="144.493" x2="457.001" y2="166.075" gradientUnits="userSpaceOnUse">
<stop stop-color="#FF9A34"/>
<stop offset="1" stop-color="#EB6421"/>
</linearGradient>
<linearGradient id="paint6_linear_46_7735" x1="403.816" y1="456.227" x2="403.816" y2="472.807" gradientUnits="userSpaceOnUse">
<stop stop-color="#FF9A34"/>
<stop offset="1" stop-color="#EB6421"/>
</linearGradient>
<linearGradient id="paint7_linear_46_7735" x1="291.917" y1="374.354" x2="291.917" y2="538.787" gradientUnits="userSpaceOnUse">
<stop stop-color="#FF9A34"/>
<stop offset="1" stop-color="#EB6421"/>
</linearGradient>
<linearGradient id="paint8_linear_46_7735" x1="599.772" y1="39.9966" x2="599.772" y2="76.0795" gradientUnits="userSpaceOnUse">
<stop stop-color="#FF9A34"/>
<stop offset="1" stop-color="#EB6421"/>
</linearGradient>
<linearGradient id="paint9_linear_46_7735" x1="818.878" y1="214.012" x2="818.878" y2="250.426" gradientUnits="userSpaceOnUse">
<stop stop-color="#FF9A34"/>
<stop offset="1" stop-color="#EB6421"/>
</linearGradient>
<linearGradient id="paint10_linear_46_7735" x1="335.82" y1="139.099" x2="335.82" y2="175.513" gradientUnits="userSpaceOnUse">
<stop stop-color="#FF9A34"/>
<stop offset="1" stop-color="#EB6421"/>
</linearGradient>
<clipPath id="clip0_46_7735">
<rect width="960" height="960" fill="white"/>
</clipPath>
<clipPath id="clip1_46_7735">
<rect width="748" height="883" fill="white" transform="translate(106 39)"/>
</clipPath>
</defs>
</svg>
