<svg width="960" height="960" viewBox="0 0 960 960" fill="none" xmlns="http://www.w3.org/2000/svg">
<g clip-path="url(#clip0_177_156)">
<path fill-rule="evenodd" clip-rule="evenodd" d="M511.058 241.532C520.847 251.246 533.7 257.265 547.428 258.565L547.422 258.7C551.295 293.369 554.769 329.207 538.701 360.184C534.321 368.634 528.638 376.286 522.951 383.943C519.147 389.066 515.341 394.19 511.922 399.557C503.393 412.947 497.193 431.572 500.993 447L500.836 448.242C517.877 450.552 534.784 453.757 551.488 457.842L553.249 457.034C582.959 441.075 613.83 418.479 628.701 388.204C643.572 357.929 641.28 317.362 616.201 294.804C623.777 271.555 630.414 247.458 629.036 223.055C627.658 198.652 617.055 173.634 596.536 160.341C580.879 150.193 561.252 147.901 542.664 149.541C499.66 153.305 458.921 177.648 435.221 213.727C429.551 204.994 419.069 200.278 408.695 199.349C398.321 198.42 387.947 200.82 377.947 203.703C361.94 208.311 345.196 215.103 336.27 229.168C324.014 248.489 330.829 273.704 337.838 295.489C344.847 317.274 351.228 342.726 338.381 361.665C328.239 376.624 309.595 382.175 292.004 387.411C290.346 387.905 288.698 388.396 287.066 388.891C254.549 398.758 222.53 415.077 202.349 442.425C182.168 469.773 176.764 509.904 196.378 537.673L196.451 537.757C204.751 530.144 213.522 523.062 222.711 516.551C274.702 479.747 344.726 463.245 405.064 483.68L405.764 483.668C405.136 477.19 404.497 468.179 405.812 461.798C407.127 455.417 410.685 449.168 416.499 446.225C420.806 444.042 425.824 443.885 430.661 443.836C434.176 443.804 437.694 443.812 441.216 443.861V443.668C439.26 419.682 437.307 395.988 435.354 372.297C433.356 348.066 431.359 323.838 429.358 299.301V299.18C447.319 299.428 464.897 293.984 479.573 283.628C494.25 273.272 505.271 258.536 511.058 241.532ZM608.785 186.485C598.267 167.142 577.618 152.584 555.352 152.708C554.353 152.714 553.547 153.529 553.553 154.528C553.558 155.527 554.373 156.333 555.372 156.327C576.065 156.212 595.601 169.815 605.606 188.214C615.607 206.608 616.918 228.974 612.398 249.653C612.184 250.63 612.803 251.594 613.779 251.808C614.755 252.021 615.72 251.403 615.933 250.426C620.587 229.138 619.306 205.834 608.785 186.485Z" fill="#171717"/>
<path fill-rule="evenodd" clip-rule="evenodd" d="M310.31 886.387C352.052 886.962 393.797 887.533 435.545 888.1C450.045 888.289 466.716 887.492 475.98 876.571C476.257 876.247 476.523 875.921 476.788 875.571C484.424 865.571 483.133 851.615 481.468 839.13C479.912 827.393 478.296 815.499 473.736 804.57C471.495 799.122 468.396 794.068 464.556 789.6C460.674 785.055 455.787 781.477 450.281 779.15C439.367 774.703 427.063 776.232 415.363 777.687L415.239 777.702C412.066 778.1 408.894 778.474 405.721 778.848C381.825 781.562 357.699 783.139 333.876 780.139C325.752 779.135 317.715 777.518 309.834 775.302C301.523 769.183 294.116 761.922 287.834 753.734C285.007 750.042 282.305 745.35 283.934 740.995C285.852 735.869 292.669 734.565 298.011 735.784C300.162 736.275 302.25 737.043 304.332 737.81C307.42 738.947 310.497 740.08 313.753 740.296L314.175 739.705C311.883 738.079 309.627 736.366 307.432 734.605C302.776 730.863 297.89 725.459 299.519 719.705C300.665 715.664 304.888 713.095 309.073 712.624C313.258 712.153 317.437 713.372 321.437 714.662C333.622 718.549 345.561 723.165 357.191 728.486L358.819 727.931C357.444 722.889 358.795 717.003 363.379 714.723C364.583 714.141 365.892 713.809 367.227 713.746L367.179 713.191C334.187 653.154 339.724 601.429 339.724 601.429L340.206 601.465C342.812 565.627 452.149 536.785 586.649 536.785C614.957 536.785 642.149 538.064 667.457 540.416L667.795 540.524C670.091 533.097 672.391 525.675 674.695 518.257C675.37 516.082 676.142 513.769 677.952 512.382C680.215 510.648 683.38 510.898 686.215 511.248C699.532 512.852 713.199 514.562 725.045 520.862C738.004 527.943 747.623 539.879 751.788 554.047L752.294 553.902C800.883 565.714 831.788 582.648 833.115 601.514L833.296 601.502C835.382 636.025 833.272 672.348 815.382 701.948C794.948 735.748 757.855 756.773 719.52 766.291C681.208 775.808 642.415 775.157 602.957 774.457C603.816 779.013 603.436 783.716 601.857 788.076C600.947 790.529 599.652 792.821 598.021 794.868L598.95 795.326C606.079 798.221 610.482 803.408 612.424 810.863C613.28 814.254 613.423 817.785 612.843 821.234C612.264 824.683 610.975 827.974 609.058 830.899C617.514 834.634 621.664 845.152 619.758 854.199C618.879 858.184 617.128 861.924 614.631 865.152L615.162 865.574C642.594 859.82 670.622 858.461 698.672 857.101C713.14 856.399 727.613 855.697 742.014 854.392C784.338 850.556 828.041 840.593 860.514 813.186C902.952 777.372 918.32 718.396 920.214 662.896C921.312 630.315 918.284 596.527 902.795 567.842C887.57 539.652 861.282 518.59 832.395 504.742C803.508 490.894 771.915 483.681 740.395 477.915C674.4 465.84 627.946 465.406 550.455 478.168L549.49 478.132C551.073 473.032 551.398 467.782 551.727 462.471C551.804 461.225 551.881 459.975 551.975 458.723L551.481 457.842C515.378 449.001 478.383 444.311 441.215 443.862C437.689 443.809 434.17 443.801 430.66 443.837C425.823 443.886 420.805 444.043 416.498 446.226C410.684 449.169 407.114 455.418 405.811 461.799C404.508 468.18 405.135 477.191 405.763 483.669L405.063 483.681C344.725 463.246 274.701 479.752 222.71 516.552C213.521 523.062 204.75 530.145 196.45 537.758C157.982 572.932 129.248 618.578 107.716 666.358C91.1543 703.1 78.2593 744.476 89.0673 783.31C100.804 825.53 139.043 856.242 180.418 870.645C221.793 885.048 266.498 885.796 310.31 886.387ZM745.574 488.018C744.606 487.768 743.62 488.35 743.37 489.318C743.12 490.286 743.702 491.273 744.67 491.522C768.677 497.714 792.641 503.908 815.18 513.765C837.706 523.616 858.849 537.341 874.165 556.321C899.262 587.424 906.476 630.716 898.755 670.164C898.563 671.145 899.203 672.096 900.184 672.288C901.164 672.48 902.115 671.84 902.307 670.86C910.186 630.598 902.888 586.154 876.981 554.049C861.187 534.475 839.493 520.448 816.63 510.449C793.781 500.456 769.533 494.198 745.574 488.018Z" fill="url(#paint0_linear_177_156)"/>
<path d="M833.11 601.509C833.146 601.931 833.158 602.353 833.158 602.775C833.158 609.036 829.901 615.103 823.809 620.845L823.037 619.615C821.59 614.537 820.094 609.374 817.199 604.959C814.304 600.544 809.768 596.889 804.509 596.406C800.287 596.02 796.186 597.649 792.084 598.662C787.982 599.675 783.218 599.977 779.901 597.335C776.475 594.609 775.751 589.723 773.254 586.117C768.96 579.917 758.854 578.951 753.459 584.223L751.734 584.09C753.401 578.531 754.147 572.737 753.942 566.937C753.769 562.565 753.044 558.232 751.783 554.042L752.289 553.897C800.878 565.706 831.783 582.643 833.11 601.509Z" fill="#171717"/>
<path d="M796.729 636.3L797.103 637.156C772.688 647.844 737.212 656.529 694.932 662.078L694.775 660.872C698.125 653.936 701.841 647.183 705.909 640.642C709.214 635.335 712.761 630.148 716.509 625.13C719.633 620.956 723.626 616.517 728.729 616.058C729.029 616.034 729.329 616.022 729.645 616.022C738.645 616.058 744.615 628.555 753.494 627.048C761.165 625.757 765.074 614.478 772.818 615.19C776.087 615.49 778.669 617.964 780.96 620.305C786.222 625.635 791.479 630.967 796.729 636.3Z" fill="url(#paint1_linear_177_156)"/>
<path d="M677.489 613.391C671.036 617.177 664.338 620.529 657.441 623.427C652.241 621.762 647.911 617.359 643.303 614.527L644.896 614.395C648.575 602.513 652.258 590.623 655.945 578.725C659.901 565.999 663.85 553.266 667.791 540.525C670.095 533.107 672.395 525.685 674.691 518.258C675.366 516.086 676.138 513.77 677.948 512.383C680.215 510.646 683.376 510.899 686.211 511.249C699.528 512.849 713.195 514.566 725.041 520.863C738 527.945 747.618 539.88 751.784 554.048C753.044 558.238 753.769 562.571 753.943 566.943C754.147 572.743 753.402 578.537 751.735 584.096C747.997 596.857 739.81 607.855 728.659 615.096L728.732 616.061C723.632 616.52 719.632 620.961 716.512 625.133C712.761 630.151 709.212 635.333 705.912 640.645L705.719 640.525C702.173 632.642 698.629 624.763 695.089 616.889L695.125 616.877C701.626 618.011 708.309 617.441 714.524 615.223C720.739 613.006 726.274 609.216 730.589 604.223C731.457 603.339 732.063 602.231 732.338 601.023C732.451 600.418 732.347 599.793 732.045 599.257C731.743 598.721 731.262 598.309 730.686 598.092L730.786 597.851C712.438 590.611 693.616 584.634 674.453 579.962C672.475 579.479 670.328 579.033 668.47 579.853C666.27 580.818 665.177 583.231 664.284 585.453C662.596 589.639 661 593.857 659.496 598.107C658.663 600.483 657.843 603.053 658.555 605.477C659.532 608.831 663.155 610.725 666.6 611.328C670.045 611.931 673.621 611.678 677.011 612.57L677.489 613.391ZM743.026 570.327C749.431 569.603 742.664 556.442 741.205 553.197C738.017 546.174 733.546 539.809 728.02 534.428C719.128 525.923 708.186 519.864 696.259 516.84C691.159 515.513 684.847 515.055 681.47 519.12C678.297 522.956 679.66 529.048 683.026 532.727C686.392 536.406 691.217 538.3 695.752 540.351C706.891 545.369 717.306 551.861 726.717 559.651C730.24 562.57 733.617 565.67 737.381 568.276C739.057 569.446 740.987 570.556 743.026 570.327V570.327ZM738.551 587.588C747.251 582.703 726.645 567.902 722.966 565.007C713.938 557.892 703.963 552.069 693.328 547.707C689.504 546.151 685.173 544.776 681.337 546.271C676.379 548.213 674.305 553.971 672.821 559.082C671.952 562.025 671.18 565.499 673.074 567.924C674.048 569.007 675.257 569.853 676.609 570.397C686.602 575.259 696.974 579.302 707.622 582.484C715.183 584.726 722.857 586.567 730.613 588C733.279 588.493 736.186 588.9 738.551 587.588Z" fill="url(#paint2_linear_177_156)"/>
<path d="M612.025 667.034C611.434 663.104 611.669 659.095 612.715 655.261C613.762 651.427 615.597 647.854 618.103 644.77C620.609 641.685 623.731 639.158 627.269 637.349C630.807 635.539 634.684 634.488 638.652 634.262C642.619 634.037 646.59 634.641 650.311 636.037C654.032 637.433 657.42 639.59 660.26 642.37C663.1 645.15 665.328 648.492 666.803 652.182C668.278 655.872 668.966 659.83 668.825 663.801L668.946 664.995C650.864 666.708 631.817 667.866 612.07 668.409L612.025 667.034Z" fill="url(#paint3_linear_177_156)"/>
<path d="M642.122 549.7C648.588 554.815 651.022 565.128 645.982 571.642L645.62 572.197C639.975 568.567 634.326 564.936 628.672 561.305C624.897 567.36 621.049 573.512 615.681 578.217C611.35 582.017 605.825 584.803 600.144 585.129H600.132C595.668 578.277 595.668 568.952 599.396 561.654C603.22 554.188 610.542 548.832 618.576 546.431C626.465 544.066 635.657 544.6 642.122 549.7Z" fill="url(#paint4_linear_177_156)"/>
<path d="M563.146 755.9C559.166 727.577 554.895 696.672 550.891 668.071C552.724 668.143 554.582 668.216 556.427 668.264C566.331 668.602 576.403 668.769 586.645 668.764C589.129 668.764 591.59 668.752 594.051 668.727C600.117 668.691 606.125 668.587 612.073 668.414C631.82 667.871 650.867 666.714 668.949 665C677.863 664.156 686.524 663.183 694.932 662.081C737.212 656.532 772.688 647.847 797.103 637.159C808.603 632.129 817.646 626.653 823.81 620.85C829.902 615.108 833.159 609.041 833.159 602.78C833.159 602.358 833.147 601.936 833.111 601.514L833.292 601.502C835.379 636.025 833.268 672.346 815.378 701.948C794.944 735.748 757.851 756.773 719.516 766.291C681.204 775.808 642.411 775.157 602.953 774.457C601.96 768.636 599.047 763.315 594.678 759.343C590.682 755.914 585.769 753.732 580.546 753.068C575.323 752.403 570.02 753.284 565.293 755.603L563.146 755.9Z" fill="#171717"/>
<path d="M556.706 596.177C557.649 596.313 558.529 596.734 559.227 597.383C562.122 599.555 565.013 601.726 567.9 603.897L568.419 603.873C568.744 612.003 570.397 620.29 570.409 628.473C570.363 642.515 565.438 656.105 556.477 666.917L556.428 668.268C554.583 668.22 552.728 668.147 550.892 668.075C549.927 661.187 548.974 654.42 548.045 647.87L548.974 647.532C550.94 645.867 553.606 645.232 555.656 643.672C560.602 639.957 560.481 632.623 559.734 626.483C558.478 616.905 556.58 607.422 554.052 598.099L554.92 597.87C554.727 596.937 555.765 596.141 556.706 596.177Z" fill="url(#paint5_linear_177_156)"/>
<path d="M536.909 604.983L535.775 605.091C534.822 595.115 534.207 585.019 533.386 579.349C532.458 573.029 530.443 563.318 523.905 564.09C521.565 564.368 524.014 586.322 526.221 606.949L525.365 607.049C523.217 607.228 521.06 606.845 519.104 605.939L518.031 606.011C516.571 585.492 513.555 562.332 509.538 562.537C503.938 561.837 506.728 573.116 506.86 579.147C507.053 587.507 507.334 595.871 507.705 604.238L507.391 604.25C504.581 601.15 500.896 598.976 496.824 598.014L497.09 596.914C496.511 587.372 489.321 578.82 480.29 575.695C471.259 572.57 460.833 574.586 452.99 580.062C445.147 585.538 439.818 594.188 437.417 603.452L437.285 603.729C428.732 599.796 420.357 595.502 412.158 590.846C410.011 595.297 407.758 599.857 404.04 603.114C400.322 606.371 394.727 607.975 390.348 605.683C388.105 604.501 386.138 602.33 383.605 602.402C381.736 602.451 380.155 603.717 378.72 604.923C370.83 611.641 362.932 618.352 355.027 625.055L354.785 625.381C345.304 618.324 340.141 610.713 340.141 602.775C340.137 602.336 340.157 601.897 340.201 601.46C342.807 565.622 452.144 536.78 586.644 536.78C614.955 536.78 642.144 538.059 667.452 540.411L667.79 540.519C663.845 553.259 659.896 565.992 655.944 578.719L655.63 578.619C652.289 576.473 648.952 574.329 645.618 572.189L645.98 571.634C651.022 565.12 648.586 554.807 642.12 549.692C635.654 544.577 626.463 544.059 618.574 546.423C610.54 548.823 603.218 554.18 599.394 561.646C595.666 568.946 595.666 578.269 600.13 585.121C598.78 585.207 597.425 585.142 596.089 584.928C592.349 584.328 588.899 582.587 585.244 581.562C581.589 580.537 577.391 580.283 574.303 582.467C571.879 584.18 570.564 587.067 569.756 589.921C568.57 594.469 568.118 599.176 568.417 603.866L567.898 603.89C565.003 601.719 562.112 599.548 559.225 597.376C558.527 596.727 557.648 596.307 556.704 596.17C555.763 596.134 554.725 596.93 554.918 597.859L554.05 598.088C551.288 587.449 548.007 576.906 544.95 566.508C543.864 562.816 541.729 559.27 539.775 559.933C537.085 560.85 537.35 564.807 537.833 567.605C539.799 578.777 541.757 589.951 543.707 601.128L542.875 601.273C541.373 603.16 539.266 604.471 536.909 604.983Z" fill="#171717"/>
<path d="M547.572 623.1C548.296 627.213 548.272 633.124 544.183 633.993C539.383 635.018 537.198 620.181 535.775 605.093L536.909 604.985C539.266 604.476 541.376 603.169 542.88 601.285L543.712 601.14C545.004 608.459 546.29 615.779 547.572 623.1Z" fill="url(#paint6_linear_177_156)"/>
<path d="M530.684 651.231C531.517 656.515 532.354 661.803 533.193 667.094L532.385 667.227C508.067 665.803 485.16 663.415 464.207 660.218L464.46 658.618C466.064 649.124 467.664 639.639 469.26 630.162C469.634 627.962 470.032 625.686 471.323 623.862C472.879 621.667 475.472 620.497 477.764 619.085C480.661 617.288 483.208 614.978 485.279 612.27C488.6 607.988 490.637 602.851 491.154 597.457C493.06 597.375 494.969 597.562 496.823 598.012C500.895 598.974 504.58 601.148 507.39 604.248L507.704 604.236C507.971 610.606 508.296 616.975 508.681 623.343C509.103 630.509 507.306 638.036 511.274 644.019C514.688 649.133 521.431 652.499 527.113 650.955L530.684 651.231Z" fill="url(#paint7_linear_177_156)"/>
<path d="M526.221 606.949C527.162 615.755 528.067 624.307 528.521 630.849C528.606 632.14 528.678 637.149 528.027 638.268C526.591 640.717 522.55 637.701 520.827 635.445C519.104 633.189 519.018 627.713 518.957 624.878C518.837 619.559 518.523 612.936 518.029 606.012L519.102 605.94C521.058 606.846 523.215 607.228 525.363 607.05L526.221 606.949Z" fill="url(#paint8_linear_177_156)"/>
<path d="M437.416 603.451C439.816 594.187 445.148 585.538 452.989 580.061C460.83 574.584 471.252 572.582 480.289 575.694C489.326 578.806 496.514 587.371 497.089 596.913L496.823 598.013C494.969 597.563 493.061 597.376 491.154 597.458C490.637 602.852 488.6 607.989 485.279 612.271L484.362 611.583L458.852 594.03C455.674 599.216 452.066 604.126 448.068 608.71L447.568 608.276C444.118 606.816 440.68 605.309 437.279 603.728L437.416 603.451Z" fill="url(#paint9_linear_177_156)"/>
<path d="M478.419 368.661L478.177 369.313C474.758 371.742 472.149 375.145 470.691 379.078C469.232 383.011 468.992 387.292 470.001 391.364L469.928 392.401C466.099 392.246 462.378 391.086 459.138 389.037C455.899 386.989 453.256 384.125 451.474 380.732C449.692 377.339 448.834 373.537 448.986 369.707C449.138 365.878 450.295 362.156 452.341 358.915C453.607 356.864 455.369 354.934 457.709 354.343C460.652 353.595 463.74 355.175 465.909 357.286C468.078 359.397 469.673 362.051 471.784 364.234C473.657 366.163 475.919 367.672 478.419 368.661V368.661Z" fill="#171717"/>
<path d="M415.233 777.7C412.06 778.1 408.888 778.472 405.715 778.846L405.703 778.746C405.378 766.574 414.786 755.746 426.003 750.965C426.075 751.074 426.148 751.17 426.22 751.279C426.467 751.259 426.703 751.169 426.899 751.019C427.096 750.87 427.246 750.666 427.33 750.434C438.295 746.176 450.514 746.381 462.263 747.434C485.317 749.491 508.021 754.439 529.839 762.162L530.201 764.117C528.585 764.406 526.992 764.78 525.412 765.166C504.138 770.376 483.703 778.559 464.712 789.473L464.555 789.605C460.672 785.057 455.782 781.476 450.273 779.147C439.322 774.682 426.97 776.238 415.233 777.7Z" fill="url(#paint10_linear_177_156)"/>
<path d="M367.176 713.186C334.184 653.149 339.721 601.424 339.721 601.424L340.203 601.46C340.159 601.897 340.139 602.336 340.143 602.775C340.143 610.713 345.306 618.324 354.787 625.381C367.308 634.681 387.357 643.005 413.026 649.808C429.887 654.197 446.973 657.672 464.209 660.218C485.162 663.418 508.069 665.803 532.387 667.227L533.195 667.094C538.479 700.446 543.754 733.788 549.022 767.118L548.822 767.36C547.196 765.933 545.283 764.872 543.213 764.247C539.013 762.993 534.576 763.294 530.213 764.115L529.851 762.16C508.032 754.437 485.328 749.489 462.275 747.432C450.526 746.382 438.307 746.177 427.342 750.432C426.932 750.577 426.534 750.746 426.135 750.915C426.099 750.927 426.051 750.951 426.015 750.963C413.627 733.232 395.412 720.409 374.543 714.727C372.177 713.999 369.707 713.665 367.233 713.738L367.176 713.186Z" fill="#171717"/>
<path d="M553.242 457.033C582.952 441.074 613.822 418.481 628.695 388.203C643.568 357.925 641.277 317.359 616.195 294.803C623.771 271.558 630.405 247.457 629.03 223.054C627.655 198.651 617.052 173.633 596.53 160.34C580.873 150.195 561.246 147.903 542.658 149.54C499.658 153.304 458.918 177.647 435.215 213.726C429.545 204.993 419.051 200.276 408.689 199.348C398.327 198.42 387.941 200.819 377.941 203.702C361.934 208.31 345.19 215.102 336.264 229.167C324.008 248.491 330.824 273.702 337.832 295.488C344.84 317.274 351.222 342.725 338.375 361.664C327.275 378.033 305.999 383.136 287.06 388.89C254.539 398.757 222.536 415.078 202.343 442.424C182.15 469.77 176.758 509.903 196.372 537.672" stroke="#171717" stroke-width="3.619" stroke-linecap="round" stroke-linejoin="round"/>
<path d="M407.982 296.249C414.952 298.139 422.136 299.124 429.357 299.18C447.318 299.428 464.896 293.984 479.572 283.628C494.249 273.272 505.27 258.537 511.057 241.532C520.846 251.246 533.699 257.265 547.427 258.565C556.854 259.574 566.384 258.257 575.183 254.729" stroke="#171717" stroke-width="3.619" stroke-linecap="round" stroke-linejoin="round"/>
<path d="M429.357 299.3C433.314 347.828 437.257 395.15 441.215 443.667" stroke="#171717" stroke-width="3.619" stroke-linecap="round" stroke-linejoin="round"/>
<path d="M547.415 258.7C551.288 293.369 554.762 329.207 538.694 360.184C531.384 374.284 520.443 386.155 511.915 399.557C503.387 412.959 497.186 431.569 500.986 447" stroke="#171717" stroke-width="3.619" stroke-linecap="round" stroke-linejoin="round"/>
<path d="M456.006 295.368C456.982 298.616 459.163 301.368 462.104 303.059C465.044 304.751 468.52 305.253 471.818 304.463C475.117 303.673 477.988 301.651 479.843 298.811C481.699 295.972 482.397 292.53 481.796 289.192" stroke="#171717" stroke-width="3.619" stroke-linecap="round" stroke-linejoin="round"/>
<path d="M508.405 289.337C507.975 291.078 507.947 292.894 508.323 294.648C508.7 296.401 509.47 298.046 510.577 299.457C511.683 300.869 513.096 302.01 514.709 302.794C516.322 303.578 518.093 303.984 519.886 303.982C521.679 303.98 523.449 303.57 525.06 302.783C526.671 301.995 528.082 300.851 529.186 299.438C530.289 298.024 531.056 296.378 531.429 294.623C531.801 292.869 531.77 291.053 531.336 289.313" stroke="#171717" stroke-width="3.619" stroke-linecap="round" stroke-linejoin="round"/>
<path d="M505.232 275.971C514.677 268.263 529.707 268.565 538.839 276.635" stroke="#171717" stroke-width="3.619" stroke-linecap="round" stroke-linejoin="round"/>
<path d="M504.557 323.884C506.455 325.926 507.971 328.292 509.033 330.869C509.933 333.498 509.769 336.683 507.875 338.722C505.981 340.761 502.181 340.941 500.613 338.649" stroke="#171717" stroke-width="3.619" stroke-linecap="round" stroke-linejoin="round"/>
<path d="M495.8 367.769C493.148 369.19 490.214 370.007 487.209 370.162C484.204 370.316 481.202 369.803 478.418 368.661C475.918 367.672 473.656 366.163 471.783 364.234C469.672 362.051 468.092 359.397 465.908 357.286C463.724 355.175 460.649 353.595 457.708 354.343C455.368 354.934 453.608 356.864 452.34 358.915C450.295 362.155 449.138 365.877 448.986 369.706C448.834 373.536 449.692 377.337 451.473 380.73C453.255 384.123 455.898 386.987 459.137 389.036C462.376 391.084 466.096 392.244 469.925 392.4C473.45 392.643 476.98 392.013 480.203 390.566" stroke="#171717" stroke-width="3.619" stroke-linecap="round" stroke-linejoin="round"/>
<path d="M470 391.364C468.991 387.292 469.232 383.011 470.69 379.078C472.149 375.145 474.758 371.742 478.178 369.313" stroke="#171717" stroke-width="3.619" stroke-linecap="round" stroke-linejoin="round"/>
<path d="M551.482 457.841C515.378 449 478.383 444.31 441.216 443.861C437.694 443.812 434.175 443.804 430.661 443.836C425.824 443.885 420.806 444.042 416.499 446.225C410.685 449.168 407.127 455.417 405.812 461.798C404.497 468.179 405.136 477.19 405.764 483.668" stroke="#171717" stroke-width="3.619" stroke-linecap="round" stroke-linejoin="round"/>
<path d="M405.064 483.68C344.726 463.245 274.702 479.747 222.711 516.551C213.522 523.062 204.751 530.144 196.451 537.757C157.983 572.932 129.251 618.578 107.717 666.357C91.1553 703.1 78.2603 744.476 89.0683 783.306C100.805 825.526 139.032 856.226 180.419 870.641C221.806 885.056 266.499 885.792 310.311 886.383C352.049 886.95 393.794 887.521 435.546 888.096C450.046 888.289 466.717 887.496 475.981 876.576C476.258 876.25 476.524 875.924 476.789 875.576C484.425 865.576 483.134 851.62 481.469 839.135C479.913 827.398 478.297 815.504 473.737 804.575C471.496 799.127 468.397 794.073 464.557 789.605C460.674 785.057 455.784 781.476 450.275 779.147C439.322 774.684 426.975 776.24 415.233 777.699C412.06 778.099 408.888 778.471 405.715 778.845C381.815 781.559 357.693 783.145 333.87 780.136C325.746 779.132 317.709 777.515 309.828 775.299C291.409 770.124 274.038 761.499 260.009 748.599C235.739 726.299 223.423 691.687 228.14 659.081C232.857 626.475 254.472 596.765 284.05 582.254" stroke="#171717" stroke-width="3.619" stroke-linecap="round" stroke-linejoin="round"/>
<path d="M405.7 778.747C405.375 766.575 414.783 755.747 426 750.966C426.036 750.954 426.084 750.93 426.12 750.918C426.52 750.749 426.92 750.58 427.327 750.435C438.292 746.177 450.511 746.382 462.26 747.435C485.313 749.492 508.017 754.44 529.836 762.163" stroke="#171717" stroke-width="3.619" stroke-linecap="round" stroke-linejoin="round"/>
<path d="M464.715 789.471C483.706 778.557 504.14 770.374 525.415 765.164C526.995 764.778 528.588 764.404 530.204 764.115C534.571 763.294 539.01 762.993 543.204 764.247C545.274 764.872 547.187 765.934 548.813 767.36C551.792 769.941 553.698 773.632 553.107 777.48" stroke="#171717" stroke-width="3.619" stroke-linecap="round" stroke-linejoin="round"/>
<path d="M510.385 793.729C525.37 791.429 539.867 786.647 553.28 779.579C557.543 777.343 561.682 774.879 565.68 772.197C567.393 771.051 569.082 769.865 570.747 768.638" stroke="#171717" stroke-width="3.619" stroke-linecap="round" stroke-linejoin="round"/>
<path d="M565.293 755.6C570.02 753.281 575.323 752.4 580.546 753.065C585.769 753.729 590.682 755.911 594.678 759.34C599.047 763.312 601.961 768.633 602.953 774.454C603.812 779.01 603.432 783.714 601.853 788.073C600.942 790.526 599.647 792.818 598.017 794.865C595.587 797.966 592.506 800.497 588.992 802.279C585.479 804.06 581.617 805.05 577.679 805.178" stroke="#171717" stroke-width="3.619" stroke-linecap="round" stroke-linejoin="round"/>
<path d="M598.949 795.321C606.078 798.216 610.481 803.403 612.423 810.858C613.279 814.249 613.422 817.781 612.842 821.229C612.263 824.678 610.974 827.969 609.057 830.894C608.657 831.486 608.236 832.065 607.792 832.631C601.292 840.773 590.541 843.958 580.48 846.708C581.28 846.552 582.061 846.395 582.857 846.238" stroke="#171717" stroke-width="3.619" stroke-linecap="round" stroke-linejoin="round"/>
<path d="M609.022 830.882C609.034 830.882 609.046 830.894 609.058 830.894C617.514 834.634 621.664 845.152 619.758 854.194C618.878 858.179 617.127 861.919 614.631 865.147C611.433 869.26 607.421 872.668 602.846 875.159C594.752 879.635 585.5 881.565 576.346 882.964C544.102 887.922 508.216 887.053 477.057 877.364" stroke="#171717" stroke-width="3.619" stroke-linecap="round" stroke-linejoin="round"/>
<path d="M427.175 749.036C427.329 749.232 427.426 749.466 427.453 749.714C427.481 749.961 427.439 750.211 427.332 750.436C427.247 750.669 427.098 750.872 426.901 751.022C426.704 751.171 426.469 751.262 426.222 751.281C426.15 751.172 426.077 751.081 426.005 750.967C413.618 733.236 395.403 720.413 374.533 714.731C372.167 714.003 369.697 713.669 367.223 713.742C365.888 713.805 364.579 714.137 363.375 714.719C358.791 716.999 357.44 722.885 358.815 727.927C359.145 729.161 359.653 730.34 360.323 731.427C363.677 736.855 369.66 739.955 375.365 742.814" stroke="#171717" stroke-width="3.619" stroke-linecap="round" stroke-linejoin="round"/>
<path d="M357.187 728.481C345.557 723.16 333.618 718.544 321.433 714.657C317.433 713.367 313.254 712.148 309.069 712.619C304.884 713.09 300.661 715.659 299.515 719.7C297.886 725.454 302.772 730.858 307.428 734.6C309.623 736.361 311.879 738.074 314.171 739.7C326.502 748.522 340.082 755.45 354.461 760.255C354.533 759.784 354.593 759.326 354.654 758.855" stroke="#171717" stroke-width="3.619" stroke-linecap="round" stroke-linejoin="round"/>
<path d="M313.749 740.291C308.297 739.929 303.349 736.998 298.007 735.779C292.665 734.56 285.848 735.864 283.93 740.99C282.301 745.345 285.003 750.037 287.83 753.729C294.112 761.918 301.518 769.179 309.83 775.297C310.265 775.623 310.699 775.948 311.145 776.262" stroke="#171717" stroke-width="3.619" stroke-linecap="round" stroke-linejoin="round"/>
<path d="M602.881 774.452H602.953C642.411 775.152 681.204 775.803 719.516 766.286C757.851 756.768 794.944 735.743 815.378 701.943C833.268 672.343 835.378 636.02 833.292 601.497" stroke="#171717" stroke-width="3.619" stroke-linecap="round" stroke-linejoin="round"/>
<path d="M615.16 865.574C656.74 856.853 699.696 858.216 742.012 854.392C784.328 850.568 828.043 840.592 860.512 813.186C902.949 777.372 918.312 718.397 920.212 662.896C921.312 630.315 918.282 596.527 902.793 567.842C887.57 539.651 861.293 518.589 832.393 504.742C803.493 490.895 771.91 483.681 740.393 477.915C674.398 465.84 627.944 465.406 550.453 478.168" stroke="#171717" stroke-width="3.619" stroke-linecap="round" stroke-linejoin="round"/>
<path d="M549.49 478.131C551.444 471.831 551.481 465.308 551.975 458.722" stroke="#171717" stroke-width="3.619" stroke-linecap="round" stroke-linejoin="round"/>
<path d="M752.29 553.9C800.879 565.709 831.784 582.646 833.111 601.512C833.147 601.934 833.159 602.356 833.159 602.778C833.159 609.039 829.902 615.106 823.81 620.848C817.646 626.648 808.599 632.127 797.103 637.157C772.688 647.845 737.212 656.53 694.932 662.079C686.524 663.175 677.863 664.149 668.949 665C650.867 666.713 631.82 667.871 612.073 668.414C606.126 668.583 600.118 668.687 594.051 668.727C591.59 668.752 589.129 668.764 586.645 668.764C576.415 668.764 566.342 668.597 556.427 668.264C554.582 668.216 552.727 668.143 550.891 668.071H550.83" stroke="#171717" stroke-width="3.619" stroke-linecap="round" stroke-linejoin="round"/>
<path d="M532.385 667.227C508.067 665.803 485.16 663.415 464.207 660.218C446.971 657.672 429.885 654.197 413.024 649.808C387.355 643.008 367.306 634.681 354.785 625.381C345.304 618.324 340.141 610.713 340.141 602.775C340.137 602.336 340.157 601.897 340.201 601.46C342.807 565.622 452.144 536.78 586.644 536.78C614.955 536.78 642.144 538.059 667.452 540.411" stroke="#171717" stroke-width="3.619" stroke-linecap="round" stroke-linejoin="round"/>
<path d="M367.176 713.186C334.184 653.149 339.721 601.424 339.721 601.424" stroke="#171717" stroke-width="3.619" stroke-linecap="round" stroke-linejoin="round"/>
<path d="M565.282 771.039C564.583 766.093 563.872 761.047 563.147 755.9C559.167 727.577 554.896 696.672 550.892 668.071C549.927 661.183 548.974 654.416 548.045 647.866" stroke="#171717" stroke-width="3.619" stroke-linecap="round" stroke-linejoin="round"/>
<path d="M549.022 767.118C543.75 733.777 538.474 700.436 533.195 667.094C532.363 661.81 531.526 656.522 530.686 651.231C531.133 653.716 531.567 656.201 532.013 658.686" stroke="#171717" stroke-width="3.619" stroke-linecap="round" stroke-linejoin="round"/>
<path d="M548.973 647.528C550.939 645.863 553.605 645.228 555.655 643.668C560.601 639.953 560.48 632.619 559.733 626.479C558.477 616.901 556.579 607.418 554.051 598.095C551.289 587.456 548.008 576.913 544.951 566.515C543.865 562.823 541.73 559.277 539.776 559.94C537.086 560.857 537.351 564.814 537.834 567.612C539.8 578.783 541.758 589.957 543.708 601.135C544.999 608.457 546.286 615.779 547.568 623.101C548.292 627.214 548.268 633.125 544.179 633.994C539.379 635.019 537.194 620.182 535.771 605.094C534.818 595.118 534.203 585.022 533.382 579.352C532.454 573.032 530.439 563.321 523.901 564.093C521.561 564.371 524.01 586.325 526.217 606.952C527.158 615.758 528.063 624.31 528.517 630.852C528.602 632.143 528.674 637.152 528.023 638.271C526.587 640.72 522.546 637.704 520.823 635.448C519.1 633.192 519.014 627.716 518.953 624.881C518.833 619.562 518.519 612.939 518.025 606.015C516.565 585.496 513.549 562.336 509.532 562.541C503.932 561.841 506.722 573.12 506.854 579.151C507.046 587.511 507.328 595.874 507.699 604.242C507.965 610.611 508.291 616.98 508.676 623.349C509.098 630.515 507.301 638.042 511.269 644.025C514.683 649.139 521.426 652.505 527.108 650.961C528.074 650.693 528.996 650.287 529.846 649.755" stroke="#171717" stroke-width="3.619" stroke-linecap="round" stroke-linejoin="round"/>
<path d="M796.728 636.3C791.481 630.967 786.226 625.633 780.962 620.3C778.671 617.959 776.089 615.486 772.82 615.185C765.076 614.473 761.167 625.752 753.496 627.043C744.617 628.55 738.646 616.053 729.647 616.017C729.334 616.017 729.032 616.029 728.731 616.053C723.631 616.512 719.631 620.953 716.511 625.125C712.76 630.143 709.211 635.325 705.911 640.637C701.843 647.178 698.126 653.931 694.777 660.867" stroke="#171717" stroke-width="3.619" stroke-linecap="round" stroke-linejoin="round"/>
<path d="M705.716 640.52C702.172 632.64 698.63 624.763 695.089 616.889C693.364 613.041 691.635 609.193 689.902 605.345C685.885 608.204 681.747 610.886 677.489 613.391C671.036 617.177 664.339 620.529 657.441 623.427C652.241 621.762 647.911 617.359 643.303 614.527C640.493 612.802 637.573 611.669 634.28 612.079C631.385 612.441 628.804 614.021 626.319 615.553C615.378 622.353 604.437 629.153 593.496 635.953C594.391 645.961 594.569 656.02 594.027 666.053" stroke="#171717" stroke-width="3.619" stroke-linecap="round" stroke-linejoin="round"/>
<path d="M728.659 615.091C739.811 607.85 747.998 596.851 751.735 584.091C753.402 578.532 754.148 572.738 753.943 566.938C753.77 562.566 753.045 558.233 751.784 554.043C747.619 539.875 738.001 527.94 725.042 520.858C713.196 514.558 699.528 512.848 686.211 511.244C683.376 510.894 680.211 510.644 677.948 512.378C676.138 513.765 675.366 516.078 674.691 518.253C672.387 525.671 670.088 533.093 667.792 540.52C663.846 553.259 659.897 565.993 655.945 578.72C652.266 590.614 648.583 602.504 644.896 614.39" stroke="#171717" stroke-width="3.619" stroke-linecap="round" stroke-linejoin="round"/>
<path d="M728.021 534.428C719.129 525.923 708.187 519.864 696.26 516.84C691.16 515.513 684.848 515.055 681.471 519.12C678.298 522.956 679.661 529.048 683.027 532.727C686.393 536.406 691.218 538.3 695.753 540.351C706.892 545.369 717.307 551.861 726.718 559.651C730.241 562.57 733.618 565.67 737.382 568.276C739.058 569.446 740.988 570.556 743.027 570.327C749.432 569.603 742.665 556.442 741.206 553.197C738.018 546.174 733.546 539.809 728.021 534.428V534.428Z" stroke="#171717" stroke-width="3.619" stroke-linecap="round" stroke-linejoin="round"/>
<path d="M693.328 547.709C689.504 546.153 685.173 544.778 681.337 546.273C676.379 548.215 674.305 553.973 672.821 559.084C671.952 562.027 671.18 565.501 673.074 567.926C674.048 569.009 675.258 569.855 676.609 570.399C686.602 575.261 696.974 579.304 707.622 582.486C715.183 584.727 722.858 586.568 730.613 588C733.279 588.5 736.186 588.9 738.551 587.59C747.251 582.705 726.645 567.904 722.966 565.009C713.938 557.893 703.963 552.071 693.328 547.709V547.709Z" stroke="#171717" stroke-width="3.619" stroke-linecap="round" stroke-linejoin="round"/>
<path d="M731.168 598C731.036 597.952 730.915 597.9 730.782 597.856C712.434 590.616 693.612 584.639 674.449 579.967C672.471 579.484 670.324 579.038 668.466 579.858C666.266 580.823 665.173 583.236 664.28 585.458C662.592 589.644 660.996 593.862 659.492 598.112C658.659 600.488 657.839 603.058 658.551 605.482C659.528 608.836 663.151 610.73 666.596 611.333C670.041 611.936 673.617 611.683 677.007 612.575" stroke="#171717" stroke-width="3.619" stroke-linecap="round" stroke-linejoin="round"/>
<path d="M695.125 616.877C701.626 618.01 708.309 617.441 714.524 615.223C720.739 613.005 726.274 609.216 730.589 604.223C731.457 603.339 732.063 602.231 732.338 601.023C732.451 600.418 732.347 599.793 732.045 599.257C731.743 598.721 731.262 598.308 730.686 598.092" stroke="#171717" stroke-width="3.619" stroke-linecap="round" stroke-linejoin="round"/>
<path d="M823.039 619.615C821.592 614.537 820.096 609.374 817.201 604.959C814.306 600.544 809.77 596.889 804.511 596.406C800.289 596.02 796.188 597.649 792.086 598.662C787.984 599.675 783.22 599.977 779.903 597.335C776.477 594.609 775.753 589.723 773.256 586.117C768.962 579.917 758.856 578.951 753.461 584.223C753.992 583.849 754.511 583.475 755.042 583.101" stroke="#171717" stroke-width="3.619" stroke-linecap="round" stroke-linejoin="round"/>
<path d="M600.132 585.128C598.782 585.214 597.426 585.149 596.091 584.935C592.351 584.335 588.901 582.594 585.246 581.569C581.591 580.544 577.393 580.29 574.305 582.474C571.881 584.187 570.566 587.074 569.758 589.928C568.571 594.475 568.119 599.183 568.419 603.873C568.744 612.003 570.397 620.29 570.409 628.473C570.362 642.516 565.437 656.105 556.477 666.917" stroke="#171717" stroke-width="3.619" stroke-linecap="round" stroke-linejoin="round"/>
<path d="M655.631 578.626C652.29 576.479 648.953 574.336 645.619 572.196C639.974 568.566 634.325 564.935 628.671 561.304C624.896 567.359 621.048 573.511 615.68 578.216C611.349 582.016 605.824 584.802 600.143 585.128" stroke="#171717" stroke-width="3.619" stroke-linecap="round" stroke-linejoin="round"/>
<path d="M567.9 603.9C565.005 601.729 562.114 599.557 559.227 597.386C558.529 596.737 557.649 596.316 556.706 596.18C555.765 596.144 554.727 596.94 554.92 597.869" stroke="#171717" stroke-width="3.619" stroke-linecap="round" stroke-linejoin="round"/>
<path d="M542.881 601.28C541.376 603.165 539.267 604.471 536.91 604.98C536.874 604.57 536.837 604.172 536.801 603.761" stroke="#171717" stroke-width="3.619" stroke-linecap="round" stroke-linejoin="round"/>
<path d="M525.366 607.046C523.219 607.224 521.061 606.842 519.105 605.936" stroke="#171717" stroke-width="3.619" stroke-linecap="round" stroke-linejoin="round"/>
<path d="M507.393 604.247C504.583 601.147 500.898 598.973 496.826 598.011C494.972 597.561 493.063 597.374 491.157 597.456C490.64 602.85 488.603 607.987 485.282 612.269C483.21 614.977 480.664 617.287 477.767 619.084C475.475 620.496 472.882 621.666 471.326 623.861C470.035 625.682 469.637 627.961 469.263 630.161C467.671 639.642 466.071 649.127 464.463 658.617" stroke="#171717" stroke-width="3.619" stroke-linecap="round" stroke-linejoin="round"/>
<path d="M484.363 611.581L458.851 594.03C455.673 599.216 452.065 604.127 448.067 608.71C447.041 609.892 445.991 611.05 444.918 612.184C442.892 614.319 440.407 616.515 437.476 616.384C433.133 616.184 429.092 610.956 425.365 613.163C423.808 614.092 423.181 615.974 422.665 617.699C419.517 628.121 416.377 638.548 413.244 648.978" stroke="#171717" stroke-width="3.619" stroke-linecap="round" stroke-linejoin="round"/>
<path d="M447.572 608.276C444.122 606.816 440.684 605.309 437.283 603.728C428.731 599.795 420.355 595.501 412.156 590.845C410.009 595.296 407.756 599.856 404.038 603.113C400.32 606.37 394.725 607.974 390.346 605.682C388.103 604.5 386.136 602.329 383.603 602.401C381.734 602.45 380.153 603.716 378.718 604.922C370.83 611.641 362.933 618.352 355.027 625.055" stroke="#171717" stroke-width="3.619" stroke-linecap="round" stroke-linejoin="round"/>
<path d="M497.091 596.913C496.512 587.371 489.322 578.819 480.291 575.694C471.26 572.569 460.834 574.585 452.991 580.061C445.148 585.537 439.819 594.187 437.418 603.451L439.336 601.641" stroke="#171717" stroke-width="3.619" stroke-linecap="round" stroke-linejoin="round"/>
<path d="M600.444 585.6C600.336 585.449 600.235 585.292 600.144 585.13H600.132C595.668 578.278 595.668 568.953 599.396 561.655C603.22 554.189 610.542 548.833 618.576 546.432C626.465 544.068 635.657 544.599 642.122 549.701C648.587 554.803 651.022 565.129 645.982 571.643" stroke="#171717" stroke-width="3.619" stroke-linecap="round" stroke-linejoin="round"/>
<path d="M668.829 663.8C668.97 659.829 668.282 655.871 666.807 652.181C665.332 648.491 663.103 645.149 660.264 642.369C657.424 639.589 654.035 637.432 650.315 636.036C646.594 634.64 642.623 634.036 638.655 634.261C634.688 634.487 630.811 635.538 627.273 637.348C623.735 639.157 620.613 641.684 618.107 644.769C615.601 647.853 613.766 651.426 612.719 655.26C611.673 659.094 611.438 663.104 612.029 667.033C612.234 666.659 612.429 666.297 612.629 665.923" stroke="#171717" stroke-width="3.619" stroke-linecap="round" stroke-linejoin="round"/>
<path d="M533.281 479.9L536.125 462.871" stroke="#171717" stroke-width="3.619" stroke-linecap="round" stroke-linejoin="round"/>
<path d="M512.838 478.76L515.545 461.142" stroke="#171717" stroke-width="3.619" stroke-linecap="round" stroke-linejoin="round"/>
<path d="M493.172 476.494L494.45 459.433" stroke="#171717" stroke-width="3.619" stroke-linecap="round" stroke-linejoin="round"/>
<path d="M471.488 477.653C472.972 470.921 473.784 464.058 473.912 457.166" stroke="#171717" stroke-width="3.619" stroke-linecap="round" stroke-linejoin="round"/>
<path d="M448.463 478.164L450.153 457.727" stroke="#171717" stroke-width="3.619" stroke-linecap="round" stroke-linejoin="round"/>
<path d="M424.246 477.04L424.792 458.307" stroke="#171717" stroke-width="3.619" stroke-linecap="round" stroke-linejoin="round"/>
<path d="M471.91 749.543C464.167 759.272 458.943 770.759 456.699 782.989" stroke="#171717" stroke-width="3.619" stroke-linecap="round" stroke-linejoin="round"/>
<path d="M413.74 778.554C422.799 814.068 426.679 850.705 425.26 887.328" stroke="#171717" stroke-width="3.619" stroke-linecap="round" stroke-linejoin="round"/>
<path d="M650.801 840.469L665.182 823.682" stroke="#171717" stroke-width="3.619" stroke-linecap="round" stroke-linejoin="round"/>
<path d="M721.073 800.521C713.565 797.602 706.29 794.118 699.309 790.1" stroke="#171717" stroke-width="3.619" stroke-linecap="round" stroke-linejoin="round"/>
<path d="M769.246 824.782L780.246 807.723" stroke="#171717" stroke-width="3.619" stroke-linecap="round" stroke-linejoin="round"/>
<path d="M783.654 755.29C789.564 757.465 794.888 760.985 799.204 765.57" stroke="#171717" stroke-width="3.619" stroke-linecap="round" stroke-linejoin="round"/>
<path d="M853.874 783.005L842.52 776.761" stroke="#171717" stroke-width="3.619" stroke-linecap="round" stroke-linejoin="round"/>
<path d="M839.832 734.2L842.102 708.088" stroke="#171717" stroke-width="3.619" stroke-linecap="round" stroke-linejoin="round"/>
<path d="M874.346 710.507C881.588 708.825 889.06 708.366 896.454 709.148" stroke="#171717" stroke-width="3.619" stroke-linecap="round" stroke-linejoin="round"/>
<path d="M873.341 673.533L866.432 656.389" stroke="#171717" stroke-width="3.619" stroke-linecap="round" stroke-linejoin="round"/>
<path d="M882.717 623.338L896.492 613.909" stroke="#171717" stroke-width="3.619" stroke-linecap="round" stroke-linejoin="round"/>
<path d="M864.328 593.149C861.242 589.862 858.709 586.097 856.828 581.999" stroke="#171717" stroke-width="3.619" stroke-linecap="round" stroke-linejoin="round"/>
<path d="M839.168 549.188L848.809 540.095" stroke="#171717" stroke-width="3.619" stroke-linecap="round" stroke-linejoin="round"/>
<path d="M791.41 549.718C787.196 545.631 784.083 540.547 782.357 534.936" stroke="#171717" stroke-width="3.619" stroke-linecap="round" stroke-linejoin="round"/>
<path d="M749.473 508.333L761.873 500.254" stroke="#171717" stroke-width="3.619" stroke-linecap="round" stroke-linejoin="round"/>
<path d="M698.235 499.277L685.912 487.187" stroke="#171717" stroke-width="3.619" stroke-linecap="round" stroke-linejoin="round"/>
<path d="M622.779 517.287L636.107 503.356" stroke="#171717" stroke-width="3.619" stroke-linecap="round" stroke-linejoin="round"/>
<path d="M593.349 503.111L580.869 492.311" stroke="#171717" stroke-width="3.619" stroke-linecap="round" stroke-linejoin="round"/>
<path d="M535.301 524.047L545.513 512.688" stroke="#171717" stroke-width="3.619" stroke-linecap="round" stroke-linejoin="round"/>
<path d="M502.93 511.944C498.295 509.792 494.356 506.385 491.559 502.11" stroke="#171717" stroke-width="3.619" stroke-linecap="round" stroke-linejoin="round"/>
<path d="M449.982 530.965L463.606 518.193" stroke="#171717" stroke-width="3.619" stroke-linecap="round" stroke-linejoin="round"/>
<path d="M417.1 520.734L406.82 511.1" stroke="#171717" stroke-width="3.619" stroke-linecap="round" stroke-linejoin="round"/>
<path d="M367.389 556.51L379.31 542.886" stroke="#171717" stroke-width="3.619" stroke-linecap="round" stroke-linejoin="round"/>
<path d="M345.538 517.14L328.174 502.069" stroke="#171717" stroke-width="3.619" stroke-linecap="round" stroke-linejoin="round"/>
<path d="M327.363 560.763L316.295 581.2" stroke="#171717" stroke-width="3.619" stroke-linecap="round" stroke-linejoin="round"/>
<path d="M302.676 627.183L283.014 615.17L285.646 616.114" stroke="#171717" stroke-width="3.619" stroke-linecap="round" stroke-linejoin="round"/>
<path d="M266.912 676.569C268.997 671.396 272.195 666.745 276.279 662.946" stroke="#171717" stroke-width="3.619" stroke-linecap="round" stroke-linejoin="round"/>
<path d="M325.437 690.506L310.188 679.33" stroke="#171717" stroke-width="3.619" stroke-linecap="round" stroke-linejoin="round"/>
<path d="M270.208 535.927C263.747 540.848 258.315 546.989 254.217 554" stroke="#171717" stroke-width="3.619" stroke-linecap="round" stroke-linejoin="round"/>
<path d="M215.192 615.028L198.792 598.24" stroke="#171717" stroke-width="3.619" stroke-linecap="round" stroke-linejoin="round"/>
<path d="M149.367 660.365L159.723 644.276" stroke="#171717" stroke-width="3.619" stroke-linecap="round" stroke-linejoin="round"/>
<path d="M194.441 703.047L180.762 686.916" stroke="#171717" stroke-width="3.619" stroke-linecap="round" stroke-linejoin="round"/>
<path d="M129.729 753.133L142.423 736.045" stroke="#171717" stroke-width="3.619" stroke-linecap="round" stroke-linejoin="round"/>
<path d="M215.876 761.764L229.521 746.457" stroke="#171717" stroke-width="3.619" stroke-linecap="round" stroke-linejoin="round"/>
<path d="M184.2 806.116L167.142 789.116" stroke="#171717" stroke-width="3.619" stroke-linecap="round" stroke-linejoin="round"/>
<path d="M209.667 857.732L231.767 836.408" stroke="#171717" stroke-width="3.619" stroke-linecap="round" stroke-linejoin="round"/>
<path d="M271.019 812.936L260.844 800.757L262.435 799.033" stroke="#171717" stroke-width="3.619" stroke-linecap="round" stroke-linejoin="round"/>
<path d="M294.283 859.8L311.057 846.7" stroke="#171717" stroke-width="3.619" stroke-linecap="round" stroke-linejoin="round"/>
<path d="M362.351 826.308C357.104 823.275 352.928 818.687 350.4 813.177" stroke="#171717" stroke-width="3.619" stroke-linecap="round" stroke-linejoin="round"/>
<path d="M381.732 862.927L396.651 846.3" stroke="#171717" stroke-width="3.619" stroke-linecap="round" stroke-linejoin="round"/>
<path d="M130.513 464.571C134.43 475.305 135.998 486.754 135.111 498.146C134.225 509.537 130.904 520.606 125.373 530.604C122.029 536.554 117.687 542.257 111.604 545.353C105.521 548.449 97.3997 548.3 92.5157 543.526C87.6317 538.752 88.0827 529.153 94.1767 526.078C98.4767 523.91 104.031 525.578 107.252 529.151C110.473 532.724 111.63 537.782 111.443 542.59C110.894 556.635 100.311 568.134 89.4267 577.028C78.5427 585.922 66.2827 594.128 59.9137 606.653C53.5447 619.178 56.3067 637.774 69.4427 642.773" stroke="#171717" stroke-width="3.619" stroke-linecap="round" stroke-linejoin="round"/>
<path d="M712.984 241.579C701.654 259.94 695.655 281.091 695.658 302.667C695.658 310.252 696.48 318.142 700.433 324.616C704.386 331.09 712.185 335.716 719.555 333.927C726.925 332.138 731.742 322.358 727.201 316.283C723.239 310.983 714.416 311.305 709.645 315.893C704.874 320.481 703.752 327.893 705.145 334.362C706.538 340.831 710.062 346.614 713.527 352.254L727.233 374.554C731.726 381.866 736.121 391.707 730.675 398.34C726.875 402.964 719.66 403.424 714.175 401.026C708.69 398.628 704.537 394.026 700.561 389.551" stroke="#171717" stroke-width="3.619" stroke-linecap="round" stroke-linejoin="round"/>
<path d="M292.312 293.591L275.33 280.756" stroke="#171717" stroke-width="3.619" stroke-linecap="round" stroke-linejoin="round"/>
<path d="M278.5 297.511L288.1 275.474" stroke="#171717" stroke-width="3.619" stroke-linecap="round" stroke-linejoin="round"/>
<path d="M252.771 343.932C245.497 340.64 238.81 336.183 232.971 330.738" stroke="#171717" stroke-width="3.619" stroke-linecap="round" stroke-linejoin="round"/>
<path d="M236.254 350.446L247.884 326.881" stroke="#171717" stroke-width="3.619" stroke-linecap="round" stroke-linejoin="round"/>
<path d="M233.612 272.461L223.439 269.74" stroke="#171717" stroke-width="3.619" stroke-linecap="round" stroke-linejoin="round"/>
<path d="M226.809 277.2L231.016 262.71" stroke="#171717" stroke-width="3.619" stroke-linecap="round" stroke-linejoin="round"/>
<path d="M91.5186 490.968L107.577 482.233" stroke="#171717" stroke-width="3.619" stroke-linecap="round" stroke-linejoin="round"/>
<path d="M102.668 496.006L92.4307 476.432" stroke="#171717" stroke-width="3.619" stroke-linecap="round" stroke-linejoin="round"/>
<path d="M40.417 672.312L52.338 663.8" stroke="#171717" stroke-width="3.619" stroke-linecap="round" stroke-linejoin="round"/>
<path d="M48.9922 676.53C45.804 671.657 43.6355 666.188 42.6172 660.454" stroke="#171717" stroke-width="3.619" stroke-linecap="round" stroke-linejoin="round"/>
<path d="M697.766 374.291L690.955 369.182" stroke="#171717" stroke-width="3.619" stroke-linecap="round" stroke-linejoin="round"/>
<path d="M690.832 377.6L698.178 368.82" stroke="#171717" stroke-width="3.619" stroke-linecap="round" stroke-linejoin="round"/>
<path d="M751.588 258.385L744.734 246.485" stroke="#171717" stroke-width="3.619" stroke-linecap="round" stroke-linejoin="round"/>
<path d="M740.326 258.471L756.388 244.712" stroke="#171717" stroke-width="3.619" stroke-linecap="round" stroke-linejoin="round"/>
<path d="M639.014 150.349L662.161 138.455L661.09 139.17" stroke="#171717" stroke-width="3.619" stroke-linecap="round" stroke-linejoin="round"/>
<path d="M616.891 136.733C627.15 114.551 638.914 93.0958 652.1 72.5181" stroke="#171717" stroke-width="3.619" stroke-linecap="round" stroke-linejoin="round"/>
<path d="M593.033 127.359L592.182 110.33" stroke="#171717" stroke-width="3.619" stroke-linecap="round" stroke-linejoin="round"/>
<path d="M748.188 748.815C790.925 728.932 820.261 683.115 820.436 635.98" stroke="white" stroke-width="3.619" stroke-linecap="round" stroke-linejoin="round"/>
<g opacity="0.1">
<path d="M551.03 262.189C547.071 257.498 539.923 254.802 534.619 251.869C528.696 248.594 522.701 245.422 516.888 241.954C513.799 240.112 508.277 241.617 507.721 245.684C505.721 260.29 496.512 272.632 484.186 280.591C469.786 289.891 452.386 293.126 435.666 295.365C431.502 295.922 427.885 298.542 427.885 303.146C427.885 306.946 431.467 311.446 435.666 310.927C455.79 308.427 476.884 304.533 493.814 292.608C508.714 282.115 519.714 266.082 519.979 247.343L510.589 252.731C517.127 255.552 523.523 258.715 529.969 261.742C535.656 264.413 541.908 268.442 548.245 268.911C551.95 269.187 553.033 264.563 551.03 262.189V262.189Z" fill="#171717"/>
</g>
<g opacity="0.1">
<path d="M424.113 444.705C407.737 453.233 403.313 480.523 409.261 496.563L418.789 487.035C395.555 481.448 371.78 477.163 347.819 476.985C326.736 476.925 305.741 479.723 285.409 485.302C240.93 497.311 204.409 529.946 174.873 564.027C159.668 581.543 146.036 600.366 134.138 620.278C122.097 640.478 112.23 661.937 102.86 683.478C97.86 694.978 93.104 706.706 90.211 718.944C87.7448 730.077 86.5541 741.456 86.662 752.859C86.546 774.5 90.694 796.223 103.631 814.044C135.778 858.33 194.131 876.752 246.442 879.901C250.277 880.132 250.562 874.708 247.302 873.548C236.202 869.596 225.164 865.784 213.777 862.731C202.508 859.83 191.514 855.948 180.922 851.131C161.086 842.05 143.015 829.529 127.545 814.147C113.46 799.926 106.22 782.547 105.136 762.647C104.597 752.74 104.595 742.355 106.092 732.534C107.807 721.277 111.427 710.3 115.564 699.726C131.37 659.326 151.829 620.108 179.052 586.201C192.473 569.394 207.351 553.805 223.514 539.616C239.028 526.076 256.445 513.792 275.732 506.265C320.262 488.886 368.889 491.965 414.671 501.973C419.853 503.105 426.522 498.331 424.2 492.444C419.227 479.839 421.762 461.231 429.564 450.155C432.014 446.677 427.364 443.008 424.113 444.704V444.705Z" fill="#171717"/>
</g>
<g opacity="0.1">
<path d="M622.173 861.484C630.773 863.737 639.819 862.718 648.629 862.127C657.723 861.517 666.815 860.941 675.907 860.28C694.353 858.939 712.807 857.44 731.194 855.398C748.556 853.47 765.871 851.166 782.809 846.82C791.203 844.666 799.389 842.099 807.555 839.21C815.673 836.338 824.685 834.494 830.686 828.028C831.289 827.388 831.694 826.589 831.852 825.725C832.011 824.861 831.916 823.969 831.58 823.157C831.244 822.346 830.68 821.649 829.957 821.15C829.234 820.651 828.382 820.372 827.504 820.346C818.97 819.802 811.164 823.985 802.951 825.985C794.564 828.027 786.051 829.724 777.542 831.192C760.942 834.057 744.266 836.58 727.511 838.36C709.686 840.254 691.802 841.46 673.957 843.13C664.771 843.988 655.615 845.055 646.491 846.33C637.761 847.53 628.763 848.669 621.091 853.176C620.34 853.642 619.739 854.315 619.36 855.114C618.981 855.913 618.84 856.804 618.955 857.681C619.069 858.558 619.434 859.383 620.006 860.058C620.577 860.733 621.331 861.228 622.177 861.486L622.173 861.484Z" fill="#171717"/>
</g>
</g>
<defs>
<linearGradient id="paint0_linear_177_156" x1="502.754" y1="443.815" x2="502.754" y2="888.122" gradientUnits="userSpaceOnUse">
<stop stop-color="#FFB800"/>
<stop offset="1" stop-color="#FF7F0A"/>
</linearGradient>
<linearGradient id="paint1_linear_177_156" x1="745.939" y1="615.158" x2="745.939" y2="662.078" gradientUnits="userSpaceOnUse">
<stop stop-color="#FFB800"/>
<stop offset="1" stop-color="#FF7F0A"/>
</linearGradient>
<linearGradient id="paint2_linear_177_156" x1="698.639" y1="510.996" x2="698.639" y2="640.645" gradientUnits="userSpaceOnUse">
<stop stop-color="#FFB800"/>
<stop offset="1" stop-color="#FF7F0A"/>
</linearGradient>
<linearGradient id="paint3_linear_177_156" x1="640.326" y1="634.216" x2="640.326" y2="668.409" gradientUnits="userSpaceOnUse">
<stop stop-color="#FFB800"/>
<stop offset="1" stop-color="#FF7F0A"/>
</linearGradient>
<linearGradient id="paint4_linear_177_156" x1="622.683" y1="545.081" x2="622.683" y2="585.129" gradientUnits="userSpaceOnUse">
<stop stop-color="#FFB800"/>
<stop offset="1" stop-color="#FF7F0A"/>
</linearGradient>
<linearGradient id="paint5_linear_177_156" x1="559.227" y1="596.176" x2="559.227" y2="668.268" gradientUnits="userSpaceOnUse">
<stop stop-color="#FFB800"/>
<stop offset="1" stop-color="#FF7F0A"/>
</linearGradient>
<linearGradient id="paint6_linear_177_156" x1="541.854" y1="601.14" x2="541.854" y2="634.043" gradientUnits="userSpaceOnUse">
<stop stop-color="#FFB800"/>
<stop offset="1" stop-color="#FF7F0A"/>
</linearGradient>
<linearGradient id="paint7_linear_177_156" x1="498.7" y1="597.438" x2="498.7" y2="667.227" gradientUnits="userSpaceOnUse">
<stop stop-color="#FFB800"/>
<stop offset="1" stop-color="#FF7F0A"/>
</linearGradient>
<linearGradient id="paint8_linear_177_156" x1="523.302" y1="605.94" x2="523.302" y2="639.179" gradientUnits="userSpaceOnUse">
<stop stop-color="#FFB800"/>
<stop offset="1" stop-color="#FF7F0A"/>
</linearGradient>
<linearGradient id="paint9_linear_177_156" x1="467.184" y1="574.224" x2="467.184" y2="612.271" gradientUnits="userSpaceOnUse">
<stop stop-color="#FFB800"/>
<stop offset="1" stop-color="#FF7F0A"/>
</linearGradient>
<linearGradient id="paint10_linear_177_156" x1="467.948" y1="746.795" x2="467.948" y2="789.605" gradientUnits="userSpaceOnUse">
<stop stop-color="#FFB800"/>
<stop offset="1" stop-color="#FF7F0A"/>
</linearGradient>
<clipPath id="clip0_177_156">
<rect width="885" height="820" fill="white" transform="translate(38 70)"/>
</clipPath>
</defs>
</svg>
