<svg width="960" height="960" viewBox="0 0 960 960" fill="none" xmlns="http://www.w3.org/2000/svg">
<g clip-path="url(#clip0_283_1343)">
<path d="M717.616 260.128C720.349 253.275 722.892 246.769 725.245 240.611C727.656 234.336 734.679 221.15 729.715 212.125C732.169 216.425 745.415 239.737 747.808 247.253C750.459 255.545 745.82 269.153 745.82 269.153C745.82 269.153 491.729 817.442 472.9 848.988C454.711 879.491 421.12 867.194 416 866C327.157 845.425 117.36 799.227 91.821 792.923C66.607 786.704 66.438 775.944 66.438 775.662L61 746.508C63.087 752.685 68.827 758.284 80.87 762.232C117.37 774.177 401.396 839.201 401.396 839.201C401.396 839.201 444.534 853.148 463.783 820.629C468.79 812.182 484.824 779.465 506.851 732.956C566.286 607.5 669.4 381.6 717.616 260.128Z" fill="#171717"/>
<path d="M729.715 212.125C734.679 221.15 727.656 234.336 725.245 240.611C722.89 246.759 720.347 253.265 717.616 260.128L325.465 211.434C329.665 203.805 332.911 198.164 335.041 194.822C359.592 156.337 410.684 166.956 410.684 166.956L706 202.789C719.468 203.089 726.322 206.625 729.368 211.518C729.419 211.617 729.546 211.829 729.715 212.125ZM584.323 217.187C584.519 215.716 584.122 214.226 583.22 213.047C582.318 211.868 580.985 211.095 579.514 210.898L525.743 203.664C525.495 203.631 525.245 203.612 524.995 203.607C523.568 203.597 522.19 204.132 521.145 205.104C520.099 206.075 519.463 207.409 519.368 208.833C519.272 210.257 519.724 211.664 520.631 212.766C521.538 213.868 522.832 214.582 524.248 214.762L578.019 222C578.267 222.033 578.517 222.052 578.767 222.057C580.125 222.052 581.435 221.557 582.456 220.662C583.477 219.767 584.14 218.533 584.323 217.187V217.187ZM498.523 204.326C498.782 202.399 498.464 200.438 497.609 198.692C496.754 196.945 495.4 195.492 493.719 194.514C492.038 193.537 490.105 193.081 488.164 193.202C486.223 193.324 484.362 194.018 482.816 195.198C481.27 196.377 480.108 197.988 479.478 199.828C478.847 201.667 478.776 203.652 479.274 205.532C479.772 207.412 480.816 209.102 482.274 210.388C483.733 211.675 485.54 212.5 487.467 212.759C490.051 213.105 492.667 212.411 494.741 210.83C496.814 209.249 498.175 206.91 498.526 204.326H498.523Z" fill="url(#paint0_linear_283_1343)"/>
<path d="M579.514 210.9C580.93 211.08 582.223 211.794 583.13 212.896C584.037 213.998 584.49 215.405 584.394 216.829C584.299 218.253 583.663 219.587 582.617 220.558C581.572 221.53 580.194 222.065 578.767 222.055C578.517 222.049 578.267 222.03 578.019 221.998L524.248 214.764C522.828 214.588 521.53 213.875 520.619 212.771C519.708 211.668 519.254 210.257 519.351 208.83C519.447 207.402 520.086 206.066 521.136 205.095C522.187 204.123 523.569 203.591 525 203.607C525.25 203.611 525.5 203.63 525.748 203.664L579.514 210.9Z" fill="#171717"/>
<path d="M101.779 650.91L506.846 732.956C484.819 779.465 468.785 812.182 463.778 820.629C444.529 853.148 401.391 839.201 401.391 839.201C401.391 839.201 117.361 774.177 80.8649 762.232C68.8219 758.284 63.0819 752.685 60.9949 746.508C56.7649 733.986 67.6659 719.136 71.6559 711.126C80.1179 694.2 90.3419 673.77 101.779 650.91ZM302.8 756.676C309.09 738.569 300.347 719.076 283.255 713.143C266.163 707.21 247.224 717.063 240.935 735.156C234.646 753.249 243.388 772.756 260.466 778.689C277.544 784.622 296.514 774.769 302.8 756.676Z" fill="url(#paint1_linear_283_1343)"/>
<path d="M490.093 193.27C492.02 193.53 493.827 194.355 495.285 195.641C496.744 196.927 497.788 198.617 498.286 200.497C498.783 202.377 498.713 204.362 498.082 206.202C497.452 208.041 496.29 209.652 494.744 210.832C493.198 212.011 491.337 212.705 489.396 212.827C487.455 212.949 485.522 212.492 483.841 211.515C482.16 210.538 480.806 209.084 479.951 207.338C479.096 205.591 478.778 203.63 479.037 201.703C479.388 199.12 480.748 196.781 482.821 195.2C484.894 193.619 487.509 192.925 490.093 193.27V193.27Z" fill="#171717"/>
<path d="M283.258 713.143C300.35 719.08 309.093 738.569 302.803 756.676C296.513 774.783 277.561 784.626 260.469 778.689C243.377 772.752 234.648 753.263 240.938 735.156C247.228 717.049 266.18 707.206 283.258 713.143Z" fill="url(#paint2_linear_283_1343)"/>
<path d="M729.363 211.518C726.317 206.625 719.463 203.085 705.995 202.789L410.684 166.956C410.684 166.956 359.592 156.337 335.041 194.822C332.911 198.164 329.668 203.805 325.465 211.434C287.5 280.421 171.8 510.976 101.779 650.91C90.3419 673.77 80.1179 694.204 71.6559 711.126C67.6659 719.136 56.7649 733.986 60.9949 746.508C63.0819 752.685 68.8219 758.284 80.8649 762.232C117.365 774.177 401.391 839.201 401.391 839.201C401.391 839.201 444.529 853.148 463.778 820.629C468.785 812.182 484.819 779.465 506.846 732.956C566.286 607.5 669.4 381.6 717.616 260.128C720.349 253.275 722.892 246.769 725.245 240.611C727.656 234.336 734.679 221.15 729.715 212.125" stroke="#171717" stroke-width="4.231" stroke-linecap="round" stroke-linejoin="round"/>
<path d="M61 746.508L66.444 775.657C66.444 775.939 66.613 786.699 91.827 792.918C117.361 799.222 327.158 845.42 416 866C421.119 867.2 454.71 879.5 472.9 848.993C491.729 817.442 745.82 269.154 745.82 269.154C745.82 269.154 750.459 255.545 747.808 247.254C745.408 239.738 732.169 216.427 729.715 212.126C729.546 211.826 729.415 211.618 729.363 211.519L729.32 211.435" stroke="#171717" stroke-width="4.231" stroke-linecap="round" stroke-linejoin="round"/>
<path d="M101.779 650.91L506.846 732.956" stroke="#171717" stroke-width="4.231" stroke-linecap="round" stroke-linejoin="round"/>
<path d="M325.465 211.434L717.616 260.128H717.63" stroke="#171717" stroke-width="4.231" stroke-linecap="round" stroke-linejoin="round"/>
<path d="M302.8 756.676C296.511 774.769 277.558 784.626 260.466 778.689C243.374 772.752 234.645 753.263 240.935 735.156C247.225 717.049 266.177 707.206 283.255 713.143C300.333 719.08 309.093 738.569 302.8 756.676Z" stroke="#171717" stroke-width="4.231" stroke-linecap="round" stroke-linejoin="round"/>
<path d="M498.526 204.326C498.267 206.254 497.442 208.061 496.155 209.519C494.869 210.977 493.179 212.021 491.299 212.519C489.42 213.017 487.434 212.946 485.595 212.316C483.755 211.685 482.144 210.524 480.965 208.977C479.785 207.431 479.091 205.57 478.969 203.629C478.848 201.689 479.304 199.755 480.282 198.074C481.259 196.393 482.712 195.039 484.459 194.184C486.205 193.329 488.166 193.011 490.093 193.27C491.373 193.442 492.607 193.864 493.724 194.513C494.841 195.161 495.818 196.023 496.602 197.05C497.385 198.077 497.958 199.248 498.288 200.497C498.619 201.745 498.699 203.047 498.526 204.326Z" stroke="#171717" stroke-width="4.231" stroke-linecap="round" stroke-linejoin="round"/>
<path d="M578.019 222L524.248 214.766C522.824 214.594 521.521 213.883 520.606 212.778C519.692 211.674 519.236 210.261 519.332 208.83C519.428 207.399 520.07 206.06 521.124 205.088C522.179 204.117 523.566 203.586 525 203.607C525.25 203.612 525.5 203.631 525.748 203.664L579.519 210.898C580.935 211.078 582.228 211.792 583.135 212.894C584.042 213.996 584.494 215.403 584.399 216.827C584.303 218.251 583.668 219.585 582.622 220.557C581.576 221.528 580.199 222.063 578.772 222.053C578.52 222.049 578.269 222.031 578.019 222Z" stroke="#171717" stroke-width="4.231" stroke-linecap="round" stroke-linejoin="round"/>
<path d="M70.9222 821.6C66.4677 821.635 62.0587 820.702 57.9999 818.867C53.9411 817.031 50.3292 814.336 47.414 810.968C44.4988 807.6 42.3497 803.639 41.1152 799.358C39.8808 795.078 39.5904 790.581 40.2642 786.178" stroke="#171717" stroke-width="4.231" stroke-linecap="round" stroke-linejoin="round"/>
<path d="M442.208 898.959C456.24 900.311 470.32 896.916 482.193 889.317C494.067 881.719 503.049 870.357 507.7 857.05" stroke="#171717" stroke-width="4.231" stroke-linecap="round" stroke-linejoin="round"/>
<path d="M177.509 369.183C161.458 374.007 150.65 389.668 146.44 405.892C142.23 422.116 143.37 439.165 143.646 455.924C143.922 472.683 143.153 490.08 135.599 505.042C132.22 511.735 127.332 517.942 120.651 521.342C113.97 524.742 105.304 524.842 99.3587 520.276C93.4137 515.71 91.5267 506.1 96.3837 500.389C102.529 493.164 115.795 496.482 119.929 505.019C124.063 513.556 120.529 524.264 113.848 530.992C107.167 537.72 97.9697 541.26 88.9327 544.138C79.8957 547.016 70.5477 549.5 62.6177 554.7C54.6877 559.9 48.2617 568.544 48.5997 578.023C49.2177 595.607 71.7567 608.451 68.1137 625.665C65.6407 637.355 48.7977 642.823 39.9287 634.815" stroke="#171717" stroke-width="4.231" stroke-linecap="round" stroke-linejoin="round"/>
<path d="M769.167 471.206C752.268 492.976 739.205 517.467 730.54 543.628C727.221 553.661 724.54 564.128 725.205 574.678C725.87 585.228 730.332 595.955 738.922 602.11C747.512 608.265 760.513 608.586 768.122 601.25C775.731 593.914 774.827 579.104 765.464 574.204C755.723 569.104 743.237 576.759 739.137 586.96C735.037 597.161 736.871 608.66 738.722 619.496C741.889 638.036 744.932 656.959 742.19 675.567C739.448 694.175 729.969 712.739 713.519 721.857C707.539 725.172 700.501 727.15 693.819 725.684C687.137 724.218 681.112 718.666 680.6 711.848" stroke="#171717" stroke-width="4.231" stroke-linecap="round" stroke-linejoin="round"/>
<path d="M695.052 666L687.089 647.087" stroke="#171717" stroke-width="4.231" stroke-linecap="round" stroke-linejoin="round"/>
<path d="M677.161 663.082L702.149 653.392" stroke="#171717" stroke-width="4.231" stroke-linecap="round" stroke-linejoin="round"/>
<path d="M806.4 549.573L800.465 528.658" stroke="#171717" stroke-width="4.231" stroke-linecap="round" stroke-linejoin="round"/>
<path d="M790.447 546.1L820.547 534.794" stroke="#171717" stroke-width="4.231" stroke-linecap="round" stroke-linejoin="round"/>
<path d="M375.371 126.725C354.109 119.533 329.476 124.613 311.871 138.532C294.266 152.451 283.755 174.505 282.548 196.918C282.064 205.885 282.972 214.881 282.576 223.853C282.18 232.825 280.329 242.066 275 249.3C269.671 256.534 260.238 261.25 251.548 258.981C242.858 256.712 236.748 246.059 240.865 238.081C243.592 232.794 251.112 230.059 255.911 233.575C260.71 237.091 259.041 246.528 253.122 247.121" stroke="#171717" stroke-width="4.231" stroke-linecap="round" stroke-linejoin="round"/>
<path d="M275.575 142.4L272.588 123.474" stroke="#171717" stroke-width="4.93" stroke-linecap="round" stroke-linejoin="round"/>
<path d="M264.785 135.018L285.619 126.586" stroke="#171717" stroke-width="4.93" stroke-linecap="round" stroke-linejoin="round"/>
<path d="M211.45 211.877L200.443 201.986" stroke="#171717" stroke-width="4.231" stroke-linecap="round" stroke-linejoin="round"/>
<path d="M198.365 216.079C201.629 209.428 206.345 203.596 212.165 199.014" stroke="#171717" stroke-width="4.231" stroke-linecap="round" stroke-linejoin="round"/>
<path d="M398.411 78.6897L396.567 60.8896L397.416 63.7626" stroke="#171717" stroke-width="4.231" stroke-linecap="round" stroke-linejoin="round"/>
<path d="M729.065 138.406L728.108 123.472" stroke="#171717" stroke-width="4.231" stroke-linecap="round" stroke-linejoin="round"/>
<path d="M719.918 132.289L735.83 130.189" stroke="#171717" stroke-width="4.231" stroke-linecap="round" stroke-linejoin="round"/>
<path d="M758.269 184.453C764.546 171.622 771.355 159.07 778.696 146.796" stroke="#171717" stroke-width="4.231" stroke-linecap="round" stroke-linejoin="round"/>
<path d="M788.605 237.914L919.924 185.952" stroke="#171717" stroke-width="4.231" stroke-linecap="round" stroke-linejoin="round"/>
<path d="M777.725 304.532C791.742 310.402 805.07 317.799 817.466 326.589" stroke="#171717" stroke-width="4.231" stroke-linecap="round" stroke-linejoin="round"/>
<path d="M646.183 327.213L640.238 312.349" stroke="#171717" stroke-width="4.212" stroke-linecap="round" stroke-linejoin="round"/>
<path d="M535.419 306.359L550.255 298.87" stroke="#171717" stroke-width="4.212" stroke-linecap="round" stroke-linejoin="round"/>
<path d="M583.751 388.9L578.551 376.264" stroke="#171717" stroke-width="4.212" stroke-linecap="round" stroke-linejoin="round"/>
<path d="M461.116 310.119L452.941 293.768" stroke="#171717" stroke-width="4.212" stroke-linecap="round" stroke-linejoin="round"/>
<path d="M357.679 312.832L371.717 305.973" stroke="#171717" stroke-width="4.212" stroke-linecap="round" stroke-linejoin="round"/>
<path d="M353.346 262.551L348.146 246.943" stroke="#171717" stroke-width="4.212" stroke-linecap="round" stroke-linejoin="round"/>
<path d="M296.447 368.683L288.947 352.361" stroke="#171717" stroke-width="4.212" stroke-linecap="round" stroke-linejoin="round"/>
<path d="M239.553 438.559L252.086 431.685" stroke="#171717" stroke-width="4.212" stroke-linecap="round" stroke-linejoin="round"/>
<path d="M220.535 538.194L212.147 518.963" stroke="#171717" stroke-width="4.212" stroke-linecap="round" stroke-linejoin="round"/>
<path d="M319.6 639.225L314.076 622.983" stroke="#171717" stroke-width="4.212" stroke-linecap="round" stroke-linejoin="round"/>
<path d="M410.508 632.579L422.371 625.1" stroke="#171717" stroke-width="4.212" stroke-linecap="round" stroke-linejoin="round"/>
<path d="M460.447 697.31L453.841 684.631" stroke="#171717" stroke-width="4.212" stroke-linecap="round" stroke-linejoin="round"/>
<path d="M498.953 588.687L511.603 582.774" stroke="#171717" stroke-width="4.212" stroke-linecap="round" stroke-linejoin="round"/>
<path d="M549.562 556.875L541.386 541.267" stroke="#171717" stroke-width="4.212" stroke-linecap="round" stroke-linejoin="round"/>
<path d="M561.355 476.416L574.016 469.774" stroke="#171717" stroke-width="4.212" stroke-linecap="round" stroke-linejoin="round"/>
<path d="M612.738 446.875L607.538 432.754" stroke="#171717" stroke-width="4.212" stroke-linecap="round" stroke-linejoin="round"/>
<path d="M491.5 269.107L501.937 261.721" stroke="#171717" stroke-width="4.212" stroke-linecap="round" stroke-linejoin="round"/>
<path d="M389.047 73.0939L405.436 67.2559" stroke="#171717" stroke-width="4.231" stroke-linecap="round" stroke-linejoin="round"/>
<path d="M687.741 366.013L713.879 312.75" stroke="url(#paint3_linear_283_1343)" stroke-width="4.212" stroke-linecap="round" stroke-linejoin="round"/>
<path d="M653.207 446.485C663.158 426.304 672.456 405.817 681.099 385.025" stroke="url(#paint4_linear_283_1343)" stroke-width="4.212" stroke-linecap="round" stroke-linejoin="round"/>
<path d="M183.053 597.3L200.474 589.8" stroke="#171717" stroke-width="4.212" stroke-linecap="round" stroke-linejoin="round"/>
<path d="M240.8 645.367C237.638 640.445 234.174 635.725 230.427 631.232" stroke="#171717" stroke-width="4.212" stroke-linecap="round" stroke-linejoin="round"/>
<path d="M119.506 434.682L116.52 415.755" stroke="#171717" stroke-width="4.93" stroke-linecap="round" stroke-linejoin="round"/>
<path d="M108.717 427.3L129.551 418.869" stroke="#171717" stroke-width="4.93" stroke-linecap="round" stroke-linejoin="round"/>
<path d="M744.22 443.989L751.013 449.743C751.218 449.916 751.366 450.149 751.435 450.408C751.504 450.668 751.492 450.943 751.4 451.195C751.309 451.448 751.142 451.667 750.922 451.821C750.702 451.976 750.44 452.06 750.171 452.061L741.271 452.106C741.011 452.107 740.758 452.186 740.542 452.331C740.327 452.476 740.159 452.682 740.061 452.923L736.688 461.162C736.586 461.41 736.411 461.622 736.185 461.768C735.959 461.913 735.694 461.987 735.426 461.977C735.157 461.968 734.898 461.877 734.683 461.716C734.468 461.555 734.308 461.332 734.223 461.077L731.429 452.624C731.348 452.377 731.195 452.159 730.99 451.999C730.785 451.839 730.537 451.743 730.278 451.724L721.4 451.062C721.132 451.042 720.877 450.94 720.668 450.77C720.46 450.601 720.309 450.371 720.235 450.113C720.16 449.855 720.167 449.58 720.254 449.326C720.341 449.071 720.503 448.85 720.72 448.691L727.895 443.422C728.105 443.268 728.264 443.056 728.353 442.812C728.442 442.567 728.457 442.302 728.395 442.05L726.281 433.402C726.217 433.141 726.235 432.867 726.332 432.616C726.429 432.366 726.6 432.151 726.823 432.001C727.045 431.85 727.309 431.772 727.577 431.776C727.846 431.779 728.107 431.865 728.325 432.022L735.554 437.222C735.765 437.373 736.016 437.459 736.276 437.468C736.535 437.477 736.792 437.409 737.013 437.273L744.585 432.589C744.814 432.448 745.08 432.38 745.348 432.395C745.616 432.409 745.874 432.506 746.085 432.671C746.297 432.836 746.453 433.063 746.532 433.319C746.612 433.576 746.611 433.851 746.529 434.107L743.821 442.588C743.742 442.835 743.737 443.099 743.808 443.349C743.879 443.598 744.023 443.821 744.22 443.989V443.989Z" fill="#171717"/>
<path d="M673.769 149.171L667.378 162.263C667.186 162.658 666.877 162.984 666.493 163.199C666.109 163.413 665.669 163.504 665.232 163.461C664.794 163.417 664.381 163.241 664.047 162.955C663.713 162.669 663.474 162.288 663.363 161.863L659.707 147.763C659.6 147.351 659.374 146.981 659.057 146.698C658.739 146.415 658.345 146.232 657.924 146.173L643.5 144.135C643.065 144.074 642.659 143.88 642.336 143.581C642.014 143.282 641.791 142.891 641.697 142.461C641.604 142.032 641.645 141.584 641.814 141.178C641.983 140.772 642.272 140.427 642.643 140.191L654.925 132.356C655.284 132.127 655.566 131.798 655.737 131.408C655.908 131.019 655.96 130.588 655.886 130.17L653.361 115.822C653.285 115.389 653.343 114.942 653.528 114.543C653.713 114.144 654.016 113.812 654.396 113.59C654.775 113.368 655.214 113.268 655.653 113.304C656.091 113.339 656.508 113.508 656.847 113.788L668.094 123.048C668.423 123.318 668.824 123.485 669.247 123.528C669.67 123.57 670.096 123.486 670.471 123.287L683.336 116.452C683.725 116.245 684.167 116.163 684.603 116.216C685.04 116.268 685.45 116.454 685.778 116.746C686.106 117.039 686.336 117.425 686.438 117.853C686.54 118.281 686.508 118.73 686.347 119.139L681.015 132.7C680.86 133.095 680.825 133.528 680.915 133.944C681.005 134.359 681.217 134.738 681.522 135.034L692 145.154C692.317 145.459 692.532 145.854 692.616 146.286C692.701 146.717 692.652 147.164 692.475 147.567C692.298 147.969 692.001 148.308 691.626 148.537C691.251 148.766 690.814 148.874 690.375 148.848L675.833 147.968C675.409 147.942 674.986 148.042 674.619 148.256C674.251 148.47 673.956 148.789 673.769 149.171V149.171Z" fill="#171717"/>
<path d="M151.661 326.908L154.561 335.884C154.65 336.156 154.654 336.449 154.571 336.723C154.488 336.997 154.323 337.239 154.098 337.416C153.872 337.592 153.598 337.695 153.312 337.71C153.026 337.725 152.742 337.652 152.5 337.5L144.464 332.564C144.229 332.419 143.957 332.348 143.682 332.358C143.407 332.369 143.141 332.46 142.918 332.622L135.277 338.151C135.046 338.317 134.77 338.409 134.485 338.414C134.201 338.419 133.922 338.337 133.685 338.178C133.449 338.02 133.267 337.793 133.163 337.528C133.06 337.263 133.04 336.972 133.107 336.696L135.318 327.527C135.382 327.259 135.366 326.979 135.271 326.72C135.176 326.462 135.007 326.238 134.785 326.076L127.166 320.517C126.936 320.349 126.763 320.115 126.67 319.845C126.577 319.576 126.569 319.285 126.647 319.011C126.724 318.737 126.884 318.494 127.104 318.314C127.325 318.133 127.595 318.025 127.879 318.003L137.279 317.273C137.553 317.251 137.815 317.149 138.031 316.979C138.247 316.809 138.409 316.579 138.495 316.318L141.427 307.353C141.515 307.082 141.684 306.845 141.911 306.674C142.139 306.502 142.413 306.404 142.697 306.394C142.982 306.383 143.263 306.459 143.502 306.613C143.742 306.766 143.929 306.99 144.038 307.253L147.638 315.97C147.743 316.224 147.921 316.442 148.15 316.595C148.378 316.748 148.647 316.83 148.923 316.831L158.354 316.85C158.638 316.85 158.916 316.938 159.149 317.102C159.382 317.265 159.559 317.496 159.658 317.763C159.756 318.03 159.769 318.321 159.697 318.596C159.625 318.871 159.47 319.118 159.254 319.303L152.076 325.42C151.867 325.599 151.717 325.836 151.643 326.101C151.569 326.366 151.575 326.646 151.661 326.908Z" fill="#171717"/>
<path fill-rule="evenodd" clip-rule="evenodd" d="M524.994 391.921C554.931 438.136 525.393 510.456 459.019 553.451C392.645 596.446 314.57 593.835 284.633 547.62C254.696 501.405 284.234 429.085 350.608 386.09C416.982 343.095 495.057 345.705 524.994 391.921ZM491.854 427.509C497.777 430.069 500.536 435.844 499.054 442.569C496.375 454.76 483.892 479.354 483.892 479.354C483.892 479.354 471.407 503.952 462.118 515.342C456.894 521.685 449.487 525.847 441.352 527.013C427.415 528.678 377.958 522.684 377.958 522.684C377.958 522.684 328.502 516.691 317.771 512.038C311.848 509.478 309.089 503.702 310.571 496.978C313.25 484.788 325.735 460.188 325.735 460.188C325.735 460.188 338.219 435.591 347.508 424.201C352.734 417.859 360.139 413.698 368.273 412.534C382.21 410.868 431.667 416.862 431.667 416.862C431.667 416.862 481.123 422.855 491.854 427.509ZM400.506 445.182L377.488 490.536L430.085 472.838L400.506 445.182Z" fill="#171717"/>
</g>
<defs>
<linearGradient id="paint0_linear_283_1343" x1="528.457" y1="165.613" x2="528.457" y2="260.128" gradientUnits="userSpaceOnUse">
<stop stop-color="#FFB800"/>
<stop offset="1" stop-color="#FF7F0A"/>
</linearGradient>
<linearGradient id="paint1_linear_283_1343" x1="283.441" y1="650.91" x2="283.441" y2="842.175" gradientUnits="userSpaceOnUse">
<stop stop-color="#FFB800"/>
<stop offset="1" stop-color="#FF7F0A"/>
</linearGradient>
<linearGradient id="paint2_linear_283_1343" x1="271.87" y1="711.414" x2="271.87" y2="780.418" gradientUnits="userSpaceOnUse">
<stop stop-color="#FFB800"/>
<stop offset="1" stop-color="#FF7F0A"/>
</linearGradient>
<linearGradient id="paint3_linear_283_1343" x1="700.81" y1="312.75" x2="700.81" y2="366.013" gradientUnits="userSpaceOnUse">
<stop stop-color="#FFB800"/>
<stop offset="1" stop-color="#FF7F0A"/>
</linearGradient>
<linearGradient id="paint4_linear_283_1343" x1="667.153" y1="385.025" x2="667.153" y2="446.485" gradientUnits="userSpaceOnUse">
<stop stop-color="#FFB800"/>
<stop offset="1" stop-color="#FF7F0A"/>
</linearGradient>
<clipPath id="clip0_283_1343">
<rect width="886" height="844" fill="white" transform="translate(37 58)"/>
</clipPath>
</defs>
</svg>
